<svg width="19" height="19" viewBox="0 0 19 19" fill="none" xmlns="http://www.w3.org/2000/svg">
<path fill-rule="evenodd" clip-rule="evenodd" d="M2.78491 4.15955C2.78491 4.15955 2.7517 3.28872 3.3044 2.1619C3.69429 1.36498 5.21207 0.924755 5.21207 0.924755C5.21207 0.924755 5.86117 0.759799 7.1658 2.01944C7.68437 2.49946 8.01415 3.14913 8.09554 3.85107C8.14267 4.4916 6.77698 5.85728 6.77698 5.85728C6.88268 6.6414 7.21007 7.37905 7.72065 7.98348C8.25728 8.60794 9.18166 9.58159 9.66687 10.0368C10.0825 10.4267 10.5463 10.9355 11.1632 11.3447C12.3768 12.1491 12.6682 12.0762 12.6682 12.0762C12.6682 12.0762 14.397 10.6281 14.9143 10.6784C15.3074 10.7181 15.8644 10.9773 16.5767 11.5846C17.1058 12.0345 17.4443 12.3751 17.71 12.8292C17.8045 12.9861 17.879 13.1541 17.9317 13.3295C17.9317 13.3295 18.0013 14.0482 16.8852 15.1922C15.7744 16.3286 14.2427 16.0308 14.2427 16.0308C14.2427 16.0308 13.3622 15.9002 11.9216 15.2222C10.3265 14.4443 8.87318 13.4045 7.62209 12.1459C6.45456 10.9398 4.92393 9.09422 4.1795 7.80994C3.24226 6.19575 2.78491 4.15955 2.78491 4.15955Z" fill="#008DF4"/>
</svg>
