<svg width="134" height="88" viewBox="0 0 134 88" fill="none" xmlns="http://www.w3.org/2000/svg">
<path d="M31.1043 0C13.9491 0 0 14.2511 0 31.7778C0 47.3489 10.9344 60.4756 25.7687 63.0911C26.5822 74.2867 17.538 83.7222 17.4423 83.82C16.6767 84.6267 16.5092 85.8244 17.0595 86.7778C17.5141 87.56 18.3037 88 19.1411 88C19.3325 88 19.5479 87.9756 19.7632 87.9022C63.1896 75.5822 62.2804 34.0022 62.2086 31.7289C62.1608 14.2267 48.2356 0 31.1043 0Z" fill="#DCF2FF"/>
<path d="M133.988 31.7289C133.94 14.2267 120.015 0 102.883 0C85.7282 0 71.7792 14.2511 71.7792 31.7778C71.7792 47.3489 82.7135 60.4756 97.5479 63.0911C98.3614 74.2867 89.3172 83.7222 89.2215 83.82C88.4558 84.6267 88.2884 85.8244 88.8387 86.7778C89.2933 87.56 90.0828 88 90.9203 88C91.1117 88 91.327 87.9756 91.5423 87.9022C134.969 75.5822 134.06 34.0022 133.988 31.7289Z" fill="#DCF2FF"/>
</svg>
