<svg width="16" height="17" viewBox="0 0 16 17" fill="none" xmlns="http://www.w3.org/2000/svg">
<path d="M12.293 10.4658L15.7442 7.29747C16.2325 6.84753 15.9799 5.9664 15.3402 5.9289L10.8957 5.62894C10.6263 5.61019 10.3906 5.42272 10.2896 5.14151L8.65658 0.492122C8.42088 -0.164041 7.59595 -0.164041 7.36026 0.492122L5.72724 5.12276C5.62623 5.40397 5.39053 5.59145 5.12117 5.61019L0.659819 5.91015C0.020078 5.94765 -0.232451 6.82878 0.255772 7.27872L3.707 10.4283C3.90903 10.6158 4.01004 10.9345 3.9427 11.2157L2.81473 16.0338C2.66322 16.7087 3.31979 17.2524 3.85852 16.8775L7.61279 14.1966C7.84848 14.0278 8.13468 14.0278 8.35354 14.1966L12.1246 16.8775C12.6634 17.2524 13.3199 16.7087 13.1684 16.0338L12.0405 11.2345C11.99 10.9532 12.0741 10.6533 12.293 10.4658Z" fill="#828282"/>
</svg>
