<svg width="34" height="34" viewBox="0 0 34 34" fill="none" xmlns="http://www.w3.org/2000/svg">
<rect width="33.1012" height="33.5203" fill="white"/>
<path fill-rule="evenodd" clip-rule="evenodd" d="M18.3659 8.85735H19.5691V12.7674C19.5691 13.2854 19.5361 13.82 20.1708 13.82C20.5693 13.82 20.622 13.4321 20.622 12.617V8.85735H21.8252V14.572H20.622V14.2712L20.1708 14.1208C20.109 14.2936 20.0057 14.4485 19.87 14.572C19.7395 14.6691 19.5814 14.7218 19.4187 14.7224C19.2087 14.7238 19.0017 14.6721 18.8171 14.572C18.6898 14.503 18.5853 14.3985 18.5163 14.2712C18.444 14.1291 18.3933 13.9771 18.3659 13.82C18.3479 13.6372 18.3659 13.1809 18.3659 12.617V8.85735ZM14.305 11.2635C14.305 10.6728 14.2088 10.2344 14.305 9.91004C14.4268 9.60544 14.6362 9.34378 14.9066 9.15812C15.1622 8.95392 15.4821 8.84731 15.8091 8.85735C16.1173 8.83911 16.4258 8.89051 16.7115 9.00773C16.9015 9.11249 17.0579 9.26891 17.1627 9.45889C17.2942 9.64221 17.3957 9.84525 17.4635 10.0604C17.5546 10.4042 17.605 10.7576 17.6139 11.1131V12.1658C17.606 12.571 17.5556 12.9742 17.4635 13.3689C17.4099 13.6358 17.3079 13.8906 17.1627 14.1208C17.0627 14.3144 16.905 14.472 16.7115 14.572C16.4756 14.6788 16.2183 14.7303 15.9595 14.7224C15.652 14.7275 15.3462 14.6766 15.0571 14.572C14.8771 14.5252 14.7182 14.4192 14.6058 14.2712C14.4657 14.0384 14.3641 13.7845 14.305 13.5193C14.3005 13.5343 14.305 12.8627 14.305 12.3162V11.2635ZM11.4474 6.90234L12.3498 9.91004C12.5213 9.0921 12.8401 8.08151 13.1018 6.90234H14.0042L12.9514 11.4139V14.572H11.8986V11.4139L10.545 6.90234H11.4474ZM25.5853 24.4974C25.5097 25.175 25.1962 25.8038 24.7004 26.272C24.2047 26.7401 23.5589 27.0172 22.878 27.0539C18.7134 27.2323 14.5522 27.2323 10.3946 27.0539C8.97926 26.9622 7.69331 25.9059 7.53689 24.4974C7.38198 22.2443 7.38198 19.9832 7.53689 17.73C7.69181 16.322 8.97926 15.1219 10.3946 15.0231C14.5577 14.847 18.5629 14.847 22.7276 15.0231C24.1414 15.1219 25.4289 16.322 25.5853 17.73C25.7417 19.9831 25.7417 22.2443 25.5853 24.4974ZM15.9595 14.1208C16.5611 14.1208 16.4107 13.2686 16.4107 13.0681V10.662C16.4107 10.0604 16.3144 9.61604 15.9595 9.60927C15.597 9.60235 15.5083 10.0604 15.5083 10.662V13.0681C15.5083 13.4319 15.4992 14.1208 15.9595 14.1208ZM9.04093 18.1812H10.2442V24.7981H11.5978V18.1812H12.801V16.9781H9.04093V18.1812ZM15.0571 22.5424C15.0571 23.2492 14.9217 23.3695 14.9066 23.4447C14.8747 23.5373 14.8133 23.6168 14.7318 23.6712C14.6503 23.7255 14.5532 23.7516 14.4554 23.7454C14.2584 23.7454 14.2013 23.6196 14.1546 23.4447C14.1351 23.3714 14.1546 23.2155 14.1546 22.5424V18.7827H12.9514V23.7454C12.9766 24.0004 13.027 24.2523 13.1018 24.4974C13.1696 24.6256 13.2744 24.7304 13.4026 24.7981C13.5331 24.8951 13.6912 24.9478 13.8538 24.9485C14.0157 24.9439 14.1727 24.8916 14.305 24.7981C14.4396 24.6737 14.5427 24.5191 14.6058 24.347L15.0571 24.4974V24.7981H16.1099V18.7827H15.0571V22.5424ZM20.1708 19.0835C20.1011 18.9567 19.9968 18.8524 19.87 18.7827C19.6814 18.6932 19.4769 18.6421 19.2683 18.6324C19.1194 18.6324 19.0969 18.7035 18.9675 18.7827C18.9224 18.8119 18.2155 19.6851 18.2155 19.6851V16.9781H17.0123V24.7981H18.2155V24.4974L18.3659 24.0462L18.6667 24.347C18.781 24.5351 18.8337 24.7079 18.9675 24.7981C19.1017 24.8878 19.2576 24.9398 19.4187 24.9485C19.7978 24.9485 20.0414 24.6918 20.1708 24.347C20.2503 24.1031 20.3007 23.8507 20.3212 23.5951V20.437C20.3212 20.449 20.3197 19.6799 20.3212 19.5347C20.2967 19.3769 20.2459 19.2244 20.1708 19.0835ZM19.1179 22.6927C19.1179 23.2483 19.1209 23.4424 19.1179 23.4447C19.0846 23.5344 19.0234 23.611 18.9432 23.6634C18.8631 23.7157 18.7683 23.7409 18.6727 23.7354C18.5761 23.7386 18.4808 23.7126 18.3992 23.6607C18.3176 23.6088 18.2536 23.5335 18.2155 23.4447C18.1884 23.3627 18.2155 23.2013 18.2155 22.6927V21.1889C18.2155 20.6594 18.1915 20.3606 18.2155 20.2866C18.253 20.1978 18.3158 20.1219 18.396 20.0685C18.4762 20.015 18.5703 19.9863 18.6667 19.9858C18.7636 19.9841 18.8587 20.012 18.9393 20.0657C19.02 20.1195 19.0823 20.1965 19.1179 20.2866C19.1435 20.3684 19.1179 20.6881 19.1179 21.1889V22.6927ZM22.2764 21.9408H24.382V21.3393C24.382 20.7541 24.3399 19.9974 24.2316 19.6851C24.1309 19.3823 23.8857 19.264 23.63 19.0835C23.3714 18.885 23.0536 18.7791 22.7276 18.7827C22.4103 18.7827 22.0673 18.7862 21.8252 18.9331C21.5545 19.1186 21.3451 19.3803 21.2236 19.6851C21.1108 19.9747 21.0732 20.454 21.0732 21.1889V22.9935C21.0657 23.4812 21.2023 23.9602 21.4657 24.3706C21.6159 24.5479 21.8083 24.6844 22.0252 24.7676C22.2945 24.8843 22.5845 24.9459 22.878 24.9485C23.0892 24.9605 23.2989 24.908 23.4796 24.7981C23.6736 24.6953 23.9504 24.5514 24.0812 24.347C24.3459 23.6635 24.382 23.8948 24.382 22.8431V22.5424H23.1788V23.1439C23.1788 23.4835 23.2269 23.7629 23.1788 23.8958C23.1422 23.9853 23.0797 24.0617 22.9993 24.1153C22.9189 24.1689 22.8243 24.1972 22.7276 24.1966C22.3501 24.2013 22.2764 23.8268 22.2764 23.2943V21.9408ZM22.2764 20.437C22.2764 19.9448 22.2538 20.0529 22.2764 19.9858C22.3135 19.8968 22.3762 19.8207 22.4565 19.7671C22.5368 19.7136 22.6311 19.6851 22.7276 19.6851C22.8241 19.6851 22.9185 19.7136 22.9987 19.7671C23.079 19.8207 23.1417 19.8968 23.1788 19.9858C23.1999 20.0548 23.1788 19.9785 23.1788 20.437V21.3393H22.2764V20.437Z" fill="#1C1E20"/>
</svg>
