<svg width="91" height="91" viewBox="0 0 91 91" fill="none" xmlns="http://www.w3.org/2000/svg">
<path d="M62.8109 78.9334C62.1552 78.7818 61.4839 78.708 60.8109 78.7134C55.5209 78.7134 51.1209 83.2034 50.8109 88.9434C50.8028 89.0747 50.8207 89.2064 50.8636 89.3309C50.9065 89.4553 50.9735 89.5701 51.0609 89.6685C51.1482 89.767 51.2541 89.8473 51.3725 89.9047C51.4909 89.9622 51.6195 89.9957 51.7509 90.0034H51.8109C52.0661 90.0038 52.3118 89.9067 52.4977 89.732C52.6836 89.5572 52.7956 89.318 52.8109 89.0634C53.0809 84.3834 56.6109 80.7134 60.8109 80.7134C61.329 80.7134 61.8454 80.7704 62.3509 80.8834C62.6162 80.9417 62.8937 80.8923 63.1225 80.746C63.3513 80.5998 63.5126 80.3686 63.5709 80.1034C63.6293 79.8381 63.5799 79.5606 63.4336 79.3318C63.2873 79.103 63.0562 78.9417 62.7909 78.8834L62.8109 78.9334Z" fill="white"/>
<path d="M29.6109 78.7134C28.938 78.708 28.2667 78.7818 27.6109 78.9334C27.379 79.018 27.1865 79.1854 27.0706 79.4034C26.9547 79.6214 26.9235 79.8746 26.9831 80.1142C27.0427 80.3538 27.1888 80.5629 27.3934 80.7012C27.5979 80.8395 27.8464 80.8973 28.0909 80.8634C28.5965 80.7504 29.1129 80.6934 29.6309 80.6934C33.8609 80.6934 37.3909 84.3634 37.6309 89.0434C37.6463 89.298 37.7583 89.5372 37.9442 89.712C38.1301 89.8867 38.3758 89.9838 38.6309 89.9834H38.6909C38.8223 89.9757 38.9509 89.9422 39.0694 89.8848C39.1878 89.8273 39.2937 89.747 39.381 89.6485C39.4684 89.5501 39.5354 89.4353 39.5783 89.3109C39.6212 89.1864 39.6391 89.0547 39.6309 88.9234C39.3009 83.2034 34.9009 78.7134 29.6109 78.7134Z" fill="white"/>
<path d="M21.0209 38.3134C20.9722 38.0859 20.8456 37.8826 20.6631 37.7384C20.4806 37.5942 20.2535 37.5182 20.0209 37.5234C19.7856 37.5191 19.5563 37.598 19.3733 37.7461C19.1904 37.8943 19.0656 38.1022 19.0209 38.3334C18.9069 38.9383 18.7258 39.5286 18.4809 40.0934C17.5063 42.3143 15.7271 44.0841 13.501 45.0469C11.2749 46.0097 8.76682 46.0942 6.48095 45.2834C6.31252 45.2226 6.13087 45.2082 5.95496 45.2416C5.77906 45.275 5.61536 45.3551 5.48095 45.4734C5.37225 45.4927 5.2675 45.5298 5.17095 45.5834C5.05997 45.6536 4.96391 45.745 4.88827 45.8524C4.81263 45.9598 4.75888 46.081 4.73009 46.2091C4.7013 46.3373 4.69804 46.4699 4.7205 46.5993C4.74295 46.7287 4.79067 46.8524 4.86095 46.9634C5.19629 47.4974 5.47767 48.0636 5.70095 48.6534C6.5498 50.9518 6.50027 53.4859 5.56224 55.7493C4.62422 58.0128 2.86676 59.8391 0.640948 60.8634C0.51347 60.9124 0.397389 60.987 0.299865 61.0827C0.202341 61.1783 0.125441 61.2929 0.0739078 61.4194C0.0223742 61.5459 -0.00270047 61.6816 0.000230243 61.8181C0.00316096 61.9547 0.034035 62.0892 0.090948 62.2134C0.170509 62.3904 0.299856 62.5404 0.463215 62.6452C0.626575 62.7499 0.816888 62.8049 1.01095 62.8034C1.15244 62.8027 1.29219 62.772 1.42095 62.7134C4.12434 61.4889 6.26255 59.2845 7.40399 56.545C8.54543 53.8056 8.6051 50.7351 7.57095 47.9534L7.42095 47.6034C9.80033 48.0888 12.2721 47.8154 14.4878 46.8214C16.7035 45.8275 18.5513 44.1633 19.7709 42.0634L21.6609 50.9634L20.7809 64.9634L14.7409 88.8634C14.6772 89.1192 14.7171 89.3899 14.8519 89.6166C14.9867 89.8432 15.2056 90.0074 15.4609 90.0734C15.544 90.0831 15.6279 90.0831 15.7109 90.0734C15.938 90.0805 16.1608 90.0102 16.3426 89.8739C16.5243 89.7375 16.6543 89.5434 16.7109 89.3234L22.7709 65.3234C22.7757 65.2635 22.7757 65.2033 22.7709 65.1434L23.6709 50.9034C23.6809 50.8136 23.6809 50.7231 23.6709 50.6334L21.0209 38.3134Z" fill="white"/>
<path d="M89.8709 60.8034C87.6309 59.7859 85.8594 57.9577 84.9131 55.6866C83.9668 53.4156 83.916 50.8704 84.771 48.5634C84.9936 47.9701 85.275 47.4006 85.6109 46.8634C85.6812 46.7524 85.729 46.6287 85.7514 46.4993C85.7739 46.3699 85.7706 46.2373 85.7418 46.1091C85.713 45.981 85.6593 45.8598 85.5836 45.7524C85.508 45.645 85.4119 45.5536 85.3009 45.4834C85.202 45.4253 85.0937 45.3847 84.9809 45.3634C84.8456 45.2467 84.6814 45.1685 84.5055 45.1369C84.3296 45.1052 84.1485 45.1213 83.9809 45.1834C81.6951 45.9942 79.187 45.9097 76.9609 44.9469C74.7348 43.9841 72.9556 42.2143 71.9809 39.9934C71.7374 39.4246 71.5564 38.8312 71.4409 38.2234C71.3963 37.9922 71.2715 37.7843 71.0886 37.6361C70.9056 37.488 70.6763 37.4091 70.4409 37.4134C70.207 37.4086 69.9788 37.4861 69.7961 37.6323C69.6134 37.7785 69.4877 37.9841 69.4409 38.2134L66.8609 50.5834C66.851 50.6731 66.851 50.7636 66.8609 50.8534L67.7609 65.0934V65.2734L73.821 89.2734C73.8757 89.4952 74.0048 89.6917 74.1867 89.8299C74.3687 89.9682 74.5925 90.04 74.821 90.0334C74.904 90.0431 74.9879 90.0431 75.071 90.0334C75.1985 90.0007 75.3183 89.9433 75.4235 89.8642C75.5287 89.7852 75.6173 89.6862 75.6842 89.5728C75.7511 89.4595 75.795 89.3341 75.8133 89.2037C75.8316 89.0734 75.824 88.9407 75.7909 88.8134L69.7309 64.8634L68.851 50.8634L70.741 41.9734C71.9617 44.0722 73.8097 45.7356 76.0251 46.7293C78.2404 47.7231 80.7116 47.9973 83.091 47.5134L82.9409 47.8634C81.9068 50.6451 81.9665 53.7156 83.1079 56.4551C84.2493 59.1945 86.3876 61.3989 89.091 62.6234C89.2197 62.682 89.3595 62.7127 89.501 62.7134C89.695 62.7149 89.8853 62.6599 90.0487 62.5552C90.212 62.4504 90.3414 62.3004 90.421 62.1234C90.4731 62.0008 90.5001 61.869 90.5006 61.7358C90.5011 61.6026 90.4749 61.4706 90.4237 61.3476C90.3724 61.2247 90.2972 61.1132 90.2022 61.0197C90.1073 60.9263 89.9947 60.8527 89.8709 60.8034Z" fill="white"/>
<path d="M20.2609 6.00336C20.1249 6.23025 20.0842 6.50181 20.148 6.75859C20.2117 7.01537 20.3746 7.23643 20.6009 7.37336C21.549 7.94364 22.6346 8.24444 23.7409 8.24336C24.7375 8.24548 25.7196 8.00539 26.6028 7.54376C27.486 7.08214 28.2438 6.4128 28.8109 5.59336C29.0408 5.2613 29.2352 4.90602 29.3909 4.53336C29.4825 4.29162 29.477 4.02381 29.3754 3.78609C29.2738 3.54837 29.0841 3.35922 28.8461 3.25833C28.6081 3.15743 28.3403 3.15263 28.0988 3.24492C27.8573 3.33722 27.661 3.51944 27.5509 3.75336C27.4485 4.00101 27.3176 4.23592 27.1609 4.45336C26.5651 5.31948 25.6621 5.92648 24.6351 6.15119C23.6081 6.3759 22.5341 6.2015 21.6309 5.66336C21.4041 5.52728 21.1325 5.48665 20.8757 5.55038C20.6189 5.6141 20.3979 5.77699 20.2609 6.00336Z" fill="white"/>
<path d="M7.87095 37.1434C7.64536 37.0414 7.38997 37.0268 7.15419 37.1022C6.91842 37.1777 6.71903 37.338 6.5946 37.552C6.47017 37.766 6.42955 38.0186 6.4806 38.2608C6.53165 38.5031 6.67074 38.7178 6.87095 38.8634C8.21336 39.6603 9.80794 39.9187 11.3333 39.5865C12.8587 39.2543 14.2014 38.3563 15.0909 37.0734C15.3229 36.7426 15.5174 36.3871 15.6709 36.0134C15.7207 35.8894 15.7451 35.7568 15.7428 35.6233C15.7404 35.4898 15.7114 35.3581 15.6573 35.236C15.6032 35.1139 15.5253 35.0039 15.428 34.9124C15.3307 34.8209 15.2161 34.7498 15.0909 34.7034C14.8469 34.6001 14.5719 34.598 14.3263 34.6973C14.0807 34.7967 13.8845 34.9895 13.7809 35.2334C13.6786 35.4842 13.5478 35.7224 13.3909 35.9434C12.7938 36.8052 11.892 37.4084 10.8674 37.6311C9.84286 37.8538 8.77197 37.6795 7.87095 37.1434Z" fill="white"/>
<path d="M61.881 5.59336C62.4453 6.41325 63.2011 7.08311 64.0828 7.54489C64.9646 8.00667 65.9456 8.24642 66.9409 8.24336C68.0508 8.24729 69.1404 7.94635 70.091 7.37336C70.2231 7.31888 70.3421 7.2367 70.4398 7.13235C70.5375 7.028 70.6117 6.90391 70.6574 6.76844C70.7031 6.63298 70.7192 6.4893 70.7047 6.34708C70.6901 6.20487 70.6453 6.06742 70.5731 5.94401C70.5009 5.82061 70.4031 5.71411 70.2863 5.6317C70.1695 5.54929 70.0364 5.49288 69.8959 5.46628C69.7554 5.43969 69.6109 5.44352 69.4721 5.47751C69.3332 5.51151 69.2032 5.57488 69.091 5.66336C68.1857 6.1997 67.1108 6.37306 66.0828 6.14854C65.0549 5.92402 64.1502 5.31829 63.5509 4.45336C63.4013 4.23325 63.274 3.99876 63.171 3.75336C63.0675 3.50804 62.8709 3.31385 62.6243 3.21352C62.3776 3.11318 62.1013 3.11493 61.8559 3.21836C61.6106 3.3218 61.4164 3.51845 61.3161 3.76506C61.2158 4.01167 61.2175 4.28804 61.321 4.53336C61.4728 4.90404 61.6603 5.25904 61.881 5.59336Z" fill="white"/>
<path d="M82.9409 36.7434C82.0384 37.2801 80.9659 37.4547 79.9397 37.232C78.9135 37.0093 78.0099 36.4059 77.4109 35.5434C77.2584 35.3234 77.1277 35.0889 77.021 34.8434C76.9773 34.713 76.9073 34.593 76.8151 34.4909C76.723 34.3888 76.6109 34.3068 76.4857 34.25C76.3604 34.1932 76.2248 34.1629 76.0874 34.1608C75.9499 34.1588 75.8134 34.1852 75.6866 34.2382C75.5598 34.2913 75.4452 34.37 75.3502 34.4693C75.2551 34.5687 75.1815 34.6866 75.1341 34.8156C75.0866 34.9447 75.0663 35.0821 75.0744 35.2194C75.0824 35.3566 75.1187 35.4908 75.1809 35.6134C75.5286 36.4152 76.043 37.1339 76.6899 37.7217C77.3367 38.3095 78.1012 38.7529 78.9326 39.0225C79.764 39.2921 80.6433 39.3816 81.512 39.2852C82.3807 39.1888 83.2189 38.9087 83.9709 38.4634C84.0984 38.4057 84.2124 38.322 84.3055 38.2175C84.3987 38.1131 84.4688 37.9903 84.5115 37.857C84.5541 37.7238 84.5684 37.583 84.5532 37.4439C84.5381 37.3048 84.4939 37.1704 84.4236 37.0495C84.3533 36.9285 84.2584 36.8237 84.145 36.7417C84.0316 36.6597 83.9022 36.6024 83.7653 36.5736C83.6284 36.5447 83.4869 36.5449 83.3501 36.5742C83.2133 36.6034 83.0841 36.6611 82.9709 36.7434H82.9409Z" fill="white"/>
<path d="M1.03095 20.2434H1.17095C1.41511 20.2454 1.65159 20.1581 1.8358 19.9978C2.02 19.8376 2.13922 19.6155 2.17095 19.3734C2.32257 18.1819 2.58368 17.0069 2.95095 15.8634C5.87095 6.69336 14.4009 0.983362 22.3609 2.86336C22.6195 2.92436 22.8918 2.88014 23.1177 2.74043C23.3437 2.60071 23.5049 2.37695 23.5659 2.11836C23.6269 1.85978 23.5827 1.58755 23.443 1.36157C23.3033 1.13559 23.0795 0.974362 22.8209 0.913363C13.8509 -1.19664 4.28095 5.09336 1.09095 15.2634C0.688376 16.5186 0.397249 17.807 0.220948 19.1134C0.183022 19.37 0.246308 19.6313 0.397443 19.8422C0.548578 20.053 0.775734 20.1969 1.03095 20.2434Z" fill="white"/>
<path d="M67.9009 2.36336C75.9009 0.463362 84.391 6.17336 87.311 15.3634C87.6734 16.5048 87.9344 17.676 88.091 18.8634C88.1227 19.1055 88.2419 19.3276 88.4261 19.4878C88.6103 19.6481 88.8468 19.7354 89.091 19.7334H89.2209C89.3537 19.7174 89.4819 19.6751 89.598 19.6087C89.7141 19.5424 89.8157 19.4534 89.8968 19.3472C89.9779 19.2409 90.0369 19.1194 90.0702 18.9899C90.1036 18.8605 90.1106 18.7256 90.091 18.5934C89.9135 17.2872 89.6224 15.9989 89.2209 14.7434C85.9809 4.58336 76.4209 -1.71664 67.4309 0.413362C67.1657 0.475688 66.9361 0.640818 66.7927 0.872425C66.6492 1.10403 66.6036 1.38315 66.6659 1.64836C66.7283 1.91358 66.8934 2.14317 67.125 2.28664C67.3566 2.4301 67.6357 2.47569 67.9009 2.41336V2.36336Z" fill="white"/>
<path d="M70.4109 26.5934C70.4481 26.5355 70.4815 26.4754 70.5109 26.4134L75.7209 13.5934C75.7859 13.4691 75.824 13.3325 75.8328 13.1926C75.8415 13.0526 75.8207 12.9124 75.7718 12.781C75.7228 12.6496 75.6468 12.5299 75.5486 12.4298C75.4504 12.3297 75.3322 12.2514 75.2018 12.1999C75.0713 12.1485 74.9315 12.125 74.7914 12.1311C74.6513 12.1371 74.5141 12.1726 74.3886 12.2352C74.2631 12.2977 74.1521 12.386 74.063 12.4942C73.9738 12.6024 73.9084 12.7282 73.8709 12.8634L68.6909 25.5634C67.659 27.0715 66.1634 28.202 64.4309 28.7834L60.9209 29.9534C59.0841 30.5792 57.0869 30.5474 55.2709 29.8634L51.4109 28.3834C49.9143 27.7951 48.6176 26.79 47.6747 25.4873C46.7318 24.1846 46.1822 22.6389 46.0909 21.0334C46.0909 20.8634 46.0909 20.6934 46.0909 20.5234V15.4634C46.0909 15.1981 45.9856 14.9438 45.7981 14.7563C45.6105 14.5687 45.3562 14.4634 45.0909 14.4634C44.8257 14.4634 44.5714 14.5687 44.3838 14.7563C44.1963 14.9438 44.0909 15.1981 44.0909 15.4634V20.5234C44.0909 20.6934 44.0909 20.8634 44.0909 21.0334C43.9891 22.6324 43.4336 24.1693 42.4896 25.4639C41.5456 26.7586 40.2522 27.7574 38.7609 28.3434L34.8709 29.8634C33.0596 30.5604 31.0624 30.6064 29.2209 29.9934L25.7109 28.8234C23.9769 28.24 22.4787 27.1102 21.4409 25.6034L16.2709 12.8634C16.1702 12.6167 15.9755 12.4202 15.7299 12.3171C15.4842 12.2139 15.2076 12.2126 14.9609 12.3134C14.7143 12.4141 14.5178 12.6088 14.4146 12.8545C14.3115 13.1001 14.3102 13.3767 14.4109 13.6234L19.6309 26.4434L19.7209 26.6234C21.0174 28.5289 22.9042 29.9554 25.0909 30.6834L28.5909 31.8634C30.8725 32.6215 33.3464 32.565 35.5909 31.7034L39.4509 30.2134C41.9256 29.2579 43.9427 27.3946 45.0909 25.0034C46.234 27.3889 48.244 29.2487 50.7109 30.2034L54.5709 31.6934C56.8155 32.555 59.2894 32.6115 61.5709 31.8534L65.091 30.6834C67.2668 29.944 69.1371 28.506 70.4109 26.5934Z" fill="white"/>
<path d="M52.7109 72.2134H52.9209C56.7609 72.1434 60.1009 70.3234 61.4509 67.5834C61.5205 67.4648 61.5648 67.3331 61.5812 67.1965C61.5975 67.06 61.5856 66.9216 61.546 66.7899C61.5065 66.6582 61.4402 66.5361 61.3513 66.4312C61.2624 66.3263 61.1529 66.2408 61.0295 66.1802C60.9061 66.1195 60.7715 66.0849 60.6342 66.0786C60.4968 66.0723 60.3596 66.0944 60.2312 66.1435C60.1028 66.1926 59.9858 66.2677 59.8877 66.364C59.7896 66.4603 59.7124 66.5759 59.6609 66.7034C58.6609 68.7034 55.9309 70.1534 52.8909 70.2134C49.8509 70.2734 47.1609 68.9934 46.0909 67.0334V58.5434C48.0017 60.0284 50.3612 60.8185 52.7809 60.7834H52.9909C56.8309 60.7234 60.1809 58.9034 61.5209 56.1634C61.5905 56.0447 61.6348 55.9131 61.6512 55.7765C61.6675 55.64 61.6556 55.5016 61.616 55.3699C61.5765 55.2382 61.5102 55.1161 61.4213 55.0112C61.3324 54.9063 61.2229 54.8208 61.0995 54.7602C60.9761 54.6995 60.8415 54.6649 60.7042 54.6586C60.5668 54.6523 60.4296 54.6744 60.3012 54.7235C60.1728 54.7726 60.0558 54.8477 59.9577 54.944C59.8596 55.0403 59.7824 55.1559 59.7309 55.2834C58.7309 57.2834 56.0009 58.7334 52.9609 58.7834C49.9209 58.8334 47.0909 57.5234 46.0909 55.5134V46.9734C47.9993 48.4463 50.3506 49.2288 52.7609 49.1934H52.9709C56.8009 49.1334 60.1509 47.3134 61.5009 44.5734C61.6176 44.3347 61.6347 44.0594 61.5485 43.8081C61.4622 43.5568 61.2796 43.3501 61.0409 43.2334C60.8023 43.1167 60.527 43.0996 60.2757 43.1858C60.0244 43.2721 59.8176 43.4547 59.7009 43.6934C58.7009 45.6934 55.9809 47.1434 52.9309 47.1934C49.8809 47.2434 47.1409 45.9534 46.0909 43.9734V38.3334C46.0909 38.0681 45.9856 37.8138 45.7981 37.6263C45.6105 37.4387 45.3562 37.3334 45.0909 37.3334C44.8257 37.3334 44.5714 37.4387 44.3838 37.6263C44.1963 37.8138 44.0909 38.0681 44.0909 38.3334V43.9134C43.0209 45.9134 40.3809 47.2034 37.4209 47.2634C34.2909 47.3534 31.5209 45.9534 30.4809 43.8834C30.3581 43.6543 30.151 43.4821 29.9034 43.4032C29.6558 43.3243 29.3872 43.3448 29.1545 43.4605C28.9218 43.5762 28.7432 43.778 28.6567 44.023C28.5702 44.2681 28.5825 44.5372 28.6909 44.7734C30.0409 47.4734 33.4609 49.2634 37.2509 49.2634H37.4609C39.868 49.2618 42.204 48.4478 44.0909 46.9534V55.5534C43.0009 57.4834 40.3809 58.8034 37.4509 58.8534C34.3309 58.8534 31.5409 57.5534 30.5109 55.4734C30.3916 55.236 30.1828 55.0558 29.9306 54.9723C29.6784 54.8888 29.4033 54.909 29.1659 55.0284C28.9286 55.1477 28.7483 55.3565 28.6649 55.6087C28.5814 55.8609 28.6016 56.136 28.7209 56.3734C30.0209 59.0634 33.4409 60.8634 37.2309 60.8634H37.4409C39.8515 60.8665 42.1934 60.0601 44.0909 58.5734V66.9334C43.0209 68.9334 40.3809 70.2334 37.4209 70.2834C34.2709 70.2834 31.5109 68.9834 30.4709 66.9034C30.4127 66.7807 30.33 66.6711 30.228 66.5815C30.126 66.4918 30.0068 66.4238 29.8777 66.3817C29.7486 66.3396 29.6122 66.3242 29.4769 66.3365C29.3417 66.3489 29.2103 66.3886 29.0909 66.4534C28.9722 66.5118 28.8662 66.5933 28.7792 66.693C28.6921 66.7927 28.6257 66.9088 28.5839 67.0343C28.542 67.1599 28.5255 67.2926 28.5353 67.4246C28.5451 67.5566 28.581 67.6853 28.6409 67.8034C29.9909 70.4934 33.4109 72.2834 37.2009 72.2834H37.4109C38.8403 72.3029 40.2576 72.0208 41.5706 71.4557C42.8836 70.8905 44.0627 70.0549 45.0309 69.0034C46.0099 70.0529 47.2011 70.882 48.5253 71.4354C49.8495 71.9889 51.2763 72.2541 52.7109 72.2134Z" fill="white"/>
</svg>
