<svg width="96" height="75" viewBox="0 0 96 75" fill="none" xmlns="http://www.w3.org/2000/svg">
<path d="M63.4138 24.5549C66.3231 24.1962 68.4765 23.907 68.4765 23.907H72.6248V23.8764C73.389 23.6568 73.9785 22.197 73.9785 20.4258C73.9785 18.6545 73.389 17.1948 72.6248 16.9779V16.9139H68.5529C68.5529 16.9139 66.9972 16.6776 64.5819 16.3828C64.5761 16.3801 64.5709 16.3801 64.5652 16.3801M34.8392 16.0005C30.6518 16.449 27.6054 16.9128 27.6054 16.9128H22.8247V16.9765C22.0613 17.1948 21.4715 18.6543 21.4715 20.426C21.4715 22.1981 22.0613 23.6573 22.8247 23.8753V23.9064H27.6829C27.6829 23.9064 28.5238 24.0291 29.8871 24.2129M19.8725 1H8.37214C6.54139 1 4.86947 2.05689 4.05644 3.72772L1.50136 8.97823C1.17167 9.65585 1 10.4019 1 11.1582V28.2349C1 28.8581 1.11681 29.4756 1.34333 30.0545L3.57938 35.7613C4.30999 37.6262 6.08234 38.8494 8.05337 38.8494H19.501M19.8725 1C18.4397 1.90813 16.6105 10.9407 16.6105 10.9407L16.7451 28.2972C16.7451 28.2972 18.0682 37.7895 19.501 38.8494M19.8725 1L22.582 3.50361C22.9748 3.86647 23.2373 4.35279 23.3282 4.88498L24.4499 11.4635V16.8978M19.501 38.8494L22.3438 34.6016C23.04 33.5611 23.4972 32.3738 23.68 31.1281L24.4496 25.8904V23.9735M1 28.8639C4.94507 28.9245 8.89097 28.9317 12.8363 28.8853M6.04713 10.1594H16.6034M76.499 38.8494C77.9318 37.7895 79.2552 28.2972 79.2552 28.2972L79.3897 10.9407C79.3897 10.9407 77.5606 1.90813 76.1278 1H87.6281C89.4586 1 91.1308 2.05689 91.9438 3.72772L94.4986 8.97823C94.8283 9.65585 95 10.4019 95 11.1582V28.2349C95 28.8581 94.8835 29.4756 94.6567 30.0545L92.4209 35.7613C91.6903 37.6262 89.9179 38.8494 87.9466 38.8494H76.499ZM76.499 38.8494L73.6562 34.6016C72.96 33.5611 72.5031 32.3738 72.32 31.1281L71.5501 25.8904V23.9735M95 28.8639C91.0549 28.9245 87.1093 28.9317 83.1637 28.8853M89.9531 10.1594H79.3966M71.5501 16.8978V11.4635L72.6721 4.88498C72.7629 4.35279 73.0255 3.86647 73.4182 3.50361L76.1275 1M34.8387 18.5517V13.3326C34.8387 11.236 36.5089 9.53712 38.5668 9.53712C39.5957 9.53712 40.5263 9.95977 41.2032 10.6493C41.8773 11.3361 42.2949 12.2815 42.2949 13.3326M42.2949 13.3326V14.8285M42.2949 13.3326L42.2951 11.6809C42.2951 9.58439 43.9654 7.8827 46.0232 7.8827C47.0519 7.8827 47.9828 8.30812 48.6594 8.99492C49.211 9.55659 49.5903 10.2962 49.7104 11.122C49.7374 11.3056 49.7511 11.4918 49.7511 11.6809V23.4454C49.7511 23.6345 49.7377 23.8208 49.7104 24.0043V24.0071C49.6067 24.7106 49.3144 25.3529 48.8859 25.8756C48.2036 26.7098 47.175 27.2437 46.0232 27.2437C44.9916 27.2437 44.0609 26.8182 43.3868 26.1314C43.234 25.9757 43.0948 25.8061 42.9692 25.6226C42.9692 25.6226 42.2951 24.668 42.2951 23.8339C42.2951 23.6531 42.2951 23.4635 42.2951 23.2778M42.2949 13.3326L42.2951 15.3846M49.7502 37.5245C49.6102 34.6266 50.2227 29.6497 39.5957 29.6497L38.8187 26.1559C40.007 25.4116 41.1751 24.1395 42.3104 22.3885C44.7397 18.6426 43.0015 15.7364 41.3721 15.537C39.7433 15.3376 33.4208 19.3016 30.827 23.4858C30.0636 24.717 30.4804 30.2022 30.8002 35.4049C30.9564 37.9521 36.3034 41.484 38.9055 43.095C38.9055 43.095 39.4901 43.1754 41.8235 43.1754M57.124 43.3325C57.124 43.3325 58.056 43.3411 59.5713 43.3411C60.4307 43.3411 61.6248 42.1919 62.1698 41.227C63.8614 38.2263 65.3682 31.8508 65.3682 24.5546M39.341 43.3341C39.341 43.3341 40.5962 52.2547 40.0727 59.6062C39.5493 66.9583 38.5335 74 38.5335 74M60.6619 74C60.6619 74 59.8153 67.563 59.5702 60.7187C59.3254 53.8747 59.5702 43.5057 59.5702 43.5057M49.5854 43.5057V45.8928M64.5824 21.7938C64.5824 23.8909 62.9135 25.5915 60.8549 25.5915C58.7959 25.5915 57.1273 23.8909 57.1273 21.7938V13.3329C57.1273 11.2355 58.7959 9.53518 60.8549 9.53518C62.9135 9.53518 64.5824 11.2355 64.5824 13.3329V21.7938ZM57.124 23.4452C57.124 25.5425 55.4551 27.2428 53.3965 27.2428C51.3381 27.2428 49.6689 25.5425 49.6689 23.4452V11.6818C49.6689 9.58439 51.3381 7.88381 53.3965 7.88381C55.4551 7.88381 57.124 9.58439 57.124 11.6818V23.4452Z" stroke="#008DF4" stroke-width="1.8" stroke-miterlimit="10" stroke-linecap="round" stroke-linejoin="round"/>
</svg>
