<svg width="100" height="92" viewBox="0 0 100 92" fill="none" xmlns="http://www.w3.org/2000/svg">
<path d="M13.1 91.9H8.6C8.1 91.9 7.6 91.6 7.5 91.1C6 85.3 6 85.3 6.1 61.2C6.1 55.3 6.1 47.8 6.1 38.5C6.1 37.9 6.6 37.4 7.2 37.4C7.8 37.4 8.3 37.9 8.3 38.5C8.3 47.9 8.3 55.3 8.3 61.2C8.3 83.7 8.3 85 9.5 89.7H12.2C13.4 84.9 13.4 82.9 13.3 60.8C13.3 54.9 13.3 47.7 13.3 38.6C13.3 38 13.8 37.5 14.4 37.5C15 37.5 15.5 38 15.5 38.6C15.5 47.7 15.5 55 15.5 60.8C15.6 84.5 15.6 85.4 14.1 91.2C14 91.6 13.6 91.9 13.1 91.9Z" fill="white"/>
<path d="M19.4 39.6H2.2C1 39.6 0 38.6 0 37.4V28.8C0 23.8 1.6 20 2.9 16.9C3.9 14.7 4.7 12.7 4.7 10.9V6.6C4.7 4.9 5.4 3.2 6.7 2.1C8 1 9.7 0.4 11.4 0.6C14.5 0.9 16.9 3.7 16.9 6.9V11C16.9 12.8 17.7 14.8 18.7 17C20 20.1 21.6 23.9 21.6 28.8V37.4C21.6 38.6 20.7 39.6 19.4 39.6ZM10.8 2.8C9.8 2.8 8.9 3.2 8.2 3.8C7.4 4.5 6.9 5.6 6.9 6.7V11C6.9 13.3 6 15.5 4.9 17.9C3.6 20.9 2.2 24.4 2.2 28.9V37.5H19.4V28.9C19.4 24.4 17.9 21 16.7 18C15.7 15.6 14.7 13.4 14.7 11.1V7C14.7 4.9 13.2 3.1 11.2 2.9C11.1 2.8 11 2.8 10.8 2.8Z" fill="white"/>
<path d="M53.8 12H49.1C48.5 12 48 11.5 48 10.9C48 10.3 48.5 9.8 49.1 9.8H53.8C54.4 9.8 54.9 10.3 54.9 10.9C54.9 11.5 54.4 12 53.8 12Z" fill="white"/>
<path d="M55.6 91.9H31.7C28.8 91.9 26.4 89.5 26.4 86.6V29C26.4 23.6 30.8 19.3 36.2 19.2H53.8C59.2 19.2 63.6 23.6 63.6 29V40.3C63.6 40.9 63.1 41.4 62.5 41.4C61.9 41.4 61.4 40.9 61.4 40.3V29C61.4 24.9 58 21.5 53.9 21.5H36.2C32.1 21.5 28.7 24.9 28.7 29V86.6C28.7 88.3 30.1 89.7 31.8 89.7H55.6C56.2 89.7 56.7 90.2 56.7 90.8C56.7 91.4 56.2 91.9 55.6 91.9Z" fill="white"/>
<path d="M53.8 21.5C53.2 21.5 52.7 21 52.7 20.4V10.9C52.7 10.3 53.2 9.8 53.8 9.8C54.7 9.8 55.4 9.1 55.4 8.2V3.4C55.4 2.8 54.9 2.3 54.3 2.3H35.7C35.1 2.3 34.6 2.8 34.6 3.4V8.2C34.6 9.1 35.3 9.8 36.2 9.8C36.8 9.8 37.3 10.3 37.3 10.9V20.4C37.3 21 36.8 21.5 36.2 21.5C35.6 21.5 35.1 21 35.1 20.4V11.9C33.5 11.4 32.4 10 32.4 8.2V3.4C32.4 1.5 33.9 0 35.8 0H54.3C56.2 0 57.7 1.5 57.7 3.4V8.2C57.7 9.9 56.6 11.4 55 11.9V20.4C54.9 21 54.4 21.5 53.8 21.5Z" fill="white"/>
<path d="M40.9 12H36.2C35.6 12 35.1 11.5 35.1 10.9C35.1 10.3 35.6 9.8 36.2 9.8H40.9C41.5 9.8 42 10.3 42 10.9C42 11.5 41.5 12 40.9 12Z" fill="white"/>
<path d="M75 91.9C61.2 91.9 50 80.7 50 66.9C50 53.1 61.2 41.9 75 41.9C88.8 41.9 100 53.1 100 66.9C100 80.7 88.8 91.9 75 91.9ZM75 44.2C62.5 44.2 52.3 54.4 52.3 66.9C52.3 79.4 62.5 89.6 75 89.6C87.5 89.6 97.7 79.4 97.7 66.9C97.8 54.4 87.6 44.2 75 44.2Z" fill="white"/>
<path d="M75.8 64.3C75.5 64.3 75.2 64.2 74.9 63.9C70.6 58.8 69.4 54.2 69.4 52.3C69.4 48.8 72.2 45.9 75.8 45.9C79.3 45.9 82.2 48.8 82.2 52.3C82.2 52.9 81.7 53.4 81.1 53.4C80.5 53.4 80 52.9 80 52.3C80 50 78.2 48.2 75.9 48.2C73.6 48.2 71.8 50 71.8 52.3C71.8 53.8 72.8 57.9 76.8 62.5C77.2 63 77.1 63.7 76.7 64.1C76.3 64.2 76 64.3 75.8 64.3Z" fill="white"/>
<path d="M67.5 66.7C63.7 66.7 61 65.8 59.9 65.2C56.9 63.4 55.8 59.6 57.6 56.5C59.4 53.5 63.2 52.4 66.3 54.2C66.8 54.5 67 55.2 66.7 55.7C66.4 56.2 65.7 56.4 65.2 56.1C63.2 55 60.7 55.6 59.6 57.6C58.5 59.6 59.1 62.1 61.1 63.2C62.4 64 66.4 65.1 72.4 64C73 63.9 73.6 64.3 73.7 64.9C73.8 65.5 73.4 66.1 72.8 66.2C70.8 66.5 69.1 66.7 67.5 66.7Z" fill="white"/>
<path d="M63.1 80.6C60.9 80.6 58.8 79.5 57.6 77.4C55.8 74.4 56.9 70.5 59.9 68.7C60.4 68.4 61.1 68.6 61.4 69.1C61.7 69.6 61.5 70.3 61 70.6C59 71.7 58.4 74.2 59.5 76.2C60.6 78.2 63.1 78.8 65.1 77.7C66.4 76.9 69.4 74 71.4 68.3C71.6 67.7 72.3 67.4 72.8 67.6C73.4 67.8 73.7 68.4 73.5 69C71.3 75.3 67.9 78.6 66.2 79.6C65.3 80.4 64.2 80.6 63.1 80.6Z" fill="white"/>
<path d="M75.8 88C72.3 88 69.4 85.1 69.4 81.6C69.4 81 69.9 80.5 70.5 80.5C71.1 80.5 71.6 81 71.6 81.6C71.6 83.9 73.4 85.7 75.7 85.7C78 85.7 79.8 83.9 79.8 81.6C79.8 80.1 78.8 76 74.8 71.4C74.4 70.9 74.5 70.2 74.9 69.8C75.4 69.4 76.1 69.5 76.5 69.9C80.8 75 82 79.6 82 81.5C82.1 85.1 79.3 88 75.8 88Z" fill="white"/>
<path d="M88.5 80.6C87.4 80.6 86.3 80.3 85.3 79.7C84.8 79.4 84.6 78.7 84.9 78.2C85.2 77.7 85.9 77.5 86.4 77.8C87.4 78.3 88.5 78.5 89.5 78.2C90.6 77.9 91.4 77.2 92 76.3C92.5 75.3 92.7 74.2 92.4 73.2C92.1 72.1 91.4 71.3 90.5 70.7C89.2 69.9 85.2 68.8 79.2 69.9C78.6 70 78 69.6 77.9 69C77.8 68.4 78.2 67.8 78.8 67.7C85.4 66.5 89.9 67.8 91.6 68.7C93.1 69.5 94.1 70.9 94.6 72.6C95 74.2 94.8 76 94 77.4C93.2 78.9 91.8 79.9 90.1 80.4C89.6 80.6 89 80.6 88.5 80.6Z" fill="white"/>
<path d="M79 66.2C78.9 66.2 78.7 66.2 78.6 66.1C78 65.9 77.7 65.3 77.9 64.7C80.1 58.4 83.5 55.1 85.2 54.1C86.7 53.3 88.4 53 90 53.5C91.6 53.9 93 55 93.9 56.5C95.7 59.5 94.6 63.4 91.6 65.2C91.1 65.5 90.4 65.3 90.1 64.8C89.8 64.3 90 63.6 90.5 63.3C92.5 62.2 93.1 59.7 92 57.7C91.5 56.8 90.6 56.1 89.5 55.8C88.4 55.5 87.3 55.7 86.4 56.2C85.1 57 82.1 59.9 80.1 65.6C79.9 65.9 79.5 66.2 79 66.2Z" fill="white"/>
<path d="M10.8 28.8H1.1C0.5 28.8 0 28.3 0 27.7C0 27.1 0.5 26.6 1.1 26.6H10.8C11.4 26.6 11.9 27.1 11.9 27.7C11.9 28.3 11.4 28.8 10.8 28.8Z" fill="white"/>
</svg>
