<svg width="16" height="17" viewBox="0 0 16 17" fill="none" xmlns="http://www.w3.org/2000/svg">
<path d="M15.3065 6.42779L15.3065 6.42777L10.862 6.12781L10.861 6.12774C10.3719 6.0937 9.97935 5.75686 9.81903 5.31053L9.81784 5.3072L9.81785 5.3072L8.18601 0.661149C8.18585 0.660706 8.18569 0.660265 8.18553 0.659825C8.15881 0.586157 8.1229 0.548424 8.096 0.529098C8.06764 0.508718 8.03728 0.5 8.00842 0.5C7.97955 0.5 7.9492 0.508718 7.92083 0.529098C7.89391 0.548444 7.85795 0.586232 7.83122 0.660048L6.19877 5.28905L6.19781 5.29179L6.1978 5.29179C6.03748 5.73811 5.64491 6.07495 5.15588 6.10899L5.15471 6.10907L0.69336 6.40903L0.689074 6.40932L0.689073 6.4093C0.625146 6.41304 0.551304 6.45472 0.514785 6.57985C0.477734 6.70681 0.510496 6.83302 0.593952 6.91044C0.594173 6.91064 0.594394 6.91085 0.594616 6.91105L4.04405 10.059L4.04711 10.0618C4.38018 10.3709 4.5383 10.8731 4.42929 11.3307C4.42918 11.3312 4.42906 11.3317 4.42895 11.3321L3.30259 16.1433C3.30245 16.144 3.30232 16.1446 3.30218 16.1452C3.26909 16.2956 3.32733 16.4076 3.39387 16.4619C3.42708 16.489 3.45756 16.4984 3.47934 16.4998C3.49698 16.5009 3.52692 16.4985 3.57099 16.4684L7.32174 13.79C7.32183 13.7899 7.32192 13.7899 7.32202 13.7898L7.32222 13.7897L15.3065 6.42779ZM15.3065 6.42779L15.3109 6.42805C15.3749 6.43179 15.4487 6.47347 15.4852 6.5986C15.5223 6.72574 15.4894 6.85214 15.4057 6.92953C15.4056 6.92962 15.4055 6.92971 15.4054 6.9298L11.9604 10.0924C11.5916 10.4133 11.4722 10.8988 11.5483 11.3228L11.5507 11.3359L11.5537 11.3488L12.6806 16.1433C12.6807 16.144 12.6809 16.1447 12.681 16.1454C12.714 16.2957 12.6558 16.4076 12.5893 16.4619C12.5561 16.489 12.5256 16.4984 12.5038 16.4998C12.4861 16.5009 12.4561 16.4985 12.4119 16.4682C12.4113 16.4678 12.4108 16.4674 12.4103 16.4671L8.65005 13.7939L15.3065 6.42779Z" fill="white" stroke="#919191"/>
</svg>
