<svg width="82" height="79" viewBox="0 0 82 79" fill="none" xmlns="http://www.w3.org/2000/svg">
<path d="M77.5029 54.5848H4.4152C2.36678 54.5848 0.646108 53.1051 0.318361 51.0499C-0.0913237 48.666 -0.0913237 46.1998 0.318361 43.8158C0.646108 42.1717 1.9571 40.4454 4.82489 40.4454C5.31651 40.4454 5.72619 40.8564 5.72619 41.3496C5.72619 41.8429 5.31651 42.2539 4.82489 42.2539C3.35002 42.2539 2.36678 42.9115 2.12097 44.0624C1.71129 46.282 1.71129 48.4193 2.12097 50.6389C2.28484 51.7898 3.26809 52.6119 4.4152 52.6119H77.5029C78.568 52.6119 79.5513 51.872 79.7152 50.8033C80.1248 48.5838 80.1248 46.282 79.7152 44.0624C79.5513 42.9938 78.568 42.2539 77.5029 42.2539H33.0931C32.6015 42.2539 32.1918 41.8429 32.1918 41.3496C32.1918 40.8564 32.6015 40.4454 33.0931 40.4454H77.5029C79.5513 40.4454 81.2719 41.8429 81.5997 43.8158C82.0094 46.282 82.0094 48.7482 81.5997 51.2144C81.2719 53.1873 79.5513 54.5848 77.5029 54.5848Z" fill="#008DF4"/>
<path d="M77.5029 66.8335H4.4152C2.36678 66.8335 0.646108 65.3538 0.318361 63.2986C-0.0913237 61.0791 -0.0913237 58.8595 0.236424 56.64C0.318361 56.1467 0.809982 55.7357 1.3016 55.8179C1.79322 55.9001 2.20291 56.3933 2.12097 56.8866C1.79322 58.9417 1.87516 60.9147 2.20291 62.9698C2.36678 64.1207 3.26809 64.9428 4.4152 64.9428H77.5029C78.568 64.9428 79.5513 64.2029 79.7152 63.1342C80.1248 61.0791 80.1248 59.0239 79.7971 56.9688C79.7152 56.4755 80.0429 55.9823 80.6165 55.9001C81.1081 55.8179 81.5997 56.1467 81.6816 56.7222C82.0094 59.0239 82.0094 61.2435 81.5997 63.5453C81.2719 65.3538 79.5513 66.8335 77.5029 66.8335Z" fill="#008DF4"/>
<path d="M44.6462 71.437C44.1546 71.437 43.7449 71.026 43.7449 70.5328V65.847C43.7449 65.3538 44.1546 64.9428 44.6462 64.9428C45.1378 64.9428 45.5475 65.3538 45.5475 65.847V70.5328C45.5475 71.026 45.1378 71.437 44.6462 71.437Z" fill="#008DF4"/>
<path d="M57.1825 71.437C56.6909 71.437 56.2812 71.026 56.2812 70.5328V65.847C56.2812 65.3538 56.6909 64.9428 57.1825 64.9428C57.6741 64.9428 58.0838 65.3538 58.0838 65.847V70.5328C58.1658 71.026 57.7561 71.437 57.1825 71.437Z" fill="#008DF4"/>
<path d="M44.6462 59.2705C44.1546 59.2705 43.7449 58.8595 43.7449 58.3663V53.6805C43.7449 53.1873 44.1546 52.7763 44.6462 52.7763C45.1378 52.7763 45.5475 53.1873 45.5475 53.6805V58.3663C45.5475 58.7773 45.1378 59.2705 44.6462 59.2705Z" fill="#008DF4"/>
<path d="M57.1825 59.2705C56.6909 59.2705 56.2812 58.8595 56.2812 58.3663V53.6805C56.2812 53.1873 56.6909 52.7763 57.1825 52.7763C57.6741 52.7763 58.0838 53.1873 58.0838 53.6805V58.3663C58.1658 58.7773 57.7561 59.2705 57.1825 59.2705Z" fill="#008DF4"/>
<path d="M44.6462 47.0219C44.1546 47.0219 43.7449 46.6108 43.7449 46.1176V41.4318C43.7449 40.9386 44.1546 40.5276 44.6462 40.5276C45.1378 40.5276 45.5475 40.9386 45.5475 41.4318V46.0354C45.5475 46.6108 45.1378 47.0219 44.6462 47.0219Z" fill="#008DF4"/>
<path d="M57.1825 47.0219C56.6909 47.0219 56.2812 46.6108 56.2812 46.1176V41.4318C56.2812 40.9386 56.6909 40.5276 57.1825 40.5276C57.6741 40.5276 58.0838 40.9386 58.0838 41.4318V46.0354C58.1658 46.6108 57.7561 47.0219 57.1825 47.0219Z" fill="#008DF4"/>
<path d="M77.5029 79H4.4152C2.36678 79 0.646108 77.5203 0.318361 75.4651C-0.0913237 73.2456 -0.0913237 71.026 0.236424 68.8064C0.318361 68.3132 0.809982 67.9022 1.3016 67.9844C1.79322 68.0666 2.20291 68.5598 2.12097 69.0531C1.79322 71.026 1.87516 73.0812 2.20291 75.1363C2.36678 76.2872 3.35002 77.1093 4.49714 77.1093H77.5848C78.65 77.1093 79.6332 76.3694 79.7971 75.3007C80.2068 73.2456 80.2068 71.1904 79.879 69.1353C79.7971 68.642 80.1248 68.1488 80.6984 68.0666C81.19 67.9844 81.6816 68.3132 81.7636 68.8887C82.0913 71.1904 82.0913 73.41 81.6816 75.7118C81.2719 77.6025 79.5513 79 77.5029 79Z" fill="#008DF4"/>
<path d="M44.3184 31.8137C41.4507 31.8137 38.8287 31.4027 36.6983 30.9095C36.2067 30.8273 35.8789 30.2518 35.9609 29.7586C36.0428 29.2653 36.6164 28.9365 37.108 29.0187C45.3017 30.9917 56.3632 30.7451 63.3278 18.743C56.8548 14.8793 50.3818 14.3038 43.9088 17.0166C43.4171 17.1811 42.8436 17.0166 42.6797 16.5234C42.5158 16.0302 42.6797 15.4547 43.1713 15.2903C50.3818 12.3309 57.6741 13.0708 64.8846 17.5921C65.3762 17.9209 65.622 18.5786 65.2943 19.154C59.7226 29.2653 51.365 31.8137 44.3184 31.8137Z" fill="#008DF4"/>
<path d="M40.7132 22.1956C40.4674 22.1956 40.3035 22.1134 40.1397 21.949C39.73 21.6202 39.648 21.0447 39.9758 20.6337C45.0559 14.3038 44.4004 5.5078 43.9907 2.46618C41.041 3.78148 32.6015 8.1384 30.3072 16.4412C30.1434 16.9344 29.6517 17.2633 29.1601 17.0989C28.6685 16.9344 28.3408 16.4412 28.5046 15.948C31.6182 4.93236 43.9088 0.493236 44.4823 0.328824L45.4656 0L45.7114 1.06868C45.7933 1.56191 48.3333 13.564 41.5326 22.0312C41.2868 22.1134 41.041 22.1956 40.7132 22.1956Z" fill="#008DF4"/>
<path d="M19.4096 45.7066C19 45.7066 18.5903 45.7066 18.0987 45.6243C13.8379 45.1311 10.2327 42.3361 8.83979 38.4724C7.85655 35.7596 7.93849 32.8824 8.92173 30.2518C10.8063 25.4017 16.296 23.0177 21.1303 24.9084C25.0633 26.4703 27.0298 30.9917 25.5549 34.9376C24.8994 36.4995 23.7523 37.8148 22.1955 38.4724C20.6387 39.1301 18.918 39.2123 17.3612 38.5546C14.6573 37.486 13.3463 34.4443 14.3296 31.7315C14.4934 31.2383 15.067 30.9917 15.5586 31.1561C16.0502 31.3205 16.296 31.8959 16.1322 32.3892C15.8044 33.2112 15.8044 34.1977 16.2141 35.0198C16.5419 35.8418 17.2793 36.4995 18.0987 36.8283C19.2458 37.2393 20.3929 37.2393 21.54 36.7461C22.6052 36.2529 23.5065 35.3486 23.9162 34.2799C25.0633 31.2383 23.5884 27.8678 20.6387 26.717C16.7877 25.2373 12.3631 27.128 10.8882 30.9917C9.90497 33.129 9.82303 35.5952 10.6424 37.8148C11.7895 41.0208 14.8212 43.3226 18.3445 43.7336C18.918 43.8158 19.3277 43.8158 19.7374 43.8158C23.0968 43.6514 26.1285 42.1717 28.4227 39.6233C30.635 37.0749 31.7821 33.8689 31.5363 30.4984C31.1266 24.1686 26.1285 19.154 19.8193 18.743C16.296 18.4964 13.0186 19.7294 10.3966 22.1134C7.85655 24.4974 6.46362 27.7856 6.46362 31.3205C6.46362 32.307 6.54556 33.2112 6.79137 34.1155C6.87331 34.6087 6.6275 35.102 6.05394 35.2664C5.56232 35.3486 4.98876 35.0198 4.90682 34.5265C4.66101 33.4579 4.57908 32.3892 4.57908 31.3205C4.57908 27.3746 6.21781 23.5109 9.0856 20.7981C12.0353 18.0031 15.8864 16.6878 19.9013 16.9344C27.1117 17.3455 32.9292 23.1821 33.3389 30.4162C33.5847 34.2799 32.2737 38.0614 29.7337 40.9386C27.1936 43.8158 23.5884 45.5421 19.7374 45.7888C19.6555 45.7066 19.4916 45.7066 19.4096 45.7066Z" fill="#008DF4"/>
</svg>
