<svg width="72" height="73" viewBox="0 0 72 73" fill="none" xmlns="http://www.w3.org/2000/svg">
<path d="M35.9286 8.15157C35.9286 7.35379 35.929 6.5558 35.9292 5.75781" stroke="#008DF4" stroke-width="1.8" stroke-miterlimit="10" stroke-linecap="round" stroke-linejoin="round"/>
<path d="M35.9372 53.7738C35.9761 39.8895 35.9761 25.7801 35.9312 11.9531" stroke="#008DF4" stroke-width="1.8" stroke-miterlimit="10" stroke-linecap="round" stroke-linejoin="round"/>
<path d="M35.9165 60.2502C35.9205 59.1688 35.9244 58.0876 35.9278 57.0059" stroke="#008DF4" stroke-width="1.8" stroke-miterlimit="10" stroke-linecap="round" stroke-linejoin="round"/>
<path d="M35.6974 1H71V65.0175H35.6974" stroke="#008DF4" stroke-width="1.8" stroke-miterlimit="10" stroke-linecap="round" stroke-linejoin="round"/>
<path d="M40.2993 53.4948V13.3838" stroke="#008DF4" stroke-width="1.8" stroke-miterlimit="10" stroke-linecap="round" stroke-linejoin="round"/>
<path d="M5.41187 53.4948V13.3838" stroke="#008DF4" stroke-width="1.8" stroke-miterlimit="10" stroke-linecap="round" stroke-linejoin="round"/>
<path d="M40.2993 9.35268V5.75781H66.7781V60.5833H40.2993V57.0223" stroke="#008DF4" stroke-width="1.8" stroke-miterlimit="10" stroke-linecap="round" stroke-linejoin="round"/>
<path d="M5.41187 9.35268V5.75781H31.8908V60.5833H5.41187V57.0223" stroke="#008DF4" stroke-width="1.8" stroke-miterlimit="10" stroke-linecap="round" stroke-linejoin="round"/>
<path d="M17.0143 1H36.5043" stroke="#008DF4" stroke-width="1.8" stroke-miterlimit="10" stroke-linecap="round" stroke-linejoin="round"/>
<path d="M36.3026 65.0177H1V1H13.1138" stroke="#008DF4" stroke-width="1.8" stroke-miterlimit="10" stroke-linecap="round" stroke-linejoin="round"/>
<path d="M48.251 47.1871C48.251 46.9888 48.4118 46.8281 48.6103 46.8281H58.2103C58.4086 46.8281 58.5696 46.9888 58.5696 47.1871" stroke="#008DF4" stroke-width="1.8" stroke-miterlimit="10" stroke-linecap="round" stroke-linejoin="round"/>
<path d="M48.251 50.809C48.251 50.6108 48.4118 50.4502 48.6103 50.4502H58.2103C58.4086 50.4502 58.5696 50.6108 58.5696 50.809" stroke="#008DF4" stroke-width="1.8" stroke-miterlimit="10" stroke-linecap="round" stroke-linejoin="round"/>
<path d="M48.251 54.4316C48.251 54.2333 48.4118 54.0723 48.6103 54.0723H58.2103C58.4086 54.0723 58.5696 54.2333 58.5696 54.4316" stroke="#008DF4" stroke-width="1.8" stroke-miterlimit="10" stroke-linecap="round" stroke-linejoin="round"/>
<path d="M13.4921 47.1871C13.4921 46.9888 13.6528 46.8281 13.8515 46.8281H23.4512C23.6497 46.8281 23.8107 46.9888 23.8107 47.1871" stroke="#008DF4" stroke-width="1.8" stroke-miterlimit="10" stroke-linecap="round" stroke-linejoin="round"/>
<path d="M13.4921 50.809C13.4921 50.6108 13.6528 50.4502 13.8515 50.4502H23.4512C23.6497 50.4502 23.8107 50.6108 23.8107 50.809" stroke="#008DF4" stroke-width="1.8" stroke-miterlimit="10" stroke-linecap="round" stroke-linejoin="round"/>
<path d="M13.4921 54.4316C13.4921 54.2333 13.6528 54.0723 13.8515 54.0723H23.4512C23.6497 54.0723 23.8107 54.2333 23.8107 54.4316" stroke="#008DF4" stroke-width="1.8" stroke-miterlimit="10" stroke-linecap="round" stroke-linejoin="round"/>
<path d="M68.4548 65.0176L67.383 71.5468H63.6807L62.8181 68.713" stroke="#008DF4" stroke-width="1.8" stroke-miterlimit="10" stroke-linecap="round" stroke-linejoin="round"/>
<path d="M4.7572 65.0176L5.82879 71.5468H9.53153L10.3937 68.713" stroke="#008DF4" stroke-width="1.8" stroke-miterlimit="10" stroke-linecap="round" stroke-linejoin="round"/>
<path d="M60.4927 32.4316H54.1382V33.8545" stroke="#008DF4" stroke-width="1.8" stroke-miterlimit="10" stroke-linecap="round" stroke-linejoin="round"/>
<path d="M59.9521 30.0883C60.2977 29.9192 60.6868 29.8242 61.098 29.8242C62.5393 29.8242 63.7079 30.9919 63.7079 32.432C63.7079 33.8722 62.5393 35.0399 61.098 35.0399C60.5987 35.0399 60.1321 34.8998 59.7355 34.6569" stroke="#008DF4" stroke-width="1.8" stroke-miterlimit="10" stroke-linecap="round" stroke-linejoin="round"/>
<path d="M11.7626 32.4316H18.117V33.8545" stroke="#008DF4" stroke-width="1.8" stroke-miterlimit="10" stroke-linecap="round" stroke-linejoin="round"/>
<path d="M12.9084 30.0883C12.5626 29.9192 12.1737 29.8242 11.7626 29.8242C10.3212 29.8242 9.15259 30.9919 9.15259 32.432C9.15259 33.8722 10.3212 35.0399 11.7626 35.0399C12.2618 35.0399 12.7284 34.8998 13.125 34.6569" stroke="#008DF4" stroke-width="1.8" stroke-miterlimit="10" stroke-linecap="round" stroke-linejoin="round"/>
</svg>
