<svg width="73" height="73" viewBox="0 0 73 73" fill="none" xmlns="http://www.w3.org/2000/svg">
<path d="M20.5126 47.6094H18.9347V49.1963H20.5126V47.6094Z" fill="#008DF4"/>
<path d="M18.1458 49.1963H16.5679V50.7832H18.1458V49.1963Z" fill="#008DF4"/>
<path d="M26.0353 49.1963H24.4574V50.7832H26.0353V49.1963Z" fill="#008DF4"/>
<path d="M22.8795 49.9898H21.3016V51.5767H22.8795V49.9898Z" fill="#008DF4"/>
<path d="M19.961 7.31598L15.7774 11.5239L15.2188 10.9625L19.4032 6.7546C19.5864 6.57045 19.7317 6.35181 19.8308 6.11117C19.93 5.87052 19.981 5.61259 19.981 5.3521C19.981 5.09162 19.93 4.83369 19.8308 4.59304C19.7317 4.3524 19.5864 4.13376 19.4032 3.94961C19.0275 3.58891 18.5281 3.38764 18.0087 3.38764C17.4892 3.38764 16.9898 3.58891 16.6141 3.94961L12.4298 8.15748L11.872 7.59651L16.0563 3.38825C16.4253 3.01581 16.6325 2.51149 16.6325 1.98575C16.6325 1.46002 16.4253 0.955703 16.0563 0.583259C15.6805 0.222546 15.1809 0.0212906 14.6614 0.0212906C14.1419 0.0212906 13.6424 0.222546 13.2665 0.583259L7.28619 6.59809C6.54909 7.33411 6.04975 8.27653 5.85334 9.30232C5.65693 10.3281 5.77259 11.3896 6.18521 12.3483L6.47336 13.0255L0.157154 19.3786L1.27277 20.5006L7.96651 13.7678C8.07797 13.6558 8.15348 13.5127 8.18328 13.357C8.21308 13.2013 8.19581 13.0403 8.1337 12.8946L7.63521 11.7234C7.34818 11.0559 7.2678 10.3169 7.40454 9.60281C7.54129 8.8887 7.88882 8.2326 8.40181 7.72007L14.3821 1.70523C14.4563 1.63188 14.5563 1.59096 14.6603 1.59138C14.7644 1.59179 14.8641 1.6335 14.9377 1.70744C15.0113 1.78138 15.0529 1.88157 15.0535 1.9862C15.054 2.09084 15.0135 2.19147 14.9407 2.2662L10.1985 7.03546C10.1252 7.10911 10.0671 7.19657 10.0274 7.29283C9.98779 7.38908 9.96737 7.49226 9.96737 7.59645C9.96737 7.70065 9.98779 7.80382 10.0274 7.90008C10.0671 7.99634 10.1252 8.08379 10.1985 8.15745L11.8719 9.84044C11.9452 9.91414 12.0321 9.9726 12.1279 10.0125C12.2236 10.0524 12.3262 10.0729 12.4298 10.0729C12.5334 10.0729 12.6359 10.0524 12.7317 10.0125C12.8274 9.9726 12.9143 9.91414 12.9876 9.84044L17.7297 5.07157C17.7663 5.0347 17.8098 5.00546 17.8577 4.98551C17.9056 4.96557 17.9569 4.95533 18.0087 4.95536C18.0605 4.9554 18.1118 4.96572 18.1597 4.98572C18.2075 5.00573 18.251 5.03504 18.2875 5.07196C18.3243 5.10858 18.3535 5.15221 18.3734 5.2003C18.3932 5.24839 18.4033 5.29998 18.4031 5.35205C18.403 5.45726 18.3615 5.55815 18.2875 5.63255L13.5454 10.4015C13.4722 10.4751 13.414 10.5626 13.3744 10.6588C13.3347 10.7551 13.3143 10.8583 13.3143 10.9625C13.3143 11.0667 13.3347 11.1698 13.3744 11.2661C13.414 11.3624 13.4722 11.4498 13.5454 11.5235L15.2196 13.2068C15.2928 13.2805 15.3798 13.339 15.4755 13.3789C15.5712 13.4188 15.6738 13.4393 15.7774 13.4393C15.881 13.4393 15.9836 13.4188 16.0793 13.3789C16.175 13.339 16.262 13.2805 16.3352 13.2068L21.0766 8.43798C21.1507 8.36433 21.2508 8.32316 21.355 8.32345C21.4592 8.32373 21.5591 8.36545 21.6329 8.43951C21.7066 8.51357 21.7482 8.61395 21.7487 8.71876C21.7491 8.82356 21.7083 8.92429 21.6352 8.99896L15.6541 15.0138C15.1445 15.5298 14.492 15.8793 13.7819 16.0169C13.0718 16.1544 12.3369 16.0735 11.6732 15.7848L10.509 15.2831C10.3642 15.2204 10.204 15.203 10.0492 15.233C9.89436 15.2629 9.75206 15.339 9.64071 15.4512L2.94621 22.184L4.06183 23.306L10.3788 16.9533L11.0522 17.2431C12.0055 17.6576 13.0609 17.7736 14.0807 17.5761C15.1006 17.3786 16.0376 16.8767 16.7698 16.1358L22.7516 10.1206C23.1202 9.74802 23.3271 9.24374 23.327 8.71812C23.3268 8.1925 23.1196 7.68834 22.7508 7.31598C22.3748 6.95546 21.8753 6.75434 21.3559 6.75434C20.8364 6.75434 20.3369 6.95546 19.961 7.31598Z" fill="#008DF4"/>
<path d="M2.92698 46.9922C2.45038 48.0493 2.27285 49.2181 2.41391 50.37C2.55497 51.522 3.00915 52.6125 3.72652 53.5216L3.71978 53.5297C3.49007 53.8854 3.35296 54.2934 3.32105 54.7162C3.28914 55.1391 3.36347 55.5632 3.53718 55.9496L5.99031 61.4333C8.24541 66.471 10.9066 69.8262 16.5679 69.8262V72.2065C16.5679 72.3107 16.5883 72.4139 16.6279 72.5102C16.6675 72.6065 16.7256 72.694 16.7989 72.7677C16.8722 72.8413 16.9592 72.8998 17.0549 72.9397C17.1506 72.9795 17.2532 73 17.3568 73H55.2264C55.33 73 55.4326 72.9795 55.5283 72.9397C55.624 72.8998 55.711 72.8413 55.7843 72.7677C55.8576 72.694 55.9157 72.6065 55.9553 72.5102C55.9949 72.4139 56.0153 72.3107 56.0153 72.2065V69.8262C61.6766 69.8262 64.3378 66.471 66.5929 61.4329L69.046 55.9496C69.2892 55.4273 69.3429 54.8358 69.1979 54.2777C69.0528 53.7197 68.7181 53.2304 68.2518 52.8945C69.7294 49.7988 70.9034 46.5656 71.7573 43.2408C72.9059 38.8331 72.8666 34.1974 71.6433 29.8101C70.3836 25.782 68.0121 23.1588 64.9649 22.4234C58.8344 20.943 51.898 27.8695 49.5134 37.8621C49.2777 38.8409 49.0697 39.9589 48.89 41.1788L46.5938 42.3321L47.3183 39.053C47.3515 38.9024 47.3403 38.7453 47.286 38.601C47.2318 38.4566 47.1369 38.3314 47.013 38.2404C46.8891 38.1495 46.7414 38.0969 46.5882 38.089C46.435 38.0811 46.2828 38.1183 46.1503 38.196L40.8407 41.3096L41.7773 38.327C41.8256 38.1735 41.8262 38.0088 41.7792 37.8548C41.7322 37.7008 41.6396 37.5649 41.514 37.4651C41.3883 37.3653 41.2353 37.3064 41.0755 37.2961C40.9157 37.2859 40.7566 37.3248 40.6193 37.4077L39.7662 37.9224C39.6861 37.4953 39.5654 37.077 39.4058 36.6731C38.8403 34.6767 37.7246 32.0898 34.5388 31.7725C34.3252 30.8068 33.9143 29.8962 33.3322 29.0988C32.75 28.3013 32.0093 27.6343 31.1571 27.1401C30.3049 26.6459 29.3599 26.3354 28.382 26.2282C27.4041 26.121 26.4147 26.2195 25.4766 26.5174C24.7298 25.3997 23.7121 24.4917 22.5196 23.8793C21.3271 23.2669 19.999 22.9702 18.6608 23.0172C17.3226 23.0643 16.0184 23.4535 14.8713 24.1481C13.7242 24.8428 12.772 25.8199 12.1046 26.9874C12.0114 26.9819 11.9228 26.9796 11.8342 26.9796C10.3396 26.9863 8.89538 27.5241 7.75681 28.498C6.61824 29.4718 5.85856 30.8191 5.61199 32.3017C4.21356 32.8317 2.97511 33.7163 2.01684 34.8697C1.05857 36.023 0.413027 37.4059 0.142851 38.8841C-0.127325 40.3623 -0.012955 41.8857 0.474862 43.3063C0.96268 44.727 1.80738 45.9967 2.92698 46.9922ZM54.4374 71.4131H18.1458V69.8262H54.4374V71.4131ZM67.6068 55.2987L65.1537 60.7816C63.0935 65.3858 60.8461 68.2393 56.0153 68.2393H16.5679C11.7372 68.2393 9.4897 65.3858 7.4295 60.782L4.97636 55.2987C4.91156 55.1539 4.88384 54.995 4.89575 54.8367C4.90765 54.6783 4.95879 54.5254 5.04451 54.392C5.13023 54.2586 5.2478 54.1489 5.38649 54.073C5.52518 53.997 5.68057 53.9571 5.8385 53.9571H66.7447C66.9026 53.9571 67.058 53.997 67.1967 54.073C67.3354 54.1489 67.453 54.2586 67.5387 54.392C67.6244 54.5254 67.6755 54.6783 67.6874 54.8367C67.6993 54.995 67.6716 55.1539 67.6068 55.2987ZM7.88946 49.9898C7.88808 49.2818 8.0447 48.5825 8.3478 47.9435C8.65089 47.3045 9.09272 46.742 9.64071 46.2976C9.74883 46.2093 9.83179 46.0938 9.88119 45.9629C9.93058 45.8319 9.94465 45.6902 9.92196 45.552C9.89926 45.4138 9.84062 45.2841 9.75199 45.1761C9.66335 45.0681 9.54787 44.9856 9.41728 44.9369C8.53333 44.6123 7.76583 44.0298 7.21306 43.2638C6.66029 42.4979 6.3474 41.5835 6.31447 40.6377C6.28153 39.6918 6.53005 38.7577 7.02819 37.9547C7.52633 37.1518 8.25143 36.5167 9.11063 36.1307C9.22562 36.079 9.32661 36.0003 9.40516 35.9013C9.48371 35.8023 9.53754 35.6858 9.56213 35.5615C9.77924 34.4838 10.3602 33.5148 11.2064 32.8186C12.0527 32.1224 13.1123 31.7418 14.2057 31.7415H14.208C14.2296 31.7434 14.3212 31.7481 14.3428 31.7481C14.4923 31.7481 14.6388 31.7054 14.7651 31.6249C14.8914 31.5444 14.9924 31.4295 15.0563 31.2936C15.4545 30.4426 16.0949 29.7296 16.8965 29.2451C17.6981 28.7606 18.6246 28.5264 19.5587 28.5721C20.4928 28.6178 21.3924 28.9415 22.1434 29.502C22.8944 30.0625 23.463 30.8346 23.7771 31.7205C23.8139 31.8244 23.8718 31.9193 23.9471 31.9994C24.0224 32.0795 24.1135 32.143 24.2145 32.1858C24.3155 32.2285 24.4243 32.2497 24.5339 32.2479C24.6435 32.2461 24.7515 32.2214 24.8511 32.1754C25.4695 31.8877 26.1429 31.7392 26.8242 31.7403C28.0567 31.7418 29.2401 32.2261 30.1236 33.0904C31.007 33.9547 31.5209 35.1311 31.5563 36.3701C31.527 36.5261 31.5449 36.6873 31.6077 36.8329C31.6704 36.9785 31.7752 37.1018 31.9084 37.1868C32.5266 37.5782 33.0358 38.121 33.3885 38.7643C33.7411 39.4076 33.9256 40.1304 33.9248 40.865C33.9237 41.0703 33.9069 41.2752 33.8743 41.4778L29.1949 44.3014C28.8606 43.9992 28.5097 43.7162 28.1438 43.4538C28.8247 42.6098 29.1946 41.5551 29.1911 40.4683C29.1897 39.2061 28.6905 37.996 27.8031 37.1035C26.9156 36.211 25.7124 35.709 24.4574 35.7076C24.3665 35.7076 24.2748 35.7107 24.1815 35.7169C23.833 34.7165 23.1622 33.8619 22.2755 33.2888C21.3889 32.7157 20.3372 32.4569 19.2877 32.5536C18.2381 32.6502 17.2507 33.0967 16.4822 33.8222C15.7138 34.5477 15.2084 35.5106 15.0462 36.558C14.1448 36.6986 13.3031 37.0986 12.6227 37.7097C11.9424 38.3208 11.4525 39.117 11.2122 40.002C10.9718 40.887 10.9914 41.8231 11.2685 42.6972C11.5455 43.5712 12.0683 44.346 12.7735 44.9278C11.0761 46.6923 9.96994 48.9466 9.60989 51.3749C9.59887 51.4125 9.59063 51.451 9.58523 51.4899C9.54407 51.7833 9.51502 52.0773 9.49543 52.3701H8.53955C8.11473 51.6496 7.89021 50.8275 7.88946 49.9898ZM39.6462 39.8457L35.7137 52.3702H33.101C32.9353 49.8466 31.9759 47.4415 30.3614 45.5026C30.3512 45.4905 30.34 45.4793 30.3298 45.4673L39.6462 39.8457ZM29.9496 52.3702C29.7422 50.2222 28.7362 48.2321 27.1329 46.7978C25.5295 45.3635 23.447 44.5908 21.3016 44.634C19.1562 44.5908 17.0736 45.3635 15.4703 46.7978C13.8669 48.2321 12.861 50.2222 12.6535 52.3702H11.0971C11.1113 52.1862 11.1091 52.005 11.1331 51.8204C11.1436 51.7836 11.1513 51.746 11.1562 51.708C11.5064 49.2517 12.7245 47.0043 14.5877 45.3773C16.4508 43.7504 18.8342 42.8527 21.3016 42.8487C22.0897 42.8488 22.8753 42.9394 23.643 43.1187C23.945 43.1947 24.2386 43.278 24.4805 43.3508C24.5591 43.3814 24.64 43.4101 24.7209 43.4387L24.9212 43.512C26.7467 44.2021 28.338 45.4026 29.5077 46.972C30.6773 48.5414 31.3766 50.4144 31.5231 52.3702H29.9496ZM28.3714 52.3702H14.2318C14.4394 50.6448 15.2786 49.059 16.5857 47.9221C17.8927 46.7853 19.574 46.1787 21.3016 46.2209C23.0292 46.1787 24.7104 46.7853 26.0175 47.9221C27.3246 49.059 28.1638 50.6448 28.3714 52.3702ZM26.7621 42.607C26.3479 42.3888 25.9209 42.1959 25.4836 42.0293C25.405 41.9987 25.3241 41.97 25.2432 41.9413L24.9975 41.8526C24.6762 41.753 24.3549 41.662 24.0136 41.576C22.4553 41.2123 20.84 41.1686 19.2645 41.4475C17.689 41.7263 16.1856 42.322 14.8444 43.1989C14.5352 43.4009 14.2424 43.6217 13.956 43.8492C13.4093 43.4604 12.9998 42.9066 12.7868 42.2681C12.5739 41.6296 12.5686 40.9396 12.7716 40.2978C12.9747 39.6561 13.3756 39.096 13.9162 38.6987C14.4569 38.3014 15.1093 38.0875 15.7789 38.088C15.8826 38.088 15.9852 38.0675 16.0809 38.0276C16.1766 37.9877 16.2636 37.9293 16.3369 37.8556C16.4101 37.7819 16.4683 37.6945 16.5079 37.5982C16.5475 37.5019 16.5679 37.3987 16.5679 37.2945C16.5664 36.5014 16.8608 35.7367 17.3928 35.1513C17.9248 34.5659 18.6558 34.2025 19.4413 34.1329C20.2268 34.0633 21.0097 34.2926 21.6353 34.7754C22.2609 35.2581 22.6837 35.9594 22.8201 36.7405C22.8385 36.8466 22.8782 36.9479 22.9368 37.0381C22.9954 37.1283 23.0716 37.2056 23.1609 37.2652C23.2502 37.3248 23.3505 37.3655 23.456 37.3848C23.5614 37.4041 23.6696 37.4016 23.774 37.3774C23.998 37.3242 24.2272 37.2964 24.4574 37.2945C25.2941 37.2954 26.0962 37.6301 26.6879 38.2251C27.2795 38.8201 27.6123 39.6268 27.6132 40.4683C27.6109 41.2642 27.3065 42.0293 26.7621 42.607ZM51.0474 38.2336C53.2293 29.0895 59.3067 22.6927 64.5967 23.9662C67.0837 24.5667 69.0514 26.811 70.1386 30.2863C71.2759 34.3991 71.3049 38.7422 70.2225 42.87C69.3792 46.1439 68.2174 49.3264 66.7539 52.3713L66.7447 52.3702H57.8144L58.4602 49.7722L63.3323 48.3723L62.8993 46.8466L58.902 47.9952L60.0463 43.3918L66.5213 41.2211L66.022 39.7155L60.4998 41.567L61.9778 35.6214L68.0406 34.097L67.6585 32.5574L62.4116 33.8764L63.8809 27.9656L62.3508 27.5805L60.9979 33.0229L58.1995 29.6455L56.9869 30.6613L60.5238 34.93L58.9664 41.1953L55.8681 36.8335L54.5845 37.7556L58.4637 43.2175L57.3237 47.8034L54.2062 44.6681L53.0907 45.79L56.8775 49.5986L56.1886 52.3702H50.654L52.8457 40.6144C52.8728 40.4692 52.8591 40.3193 52.8061 40.1815C52.7531 40.0437 52.6629 39.9236 52.5456 39.8346C52.4284 39.7456 52.2887 39.6914 52.1425 39.6779C51.9962 39.6645 51.8491 39.6924 51.7177 39.7585L50.6274 40.3062C50.7563 39.5625 50.8957 38.8648 51.0474 38.2336ZM51.0027 41.8918L49.0493 52.3702H44.376L46.153 44.3276L51.0027 41.8918ZM45.3876 40.4803L42.759 52.3702H37.3678L40.1337 43.5612L45.3876 40.4803ZM6.5689 33.6488C6.71992 33.6018 6.85343 33.5103 6.95207 33.3861C7.05072 33.2619 7.10995 33.1107 7.12208 32.9522C7.21894 31.7606 7.75676 30.6489 8.62926 29.8368C9.50176 29.0248 10.6454 28.5715 11.8342 28.5665C12.0395 28.5689 12.2444 28.585 12.4475 28.6149C12.6116 28.6374 12.7786 28.6072 12.9247 28.5287C13.0708 28.4501 13.1885 28.3272 13.2611 28.1775C13.7646 27.1313 14.5443 26.2444 15.5151 25.6138C16.4859 24.9831 17.6103 24.6329 18.7656 24.6015C19.9209 24.5701 21.0625 24.8586 22.0658 25.4355C23.069 26.0125 23.8953 26.8557 24.4543 27.873C24.5492 28.0443 24.7038 28.1742 24.8883 28.2378C25.0728 28.3013 25.2742 28.2939 25.4536 28.217C26.2388 27.8804 27.0911 27.7318 27.9432 27.7828C28.7952 27.8338 29.6239 28.0832 30.3639 28.5111C31.1039 28.9391 31.7349 29.534 32.2074 30.249C32.6798 30.964 32.9808 31.7795 33.0865 32.6314C33.1226 32.828 33.2264 33.0055 33.3797 33.1327C33.533 33.26 33.726 33.3289 33.9248 33.3272C35.9857 33.3272 37.1376 34.4333 37.8995 37.1453C37.9072 37.173 37.9165 37.2001 37.9273 37.2267C38.1331 37.7325 38.255 38.2689 38.2878 38.8144L35.4819 40.5076C35.4333 39.6446 35.1969 38.8027 34.7894 38.0416C34.3819 37.2805 33.8132 36.6186 33.1235 36.1028C33.0208 34.4921 32.3127 32.981 31.1428 31.8761C29.973 30.7713 28.429 30.1554 26.8242 30.1534C26.1866 30.1523 25.5527 30.2494 24.9443 30.4413C24.4292 29.4235 23.6501 28.5647 22.6895 27.9557C21.7289 27.3467 20.6225 27.0101 19.4874 26.9815C18.3522 26.953 17.2304 27.2335 16.2408 27.7934C15.2511 28.3533 14.4302 29.1718 13.8651 30.1623C12.536 30.2362 11.264 30.7298 10.23 31.5729C9.19597 32.4159 8.4527 33.5655 8.10593 34.858C7.11545 35.381 6.28126 36.1597 5.68905 37.1142C5.09684 38.0687 4.76795 39.1645 4.73619 40.2892C4.70442 41.4138 4.97091 42.5266 5.50828 43.5134C6.04566 44.5002 6.83455 45.3253 7.7939 45.904C7.05082 46.7843 6.56376 47.8539 6.38639 48.9948C6.20901 50.1357 6.3482 51.3037 6.78863 52.3702H5.8385C5.54051 52.3758 5.24592 52.4349 4.96861 52.5447C4.37451 51.7941 4.0213 50.8795 3.95581 49.9223C3.89032 48.9652 4.11565 48.0106 4.60191 47.1852C4.69956 47.0174 4.73255 46.8194 4.69463 46.6288C4.65671 46.4382 4.55051 46.2682 4.3962 46.1511C3.35486 45.3605 2.55063 44.2962 2.07205 43.0755C1.59347 41.8547 1.4591 40.5248 1.68374 39.2322C1.90837 37.9396 2.4833 36.7344 3.34522 35.7493C4.20714 34.7641 5.32264 34.0373 6.5689 33.6488Z" fill="#008DF4"/>
<path d="M44.97 8.7301C44.97 7.00387 44.461 5.31639 43.5074 3.88108C42.5538 2.44577 41.1985 1.32707 39.6127 0.666472C38.0269 0.00587004 36.282 -0.166974 34.5985 0.169798C32.9151 0.506571 31.3687 1.33783 30.155 2.55847C28.9413 3.7791 28.1148 5.33428 27.7799 7.02735C27.4451 8.72042 27.6169 10.4753 28.2738 12.0702C28.9306 13.665 30.043 15.0281 31.4701 15.9872C32.8973 16.9462 34.5752 17.4581 36.2916 17.4581C38.5925 17.4555 40.7983 16.5351 42.4253 14.8989C44.0523 13.2626 44.9674 11.0441 44.97 8.7301ZM36.2916 15.8712C34.8872 15.8712 33.5144 15.4524 32.3467 14.6677C31.1791 13.883 30.269 12.7677 29.7316 11.4629C29.1941 10.158 29.0535 8.72218 29.3275 7.33694C29.6015 5.95171 30.2777 4.67928 31.2708 3.68058C32.2638 2.68188 33.529 2.00176 34.9064 1.72622C36.2837 1.45068 37.7114 1.59209 39.0089 2.13259C40.3063 2.67308 41.4153 3.58837 42.1955 4.76272C42.9757 5.93707 43.3921 7.31773 43.3921 8.7301C43.39 10.6234 42.6412 12.4385 41.3101 13.7773C39.9789 15.116 38.1741 15.8691 36.2916 15.8712Z" fill="#008DF4"/>
<path d="M37.0805 3.96937H35.5026V7.93665H31.5579V9.52356H35.5026V13.4908H37.0805V9.52356H41.0253V7.93665H37.0805V3.96937Z" fill="#008DF4"/>
<path d="M37.0805 19.045H35.5026V20.6319H37.0805V19.045Z" fill="#008DF4"/>
<path d="M37.0805 22.2188H35.5026V23.8058H37.0805V22.2188Z" fill="#008DF4"/>
<path d="M64.0835 3.04922C63.2523 2.13257 62.2482 1.39117 61.1297 0.86807C60.0111 0.344974 58.8004 0.0506155 57.5678 0.00209226C56.813 -0.0187578 56.0619 0.116412 55.3611 0.399236C54.6603 0.68206 54.0247 1.10652 53.4936 1.64635C50.9665 4.27118 51.5721 9.17138 54.845 12.5691C57.0516 14.86 60.0217 15.9797 62.5364 15.5055L68.6238 21.8268L69.7579 20.7226L63.3616 14.0809C63.2635 13.9787 63.1398 13.9049 63.0035 13.8674C62.8673 13.8298 62.7235 13.8299 62.5873 13.8674C60.524 14.4327 57.9283 13.4901 55.9783 11.465C53.2917 8.67589 52.6861 4.76673 54.6277 2.75055C55.0128 2.36514 55.4724 2.06321 55.9781 1.86343C56.4838 1.66365 57.0248 1.57025 57.5678 1.589C59.6274 1.69878 61.5611 2.62008 62.9502 4.1534C64.9102 6.18857 65.8217 8.90367 65.2723 11.0706C65.239 11.2018 65.2396 11.3395 65.2741 11.4704C65.3087 11.6014 65.3759 11.7213 65.4696 11.8187L71.8659 18.4604L73 17.3562L66.8965 11.0194C67.3634 8.41748 66.2894 5.33971 64.0835 3.04922Z" fill="#008DF4"/>
</svg>
