<svg width="24" height="23" viewBox="0 0 24 23" fill="none" xmlns="http://www.w3.org/2000/svg">
<path fill-rule="evenodd" clip-rule="evenodd" d="M3.60121 5.10706C3.60121 5.10706 3.5795 4.02092 4.29486 2.60199C4.79954 1.59852 6.70387 1.01468 6.70387 1.01468C6.70387 1.01468 7.51776 0.794093 9.11754 2.33671C9.7539 2.92408 10.1508 3.72747 10.2365 4.60171C10.2808 5.4001 8.5453 7.13557 8.5453 7.13557C8.65946 8.11184 9.05137 9.0251 9.67493 9.76792C10.3306 10.5352 11.4622 11.7294 12.0575 12.2866C12.5674 12.7638 13.1347 13.3884 13.8955 13.8851C15.392 14.8616 15.7573 14.7641 15.7573 14.7641C15.7573 14.7641 17.9478 12.9174 18.5924 12.9685C19.0821 13.0091 19.7714 13.32 20.6467 14.0619C21.2969 14.6114 21.7117 15.0288 22.0329 15.5897C22.1474 15.7832 22.2365 15.9913 22.2983 16.209C22.2983 16.209 22.3689 17.1044 20.95 18.5575C19.5379 20.0011 17.6329 19.6642 17.6329 19.6642C17.6329 19.6642 16.5369 19.521 14.7542 18.7074C12.7809 17.7727 10.9906 16.5078 9.45761 14.9653C8.02773 13.4864 6.15915 11.2176 5.25912 9.63156C4.12592 7.63811 3.60121 5.10706 3.60121 5.10706Z" fill="white"/>
</svg>
