<svg width="62" height="62" viewBox="0 0 62 62" fill="none" xmlns="http://www.w3.org/2000/svg">
<path d="M57.6574 0.425198C55.1011 -0.582016 52.4505 0.236393 50.6468 2.5066C48.8431 0.236014 46.1921 -0.582395 43.6358 0.425198C40.9591 1.48009 38.5296 4.65724 39.519 9.13976C41.1385 16.4778 49.9706 20.2774 50.3456 20.4356C50.4421 20.476 50.5442 20.4965 50.6468 20.4965C50.7493 20.4965 50.8515 20.476 50.948 20.4356C51.3229 20.2774 60.1543 16.4778 61.7745 9.13976C62.764 4.65724 60.334 1.48009 57.6574 0.425198ZM60.261 8.80566C58.9719 14.645 52.1671 18.1529 50.6464 18.8706C49.1246 18.1548 42.324 14.6567 41.0326 8.80604C40.2387 5.21004 42.12 2.68859 44.2041 1.86716C44.6934 1.67419 45.2405 1.55917 45.8115 1.55917C47.233 1.55917 48.8003 2.27239 49.9797 4.26828C50.2582 4.73973 51.0354 4.73973 51.3139 4.26828C52.9666 1.47176 55.3803 1.1948 57.0891 1.86678C59.1732 2.68822 61.0549 5.21004 60.261 8.80566Z" fill="#008DF4"/>
<path d="M30.3653 8.94528H29.2029C28.775 8.94528 28.428 9.29224 28.428 9.72018C28.428 10.1481 28.775 10.4951 29.2029 10.4951H30.3653C30.7932 10.4951 31.1402 10.1481 31.1402 9.72018C31.1402 9.29224 30.7932 8.94528 30.3653 8.94528Z" fill="#008DF4"/>
<path d="M19.9712 27.0347H22.2801C22.708 27.0347 23.055 26.6877 23.055 26.2598C23.055 25.8318 22.708 25.4849 22.2801 25.4849H19.9712C19.5433 25.4849 19.1963 25.8318 19.1963 26.2598C19.1963 26.6877 19.5433 27.0347 19.9712 27.0347Z" fill="#008DF4"/>
<path d="M13.0412 10.4951H15.3501C15.778 10.4951 16.125 10.1481 16.125 9.72018C16.125 9.29224 15.778 8.94528 15.3501 8.94528H13.0412C12.6133 8.94528 12.2663 9.29224 12.2663 9.72018C12.2663 10.1481 12.6133 10.4951 13.0412 10.4951Z" fill="#008DF4"/>
<path d="M14.5842 27.0347H16.8927C17.3207 27.0347 17.6677 26.6877 17.6677 26.2598C17.6677 25.8318 17.3207 25.4849 16.8927 25.4849H14.5842C14.1563 25.4849 13.8093 25.8318 13.8093 26.2598C13.8093 26.6877 14.1563 27.0347 14.5842 27.0347Z" fill="#008DF4"/>
<path d="M33.8294 26.2598C33.8294 25.8318 33.4824 25.4849 33.0544 25.4849H30.7456C30.3176 25.4849 29.9706 25.8318 29.9706 26.2598C29.9706 26.6877 30.3176 27.0347 30.7456 27.0347H33.0544C33.4824 27.0347 33.8294 26.6877 33.8294 26.2598Z" fill="#008DF4"/>
<path d="M33.9777 43.4884C33.9777 43.9163 34.3246 44.2633 34.7526 44.2633H37.0611C37.489 44.2633 37.836 43.9163 37.836 43.4884C37.836 43.0604 37.489 42.7135 37.0611 42.7135H34.7526C34.3246 42.7135 33.9777 43.0604 33.9777 43.4884Z" fill="#008DF4"/>
<path d="M26.1244 8.94528H23.8156C23.3876 8.94528 23.0406 9.29224 23.0406 9.72018C23.0406 10.1481 23.3876 10.4951 23.8156 10.4951H26.1244C26.5524 10.4951 26.8993 10.1481 26.8993 9.72018C26.8993 9.29224 26.5524 8.94528 26.1244 8.94528Z" fill="#008DF4"/>
<path d="M29.3652 42.7135C28.9373 42.7135 28.5903 43.0604 28.5903 43.4884C28.5903 43.9163 28.9373 44.2633 29.3652 44.2633H31.6741C32.1021 44.2633 32.449 43.9163 32.449 43.4884C32.449 43.0604 32.1021 42.7135 31.6741 42.7135H29.3652Z" fill="#008DF4"/>
<path d="M27.6671 25.4849H25.3582C24.9303 25.4849 24.5833 25.8318 24.5833 26.2598C24.5833 26.6877 24.9303 27.0347 25.3582 27.0347H27.6671C28.095 27.0347 28.442 26.6877 28.442 26.2598C28.442 25.8318 28.095 25.4849 27.6671 25.4849Z" fill="#008DF4"/>
<path d="M9.18477 27.0335L11.5057 27.0347C11.9337 27.0347 12.2807 26.6877 12.2807 26.2598C12.2807 25.8318 11.9337 25.4849 11.5057 25.4849L9.20899 25.4837C8.77839 25.4883 8.42877 25.8186 8.42196 26.2465C8.41553 26.6745 8.75682 27.0267 9.18477 27.0335Z" fill="#008DF4"/>
<path d="M7.66407 10.6536C7.7125 10.6536 7.76169 10.6491 7.81088 10.6396C8.31109 10.5439 8.82645 10.4951 9.34256 10.4951H9.9631C10.391 10.4951 10.738 10.1481 10.738 9.72018C10.738 9.29224 10.391 8.94528 9.9631 8.94528H9.34256C8.72845 8.94528 8.11509 9.00317 7.51877 9.11782C7.09839 9.19841 6.82331 9.6044 6.9039 10.0248C6.97504 10.3956 7.29969 10.6536 7.66407 10.6536Z" fill="#008DF4"/>
<path d="M61.9766 33.9773C61.9236 33.1328 61.7496 32.3023 61.4593 31.5089C61.3125 31.1067 60.8679 30.9004 60.4653 31.0476C60.0635 31.1944 59.8569 31.6394 60.0041 32.0416C60.2429 32.6947 60.3863 33.3784 60.4298 34.0742C60.4555 34.4847 60.7964 34.8007 61.2024 34.8007C61.2187 34.8007 61.2353 34.8003 61.2516 34.7991C61.6788 34.7723 62.0035 34.4045 61.9766 33.9773Z" fill="#008DF4"/>
<path d="M59.7631 39.8946C59.8845 39.9646 60.0173 39.9975 60.1483 39.9975C60.4165 39.9975 60.6776 39.8579 60.821 39.6086C61.2437 38.873 61.5573 38.0849 61.7533 37.2661C61.8529 36.8499 61.5963 36.4314 61.1801 36.3319C60.7624 36.2328 60.3458 36.4893 60.2459 36.9051C60.0847 37.5798 59.8259 38.2298 59.477 38.8367C59.264 39.2075 59.3919 39.6812 59.7631 39.8946Z" fill="#008DF4"/>
<path d="M59.6738 29.7309C59.9935 29.4468 60.0226 28.9568 59.7389 28.6367C59.1826 28.0105 58.5413 27.4603 57.8322 27.0025C57.4739 26.7702 56.9933 26.8735 56.761 27.2329C56.5287 27.5924 56.632 28.0718 56.9914 28.3041C57.5821 28.6859 58.1167 29.1441 58.5795 29.6658C58.7327 29.838 58.9458 29.9262 59.1596 29.9262C59.3423 29.9262 59.5262 29.8618 59.6738 29.7309Z" fill="#008DF4"/>
<path d="M57.6737 40.9491C57.1311 41.3899 56.5294 41.7566 55.8858 42.0392C55.4942 42.2114 55.316 42.6684 55.4881 43.0604C55.6157 43.3506 55.8998 43.5239 56.198 43.5239C56.302 43.5239 56.408 43.5027 56.5094 43.4581C57.2798 43.1198 58.0002 42.6802 58.6506 42.1523C58.9829 41.8826 59.0336 41.3945 58.7638 41.0623C58.494 40.7301 58.0066 40.6797 57.6737 40.9491Z" fill="#008DF4"/>
<path d="M1.41476 22.778C1.56308 23.0077 1.81244 23.1326 2.06671 23.1326C2.21049 23.1326 2.35617 23.0924 2.48633 23.0088C2.84579 22.7765 2.94909 22.2967 2.71714 21.9373C2.33649 21.3482 2.044 20.7125 1.84725 20.0481C1.72541 19.6372 1.29481 19.4045 0.884272 19.5248C0.47373 19.6463 0.239514 20.0776 0.360973 20.4878C0.599731 21.2941 0.954272 22.0648 1.41476 22.778Z" fill="#008DF4"/>
<path d="M5.91331 26.4054C6.0045 26.4402 6.09796 26.4569 6.1899 26.4569C6.50169 26.4569 6.79569 26.267 6.91374 25.9582C7.06661 25.5583 6.86607 25.1103 6.4665 24.9578C5.81039 24.7069 5.19136 24.3702 4.62606 23.9566C4.2806 23.7039 3.7959 23.7788 3.54314 24.1239C3.29001 24.4693 3.3653 24.954 3.71038 25.2068C4.38693 25.7024 5.12817 26.1058 5.91331 26.4054Z" fill="#008DF4"/>
<path d="M3.5753 12.9495C4.05509 12.4422 4.60374 12.0006 5.20574 11.637C5.57201 11.4156 5.68968 10.9393 5.46833 10.573C5.24698 10.2068 4.77022 10.0887 4.40433 10.3104C3.68314 10.7459 3.02514 11.2756 2.44925 11.8841C2.15525 12.1951 2.16887 12.6854 2.47952 12.9798C2.62936 13.1213 2.82082 13.1917 3.01228 13.1917C3.21774 13.1917 3.42282 13.1104 3.5753 12.9495Z" fill="#008DF4"/>
<path d="M0.811623 17.9989C1.20665 17.9989 1.54416 17.6984 1.58238 17.2974C1.6486 16.6042 1.81395 15.9254 2.07465 15.2799C2.23471 14.883 2.04287 14.4312 1.64633 14.2712C1.24789 14.1104 0.798001 14.3033 0.637569 14.6995C0.320865 15.4839 0.119946 16.3083 0.0393515 17.1506C-0.00113507 17.5762 0.311406 17.9546 0.737461 17.9955C0.762434 17.9977 0.787028 17.9989 0.811623 17.9989Z" fill="#008DF4"/>
<path d="M18.4286 10.4951H20.7374C21.1654 10.4951 21.5124 10.1481 21.5124 9.72018C21.5124 9.29224 21.1654 8.94528 20.7374 8.94528H18.4286C18.0006 8.94528 17.6537 9.29224 17.6537 9.72018C17.6537 10.1481 18.0006 10.4951 18.4286 10.4951Z" fill="#008DF4"/>
<path d="M44.7516 43.4884C44.7516 43.9163 45.0986 44.2633 45.5266 44.2633H47.8354C48.2634 44.2633 48.6103 43.9163 48.6103 43.4884C48.6103 43.0604 48.2634 42.7135 47.8354 42.7135H45.5266C45.0986 42.7135 44.7516 43.0604 44.7516 43.4884Z" fill="#008DF4"/>
<path d="M49.2158 27.0347C49.6437 27.0347 49.9907 26.6877 49.9907 26.2598C49.9907 25.8318 49.6437 25.4849 49.2158 25.4849H46.9069C46.4789 25.4849 46.132 25.8318 46.132 26.2598C46.132 26.6877 46.4789 27.0347 46.9069 27.0347H49.2158Z" fill="#008DF4"/>
<path d="M53.9954 43.4203C53.9678 42.9935 53.6046 42.676 53.1725 42.6964C52.9995 42.7078 52.8247 42.7131 52.6507 42.7135H50.9139C50.486 42.7135 50.139 43.0604 50.139 43.4884C50.139 43.9163 50.486 44.2633 50.9139 44.2633H52.6522C52.8603 44.2629 53.0669 44.2561 53.2716 44.2432C53.6988 44.2156 54.0227 43.8474 53.9954 43.4203Z" fill="#008DF4"/>
<path d="M38.4414 27.0347C38.8694 27.0347 39.2163 26.6877 39.2163 26.2598C39.2163 25.8318 38.8694 25.4849 38.4414 25.4849H36.1325C35.7046 25.4849 35.3576 25.8318 35.3576 26.2598C35.3576 26.6877 35.7046 27.0347 36.1325 27.0347H38.4414Z" fill="#008DF4"/>
<path d="M54.5872 27.2465C54.9421 27.2465 55.2623 27.001 55.3428 26.64C55.4359 26.2223 55.1726 25.8084 54.7548 25.7153C54.0685 25.5624 53.3605 25.4849 52.6507 25.4849H52.2942C51.8663 25.4849 51.5193 25.8318 51.5193 26.2598C51.5193 26.6877 51.8663 27.0347 52.2942 27.0347H52.6507C53.2474 27.0347 53.8422 27.0997 54.4181 27.228C54.4748 27.2405 54.5312 27.2465 54.5872 27.2465Z" fill="#008DF4"/>
<path d="M39.3647 43.4884C39.3647 43.9163 39.7116 44.2633 40.1396 44.2633H42.4484C42.8764 44.2633 43.2234 43.9163 43.2234 43.4884C43.2234 43.0604 42.8764 42.7135 42.4484 42.7135H40.1396C39.7116 42.7135 39.3647 43.0604 39.3647 43.4884Z" fill="#008DF4"/>
<path d="M43.8284 27.0347C44.2563 27.0347 44.6033 26.6877 44.6033 26.2598C44.6033 25.8318 44.2563 25.4849 43.8284 25.4849H41.5199C41.092 25.4849 40.745 25.8318 40.745 26.2598C40.745 26.6877 41.092 27.0347 41.5199 27.0347H43.8284Z" fill="#008DF4"/>
<path d="M25.0896 42.7135C24.6616 42.7135 24.3146 43.0604 24.3146 43.4884C24.3146 43.9163 24.6616 44.2633 25.0896 44.2633H26.2519C26.6799 44.2633 27.0269 43.9163 27.0269 43.4884C27.0269 43.0604 26.6799 42.7135 26.2519 42.7135H25.0896Z" fill="#008DF4"/>
<path d="M10.1708 62C10.1735 62 10.1757 62 10.1784 62C10.3929 61.9977 10.5973 61.9069 10.7422 61.7488C11.1342 61.3208 20.3417 51.1912 20.3417 43.9469C20.3417 38.3388 15.7792 33.7764 10.1708 33.7764C4.56249 33.7764 0 38.3388 0 43.9469C0 51.5892 9.21731 61.3481 9.60969 61.7597C9.75612 61.9134 9.95893 62 10.1708 62ZM10.1708 35.3262C14.9244 35.3262 18.7918 39.1935 18.7918 43.9469C18.7918 49.6187 12.1573 57.7464 10.1606 60.0639C8.15331 57.8096 1.54984 49.9376 1.54984 43.9469C1.54984 39.1935 5.41725 35.3262 10.1708 35.3262Z" fill="#008DF4"/>
<path d="M14.2796 43.4884C14.2796 41.2227 12.4366 39.3797 10.1708 39.3797C7.90509 39.3797 6.06201 41.2227 6.06201 43.4884C6.06201 45.754 7.90509 47.5971 10.1708 47.5971C12.4366 47.5971 14.2796 45.754 14.2796 43.4884ZM7.61185 43.4884C7.61185 42.0774 8.75985 40.9295 10.1708 40.9295C11.5818 40.9295 12.7298 42.0774 12.7298 43.4884C12.7298 44.8993 11.5818 46.0473 10.1708 46.0473C8.75985 46.0473 7.61185 44.8993 7.61185 43.4884Z" fill="#008DF4"/>
</svg>
