<svg width="117" height="73" viewBox="0 0 117 73" fill="none" xmlns="http://www.w3.org/2000/svg">
<path d="M116.086 13.8087H68.5546C68.0496 13.8087 67.6406 13.3675 67.6406 12.822C67.6406 12.2767 68.0496 11.8356 68.5546 11.8356H116.086C116.591 11.8356 117 12.2767 117 12.822C117 13.3675 116.591 13.8087 116.086 13.8087Z" fill="#008DF4"/>
<path d="M63.0706 13.8087H53.929C53.4237 13.8087 53.0147 13.3675 53.0147 12.822C53.0147 12.2767 53.4237 11.8356 53.929 11.8356H63.0706C63.5756 11.8356 63.9846 12.2767 63.9846 12.822C63.9846 13.3675 63.5756 13.8087 63.0706 13.8087Z" fill="#008DF4"/>
<path d="M48.4454 13.8087H17.3676C16.8624 13.8087 16.4534 13.3675 16.4534 12.822C16.4534 12.2767 16.8621 11.8356 17.3676 11.8356H48.4454C48.9507 11.8356 49.3597 12.2767 49.3597 12.822C49.3597 13.3675 48.9507 13.8087 48.4454 13.8087Z" fill="#008DF4"/>
<path d="M99.6329 41.4303C99.4614 41.4303 99.2922 41.3802 99.1386 41.2743C98.7152 40.9795 98.5904 40.3686 98.8654 39.9102L115.319 12.2883C115.59 11.8309 116.156 11.6969 116.581 11.9925C117.004 12.2864 117.128 12.8973 116.854 13.3557L100.401 40.9773C100.227 41.2706 99.9328 41.4303 99.6329 41.4303Z" fill="#008DF4"/>
<path d="M99.6329 73C99.4614 73 99.2922 72.9499 99.1386 72.8421C98.7152 72.549 98.5904 71.9383 98.8654 71.4799L115.319 43.8583C115.59 43.4016 116.156 43.2649 116.581 43.5635C117.004 43.8566 117.128 44.4673 116.854 44.9257L100.401 72.5472C100.227 72.8401 99.9328 73 99.6329 73Z" fill="#008DF4"/>
<path d="M0.913314 41.4303C0.743682 41.4303 0.573136 41.3802 0.419736 41.2743C-0.00434368 40.9795 -0.127567 40.3686 0.145627 39.9102L16.5988 12.2883C16.8701 11.8309 17.4362 11.6969 17.8619 11.9925C18.2857 12.2864 18.4089 12.8973 18.1357 13.3557L1.68283 40.9775C1.50885 41.2706 1.21417 41.4303 0.913314 41.4303Z" fill="#008DF4"/>
<path d="M12.4035 37.4863C12.2338 37.4863 12.0635 37.4362 11.9099 37.3291C11.486 37.0355 11.3626 36.4246 11.636 35.9662L18.4263 24.5639C18.6995 24.1062 19.2637 23.9724 19.6894 24.268C20.1133 24.5619 20.2367 25.1728 19.9635 25.6312L13.1732 37.0335C12.9988 37.3264 12.7043 37.4863 12.4035 37.4863Z" fill="#008DF4"/>
<path d="M99.6329 41.4303H0.914229C0.408991 41.4303 0 40.9891 0 40.4438C0 39.8986 0.408991 39.4574 0.914229 39.4574H99.6326C100.138 39.4574 100.547 39.8986 100.547 40.4438C100.547 40.9891 100.138 41.4303 99.6329 41.4303Z" fill="#008DF4"/>
<path d="M22.8518 27.6196C22.618 27.6196 22.3841 27.5231 22.2055 27.3307C21.8484 26.9453 21.8484 26.3211 22.2055 25.9357L24.0338 23.9626C24.3909 23.5772 24.9693 23.5772 25.3261 23.9626C25.6832 24.348 25.6832 24.9722 25.3261 25.3576L23.4981 27.3307C23.3196 27.5231 23.0857 27.6196 22.8518 27.6196Z" fill="#008DF4"/>
<path d="M26.5081 27.6196C26.2742 27.6196 26.0403 27.5231 25.8618 27.3307L24.0338 25.3576C23.6767 24.9722 23.6767 24.348 24.0338 23.9626C24.3909 23.5772 24.9693 23.5772 25.3261 23.9626L27.1544 25.9357C27.5114 26.3211 27.5114 26.9453 27.1544 27.3307C26.9758 27.5231 26.7419 27.6196 26.5081 27.6196Z" fill="#008DF4"/>
<path d="M26.5081 27.6196C26.2742 27.6196 26.0403 27.5231 25.8618 27.3307C25.5047 26.9453 25.5047 26.3211 25.8618 25.9357L27.69 23.9626C28.0471 23.5772 28.6255 23.5772 28.9826 23.9626C29.3397 24.348 29.3397 24.9722 28.9826 25.3576L27.1544 27.3307C26.9758 27.5231 26.7419 27.6196 26.5081 27.6196Z" fill="#008DF4"/>
<path d="M30.1643 27.6196C29.9304 27.6196 29.6965 27.5231 29.518 27.3307L27.6898 25.3576C27.3327 24.9722 27.3329 24.348 27.69 23.9626C28.0471 23.5772 28.6255 23.5772 28.9826 23.9626L30.8106 25.9357C31.1677 26.3211 31.1677 26.9453 30.8106 27.3307C30.632 27.5231 30.3982 27.6196 30.1643 27.6196Z" fill="#008DF4"/>
<path d="M30.1643 27.6196C29.9304 27.6196 29.6965 27.5231 29.518 27.3307C29.1609 26.9453 29.1609 26.3211 29.518 25.9357L31.3462 23.9626C31.7033 23.5772 32.2817 23.5772 32.6388 23.9626C32.9959 24.348 32.9959 24.9722 32.6388 25.3576L30.8106 27.3307C30.632 27.5231 30.3982 27.6196 30.1643 27.6196Z" fill="#008DF4"/>
<path d="M33.8205 27.6196C33.5866 27.6196 33.3528 27.5231 33.1742 27.3307L31.346 25.3576C30.9889 24.9722 30.9891 24.348 31.3462 23.9626C31.7033 23.5772 32.2815 23.5772 32.6386 23.9626L34.4668 25.9357C34.8239 26.3211 34.8239 26.9453 34.4668 27.3307C34.2883 27.5231 34.0544 27.6196 33.8205 27.6196Z" fill="#008DF4"/>
<path d="M33.8205 27.6196C33.5866 27.6196 33.3528 27.5231 33.1742 27.3307C32.8171 26.9453 32.8171 26.3211 33.1742 25.9357L35.0024 23.9626C35.3595 23.5772 35.9379 23.5772 36.295 23.9626C36.6521 24.348 36.6521 24.9722 36.295 25.3576L34.4668 27.3307C34.2883 27.5231 34.0544 27.6196 33.8205 27.6196Z" fill="#008DF4"/>
<path d="M37.4767 27.6196C37.2429 27.6196 37.009 27.5231 36.8304 27.3307L35.0022 25.3576C34.6451 24.9722 34.6454 24.348 35.0024 23.9626C35.3595 23.5772 35.9377 23.5772 36.2948 23.9626L38.1228 25.9357C38.4799 26.3211 38.4799 26.9453 38.1228 27.3307C37.9445 27.5231 37.7106 27.6196 37.4767 27.6196Z" fill="#008DF4"/>
<path d="M37.4767 27.6196C37.2429 27.6196 37.009 27.5231 36.8304 27.3307C36.4734 26.9453 36.4734 26.3211 36.8304 25.9357L38.6585 23.9626C39.0155 23.5772 39.5939 23.5772 39.951 23.9626C40.3081 24.348 40.3081 24.9722 39.951 25.3576L38.1228 27.3307C37.9445 27.5231 37.7106 27.6196 37.4767 27.6196Z" fill="#008DF4"/>
<path d="M41.133 27.6196C40.8991 27.6196 40.6652 27.5231 40.4867 27.3307L38.6585 25.3576C38.3014 24.9722 38.3014 24.348 38.6585 23.9626C39.0155 23.5772 39.5939 23.5772 39.951 23.9626L41.779 25.9357C42.1361 26.3211 42.1361 26.9453 41.779 27.3307C41.6007 27.5231 41.3668 27.6196 41.133 27.6196Z" fill="#008DF4"/>
<path d="M41.133 27.6196C40.8991 27.6196 40.6652 27.5231 40.4867 27.3307C40.1296 26.9453 40.1296 26.3211 40.4867 25.9357L42.3147 23.9626C42.6718 23.5772 43.2502 23.5772 43.6073 23.9626C43.9644 24.348 43.9644 24.9722 43.6073 25.3576L41.779 27.3307C41.6007 27.5231 41.3668 27.6196 41.133 27.6196Z" fill="#008DF4"/>
<path d="M44.7892 27.6196C44.5553 27.6196 44.3215 27.5231 44.1429 27.3307L42.3147 25.3576C41.9576 24.9722 41.9576 24.348 42.3147 23.9626C42.6718 23.5772 43.2502 23.5772 43.6073 23.9626L45.4353 25.9357C45.7924 26.3211 45.7924 26.9453 45.4353 27.3307C45.2569 27.5231 45.0231 27.6196 44.7892 27.6196Z" fill="#008DF4"/>
<path d="M44.7892 27.6196C44.5553 27.6196 44.3215 27.5231 44.1429 27.3307C43.7858 26.9453 43.7858 26.3211 44.1429 25.9357L45.9709 23.9626C46.328 23.5772 46.9064 23.5772 47.2635 23.9626C47.6206 24.348 47.6206 24.9722 47.2635 25.3576L45.4353 27.3307C45.2569 27.5231 45.0231 27.6196 44.7892 27.6196Z" fill="#008DF4"/>
<path d="M48.4454 27.6196C48.2118 27.6196 47.9777 27.5231 47.7991 27.3307L45.9709 25.3576C45.6138 24.9722 45.6138 24.348 45.9709 23.9626C46.328 23.5772 46.9064 23.5772 47.2635 23.9626L49.0917 25.9357C49.4488 26.3211 49.4488 26.9453 49.0917 27.3307C48.9132 27.5231 48.6793 27.6196 48.4454 27.6196Z" fill="#008DF4"/>
<path d="M48.4454 27.6196C48.2118 27.6196 47.9777 27.5231 47.7991 27.3307C47.442 26.9453 47.442 26.3211 47.7991 25.9357L49.6274 23.9626C49.9845 23.5772 50.5629 23.5772 50.9199 23.9626C51.277 24.348 51.277 24.9722 50.9199 25.3576L49.0917 27.3307C48.9132 27.5231 48.6793 27.6196 48.4454 27.6196Z" fill="#008DF4"/>
<path d="M52.1017 27.6196C51.868 27.6196 51.6339 27.5231 51.4554 27.3307L49.6271 25.3576C49.27 24.9722 49.2703 24.348 49.6274 23.9626C49.9845 23.5772 50.5626 23.5772 50.9197 23.9626L52.748 25.9357C53.105 26.3211 53.105 26.9453 52.748 27.3307C52.5694 27.5231 52.3358 27.6196 52.1017 27.6196Z" fill="#008DF4"/>
<path d="M52.1017 27.6196C51.868 27.6196 51.6339 27.5231 51.4554 27.3307C51.0983 26.9453 51.0983 26.3211 51.4554 25.9357L53.2836 23.9626C53.6407 23.5772 54.2191 23.5772 54.5762 23.9626C54.9333 24.348 54.9333 24.9722 54.5762 25.3576L52.748 27.3307C52.5694 27.5231 52.3358 27.6196 52.1017 27.6196Z" fill="#008DF4"/>
<path d="M55.7579 27.6196C55.524 27.6196 55.2901 27.5231 55.1116 27.3307L53.2836 25.3576C52.9265 24.9722 52.9265 24.348 53.2836 23.9626C53.6407 23.5772 54.2191 23.5772 54.5762 23.9626L56.4044 25.9357C56.7615 26.3211 56.7615 26.9453 56.4044 27.3307C56.2256 27.5231 55.992 27.6196 55.7579 27.6196Z" fill="#008DF4"/>
<path d="M55.7579 27.6196C55.524 27.6196 55.2901 27.5231 55.1116 27.3307C54.7545 26.9453 54.7545 26.3211 55.1116 25.9357L56.9398 23.9626C57.2969 23.5772 57.8753 23.5772 58.2322 23.9626C58.5893 24.348 58.5893 24.9722 58.2322 25.3576L56.4044 27.3307C56.2256 27.5231 55.992 27.6196 55.7579 27.6196Z" fill="#008DF4"/>
<path d="M17.3676 35.5115C17.1337 35.5115 16.8999 35.415 16.7213 35.2223C16.3642 34.8369 16.3642 34.2127 16.7213 33.8275L18.5493 31.8545C18.9064 31.4691 19.4848 31.4691 19.8419 31.8545C20.199 32.2398 20.199 32.8641 19.8419 33.2495L18.0137 35.2223C17.8353 35.4153 17.6012 35.5115 17.3676 35.5115Z" fill="#008DF4"/>
<path d="M21.0236 35.5115C20.7897 35.5115 20.5559 35.415 20.3773 35.2223L18.5491 33.2495C18.192 32.8641 18.1922 32.2398 18.5493 31.8545C18.9064 31.4691 19.4848 31.4691 19.8419 31.8545L21.6697 33.8275C22.0268 34.2129 22.0268 34.8372 21.6697 35.2223C21.4916 35.4153 21.2575 35.5115 21.0236 35.5115Z" fill="#008DF4"/>
<path d="M21.0236 35.5115C20.7897 35.5115 20.5559 35.415 20.3773 35.2223C20.0202 34.8369 20.0202 34.2127 20.3773 33.8275L22.2053 31.8545C22.5624 31.4691 23.1408 31.4691 23.4979 31.8545C23.855 32.2398 23.855 32.8641 23.4979 33.2495L21.6697 35.2223C21.4916 35.4153 21.2575 35.5115 21.0236 35.5115Z" fill="#008DF4"/>
<path d="M24.6798 35.5115C24.446 35.5115 24.2121 35.415 24.0335 35.2223L22.2053 33.2495C21.8482 32.8641 21.8482 32.2398 22.2053 31.8545C22.5624 31.4691 23.1408 31.4691 23.4979 31.8545L25.3259 33.8275C25.683 34.2129 25.683 34.8372 25.3259 35.2223C25.1476 35.4153 24.9137 35.5115 24.6798 35.5115Z" fill="#008DF4"/>
<path d="M24.6798 35.5115C24.446 35.5115 24.2121 35.415 24.0335 35.2223C23.6764 34.8369 23.6764 34.2127 24.0335 33.8275L25.8615 31.8545C26.2186 31.4691 26.797 31.4691 27.1541 31.8545C27.5112 32.2398 27.5112 32.8641 27.1541 33.2495L25.3259 35.2223C25.1476 35.4153 24.9137 35.5115 24.6798 35.5115Z" fill="#008DF4"/>
<path d="M28.3361 35.5115C28.1024 35.5115 27.8683 35.415 27.6898 35.2223L25.8615 33.2495C25.5044 32.8641 25.5044 32.2398 25.8615 31.8545C26.2186 31.4691 26.797 31.4691 27.1541 31.8545L28.9821 33.8275C29.3392 34.2129 29.3392 34.8372 28.9821 35.2223C28.804 35.4153 28.5702 35.5115 28.3361 35.5115Z" fill="#008DF4"/>
<path d="M28.3361 35.5115C28.1024 35.5115 27.8683 35.415 27.6898 35.2223C27.3327 34.8369 27.3327 34.2127 27.6898 33.8275L29.518 31.8545C29.8751 31.4691 30.4535 31.4691 30.8106 31.8545C31.1677 32.2398 31.1677 32.8641 30.8106 33.2495L28.9821 35.2223C28.804 35.4153 28.5702 35.5115 28.3361 35.5115Z" fill="#008DF4"/>
<path d="M31.9923 35.5115C31.7586 35.5115 31.5245 35.415 31.346 35.2223L29.5178 33.2495C29.1607 32.8641 29.1609 32.2398 29.518 31.8545C29.8751 31.4691 30.4535 31.4691 30.8106 31.8545L32.6386 33.8275C32.9957 34.2129 32.9957 34.8372 32.6386 35.2223C32.46 35.4153 32.2264 35.5115 31.9923 35.5115Z" fill="#008DF4"/>
<path d="M31.9923 35.5115C31.7586 35.5115 31.5245 35.415 31.346 35.2223C30.9889 34.8369 30.9889 34.2127 31.346 33.8275L33.1742 31.8545C33.5313 31.4691 34.1097 31.4691 34.4668 31.8545C34.8239 32.2398 34.8239 32.8641 34.4668 33.2495L32.6386 35.2223C32.46 35.4153 32.2264 35.5115 31.9923 35.5115Z" fill="#008DF4"/>
<path d="M35.6485 35.5115C35.4146 35.5115 35.1808 35.415 35.0022 35.2223L33.174 33.2495C32.8169 32.8641 32.8169 32.2398 33.174 31.8545C33.5311 31.4691 34.1097 31.4691 34.4668 31.8545L36.2948 33.8275C36.6519 34.2129 36.6519 34.8372 36.2948 35.2223C36.1163 35.4153 35.8826 35.5115 35.6485 35.5115Z" fill="#008DF4"/>
<path d="M55.7579 35.5115C55.524 35.5115 55.2901 35.415 55.1116 35.2223C54.7545 34.8369 54.7545 34.2127 55.1116 33.8275L56.9398 31.8545C57.2969 31.4691 57.8753 31.4691 58.2322 31.8545C58.5893 32.2398 58.5893 32.8641 58.2322 33.2495L56.4042 35.2223C56.2256 35.4153 55.992 35.5115 55.7579 35.5115Z" fill="#008DF4"/>
<path d="M59.4141 35.5115C59.1807 35.5115 58.9466 35.415 58.7681 35.2223L56.9398 33.2495C56.5827 32.8641 56.5827 32.2398 56.9398 31.8545C57.2969 31.4691 57.8753 31.4691 58.2322 31.8545L60.0606 33.8275C60.4175 34.2129 60.4175 34.8372 60.0606 35.2223C59.8821 35.4153 59.648 35.5115 59.4141 35.5115Z" fill="#008DF4"/>
<path d="M59.4141 35.5115C59.1807 35.5115 58.9466 35.415 58.7681 35.2223C58.411 34.8369 58.4109 34.2127 58.768 33.8275L60.596 31.8545C60.9531 31.4691 61.5315 31.4691 61.8886 31.8545C62.2457 32.2398 62.2457 32.8641 61.8886 33.2495L60.0606 35.2223C59.8821 35.4153 59.648 35.5115 59.4141 35.5115Z" fill="#008DF4"/>
<path d="M63.0706 35.5115C62.8367 35.5115 62.6026 35.415 62.4241 35.2223L60.5961 33.2495C60.2392 32.8641 60.2392 32.2398 60.596 31.8545C60.9531 31.4691 61.5315 31.4691 61.8886 31.8545L63.7166 33.8275C64.0737 34.2129 64.0737 34.8372 63.7166 35.2223C63.5381 35.4153 63.3047 35.5115 63.0706 35.5115Z" fill="#008DF4"/>
<path d="M63.0706 35.5115C62.8367 35.5115 62.6026 35.415 62.4241 35.2223C62.0672 34.8369 62.0672 34.2127 62.4241 33.8275L64.2525 31.8545C64.6094 31.4691 65.188 31.4691 65.5446 31.8545C65.9017 32.2398 65.9017 32.8641 65.5446 33.2495L63.7166 35.2223C63.5381 35.4153 63.3047 35.5115 63.0706 35.5115Z" fill="#008DF4"/>
<path d="M66.7266 35.5115C66.4927 35.5115 66.2591 35.415 66.0805 35.2223L64.2525 33.2495C63.8954 32.8641 63.8954 32.2398 64.2525 31.8545C64.6094 31.4691 65.188 31.4691 65.5446 31.8545L67.3731 33.8275C67.73 34.2129 67.73 34.8372 67.3731 35.2223C67.1945 35.4153 66.9607 35.5115 66.7266 35.5115Z" fill="#008DF4"/>
<path d="M59.4141 27.6196C59.1807 27.6196 58.9466 27.5231 58.7681 27.3307L56.9398 25.3576C56.5827 24.9722 56.5827 24.348 56.9398 23.9626C57.2969 23.5772 57.8753 23.5772 58.2322 23.9626L60.0606 25.9357C60.4175 26.3211 60.4175 26.9453 60.0606 27.3307C59.8821 27.5231 59.648 27.6196 59.4141 27.6196Z" fill="#008DF4"/>
<path d="M59.4141 27.6196C59.1807 27.6196 58.9466 27.5231 58.7681 27.3307C58.411 26.9453 58.4109 26.3211 58.768 25.9357L60.596 23.9626C60.9531 23.5772 61.5315 23.5772 61.8886 23.9626C62.2457 24.348 62.2457 24.9722 61.8886 25.3576L60.0606 27.3307C59.8821 27.5231 59.648 27.6196 59.4141 27.6196Z" fill="#008DF4"/>
<path d="M63.0706 27.6196C62.8367 27.6196 62.6026 27.5231 62.4241 27.3307L60.5961 25.3576C60.2392 24.9722 60.2392 24.348 60.596 23.9626C60.9531 23.5772 61.5315 23.5772 61.8886 23.9626L63.7166 25.9357C64.0737 26.3211 64.0737 26.9453 63.7166 27.3307C63.5381 27.5231 63.3047 27.6196 63.0706 27.6196Z" fill="#008DF4"/>
<path d="M63.0706 27.6196C62.8367 27.6196 62.6026 27.5231 62.4241 27.3307C62.0672 26.9453 62.0672 26.3211 62.4241 25.9357L64.2525 23.9626C64.6094 23.5772 65.188 23.5772 65.5446 23.9626C65.9017 24.348 65.9017 24.9722 65.5446 25.3576L63.7166 27.3307C63.5381 27.5231 63.3047 27.6196 63.0706 27.6196Z" fill="#008DF4"/>
<path d="M66.7266 27.6196C66.4927 27.6196 66.2591 27.5231 66.0805 27.3307L64.2525 25.3576C63.8954 24.9722 63.8954 24.348 64.2525 23.9626C64.6094 23.5772 65.188 23.5772 65.5446 23.9626L67.3731 25.9357C67.73 26.3211 67.73 26.9453 67.3731 27.3307C67.1945 27.5231 66.9607 27.6196 66.7266 27.6196Z" fill="#008DF4"/>
<path d="M66.7266 27.6196C66.4927 27.6196 66.2591 27.5231 66.0805 27.3307C65.7234 26.9453 65.7234 26.3211 66.0805 25.9357L67.9085 23.9626C68.2656 23.5772 68.844 23.5772 69.2011 23.9626C69.558 24.348 69.558 24.9722 69.2011 25.3576L67.3731 27.3307C67.1945 27.5231 66.9607 27.6196 66.7266 27.6196Z" fill="#008DF4"/>
<path d="M70.3833 27.6196C70.1494 27.6196 69.9153 27.5231 69.7367 27.3307L67.9087 25.3576C67.5516 24.9722 67.5516 24.348 67.9087 23.9626C68.2658 23.5772 68.844 23.5772 69.2011 23.9626L71.0293 25.9357C71.3864 26.3211 71.3864 26.9453 71.0293 27.3307C70.8505 27.5231 70.6167 27.6196 70.3833 27.6196Z" fill="#008DF4"/>
<path d="M70.3833 27.6196C70.1494 27.6196 69.9153 27.5231 69.7367 27.3307C69.3799 26.9453 69.3799 26.3211 69.7367 25.9357L71.5652 23.9626C71.9221 23.5772 72.5007 23.5772 72.8573 23.9626C73.2144 24.348 73.2144 24.9722 72.8573 25.3576L71.0293 27.3307C70.8505 27.5231 70.6167 27.6196 70.3833 27.6196Z" fill="#008DF4"/>
<path d="M74.0393 27.6196C73.8054 27.6196 73.5717 27.5231 73.3932 27.3307L71.5652 25.3576C71.2081 24.9722 71.2081 24.348 71.5652 23.9626C71.9221 23.5772 72.5007 23.5772 72.8573 23.9626L74.6853 25.9357C75.0424 26.3211 75.0424 26.9453 74.6853 27.3307C74.5072 27.5231 74.2731 27.6196 74.0393 27.6196Z" fill="#008DF4"/>
<path d="M74.0393 27.6196C73.8054 27.6196 73.5717 27.5231 73.3932 27.3307C73.0361 26.9453 73.0361 26.3211 73.3932 25.9357L75.2212 23.9626C75.5783 23.5772 76.1567 23.5772 76.5138 23.9626C76.8707 24.348 76.8707 24.9722 76.5138 25.3576L74.6853 27.3307C74.5072 27.5231 74.2731 27.6196 74.0393 27.6196Z" fill="#008DF4"/>
<path d="M77.6957 27.6196C77.4618 27.6196 77.2277 27.5231 77.0492 27.3307L75.2212 25.3576C74.8641 24.9722 74.8641 24.348 75.2212 23.9626C75.5783 23.5772 76.1567 23.5772 76.5138 23.9626L78.3418 25.9357C78.6989 26.3211 78.6989 26.9453 78.3418 27.3307C78.1632 27.5231 77.9291 27.6196 77.6957 27.6196Z" fill="#008DF4"/>
<path d="M77.6957 27.6196C77.4618 27.6196 77.2277 27.5231 77.0492 27.3307C76.6923 26.9453 76.6923 26.3211 77.0492 25.9357L78.8772 23.9626C79.2343 23.5772 79.8131 23.5772 80.1698 23.9626C80.5269 24.348 80.5269 24.9722 80.1698 25.3576L78.3418 27.3307C78.1632 27.5231 77.9291 27.6196 77.6957 27.6196Z" fill="#008DF4"/>
<path d="M81.3517 27.6196C81.1178 27.6196 80.8837 27.5231 80.7057 27.3307L78.8772 25.3576C78.5203 24.9722 78.5203 24.348 78.8772 23.9626C79.2343 23.5772 79.8131 23.5772 80.1698 23.9626L81.9978 25.9357C82.3549 26.3211 82.3549 26.9453 81.9978 27.3307C81.8197 27.5231 81.5856 27.6196 81.3517 27.6196Z" fill="#008DF4"/>
<path d="M81.3517 27.6196C81.1178 27.6196 80.8837 27.5231 80.7057 27.3307C80.3486 26.9453 80.3486 26.3211 80.7057 25.9357L82.5337 23.9626C82.8908 23.5772 83.4691 23.5772 83.8262 23.9626C84.1831 24.348 84.1831 24.9722 83.8262 25.3576L81.9978 27.3307C81.8197 27.5231 81.5856 27.6196 81.3517 27.6196Z" fill="#008DF4"/>
<path d="M85.0077 27.6196C84.7743 27.6196 84.5402 27.5231 84.3616 27.3307L82.5337 25.3576C82.1766 24.9722 82.1766 24.348 82.5337 23.9626C82.8908 23.5772 83.4691 23.5772 83.8262 23.9626L85.6542 25.9357C86.0111 26.3211 86.0111 26.9453 85.6542 27.3307C85.4757 27.5231 85.2418 27.6196 85.0077 27.6196Z" fill="#008DF4"/>
<path d="M85.0077 27.6196C84.7743 27.6196 84.5402 27.5231 84.3616 27.3307C84.0046 26.9453 84.0046 26.3211 84.3616 25.9357L86.1897 23.9626C86.5467 23.5772 87.1251 23.5772 87.4822 23.9626C87.8393 24.348 87.8393 24.9722 87.4822 25.3576L85.6542 27.3307C85.4757 27.5231 85.2418 27.6196 85.0077 27.6196Z" fill="#008DF4"/>
<path d="M88.6642 27.6196C88.4303 27.6196 88.1962 27.5231 88.0181 27.3307L86.1897 25.3576C85.8328 24.9722 85.8328 24.348 86.1897 23.9626C86.5467 23.5772 87.1251 23.5772 87.4822 23.9626L89.3102 25.9357C89.6673 26.3211 89.6673 26.9453 89.3102 27.3307C89.1317 27.5231 88.8983 27.6196 88.6642 27.6196Z" fill="#008DF4"/>
<path d="M88.6642 27.6196C88.4303 27.6196 88.1962 27.5231 88.0181 27.3307C87.661 26.9453 87.661 26.3211 88.0181 25.9357L89.8461 23.9626C90.203 23.5772 90.7816 23.5772 91.1387 23.9626C91.4956 24.348 91.4956 24.9722 91.1387 25.3576L89.3102 27.3307C89.1317 27.5231 88.8983 27.6196 88.6642 27.6196Z" fill="#008DF4"/>
<path d="M92.3204 27.6196C92.087 27.6196 91.8529 27.5231 91.6743 27.3307L89.8463 25.3576C89.4892 24.9722 89.4892 24.348 89.8463 23.9626C90.2032 23.5772 90.7818 23.5772 91.1389 23.9626L92.9669 25.9357C93.3238 26.3211 93.3238 26.9453 92.9669 27.3307C92.7881 27.5231 92.5543 27.6196 92.3204 27.6196Z" fill="#008DF4"/>
<path d="M92.3204 27.6196C92.087 27.6196 91.8529 27.5231 91.6743 27.3307C91.3172 26.9453 91.3172 26.3211 91.6743 25.9357L93.5023 23.9626C93.8594 23.5772 94.4378 23.5772 94.7949 23.9626C95.152 24.348 95.152 24.9722 94.7949 25.3576L92.9669 27.3307C92.7881 27.5231 92.5543 27.6196 92.3204 27.6196Z" fill="#008DF4"/>
<path d="M95.9769 27.6196C95.743 27.6196 95.5089 27.5231 95.3303 27.3307L93.5023 25.3576C93.1455 24.9722 93.1455 24.348 93.5023 23.9626C93.8594 23.5772 94.4378 23.5772 94.7949 23.9626L96.6229 25.9357C96.98 26.3211 96.98 26.9453 96.6229 27.3307C96.4444 27.5231 96.2107 27.6196 95.9769 27.6196Z" fill="#008DF4"/>
<path d="M95.9769 27.6196C95.743 27.6196 95.5089 27.5231 95.3303 27.3307C94.9735 26.9453 94.9735 26.3211 95.3303 25.9357L97.1588 23.9626C97.5157 23.5772 98.0943 23.5772 98.4509 23.9626C98.808 24.348 98.808 24.9722 98.4509 25.3576L96.6229 27.3307C96.4444 27.5231 96.2107 27.6196 95.9769 27.6196Z" fill="#008DF4"/>
<path d="M99.6329 27.6196C99.399 27.6196 99.1653 27.5231 98.9868 27.3307L97.1588 25.3576C96.8017 24.9722 96.8017 24.348 97.1588 23.9626C97.5157 23.5772 98.0943 23.5772 98.4509 23.9626L100.279 25.9357C100.636 26.3211 100.636 26.9453 100.279 27.3307C100.101 27.5231 99.8667 27.6196 99.6329 27.6196Z" fill="#008DF4"/>
<path d="M99.6329 27.6196C99.399 27.6196 99.1653 27.5231 98.9868 27.3307C98.6297 26.9453 98.6297 26.3211 98.9868 25.9357L100.815 23.9626C101.172 23.5772 101.75 23.5772 102.107 23.9626C102.464 24.348 102.464 24.9722 102.107 25.3576L100.279 27.3307C100.101 27.5231 99.8667 27.6196 99.6329 27.6196Z" fill="#008DF4"/>
<path d="M103.289 27.6196C103.055 27.6196 102.821 27.5231 102.643 27.3307L100.815 25.3576C100.458 24.9722 100.458 24.348 100.815 23.9626C101.172 23.5772 101.75 23.5772 102.107 23.9626L103.935 25.9357C104.292 26.3211 104.292 26.9453 103.935 27.3307C103.757 27.5231 103.523 27.6196 103.289 27.6196Z" fill="#008DF4"/>
<path d="M86.8362 35.5115C86.6023 35.5115 86.3682 35.415 86.1897 35.2223C85.8328 34.8369 85.8328 34.2127 86.1897 33.8275L88.0181 31.8545C88.375 31.4691 88.9536 31.4691 89.3102 31.8545C89.6673 32.2398 89.6673 32.8641 89.3102 33.2495L87.4822 35.2223C87.3037 35.4153 87.0698 35.5115 86.8362 35.5115Z" fill="#008DF4"/>
<path d="M90.4922 35.5115C90.2583 35.5115 90.0247 35.415 89.8461 35.2223L88.0181 33.2495C87.661 32.8641 87.661 32.2398 88.0181 31.8545C88.375 31.4691 88.9536 31.4691 89.3102 31.8545L91.1387 33.8275C91.4956 34.2129 91.4956 34.8372 91.1387 35.2223C90.9601 35.4153 90.7263 35.5115 90.4922 35.5115Z" fill="#008DF4"/>
<path d="M90.4922 35.5115C90.2583 35.5115 90.0247 35.415 89.8461 35.2223C89.489 34.8369 89.489 34.2127 89.8461 33.8275L91.6741 31.8545C92.0312 31.4691 92.6096 31.4691 92.9667 31.8545C93.3236 32.2398 93.3236 32.8641 92.9667 33.2495L91.1387 35.2223C90.9601 35.4153 90.7263 35.5115 90.4922 35.5115Z" fill="#008DF4"/>
<path d="M94.1489 35.5115C93.915 35.5115 93.6809 35.415 93.5023 35.2223L91.6743 33.2495C91.3172 32.8641 91.317 32.2398 91.6741 31.8545C92.0312 31.4691 92.6098 31.4691 92.9669 31.8545L94.7949 33.8275C95.152 34.2129 95.152 34.8372 94.7949 35.2223C94.6164 35.4153 94.3823 35.5115 94.1489 35.5115Z" fill="#008DF4"/>
<path d="M94.1489 35.5115C93.915 35.5115 93.6809 35.415 93.5023 35.2223C93.1455 34.8369 93.1455 34.2127 93.5023 33.8275L95.3303 31.8545C95.6874 31.4691 96.2663 31.4691 96.6229 31.8545C96.98 32.2398 96.98 32.8641 96.6229 33.2495L94.7949 35.2223C94.6164 35.4153 94.3823 35.5115 94.1489 35.5115Z" fill="#008DF4"/>
<path d="M97.8049 35.5115C97.571 35.5115 97.3369 35.415 97.1588 35.2223L95.3303 33.2495C94.9735 32.8641 94.9735 32.2398 95.3303 31.8545C95.6874 31.4691 96.2663 31.4691 96.6229 31.8545L98.4509 33.8275C98.808 34.2129 98.808 34.8372 98.4509 35.2223C98.2728 35.4153 98.0387 35.5115 97.8049 35.5115Z" fill="#008DF4"/>
<path d="M0.914229 73C0.408991 73 0 72.5588 0 72.0136V40.4438C0 39.8986 0.408991 39.4574 0.914229 39.4574C1.41947 39.4574 1.82846 39.8986 1.82846 40.4438V72.0133C1.82846 72.5586 1.41947 73 0.914229 73Z" fill="#008DF4"/>
<path d="M99.6329 67.081C99.1278 67.081 98.7189 66.6398 98.7189 66.0945V44.3898C98.7189 43.8445 99.1278 43.4034 99.6329 43.4034C100.138 43.4034 100.547 43.8445 100.547 44.3898V66.0945C100.547 66.6398 100.138 67.081 99.6329 67.081Z" fill="#008DF4"/>
<path d="M99.6329 73L0.914229 73C0.408991 73 0 72.5588 0 72.0136C0 71.4683 0.408991 71.0271 0.914229 71.0271H99.6326C100.138 71.0271 100.547 71.4683 100.547 72.0136C100.547 72.5588 100.138 73 99.6329 73Z" fill="#008DF4"/>
<path d="M116.086 45.3782C115.581 45.3782 115.172 44.937 115.172 44.3917V12.8223C115.172 12.277 115.581 11.8358 116.086 11.8358C116.591 11.8358 117 12.277 117 12.8223V44.392C117 44.937 116.591 45.3782 116.086 45.3782Z" fill="#008DF4"/>
<path d="M79.5237 9.86472C79.0182 9.86472 78.6097 9.42357 78.6097 8.8783C78.6097 5.07102 75.7385 1.97284 72.2113 1.97284C68.6833 1.97284 65.8128 5.07102 65.8128 8.8783C65.8128 9.42357 65.4038 9.86472 64.8988 9.86472C64.3933 9.86472 63.9848 9.42357 63.9848 8.8783C63.9848 3.98245 67.6749 0 72.2113 0C76.7474 0 80.4377 3.98245 80.4377 8.8783C80.4377 9.42357 80.0287 9.86472 79.5237 9.86472Z" fill="#008DF4"/>
<path d="M52.1017 9.86472C51.5964 9.86472 51.1877 9.42357 51.1877 8.8783C51.1877 3.98245 54.8779 0 59.4141 0C61.4172 0 63.3488 0.786819 64.8522 2.2176C65.2307 2.57684 65.2682 3.20008 64.9342 3.60965C64.5984 4.02094 64.0239 4.05771 63.6451 3.69724C62.4739 2.58547 60.971 1.97284 59.4139 1.97284C55.8864 1.97284 53.0157 5.07102 53.0157 8.8783C53.0159 9.42357 52.6069 9.86472 52.1017 9.86472Z" fill="#008DF4"/>
<path d="M52.1017 21.7008C51.5964 21.7008 51.1877 21.2594 51.1877 20.7141V8.8783C51.1877 8.33303 51.5964 7.89163 52.1017 7.89163C52.6069 7.89163 53.0159 8.33303 53.0159 8.8783V20.7141C53.0159 21.2594 52.6069 21.7008 52.1017 21.7008Z" fill="#008DF4"/>
<path d="M64.8986 21.7008C64.3931 21.7008 63.9846 21.2594 63.9846 20.7141V8.8783C63.9846 8.33303 64.3931 7.89163 64.8986 7.89163C65.4036 7.89163 65.8126 8.33303 65.8126 8.8783V20.7141C65.8126 21.2594 65.4036 21.7008 64.8986 21.7008Z" fill="#008DF4"/>
<path d="M63.0706 19.7294H53.9299C53.4246 19.7294 53.0157 19.2883 53.0157 18.743C53.0157 18.1978 53.4246 17.7566 53.9299 17.7566H63.0706C63.5756 17.7566 63.9846 18.1978 63.9846 18.743C63.9846 19.2883 63.5756 19.7294 63.0706 19.7294Z" fill="#008DF4"/>
<path d="M19.1956 25.6465C18.6904 25.6465 18.2816 25.2051 18.2816 24.6598V16.7699C18.2816 16.2247 18.6904 15.7833 19.1956 15.7833C19.7008 15.7833 20.1096 16.2247 20.1096 16.7699V24.6598C20.1096 25.2054 19.7008 25.6465 19.1956 25.6465Z" fill="#008DF4"/>
</svg>
