<svg width="71" height="112" viewBox="0 0 71 112" fill="none" xmlns="http://www.w3.org/2000/svg">
<path d="M70.1342 35.0001H68.4024C67.9238 35.0001 67.5366 34.6088 67.5366 34.1252C67.5366 33.6416 67.9238 33.25 68.4024 33.25H70.1342C70.6128 33.25 71 33.6413 71 34.1252C71 34.6088 70.6128 35.0001 70.1342 35.0001Z" fill="#008DF4"/>
<path d="M70.1342 45.5001C69.6556 45.5001 69.2684 45.1088 69.2684 44.6251V34.1252C69.2684 33.6416 69.6556 33.25 70.1342 33.25C70.6128 33.25 71 33.6413 71 34.1252V44.6251C71 45.1088 70.6128 45.5001 70.1342 45.5001Z" fill="#008DF4"/>
<path d="M70.1342 45.5001H68.4024C67.9238 45.5001 67.5366 45.1088 67.5366 44.6251C67.5366 44.1415 67.9238 43.7502 68.4024 43.7502H70.1342C70.6128 43.7502 71 44.1415 71 44.6251C71 45.1088 70.6128 45.5001 70.1342 45.5001Z" fill="#008DF4"/>
<path d="M70.1342 38.5001H69.2684C68.7896 38.5001 68.4024 38.1086 68.4024 37.625C68.4024 37.1413 68.7896 36.75 69.2684 36.75H70.1342C70.6128 36.75 71 37.1413 71 37.625C71 38.1086 70.6128 38.5001 70.1342 38.5001Z" fill="#008DF4"/>
<path d="M70.0259 42.0001H69.1601C68.6816 42.0001 68.2943 41.6086 68.2943 41.1249C68.2943 40.6413 68.6816 40.25 69.1601 40.25H70.0259C70.5045 40.25 70.8917 40.6413 70.8917 41.1249C70.8917 41.6086 70.5045 42.0001 70.0259 42.0001Z" fill="#008DF4"/>
<path d="M58.0122 92.7502H12.9861C7.73521 92.7502 3.46188 88.4331 3.46188 83.1253V28.8751C3.46188 23.5679 7.73521 19.2501 12.9861 19.2501H58.0122C63.2631 19.2501 67.5364 23.5679 67.5364 28.8751V83.125C67.5366 88.4331 63.2631 92.7502 58.0122 92.7502ZM12.9861 21.0002C8.68892 21.0002 5.19348 24.5328 5.19348 28.8751V83.125C5.19348 87.4676 8.68914 90.9999 12.9861 90.9999H58.0122C62.3093 90.9999 65.8048 87.4674 65.8048 83.125V28.8751C65.8048 24.5326 62.3091 21.0002 58.0122 21.0002H12.9861Z" fill="#008DF4"/>
<path d="M13.0419 17.5003C13.0216 17.5003 12.9997 17.5003 12.9794 17.5003C12.5008 17.4952 12.117 17.0996 12.122 16.6168C12.127 16.1323 12.543 15.6675 12.9962 15.7504C13.0114 15.7504 13.025 15.7504 13.0385 15.7504C15.4501 15.7504 15.9388 13.5952 16.5915 9.80134C17.2611 5.90241 18.0966 1.05042 23.2089 0.0172544C23.6537 -0.0775051 24.1323 0.227345 24.2269 0.703331C24.3218 1.17757 24.0171 1.63801 23.5469 1.73299C19.5982 2.53112 18.9371 6.37971 18.2978 10.1009C17.701 13.5705 17.0246 17.5003 13.0419 17.5003Z" fill="#008DF4"/>
<path d="M57.9581 17.5003C53.9754 17.5003 53.2988 13.5705 52.702 10.1012C52.0627 6.37993 51.4014 2.53134 47.4527 1.73321C46.9825 1.63823 46.6783 1.17778 46.7729 0.703549C46.8677 0.227564 47.3427 -0.0764109 47.7909 0.0174732C52.903 1.05064 53.7387 5.90241 54.4083 9.80155C55.0612 13.5954 55.5497 15.7506 57.9613 15.7506C57.9782 15.7506 57.9951 15.7515 58.012 15.7506C58.4856 15.7506 58.8728 16.1369 58.8778 16.617C58.8828 17.0998 58.499 17.4955 58.0202 17.5005C58.0003 17.5003 57.9784 17.5003 57.9581 17.5003Z" fill="#008DF4"/>
<path d="M58.0122 89.2501H12.9861C9.64438 89.2501 6.92507 86.502 6.92507 83.1253V28.8751C6.92507 25.4981 9.64459 22.7501 12.9861 22.7501H58.0122C61.3539 22.7501 64.073 25.4981 64.073 28.8751V83.125C64.073 86.502 61.3539 89.2501 58.0122 89.2501ZM12.9861 24.5002C10.5983 24.5002 8.65687 26.463 8.65687 28.8751V83.125C8.65687 85.538 10.5983 87.5 12.9861 87.5H58.0122C60.4 87.5 62.3414 85.538 62.3414 83.125V28.8751C62.3414 26.463 60.4 24.5002 58.0122 24.5002H12.9861Z" fill="#008DF4"/>
<path d="M2.59587 80.5H0.866012C0.387421 80.5 0.000216438 80.1087 0.000216438 79.6251C0.000216438 79.1414 0.387421 78.7501 0.866012 78.7501H2.59587C3.07446 78.7501 3.46188 79.1414 3.46188 79.6251C3.46188 80.1087 3.07446 80.5 2.59587 80.5Z" fill="#008DF4"/>
<path d="M0.866012 80.5C0.387421 80.5 0.000216438 80.1087 0.000216438 79.6251L0 74.3752C0 73.8916 0.387204 73.5001 0.865796 73.5001C1.34439 73.5001 1.73159 73.8916 1.73159 74.3752V79.6251C1.73159 80.1087 1.3446 80.5 0.866012 80.5Z" fill="#008DF4"/>
<path d="M2.59587 75.2502H0.866012C0.387421 75.2502 0 74.8589 0 74.3752C0 73.8916 0.387204 73.5001 0.865796 73.5001H2.59587C3.07446 73.5001 3.46188 73.8916 3.46188 74.3752C3.46188 74.8589 3.07446 75.2502 2.59587 75.2502Z" fill="#008DF4"/>
<path d="M47.622 1.75028H23.378C22.8994 1.75028 22.5122 1.35899 22.5122 0.875342C22.5122 0.391697 22.8994 0.000184521 23.378 0.000184521H47.6218C48.1004 0.000184521 48.4876 0.391697 48.4876 0.875342C48.4876 1.35899 48.1006 1.75028 47.622 1.75028Z" fill="#008DF4"/>
<path d="M47.6203 112C47.2162 112 46.856 111.713 46.7731 111.298C46.6783 110.823 46.9827 110.363 47.4529 110.267C51.4016 109.469 52.063 105.621 52.7022 101.9C53.2991 98.4308 53.9756 94.5003 57.9583 94.5003C57.9786 94.5003 58.0005 94.5003 58.0207 94.5003C58.4995 94.5054 58.8832 94.9019 58.8782 95.3838C58.8732 95.864 58.4858 96.2502 58.0124 96.2502C57.9955 96.252 57.9786 96.252 57.9617 96.2502C55.5502 96.2502 55.0614 98.4054 54.4087 102.199C53.7391 106.099 52.9036 110.951 47.7914 111.983C47.7353 111.995 47.6777 112 47.6203 112Z" fill="#008DF4"/>
<path d="M23.3797 112C23.3221 112 23.2647 111.995 23.2089 111.983C18.0968 110.951 17.2611 106.099 16.5915 102.199C15.9386 98.4052 15.4501 96.25 13.0385 96.25C13.0233 96.2518 13.0097 96.2518 12.9878 96.25C12.5142 96.25 12.127 95.8637 12.122 95.3836C12.117 94.9017 12.5008 94.5052 12.9794 94.5001C12.9997 94.5001 13.0216 94.5001 13.0419 94.5001C17.0246 94.5001 17.7009 98.4308 18.298 101.9C18.9373 105.62 19.5984 109.469 23.5471 110.267C24.0173 110.363 24.3218 110.822 24.2271 111.298C24.1442 111.713 23.7838 112 23.3797 112Z" fill="#008DF4"/>
<path d="M47.622 112H23.378C22.8994 112 22.5122 111.609 22.5122 111.125C22.5122 110.641 22.8994 110.25 23.378 110.25H47.6218C48.1004 110.25 48.4876 110.641 48.4876 111.125C48.4876 111.609 48.1006 112 47.622 112Z" fill="#008DF4"/>
<path d="M30.305 112C29.8264 112 29.439 111.609 29.439 111.125V107.625C29.439 107.141 29.8264 106.75 30.305 106.75C30.7836 106.75 31.1708 107.141 31.1708 107.625V111.125C31.1708 111.609 30.7836 112 30.305 112Z" fill="#008DF4"/>
<path d="M40.695 112C40.2164 112 39.8292 111.609 39.8292 111.125V107.625C39.8292 107.141 40.2164 106.75 40.695 106.75C41.1736 106.75 41.5608 107.141 41.5608 107.625V111.125C41.5608 111.609 41.1736 112 40.695 112Z" fill="#008DF4"/>
<path d="M30.305 5.25025C29.8264 5.25025 29.439 4.85896 29.439 4.37532V0.875342C29.439 0.391697 29.8264 0.000184521 30.305 0.000184521C30.7836 0.000184521 31.1708 0.391697 31.1708 0.875342V4.37532C31.1708 4.85896 30.7836 5.25025 30.305 5.25025Z" fill="#008DF4"/>
<path d="M40.695 5.25025C40.2164 5.25025 39.8292 4.85896 39.8292 4.37532V0.875342C39.8292 0.391697 40.2164 0.000184521 40.695 0.000184521C41.1736 0.000184521 41.5608 0.391697 41.5608 0.875342V4.37532C41.5608 4.85896 41.1736 5.25025 40.695 5.25025Z" fill="#008DF4"/>
<path d="M35.4983 54.2381C35.2683 54.2381 35.0485 54.1459 34.8861 53.9818L24.4772 43.4613C23.9075 42.8853 23.4458 42.2231 23.1075 41.4935C21.8679 38.8308 22.4176 35.6435 24.4772 33.563C27.0952 30.9176 31.6546 30.9176 34.2721 33.563L35.4983 34.8003L36.721 33.563C38.03 32.2403 39.7683 31.5122 41.6201 31.5122C43.4702 31.5122 45.2087 32.2401 46.5176 33.563C48.5807 35.647 49.1303 38.8369 47.8858 41.5005C47.5458 42.2294 47.0858 42.8899 46.5158 43.4624L36.1105 53.982C35.9481 54.1459 35.7283 54.2381 35.4983 54.2381ZM29.3747 33.2621C27.9881 33.2621 26.6824 33.8081 25.7017 34.8001C24.1576 36.3614 23.7451 38.7513 24.6734 40.7492C24.9272 41.2952 25.2737 41.7909 25.7017 42.224L35.4983 52.1258L45.2931 42.2257C45.7193 41.7942 46.0658 41.2996 46.3194 40.7542C47.2532 38.7564 46.8405 36.3638 45.2931 34.8001C43.3298 32.8143 39.9052 32.8176 37.9451 34.8001L36.1103 36.6559C35.7854 36.9842 35.2105 36.9842 34.8858 36.6559L33.0494 34.8001C32.0669 33.8081 30.7615 33.2621 29.3747 33.2621Z" fill="#008DF4"/>
<path d="M32.0331 45.4992H32.0314C30.462 45.4992 28.9957 44.7652 27.9049 43.4331C27.5989 43.0613 27.6513 42.5093 28.0182 42.2019C28.3868 41.8918 28.9331 41.943 29.2376 42.3172C29.9951 43.2401 30.9878 43.7493 32.0312 43.7493C32.0329 43.7493 32.0329 43.7493 32.0329 43.7493C33.078 43.7493 34.0725 43.2409 34.8317 42.3163C35.1379 41.9445 35.6841 41.895 36.0511 42.2019C36.4197 42.5104 36.4706 43.0624 36.1644 43.434C35.0706 44.7661 33.6043 45.4992 32.0331 45.4992Z" fill="#008DF4"/>
<path d="M35.4983 43.7502C35.3038 43.7502 35.1076 43.6843 34.9452 43.5484C34.5766 43.2401 34.5255 42.6888 34.8317 42.3163C35.9242 40.9842 37.3923 40.2509 38.9617 40.2502C40.5308 40.2502 41.9989 40.9833 43.0912 42.3148C43.3972 42.6864 43.3467 43.2385 42.9782 43.5469C42.6076 43.8563 42.063 43.8042 41.7587 43.4324C40.2435 41.5849 37.6831 41.5849 36.1646 43.4342C35.9938 43.6425 35.7469 43.7502 35.4983 43.7502Z" fill="#008DF4"/>
<path d="M56.2787 66.5001H14.7177C14.2391 66.5001 13.8519 66.1088 13.8519 65.625V62.1252C13.8519 61.6413 14.2391 61.2503 14.7177 61.2503H56.2787C56.7573 61.2503 57.1445 61.6413 57.1445 62.1252V65.625C57.1445 66.1088 56.7573 66.5001 56.2787 66.5001ZM15.5837 64.75H55.4129V63.0001H15.5837V64.75Z" fill="#008DF4"/>
<path d="M37.2299 66.5001C37.0085 66.5001 36.7868 66.4146 36.6177 66.2436C36.2794 65.9018 36.2794 65.3481 36.6177 65.0065L40.0813 61.5065C40.4195 61.1647 40.9674 61.1647 41.3055 61.5065C41.6435 61.8484 41.6437 62.402 41.3055 62.7437L37.8421 66.2436C37.6729 66.4148 37.4516 66.5001 37.2299 66.5001Z" fill="#008DF4"/>
<path d="M18.1828 66.5001C17.7042 66.5001 17.317 66.1088 17.317 65.625V62.1252C17.317 61.6413 17.7042 61.2503 18.1828 61.2503C18.6614 61.2503 19.0488 61.6413 19.0488 62.1252V65.625C19.0488 66.1088 18.6614 66.5001 18.1828 66.5001Z" fill="#008DF4"/>
<path d="M56.2787 73.5001H14.7177C14.2391 73.5001 13.8519 73.1088 13.8519 72.6251V69.1254C13.8519 68.6415 14.2391 68.2502 14.7177 68.2502H56.2787C56.7573 68.2502 57.1445 68.6415 57.1445 69.1254V72.6251C57.1445 73.1088 56.7573 73.5001 56.2787 73.5001ZM15.5837 71.7502H55.4129V70.0003H15.5837V71.7502Z" fill="#008DF4"/>
<path d="M44.1569 73.5001C43.9356 73.5001 43.7138 73.4147 43.5447 73.2438C43.2064 72.902 43.2064 72.3483 43.5447 72.0067L47.0081 68.5067C47.3463 68.1649 47.8942 68.1649 48.2325 68.5067C48.5707 68.8485 48.5707 69.4022 48.2325 69.7438L44.7691 73.2438C44.6 73.4147 44.3782 73.5001 44.1569 73.5001Z" fill="#008DF4"/>
<path d="M18.1828 73.5001C17.7042 73.5001 17.317 73.1088 17.317 72.6251V69.1254C17.317 68.6415 17.7042 68.2502 18.1828 68.2502C18.6614 68.2502 19.0488 68.6415 19.0488 69.1254V72.6251C19.0488 73.1088 18.6614 73.5001 18.1828 73.5001Z" fill="#008DF4"/>
<path d="M56.2787 80.5H14.7177C14.2391 80.5 13.8519 80.1087 13.8519 79.6251V76.1251C13.8519 75.6415 14.2391 75.2502 14.7177 75.2502H56.2787C56.7573 75.2502 57.1445 75.6415 57.1445 76.1251V79.6251C57.1445 80.1087 56.7573 80.5 56.2787 80.5ZM15.5837 78.7501H55.4129V77.0003H15.5837V78.7501Z" fill="#008DF4"/>
<path d="M26.8382 80.5C26.6166 80.5 26.3951 80.4144 26.2259 80.2437C25.8877 79.9019 25.8877 79.3482 26.2259 79.0064L29.6893 75.5064C30.0276 75.1646 30.5755 75.1646 30.9135 75.5064C31.2518 75.8483 31.2518 76.4022 30.9135 76.7438L27.4501 80.2437C27.2812 80.4147 27.0595 80.5 26.8382 80.5Z" fill="#008DF4"/>
<path d="M18.1828 80.5C17.7042 80.5 17.317 80.1087 17.317 79.6251V76.1251C17.317 75.6415 17.7042 75.2502 18.1828 75.2502C18.6614 75.2502 19.0488 75.6415 19.0488 76.1251V79.6251C19.0488 80.1087 18.6614 80.5 18.1828 80.5Z" fill="#008DF4"/>
<path d="M17.3153 56C15.4061 56 13.8519 54.4302 13.8519 52.5C13.8519 50.5698 15.4061 49 17.3153 49C19.2244 49 20.7787 50.5698 20.7787 52.5C20.7787 54.4302 19.2246 56 17.3153 56ZM17.3153 50.7501C16.3598 50.7501 15.5837 51.5353 15.5837 52.5C15.5837 53.4647 16.3598 54.2501 17.3153 54.2501C18.2707 54.2501 19.0471 53.4649 19.0471 52.5C19.0471 51.5351 18.2707 50.7501 17.3153 50.7501Z" fill="#008DF4"/>
<path d="M53.6813 56C51.7721 56 50.2177 54.4302 50.2177 52.5C50.2177 50.5698 51.7721 49 53.6813 49C55.5904 49 57.1445 50.5698 57.1445 52.5C57.1445 54.4302 55.5904 56 53.6813 56ZM53.6813 50.7501C52.7258 50.7501 51.9495 51.5353 51.9495 52.5C51.9495 53.4647 52.7258 54.2501 53.6813 54.2501C54.6367 54.2501 55.4129 53.4649 55.4129 52.5C55.4129 51.5351 54.6367 50.7501 53.6813 50.7501Z" fill="#008DF4"/>
</svg>
