<svg width="24" height="25" viewBox="0 0 24 25" fill="none" xmlns="http://www.w3.org/2000/svg">
<path fill-rule="evenodd" clip-rule="evenodd" d="M3.05561 5.9514C3.05561 5.9514 3.01316 4.83819 3.7197 3.39772C4.21811 2.37899 6.15835 1.81623 6.15835 1.81623C6.15835 1.81623 6.98812 1.60536 8.65588 3.21562C9.31879 3.82924 9.74037 4.65974 9.84441 5.55705C9.90466 6.37587 8.15884 8.12168 8.15884 8.12168C8.29395 9.12405 8.71247 10.067 9.36517 10.8397C10.0512 11.638 11.2328 12.8826 11.8531 13.4645C12.3844 13.963 12.9772 14.6134 13.7659 15.1364C15.3173 16.1647 15.6898 16.0716 15.6898 16.0716C15.6898 16.0716 17.8998 14.2204 18.5611 14.2847C19.0636 14.3354 19.7757 14.6667 20.6862 15.4431C21.3626 16.0182 21.7953 16.4537 22.1349 17.0342C22.2558 17.2347 22.351 17.4495 22.4183 17.6737C22.4183 17.6737 22.5073 18.5924 21.0805 20.0548C19.6606 21.5076 17.7026 21.1269 17.7026 21.1269C17.7026 21.1269 16.577 20.9599 14.7354 20.0932C12.6963 19.0988 10.8385 17.7696 9.23917 16.1606C7.74668 14.6189 5.79001 12.2596 4.83838 10.6178C3.64027 8.55436 3.05561 5.9514 3.05561 5.9514Z" fill="white"/>
</svg>
