<svg width="81" height="93" viewBox="0 0 81 93" fill="none" xmlns="http://www.w3.org/2000/svg">
<path d="M75.9373 82.828H5.06251C2.27133 82.828 0 80.5462 0 77.7423V5.08579C0 2.28167 2.27133 0 5.06251 0H75.9373C78.7285 0 80.9998 2.28186 80.9998 5.08579V77.7423C80.9998 80.5462 78.7285 82.828 75.9373 82.828ZM5.06251 1.45285C3.06811 1.45285 1.44633 3.08269 1.44633 5.08561V77.7421C1.44633 79.7457 3.06793 81.3748 5.06251 81.3748H75.9373C77.9317 81.3748 79.5533 79.7457 79.5533 77.7421V5.08579C79.5533 3.08288 77.9317 1.45303 75.9373 1.45303L5.06251 1.45285Z" fill="white"/>
<path d="M75.9373 87.1875H5.06251C2.27133 87.1875 0 84.9055 0 82.1015C0 81.6999 0.323416 81.375 0.723345 81.375C1.12309 81.375 1.44651 81.6999 1.44651 82.1015C1.44651 84.1052 3.06811 85.7343 5.06269 85.7343H75.9375C77.9319 85.7343 79.5535 84.1052 79.5535 82.1015C79.5535 81.6999 79.8769 81.375 80.2767 81.375C80.6764 81.375 81 81.6999 81 82.1015C80.9998 84.9057 78.7285 87.1875 75.9373 87.1875Z" fill="white"/>
<path d="M75.9373 90.0938H5.06251C2.27133 90.0938 0 87.8117 0 85.0078V15.2576C0 14.856 0.323416 14.531 0.723345 14.531C1.12309 14.531 1.44651 14.856 1.44651 15.2576V85.0078C1.44651 87.0114 3.06811 88.6405 5.06269 88.6405H75.9375C77.9319 88.6405 79.5535 87.0114 79.5535 85.0078V15.2576C79.5535 14.856 79.8769 14.531 80.2767 14.531C80.6764 14.531 81 14.856 81 15.2576V85.0078C80.9998 87.8119 78.7285 90.0938 75.9373 90.0938Z" fill="white"/>
<path d="M16.6339 93H9.40168C9.00193 93 8.67851 92.6751 8.67851 92.2735C8.67851 91.8719 9.00193 91.547 9.40168 91.547H16.6337C17.0334 91.547 17.357 91.8719 17.357 92.2735C17.357 92.6751 17.0336 93 16.6339 93Z" fill="white"/>
<path d="M71.598 93H64.366C63.9662 93 63.6428 92.6751 63.6428 92.2735C63.6428 91.8719 63.9662 91.547 64.366 91.547H71.598C71.9979 91.547 72.3213 91.8719 72.3213 92.2735C72.3213 92.6751 71.9979 93 71.598 93Z" fill="white"/>
<path d="M33.9911 88.6405C33.5913 88.6405 33.2677 88.3156 33.2677 87.914V86.4608C33.2677 86.0594 33.5913 85.7343 33.9911 85.7343C34.3908 85.7343 34.7142 86.0594 34.7142 86.4608V87.914C34.7142 88.3156 34.3908 88.6405 33.9911 88.6405Z" fill="white"/>
<path d="M47.0088 88.6405C46.609 88.6405 46.2854 88.3156 46.2854 87.914V86.4608C46.2854 86.0594 46.609 85.7343 47.0088 85.7343C47.4085 85.7343 47.7319 86.0594 47.7319 86.4608V87.914C47.7319 88.3156 47.4085 88.6405 47.0088 88.6405Z" fill="white"/>
<path d="M33.3412 24.7768C33.1563 24.7768 32.9711 24.7057 32.8298 24.564L24.6456 16.3433C24.3631 16.0595 24.3631 15.5997 24.6456 15.3159C28.8804 11.0615 34.5107 8.71855 40.4999 8.71855C46.4889 8.71855 52.1192 11.0616 56.354 15.3159C56.4897 15.4522 56.5658 15.6368 56.5658 15.8296C56.5658 16.0226 56.4897 16.207 56.354 16.3433L48.1698 24.564C47.8873 24.8478 47.4297 24.8478 47.1471 24.564C45.3703 22.7795 43.0084 21.7966 40.4999 21.7966C37.9898 21.7966 35.6295 22.7793 33.8525 24.564C33.7113 24.7057 33.5262 24.7768 33.3412 24.7768ZM40.4999 20.3435C43.154 20.3435 45.6626 21.2957 47.6415 23.0397L54.8116 15.838C50.9143 12.1783 45.8605 10.1718 40.4999 10.1718C35.1379 10.1718 30.0853 12.1783 26.1882 15.8381L33.3582 23.0399C35.3357 21.2959 37.8457 20.3435 40.4999 20.3435Z" fill="white"/>
<path d="M40.4999 11.6248C40.1002 11.6248 39.7766 11.2999 39.7766 10.8983V9.44525C39.7766 9.04365 40.1002 8.71855 40.4999 8.71855C40.8997 8.71855 41.2231 9.04365 41.2231 9.44525V10.8983C41.2231 11.2999 40.8997 11.6248 40.4999 11.6248Z" fill="white"/>
<path d="M35.2581 12.3188C34.9389 12.3188 34.6464 12.1044 34.5603 11.7802L34.1861 10.3753C34.083 9.98714 34.3118 9.58917 34.6974 9.48559C35.0858 9.38128 35.4799 9.6117 35.583 9.99913L35.9573 11.404C36.0604 11.7922 35.8315 12.1901 35.4459 12.2937C35.3837 12.311 35.3202 12.3188 35.2581 12.3188Z" fill="white"/>
<path d="M30.3763 14.351C30.1264 14.351 29.8834 14.2203 29.7492 13.987L29.0261 12.7267C28.8269 12.3797 28.9456 11.935 29.2916 11.7347C29.6391 11.5327 30.0811 11.6539 30.279 12.0015L31.0022 13.2617C31.2028 13.6086 31.0827 14.0535 30.7367 14.2537C30.6234 14.3197 30.4992 14.351 30.3763 14.351Z" fill="white"/>
<path d="M50.622 14.3453C50.4976 14.3453 50.3733 14.3133 50.259 14.2466C49.913 14.0451 49.7956 13.6003 49.9964 13.2539L50.7251 11.9937C50.9256 11.6439 51.3693 11.5305 51.7138 11.7306C52.0599 11.9321 52.1773 12.3769 51.9765 12.7233L51.2477 13.9835C51.1137 14.2161 50.8706 14.3453 50.622 14.3453Z" fill="white"/>
<path d="M45.7375 12.3132C45.6753 12.3132 45.6118 12.3053 45.5481 12.2883C45.1625 12.1832 44.9351 11.7845 45.0397 11.3971L45.4183 9.98932C45.5212 9.60189 45.9169 9.37347 46.3051 9.47723C46.6909 9.58208 46.9183 9.98078 46.8138 10.3682L46.4352 11.776C46.3491 12.1002 46.0568 12.3132 45.7375 12.3132Z" fill="white"/>
<path d="M42.6696 21.0702C42.2697 21.0702 41.9462 20.7453 41.9462 20.3437C41.9462 19.5427 41.298 18.8907 40.4999 18.8907C39.7033 18.8907 39.0534 19.5427 39.0534 20.3437C39.0534 20.7453 38.73 21.0702 38.3302 21.0702C37.9305 21.0702 37.6071 20.7453 37.6071 20.3437C37.6071 18.7409 38.9053 17.4375 40.4999 17.4375C42.096 17.4375 43.3928 18.7409 43.3928 20.3437C43.3928 20.7451 43.0692 21.0702 42.6696 21.0702Z" fill="white"/>
<path d="M40.4999 18.8907C40.1002 18.8907 39.7766 18.5654 39.7766 18.1638V13.8045C39.7766 13.4029 40.1002 13.078 40.4999 13.078C40.8997 13.078 41.2231 13.4029 41.2231 13.8045V18.1638C41.2231 18.5654 40.8997 18.8907 40.4999 18.8907Z" fill="white"/>
<path d="M61.4729 52.3124H19.5267C19.127 52.3124 18.8035 51.9873 18.8035 51.5859C18.8035 51.1841 19.127 50.8594 19.5267 50.8594H61.4729C61.8727 50.8594 62.1963 51.1841 62.1963 51.5859C62.1963 51.9873 61.8727 52.3124 61.4729 52.3124Z" fill="white"/>
<path d="M57.1338 59.5781H23.866C23.4663 59.5781 23.1427 59.2532 23.1427 58.8516C23.1427 58.45 23.4663 58.1251 23.866 58.1251H57.1338C57.5335 58.1251 57.8569 58.45 57.8569 58.8516C57.8569 59.2532 57.5335 59.5781 57.1338 59.5781Z" fill="white"/>
<path d="M52.7944 66.8436H28.2054C27.8056 66.8436 27.4822 66.5187 27.4822 66.1171C27.4822 65.7155 27.8056 65.3906 28.2054 65.3906H52.7944C53.1944 65.3906 53.5178 65.7155 53.5178 66.1171C53.5178 66.5187 53.1944 66.8436 52.7944 66.8436Z" fill="white"/>
<path d="M5.06251 7.26552C4.66276 7.26552 4.33917 6.9406 4.33917 6.539C4.33917 5.33711 5.31231 4.35928 6.50884 4.35928C6.90859 4.35928 7.23219 4.68419 7.23219 5.08579C7.23219 5.48739 6.90859 5.81249 6.50884 5.81249C6.10909 5.81249 5.78568 6.13813 5.78568 6.539C5.78568 6.9406 5.46226 7.26552 5.06251 7.26552Z" fill="white"/>
<path d="M6.50884 78.4688C5.31249 78.4688 4.33917 77.4909 4.33917 76.289C4.33917 75.8874 4.66276 75.5625 5.06251 75.5625C5.46226 75.5625 5.78568 75.8874 5.78568 76.289C5.78568 76.6892 6.10909 77.0157 6.50884 77.0157C6.90859 77.0157 7.23219 77.3407 7.23219 77.7423C7.23219 78.1439 6.90859 78.4688 6.50884 78.4688Z" fill="white"/>
<path d="M5.06251 77.0157C4.66276 77.0157 4.33917 76.6906 4.33917 76.289V6.539C4.33917 6.1374 4.66276 5.81249 5.06251 5.81249C5.46226 5.81249 5.78568 6.1374 5.78568 6.539V76.289C5.78568 76.6906 5.46226 77.0157 5.06251 77.0157Z" fill="white"/>
<path d="M75.9373 7.26552C75.5376 7.26552 75.2141 6.9406 75.2141 6.539C75.2141 6.13813 74.8891 5.81249 74.4908 5.81249C74.091 5.81249 73.7676 5.48739 73.7676 5.08579C73.7676 4.68419 74.091 4.35928 74.4908 4.35928C75.6871 4.35928 76.6605 5.33711 76.6605 6.539C76.6605 6.9406 76.3371 7.26552 75.9373 7.26552Z" fill="white"/>
<path d="M74.4908 78.4688C74.091 78.4688 73.7676 78.1439 73.7676 77.7423C73.7676 77.3407 74.091 77.0157 74.4908 77.0157C74.8891 77.0157 75.2141 76.6892 75.2141 76.289C75.2141 75.8874 75.5376 75.5625 75.9373 75.5625C76.3371 75.5625 76.6605 75.8874 76.6605 76.289C76.6605 77.4909 75.6871 78.4688 74.4908 78.4688Z" fill="white"/>
<path d="M75.9373 77.0157C75.5376 77.0157 75.2141 76.6906 75.2141 76.289V6.539C75.2141 6.1374 75.5376 5.81249 75.9373 5.81249C76.3371 5.81249 76.6605 6.1374 76.6605 6.539V76.289C76.6605 76.6906 76.3371 77.0157 75.9373 77.0157Z" fill="white"/>
<path d="M9.40168 93C9.00193 93 8.67851 92.6751 8.67851 92.2735V90.8204C8.67851 90.4188 9.00193 90.0939 9.40168 90.0939C9.80143 90.0939 10.1248 90.4188 10.1248 90.8204V92.2735C10.1248 92.6751 9.80143 93 9.40168 93Z" fill="white"/>
<path d="M16.6339 93C16.2341 93 15.9107 92.6751 15.9107 92.2735V90.8204C15.9107 90.4188 16.2341 90.0939 16.6339 90.0939C17.0336 90.0939 17.3572 90.4188 17.3572 90.8204V92.2735C17.357 92.6751 17.0336 93 16.6339 93Z" fill="white"/>
<path d="M64.3658 93C63.966 93 63.6426 92.6751 63.6426 92.2735V90.8204C63.6426 90.4188 63.966 90.0939 64.3658 90.0939C64.7655 90.0939 65.0889 90.4188 65.0889 90.8204V92.2735C65.0889 92.6751 64.7655 93 64.3658 93Z" fill="white"/>
<path d="M71.598 93C71.1984 93 70.8748 92.6751 70.8748 92.2735V90.8204C70.8748 90.4188 71.1984 90.0939 71.598 90.0939C71.9979 90.0939 72.3213 90.4188 72.3213 90.8204V92.2735C72.3213 92.6751 71.9979 93 71.598 93Z" fill="white"/>
</svg>
