<svg width="91" height="91" viewBox="0 0 91 91" fill="none" xmlns="http://www.w3.org/2000/svg">
<path d="M45.1057 45.7236C45.2457 45.7819 45.3956 45.8113 45.5444 45.8113C45.6933 45.8113 45.8432 45.7819 45.9831 45.723C46.8395 45.3654 67.0025 36.7627 70.6877 20.2214C72.888 10.3348 67.5279 3.30527 61.6169 0.956902C55.7115 -1.3898 49.5628 0.666479 45.5444 6.19116C41.5249 0.665924 35.3796 -1.39091 29.4697 0.957457C23.5588 3.30582 18.2009 10.3359 20.4011 20.2214C24.083 36.7627 44.2494 45.3654 45.1057 45.7236ZM30.3094 3.07093C31.5445 2.5806 32.9272 2.28685 34.3678 2.28685C37.8608 2.28685 41.6915 4.01328 44.567 8.83884C44.978 9.52741 46.1109 9.52741 46.5218 8.83884C50.5813 2.02419 56.5489 1.39115 60.7761 3.07093C65.8208 5.0739 70.3779 11.1411 68.4664 19.7272C65.3276 33.8235 48.491 42.083 45.5444 43.4296C42.5956 42.0852 25.7623 33.8418 22.6225 19.7272C20.7099 11.1417 25.267 5.07501 30.3094 3.07093Z" fill="#008DF4"/>
<path d="M8.53142 91C11.3259 91 13.9559 89.9122 15.9251 87.9775C17.8955 89.9127 20.5255 91 23.3189 91C26.1133 91 28.7434 89.9122 30.7126 87.9775C32.6829 89.9127 35.313 91 38.1063 91C40.9007 91 43.5308 89.9122 45.5 87.9775C47.4703 89.9127 50.1015 91 52.8948 91C55.6882 91 58.3182 89.9122 60.2874 87.9775C62.2578 89.9127 64.8878 91 67.6812 91C70.4745 91 73.1045 89.9122 75.0749 87.9775C77.0452 89.9122 79.6753 91 82.4686 91C85.7073 91 88.7272 89.5379 90.7531 86.988C91.144 86.496 91.0618 85.7807 90.5698 85.3898C90.0789 84.9989 89.3614 85.0816 88.9715 85.5731C87.38 87.5766 85.0098 88.7255 82.4686 88.7255C79.9274 88.7255 77.5572 87.5766 75.9656 85.5731C75.5325 85.03 74.6173 85.03 74.1841 85.5731C72.5925 87.5766 70.2224 88.7255 67.6812 88.7255C65.1399 88.7255 62.7698 87.5766 61.1793 85.5736C60.9638 85.3015 60.6351 85.1432 60.2885 85.1432C59.942 85.1432 59.6133 85.3015 59.3978 85.5731C57.8062 87.5766 55.436 88.7255 52.8948 88.7255C50.3525 88.7255 47.9823 87.5766 46.3908 85.5731C45.9576 85.03 45.0402 85.0294 44.6092 85.5736C43.0188 87.5766 40.6486 88.7255 38.1063 88.7255C35.5651 88.7255 33.1949 87.5766 31.6033 85.5731C31.1702 85.03 30.2528 85.0294 29.8218 85.5736C28.2313 87.5766 25.8612 88.7255 23.3189 88.7255C20.7776 88.7255 18.4075 87.5766 16.8159 85.5731C16.3827 85.03 15.4653 85.0294 15.0344 85.5736C13.4439 87.5766 11.0737 88.7255 8.53142 88.7255C5.99021 88.7255 3.62004 87.5766 2.02845 85.5731C1.6375 85.0816 0.921118 84.9983 0.430203 85.3898C-0.0618231 85.7807 -0.144013 86.496 0.246943 86.988C2.2728 89.5379 5.29271 91 8.53142 91Z" fill="#008DF4"/>
<path d="M8.53142 76.2423C11.3259 76.2423 13.9559 75.1545 15.9251 73.2193C17.8955 75.1545 20.5255 76.2423 23.3188 76.2423C26.1133 76.2423 28.7434 75.1545 30.7126 73.2193C32.6829 75.1545 35.313 76.2423 38.1063 76.2423C40.9007 76.2423 43.5308 75.1545 45.5 73.2193C47.4703 75.1545 50.1015 76.2423 52.8948 76.2423C55.6882 76.2423 58.3182 75.1545 60.2874 73.2193C62.2578 75.1545 64.8878 76.2423 67.6812 76.2423C70.4745 76.2423 73.1045 75.1545 75.0749 73.2193C77.0452 75.1545 79.6753 76.2423 82.4686 76.2423C85.7073 76.2423 88.7261 74.7797 90.7531 72.2297C91.144 71.7377 91.0618 71.0225 90.5698 70.6316C90.0789 70.2406 89.3614 70.3239 88.9715 70.8148C87.38 72.8184 85.0098 73.9678 82.4686 73.9678C79.9274 73.9678 77.5572 72.8184 75.9656 70.8148C75.5325 70.2717 74.6173 70.2717 74.1841 70.8148C72.5925 72.8184 70.2224 73.9678 67.6812 73.9678C65.1399 73.9678 62.7698 72.8189 61.1793 70.8154C60.9638 70.5433 60.6351 70.385 60.2885 70.385C59.942 70.385 59.6133 70.5433 59.3978 70.8148C57.8062 72.8184 55.436 73.9678 52.8948 73.9678C50.3536 73.9678 47.9823 72.8184 46.3908 70.8148C45.9576 70.2717 45.0402 70.2712 44.6092 70.8154C43.0188 72.8189 40.6486 73.9678 38.1063 73.9678C35.5651 73.9678 33.1949 72.8184 31.6033 70.8148C31.1702 70.2717 30.2528 70.2712 29.8218 70.8154C28.2313 72.8189 25.8612 73.9678 23.3188 73.9678C20.7776 73.9678 18.4075 72.8184 16.8159 70.8148C16.3827 70.2717 15.4653 70.2712 15.0344 70.8154C13.4439 72.8189 11.0737 73.9678 8.53142 73.9678C5.99021 73.9678 3.62004 72.8184 2.02846 70.8148C1.6375 70.3228 0.921119 70.2401 0.430204 70.6316C-0.0618221 71.0225 -0.144012 71.7377 0.246944 72.2297C2.27391 74.7797 5.29271 76.2423 8.53142 76.2423Z" fill="#008DF4"/>
<path d="M16.8159 56.0572C16.3827 55.5141 15.4653 55.5135 15.0344 56.0577C13.4439 58.0607 11.0737 59.2096 8.53142 59.2096C5.99021 59.2096 3.62004 58.0607 2.02845 56.0572C1.6375 55.5657 0.921118 55.483 0.430203 55.8739C-0.0618231 56.2648 -0.144013 56.9801 0.246943 57.4721C2.2728 60.022 5.29271 61.4841 8.53142 61.4841C11.3259 61.4841 13.9559 60.3963 15.9251 58.4616C17.8955 60.3968 20.5255 61.4841 23.3189 61.4841C26.1133 61.4841 28.7434 60.3963 30.7126 58.4616C32.6829 60.3968 35.313 61.4841 38.1063 61.4841C40.9007 61.4841 43.5308 60.3963 45.5 58.4616C47.4703 60.3968 50.1015 61.4841 52.8948 61.4841C55.6882 61.4841 58.3182 60.3963 60.2874 58.4616C62.2578 60.3968 64.8878 61.4841 67.6812 61.4841C70.4745 61.4841 73.1045 60.3963 75.0749 58.4616C77.0452 60.3963 79.6753 61.4841 82.4686 61.4841C85.7073 61.4841 88.7272 60.022 90.7531 57.4721C91.144 56.9801 91.0618 56.2648 90.5698 55.8739C90.0789 55.4835 89.3614 55.5657 88.9715 56.0572C87.38 58.0607 85.0098 59.2096 82.4686 59.2096C79.9274 59.2096 77.5572 58.0607 75.9656 56.0572C75.5325 55.5141 74.6173 55.5141 74.1841 56.0572C72.5925 58.0607 70.2224 59.2096 67.6812 59.2096C65.1399 59.2096 62.7698 58.0607 61.1793 56.0577C60.9638 55.7856 60.6351 55.6274 60.2885 55.6274C59.942 55.6274 59.6133 55.7856 59.3978 56.0572C57.8062 58.0607 55.436 59.2096 52.8948 59.2096C50.3525 59.2096 47.9823 58.0607 46.3908 56.0572C45.9576 55.5141 45.0402 55.5135 44.6092 56.0577C43.0188 58.0607 40.6486 59.2096 38.1063 59.2096C35.5651 59.2096 33.1949 58.0607 31.6033 56.0572C31.1702 55.5141 30.2528 55.5135 29.8218 56.0577C28.2313 58.0607 25.8612 59.2096 23.3189 59.2096C20.7776 59.2096 18.4075 58.0607 16.8159 56.0572Z" fill="#008DF4"/>
</svg>
