<svg width="34" height="34" viewBox="0 0 34 34" fill="none" xmlns="http://www.w3.org/2000/svg">
<rect y="0.419922" width="33.5203" height="33.5203" fill="white"/>
<path fill-rule="evenodd" clip-rule="evenodd" d="M21.3843 27.6398H12.3601C10.7645 27.6398 9.2343 27.006 8.10606 25.8779C6.97781 24.7498 6.34398 23.2198 6.34398 21.6244V12.3005C6.34398 10.7052 6.97781 9.17513 8.10606 8.04702C9.2343 6.91892 10.7645 6.28516 12.3601 6.28516H21.3843C22.9799 6.28516 24.5101 6.91892 25.6383 8.04702C26.7666 9.17513 27.4004 10.7052 27.4004 12.3005V21.6244C27.4004 23.2198 26.7666 24.7498 25.6383 25.8779C24.5101 27.006 22.9799 27.6398 21.3843 27.6398ZM25.4452 11.8494C25.4452 10.8523 25.049 9.89601 24.3439 9.19094C23.6387 8.48587 22.6823 8.08977 21.6851 8.08977H11.9089C10.9117 8.08977 9.95528 8.48587 9.25013 9.19094C8.54497 9.89601 8.14882 10.8523 8.14882 11.8494V21.6244C8.14882 22.6215 8.54497 23.5778 9.25013 24.2829C9.95528 24.9879 10.9117 25.384 11.9089 25.384H21.6851C22.6823 25.384 23.6387 24.9879 24.3439 24.2829C25.049 23.5778 25.4452 22.6215 25.4452 21.6244V11.8494ZM22.4371 12.4509C22.1694 12.4509 21.9077 12.3716 21.6851 12.2228C21.4625 12.0741 21.289 11.8627 21.1865 11.6154C21.0841 11.3681 21.0573 11.096 21.1095 10.8334C21.1617 10.5709 21.2906 10.3297 21.4799 10.1404C21.6693 9.95114 21.9104 9.82224 22.173 9.77001C22.4356 9.71779 22.7078 9.74459 22.9551 9.84703C23.2025 9.94947 23.4139 10.123 23.5626 10.3455C23.7114 10.5681 23.7907 10.8298 23.7907 11.0975C23.7907 11.4564 23.6481 11.8007 23.3943 12.0545C23.1404 12.3083 22.7961 12.4509 22.4371 12.4509ZM16.797 22.3763C15.7112 22.3763 14.6499 22.0544 13.7471 21.4513C12.8443 20.8481 12.1407 19.9908 11.7252 18.9879C11.3097 17.9849 11.2009 16.8812 11.4128 15.8164C11.6246 14.7517 12.1474 13.7736 12.9152 13.0059C13.6829 12.2383 14.6611 11.7155 15.726 11.5037C16.7909 11.2919 17.8947 11.4006 18.8978 11.8161C19.9009 12.2315 20.7583 12.9351 21.3615 13.8377C21.9647 14.7404 22.2867 15.8017 22.2867 16.8873C22.2867 18.3431 21.7083 19.7392 20.6788 20.7686C19.6493 21.798 18.253 22.3763 16.797 22.3763ZM16.797 13.3532C16.0979 13.3532 15.4146 13.5605 14.8333 13.9488C14.2521 14.3372 13.7991 14.8891 13.5316 15.5349C13.2641 16.1806 13.1941 16.8912 13.3304 17.5767C13.4668 18.2623 13.8034 18.892 14.2977 19.3862C14.792 19.8805 15.4218 20.2171 16.1075 20.3534C16.7931 20.4898 17.5037 20.4198 18.1496 20.1523C18.7954 19.8848 19.3474 19.4319 19.7358 18.8507C20.1242 18.2695 20.3315 17.5863 20.3315 16.8873C20.3315 15.95 19.9591 15.0511 19.2963 14.3883C18.6334 13.7256 17.7344 13.3532 16.797 13.3532Z" fill="#1C1E20"/>
</svg>
