<svg width="65" height="67" viewBox="0 0 65 67" fill="none" xmlns="http://www.w3.org/2000/svg">
<path d="M29.881 5.23438H15.2016C15.0266 5.23438 14.8628 5.14693 14.7656 5.00135L12.6688 1.8607C12.5081 1.61994 12.5731 1.29541 12.8142 1.1349C13.0558 0.973878 13.3798 1.03934 13.541 1.27996L15.4822 4.18758H29.6639L32.6535 1.20036C32.8583 0.995871 33.19 0.995871 33.3948 1.20036C33.5996 1.40433 33.5996 1.73607 33.3948 1.94042L30.2517 5.08108C30.1535 5.17913 30.0203 5.23438 29.881 5.23438Z" fill="#008DF4"/>
<path d="M12.0564 4.18758H2.62105C2.33131 4.18758 2.09689 3.95337 2.09689 3.66405C2.09689 3.37473 2.33131 3.14065 2.62105 3.14065H12.0565C12.3463 3.14065 12.5807 3.37473 12.5807 3.66405C12.5807 3.95337 12.3462 4.18758 12.0564 4.18758Z" fill="#008DF4"/>
<path d="M43.5081 4.18758H33.0242C32.7344 4.18758 32.5 3.95337 32.5 3.66405C32.5 3.37473 32.7344 3.14065 33.0242 3.14065H43.5081C43.7977 3.14065 44.0323 3.37473 44.0323 3.66405C44.0323 3.95337 43.7977 4.18758 43.5081 4.18758Z" fill="#008DF4"/>
<path d="M26.7339 3.14065H18.3468C18.0571 3.14065 17.8225 2.90658 17.8225 2.61726C17.8225 2.32793 18.0571 2.09386 18.3468 2.09386H26.7339C27.0236 2.09386 27.2582 2.32793 27.2582 2.61726C27.2582 2.90658 27.0236 3.14065 26.7339 3.14065Z" fill="#008DF4"/>
<path d="M2.62105 56.5314C2.33131 56.5314 2.09689 56.2962 2.09689 56.008V3.66405C2.09689 3.37473 2.33131 3.14065 2.62105 3.14065C2.91079 3.14065 3.14521 3.37473 3.14521 3.66405V56.008C3.14521 56.2962 2.91079 56.5314 2.62105 56.5314Z" fill="#008DF4"/>
<path d="M43.5081 51.297C43.2182 51.297 42.9838 51.0638 42.9838 50.7736V3.66405C42.9838 3.37473 43.2182 3.14065 43.5081 3.14065C43.7977 3.14065 44.0323 3.37473 44.0323 3.66405V50.7737C44.0323 51.0638 43.7977 51.297 43.5081 51.297Z" fill="#008DF4"/>
<path d="M16.2501 56.5314H2.62105C2.33131 56.5314 2.09689 56.2962 2.09689 56.008C2.09689 55.7176 2.33131 55.4846 2.62105 55.4846H16.2501C16.5398 55.4846 16.7742 55.7176 16.7742 56.008C16.7742 56.2962 16.5398 56.5314 16.2501 56.5314Z" fill="#008DF4"/>
<path d="M45.6047 51.297C45.3151 51.297 45.0806 51.0638 45.0806 50.7736V0.523399C45.0806 0.234076 45.3151 0 45.6047 0C45.8946 0 46.129 0.234076 46.129 0.523399V50.7736C46.129 51.0638 45.8946 51.297 45.6047 51.297Z" fill="#008DF4"/>
<path d="M16.2501 58.6251H0.524157C0.234416 58.6251 0 58.39 0 58.1016C0 57.8113 0.234416 57.5782 0.524157 57.5782H16.2499C16.5397 57.5782 16.7741 57.8113 16.7741 58.1016C16.7742 58.39 16.5398 58.6251 16.2501 58.6251Z" fill="#008DF4"/>
<path d="M0.524157 58.6251C0.234416 58.6251 0 58.39 0 58.1016V0.523399C0 0.234076 0.234416 0 0.524157 0C0.813899 0 1.04832 0.234076 1.04832 0.523399V58.1016C1.04845 58.39 0.813899 58.6251 0.524157 58.6251Z" fill="#008DF4"/>
<path d="M45.6047 1.0468H0.524157C0.234416 1.0468 0 0.812721 0 0.523399C0 0.234076 0.234416 0 0.524157 0H45.6047C45.8946 0 46.129 0.234076 46.129 0.523399C46.129 0.812721 45.8946 1.0468 45.6047 1.0468Z" fill="#008DF4"/>
<path d="M37.2177 15.703H16.2501C15.9603 15.703 15.7258 15.4689 15.7258 15.1796C15.7258 14.8903 15.9603 14.6562 16.2501 14.6562H37.2178C37.5075 14.6562 37.742 14.8903 37.742 15.1796C37.742 15.4689 37.5074 15.703 37.2177 15.703Z" fill="#008DF4"/>
<path d="M37.2177 18.8437H16.2501C15.9603 18.8437 15.7258 18.6096 15.7258 18.3203C15.7258 18.0309 15.9603 17.7967 16.2501 17.7967H37.2178C37.5075 17.7967 37.742 18.0309 37.742 18.3203C37.742 18.6096 37.5074 18.8437 37.2177 18.8437Z" fill="#008DF4"/>
<path d="M10.4838 18.8437C9.32746 18.8437 8.38705 17.9046 8.38705 16.7499C8.38705 15.5953 9.32733 14.6562 10.4838 14.6562C11.6403 14.6562 12.5806 15.5953 12.5806 16.7499C12.5806 17.9046 11.6403 18.8437 10.4838 18.8437ZM10.4838 15.703C9.9059 15.703 9.43549 16.1729 9.43549 16.7499C9.43549 17.327 9.9059 17.7967 10.4838 17.7967C11.0617 17.7967 11.5323 17.327 11.5323 16.7499C11.5323 16.1729 11.0617 15.703 10.4838 15.703Z" fill="#008DF4"/>
<path d="M37.2177 26.1716H16.2501C15.9603 26.1716 15.7258 25.9376 15.7258 25.6482C15.7258 25.3589 15.9603 25.1248 16.2501 25.1248H37.2178C37.5075 25.1248 37.742 25.3589 37.742 25.6482C37.742 25.9376 37.5074 26.1716 37.2177 26.1716Z" fill="#008DF4"/>
<path d="M26.7339 29.3123H16.2501C15.9603 29.3123 15.7258 29.0782 15.7258 28.7889C15.7258 28.4996 15.9603 28.2655 16.2501 28.2655H26.7339C27.0236 28.2655 27.2582 28.4996 27.2582 28.7889C27.2582 29.0782 27.0236 29.3123 26.7339 29.3123Z" fill="#008DF4"/>
<path d="M10.4838 29.3123C9.32746 29.3123 8.38705 28.3734 8.38705 27.2186C8.38705 26.0639 9.32733 25.125 10.4838 25.125C11.6403 25.125 12.5806 26.0639 12.5806 27.2186C12.5806 28.3734 11.6403 29.3123 10.4838 29.3123ZM10.4838 26.1716C9.9059 26.1716 9.43549 26.6414 9.43549 27.2184C9.43549 27.7955 9.9059 28.2654 10.4838 28.2654C11.0617 28.2654 11.5323 27.7955 11.5323 27.2184C11.5323 26.6414 11.0617 26.1716 10.4838 26.1716Z" fill="#008DF4"/>
<path d="M37.2177 36.6409H16.2501C15.9603 36.6409 15.7258 36.4057 15.7258 36.1174C15.7258 35.827 15.9603 35.594 16.2501 35.594H37.2178C37.5075 35.594 37.742 35.827 37.742 36.1174C37.7418 36.4057 37.5074 36.6409 37.2177 36.6409Z" fill="#008DF4"/>
<path d="M37.2177 39.7814H16.2501C15.9603 39.7814 15.7258 39.5463 15.7258 39.2579C15.7258 38.9677 15.9603 38.7345 16.2501 38.7345H37.2178C37.5075 38.7345 37.742 38.9677 37.742 39.2579C37.7418 39.5464 37.5074 39.7814 37.2177 39.7814Z" fill="#008DF4"/>
<path d="M26.7339 42.9221H16.2501C15.9603 42.9221 15.7258 42.687 15.7258 42.3987C15.7258 42.1083 15.9603 41.8753 16.2501 41.8753H26.7339C27.0236 41.8753 27.2582 42.1083 27.2582 42.3987C27.258 42.687 27.0236 42.9221 26.7339 42.9221Z" fill="#008DF4"/>
<path d="M10.4838 39.7814C9.32746 39.7814 8.38705 38.8419 8.38705 37.6877C8.38705 36.5325 9.32733 35.594 10.4838 35.594C11.6403 35.594 12.5806 36.5325 12.5806 37.6877C12.5806 38.842 11.6403 39.7814 10.4838 39.7814ZM10.4838 36.6409C9.9059 36.6409 9.43549 37.1101 9.43549 37.6877C9.43549 38.2643 9.9059 38.7345 10.4838 38.7345C11.0617 38.7345 11.5323 38.2643 11.5323 37.6877C11.5323 37.1101 11.0617 36.6409 10.4838 36.6409Z" fill="#008DF4"/>
<path d="M35.1517 56.5314C34.863 56.5314 34.6235 56.2983 34.6235 56.008C34.6235 55.7197 34.8528 55.4846 35.1415 55.4846H35.1517C35.4425 55.4846 35.6759 55.7197 35.6759 56.008C35.6759 56.2983 35.4424 56.5314 35.1517 56.5314Z" fill="#008DF4"/>
<path d="M39.3453 56.5314C39.0564 56.5314 38.817 56.2983 38.817 56.008C38.817 55.7197 39.0462 55.4846 39.335 55.4846H39.3453C39.6359 55.4846 39.8694 55.7197 39.8694 56.008C39.8694 56.2983 39.6359 56.5314 39.3453 56.5314Z" fill="#008DF4"/>
<path d="M43.5388 56.5314C43.25 56.5314 43.0104 56.2983 43.0104 56.008C43.0104 55.7197 43.2397 55.4846 43.5285 55.4846H43.5388C43.8294 55.4846 44.0629 55.7197 44.0629 56.008C44.0629 56.2983 43.8294 56.5314 43.5388 56.5314Z" fill="#008DF4"/>
<path d="M47.7323 56.5314C47.4436 56.5314 47.2041 56.2983 47.2041 56.008C47.2041 55.7197 47.4334 55.4846 47.7221 55.4846H47.7323C48.0231 55.4846 48.2566 55.7197 48.2566 56.008C48.2566 56.2983 48.023 56.5314 47.7323 56.5314Z" fill="#008DF4"/>
<path d="M37.2485 55.4846C36.9598 55.4846 36.7201 55.2514 36.7201 54.961C36.7201 54.6728 36.9496 54.4376 37.2383 54.4376H37.2485C37.5393 54.4376 37.7726 54.6728 37.7726 54.961C37.7726 55.2513 37.5393 55.4846 37.2485 55.4846Z" fill="#008DF4"/>
<path d="M41.4419 55.4846C41.1533 55.4846 40.9137 55.2514 40.9137 54.961C40.9137 54.6728 41.1431 54.4376 41.4317 54.4376H41.4419C41.7328 54.4376 41.9662 54.6728 41.9662 54.961C41.9662 55.2513 41.7328 55.4846 41.4419 55.4846Z" fill="#008DF4"/>
<path d="M45.6354 55.4846C45.3467 55.4846 45.1072 55.2514 45.1072 54.961C45.1072 54.6728 45.3365 54.4376 45.6252 54.4376H45.6354C45.9262 54.4376 46.1596 54.6728 46.1596 54.961C46.1596 55.2513 45.9262 55.4846 45.6354 55.4846Z" fill="#008DF4"/>
<path d="M25.6854 50.2501C25.3957 50.2501 25.1611 50.017 25.1611 49.7267C25.1611 48.8618 24.4558 48.1563 23.5885 48.1563C22.7213 48.1563 22.0159 48.8618 22.0159 49.7267C22.0159 50.017 21.7815 50.2501 21.4918 50.2501C21.202 50.2501 20.9676 50.017 20.9676 49.7267C20.9676 48.2841 22.1435 47.1095 23.5885 47.1095C25.0336 47.1095 26.2095 48.2842 26.2095 49.7267C26.2097 50.017 25.9752 50.2501 25.6854 50.2501Z" fill="#008DF4"/>
<path d="M23.5887 63.8593C22.1436 63.8593 20.9677 62.6857 20.9677 61.2422C20.9677 60.9539 21.2022 60.7188 21.4919 60.7188C21.7816 60.7188 22.0161 60.9539 22.0161 61.2422C22.0161 62.1091 22.7215 62.8125 23.5887 62.8125C24.4558 62.8125 25.1613 62.1091 25.1613 61.2422C25.1613 60.9539 25.3958 60.7188 25.6856 60.7188C25.9753 60.7188 26.2097 60.9539 26.2097 61.2422C26.2097 62.6858 25.0338 63.8593 23.5887 63.8593Z" fill="#008DF4"/>
<path d="M21.4919 61.7656C21.2022 61.7656 20.9677 61.5326 20.9677 61.2422L20.9676 49.7267C20.9676 49.4384 21.2022 49.2033 21.4919 49.2033C21.7816 49.2033 22.0159 49.4384 22.0159 49.7267L22.0161 61.2422C22.0161 61.5326 21.7816 61.7656 21.4919 61.7656Z" fill="#008DF4"/>
<path d="M25.6854 61.7656C25.3957 61.7656 25.1611 61.5326 25.1611 61.2422V49.7267C25.1611 49.4384 25.3957 49.2033 25.6854 49.2033C25.9752 49.2033 26.2096 49.4384 26.2096 49.7267L26.2097 61.2422C26.2098 61.5326 25.9752 61.7656 25.6854 61.7656Z" fill="#008DF4"/>
<path d="M31.9757 47.1095C31.686 47.1095 31.4514 46.8765 31.4514 46.5861C31.4514 45.7212 30.7461 45.0158 29.8789 45.0158C29.0117 45.0158 28.3063 45.7212 28.3063 46.5861C28.3063 46.8765 28.0719 47.1095 27.7822 47.1095C27.4924 47.1095 27.2579 46.8765 27.2579 46.5861C27.2579 45.1435 28.4338 43.9689 29.8789 43.9689C31.324 43.9689 32.4999 45.1436 32.4999 46.5861C32.5 46.8765 32.2655 47.1095 31.9757 47.1095Z" fill="#008DF4"/>
<path d="M29.8791 67C28.4339 67 27.258 65.8263 27.258 64.3829C27.258 64.0946 27.4926 63.8595 27.7823 63.8595C28.0721 63.8595 28.3065 64.0946 28.3065 64.3829C28.3065 65.2498 29.0118 65.9532 29.8791 65.9532C30.7462 65.9532 31.4516 65.2498 31.4516 64.3829C31.4516 64.0946 31.6861 63.8595 31.9758 63.8595C32.2656 63.8595 32.5001 64.0946 32.5001 64.3829C32.5 65.8263 31.3241 67 29.8791 67Z" fill="#008DF4"/>
<path d="M27.7823 64.9063C27.4926 64.9063 27.258 64.6731 27.258 64.3827L27.2579 46.5861C27.2579 46.2979 27.4926 46.0627 27.7823 46.0627C28.0721 46.0627 28.3065 46.2979 28.3065 46.5861V64.3827C28.3065 64.6731 28.0721 64.9063 27.7823 64.9063Z" fill="#008DF4"/>
<path d="M31.9757 64.9063C31.686 64.9063 31.4514 64.6731 31.4514 64.3827V46.5861C31.4514 46.2979 31.686 46.0627 31.9757 46.0627C32.2655 46.0627 32.5 46.2979 32.5 46.5861V64.3827C32.5 64.6731 32.2655 64.9063 31.9757 64.9063Z" fill="#008DF4"/>
<path d="M59.2337 63.8593C57.7882 63.8593 56.6128 62.6846 56.6128 61.2422C56.6128 60.9519 56.8472 60.7188 57.137 60.7188C57.4267 60.7188 57.6613 60.9519 57.6613 61.2422C57.6613 62.107 58.3666 62.8125 59.2337 62.8125C60.1009 62.8125 60.8063 62.107 60.8063 61.2422C60.8063 60.9519 61.0408 60.7188 61.3305 60.7188C61.6202 60.7188 61.8548 60.9519 61.8548 61.2422C61.8548 62.6848 60.6794 63.8593 59.2337 63.8593Z" fill="#008DF4"/>
<path d="M61.3305 50.2501C61.0408 50.2501 60.8063 50.0149 60.8063 49.7267C60.8063 48.8597 60.1009 48.1563 59.2337 48.1563C58.3666 48.1563 57.6613 48.8597 57.6613 49.7267C57.6613 50.0149 57.4267 50.2501 57.137 50.2501C56.8472 50.2501 56.6128 50.0149 56.6128 49.7267C56.6128 48.2832 57.7882 47.1095 59.2337 47.1095C60.6793 47.1095 61.8548 48.2832 61.8548 49.7267C61.8548 50.0149 61.6202 50.2501 61.3305 50.2501Z" fill="#008DF4"/>
<path d="M61.3305 61.7656C61.0408 61.7656 60.8063 61.5305 60.8063 61.2422V49.7267C60.8063 49.4363 61.0408 49.2033 61.3305 49.2033C61.6202 49.2033 61.8548 49.4363 61.8548 49.7267V61.2422C61.8548 61.5305 61.6202 61.7656 61.3305 61.7656Z" fill="#008DF4"/>
<path d="M57.137 61.7656C56.8472 61.7656 56.6128 61.5305 56.6128 61.2422V49.7267C56.6128 49.4363 56.8472 49.2033 57.137 49.2033C57.4267 49.2033 57.6613 49.4363 57.6613 49.7267V61.2422C57.6613 61.5305 57.4267 61.7656 57.137 61.7656Z" fill="#008DF4"/>
<path d="M52.9436 67C51.4979 67 50.3225 65.8253 50.3225 64.3829C50.3225 64.0925 50.5571 63.8595 50.8468 63.8595C51.1366 63.8595 51.371 64.0925 51.371 64.3829C51.371 65.2477 52.0763 65.9532 52.9436 65.9532C53.8107 65.9532 54.5161 65.2477 54.5161 64.3829C54.5161 64.0925 54.7506 63.8595 55.0402 63.8595C55.3301 63.8595 55.5645 64.0925 55.5645 64.3829C55.5645 65.8253 54.3892 67 52.9436 67Z" fill="#008DF4"/>
<path d="M55.0402 47.1095C54.7506 47.1095 54.5161 46.8744 54.5161 46.5861C54.5161 45.7191 53.8107 45.0158 52.9436 45.0158C52.0763 45.0158 51.371 45.7191 51.371 46.5861C51.371 46.8744 51.1366 47.1095 50.8468 47.1095C50.5571 47.1095 50.3225 46.8744 50.3225 46.5861C50.3225 45.1425 51.4979 43.9689 52.9436 43.9689C54.3892 43.9689 55.5645 45.1425 55.5645 46.5861C55.5645 46.8744 55.3301 47.1095 55.0402 47.1095Z" fill="#008DF4"/>
<path d="M55.0402 64.9063C54.7506 64.9063 54.5161 64.671 54.5161 64.3827V46.5861C54.5161 46.2958 54.7506 46.0627 55.0402 46.0627C55.3301 46.0627 55.5645 46.2958 55.5645 46.5861V64.3827C55.5645 64.6712 55.3301 64.9063 55.0402 64.9063Z" fill="#008DF4"/>
<path d="M50.8467 64.9063C50.557 64.9063 50.3224 64.671 50.3224 64.3827V46.5861C50.3224 46.2958 50.557 46.0627 50.8467 46.0627C51.1364 46.0627 51.371 46.2958 51.371 46.5861L51.3709 64.3827C51.371 64.6712 51.1364 64.9063 50.8467 64.9063Z" fill="#008DF4"/>
<path d="M48.7499 53.3907H34.0726C33.7827 53.3907 33.5483 53.1578 33.5483 52.8673C33.5483 52.579 33.7827 52.3439 34.0726 52.3439H48.7499C49.0397 52.3439 49.2741 52.579 49.2741 52.8673C49.2741 53.1577 49.0397 53.3907 48.7499 53.3907Z" fill="#008DF4"/>
<path d="M48.7499 58.6251H34.0726C33.7827 58.6251 33.5483 58.3921 33.5483 58.1016C33.5483 57.8134 33.7827 57.5782 34.0726 57.5782H48.7499C49.0397 57.5782 49.2741 57.8134 49.2741 58.1016C49.2741 58.3921 49.0397 58.6251 48.7499 58.6251Z" fill="#008DF4"/>
<path d="M19.4269 53.3907H18.3784C18.0887 53.3907 17.8541 53.1578 17.8541 52.8673C17.8541 52.579 18.0887 52.3439 18.3784 52.3439H19.4269C19.7166 52.3439 19.951 52.579 19.951 52.8673C19.951 53.1577 19.7166 53.3907 19.4269 53.3907Z" fill="#008DF4"/>
<path d="M19.4269 58.6251H18.3784C18.0887 58.6251 17.8541 58.3921 17.8541 58.1016C17.8541 57.8134 18.0887 57.5782 18.3784 57.5782H19.4269C19.7166 57.5782 19.951 57.8134 19.951 58.1016C19.951 58.3921 19.7166 58.6251 19.4269 58.6251Z" fill="#008DF4"/>
<path d="M18.3786 58.6251C18.0888 58.6251 17.8541 58.3921 17.8541 58.1016V52.8673C17.8541 52.579 18.0888 52.3439 18.3786 52.3439C18.6683 52.3439 18.9028 52.579 18.9028 52.8673V58.1016C18.9027 58.3921 18.6683 58.6251 18.3786 58.6251Z" fill="#008DF4"/>
<path d="M64.4757 58.6251H63.4274C63.1377 58.6251 62.9032 58.3921 62.9032 58.1016C62.9032 57.8134 63.1377 57.5782 63.4274 57.5782H64.4757C64.7656 57.5782 65 57.8134 65 58.1016C65 58.3921 64.7654 58.6251 64.4757 58.6251Z" fill="#008DF4"/>
<path d="M64.4757 53.3907H63.4274C63.1377 53.3907 62.9032 53.1578 62.9032 52.8673C62.9032 52.579 63.1377 52.3439 63.4274 52.3439H64.4757C64.7656 52.3439 65 52.579 65 52.8673C65 53.1577 64.7654 53.3907 64.4757 53.3907Z" fill="#008DF4"/>
<path d="M64.4757 58.6251C64.1861 58.6251 63.9515 58.3921 63.9515 58.1016V52.8673C63.9515 52.579 64.1861 52.3439 64.4757 52.3439C64.7656 52.3439 65 52.579 65 52.8673V58.1016C65 58.3921 64.7654 58.6251 64.4757 58.6251Z" fill="#008DF4"/>
<path d="M29.8791 61.7656C29.5893 61.7656 29.3548 61.5305 29.3548 61.2422V49.7267C29.3548 49.4384 29.5893 49.2033 29.8791 49.2033C30.1688 49.2033 30.4032 49.4384 30.4032 49.7267V61.2422C30.4032 61.5305 30.1688 61.7656 29.8791 61.7656Z" fill="#008DF4"/>
<path d="M23.5887 59.6719C23.2989 59.6719 23.0645 59.4389 23.0645 59.1485V51.8204C23.0645 51.5321 23.2989 51.297 23.5887 51.297C23.8784 51.297 24.1128 51.5321 24.1128 51.8204V59.1485C24.1128 59.4389 23.8784 59.6719 23.5887 59.6719Z" fill="#008DF4"/>
<path d="M52.9436 61.7656C52.6537 61.7656 52.4193 61.5326 52.4193 61.2422V49.7267C52.4193 49.4363 52.6537 49.2033 52.9436 49.2033C53.2332 49.2033 53.4677 49.4363 53.4677 49.7267V61.2422C53.4677 61.5326 53.2332 61.7656 52.9436 61.7656Z" fill="#008DF4"/>
<path d="M59.2337 59.6719C58.944 59.6719 58.7096 59.4368 58.7096 59.1485V51.8204C58.7096 51.5321 58.944 51.297 59.2337 51.297C59.5235 51.297 59.7579 51.5321 59.7579 51.8204V59.1485C59.7579 59.4368 59.5235 59.6719 59.2337 59.6719Z" fill="#008DF4"/>
</svg>
