<svg width="59" height="59" viewBox="0 0 59 59" fill="none" xmlns="http://www.w3.org/2000/svg">
<path d="M44.0228 0.00156446C42.0808 -0.00386227 40.1571 0.37857 38.3639 1.12659C36.5706 1.87461 34.9435 2.97327 33.5773 4.35859L31.308 6.64164L29.0389 4.35855C27.6703 2.97723 26.0432 1.88106 24.2511 1.13306C22.4589 0.385068 20.5372 0 18.5963 0C16.6554 0 14.7336 0.385068 12.9415 1.13306C11.1494 1.88106 9.52224 2.97723 8.15364 4.35855C5.92712 6.61007 4.4732 9.51504 4.00282 12.652C3.53244 15.789 4.07006 18.9948 5.53768 21.8043H0V23.087H6.29524C6.83668 23.9086 7.45828 24.6742 8.15083 25.3722L30.8525 48.5494C30.9119 48.6101 30.9828 48.6583 31.061 48.6912C31.1392 48.7241 31.2232 48.741 31.308 48.741C31.3928 48.741 31.4767 48.7241 31.5549 48.6912C31.6331 48.6583 31.704 48.6101 31.7635 48.5494L54.4614 25.376C55.163 24.6714 55.8005 23.9054 56.3663 23.087H58.7823V21.8043H57.1662C60.3105 16.1606 59.4127 9.34471 54.4623 4.35887C53.0971 2.97387 51.4711 1.87534 49.6788 1.12727C47.8865 0.379201 45.9638 -0.00346393 44.0228 0.00156446ZM53.5541 24.4729L31.308 47.1847L9.05901 24.4698C8.6348 24.0359 8.24014 23.5739 7.87769 23.087H14.0566C14.1753 23.087 14.2916 23.0538 14.3926 22.9912C14.4935 22.9286 14.5751 22.839 14.6282 22.7325L19.7768 12.3971L30.7252 36.8174C30.7757 36.9301 30.8575 37.0258 30.9609 37.0929C31.0643 37.16 31.1848 37.1957 31.308 37.1957C31.3158 37.1957 31.3236 37.1957 31.3317 37.195C31.4587 37.1904 31.5815 37.1479 31.6843 37.0728C31.7871 36.9977 31.8652 36.8935 31.9085 36.7735L36.8669 23.087H54.7645C54.3888 23.5726 53.9846 24.0354 53.5541 24.4729ZM55.662 21.8043H36.4195C36.2883 21.8043 36.1603 21.8448 36.0529 21.9204C35.9454 21.9959 35.8638 22.1027 35.8189 22.2265L31.245 34.8515L20.3899 10.6391C20.3403 10.5285 20.2604 10.4342 20.1596 10.3672C20.0588 10.3003 19.9411 10.2634 19.8202 10.2609C19.6999 10.2611 19.5819 10.2942 19.4789 10.3567C19.3759 10.4191 19.2918 10.5085 19.2356 10.6153L13.6617 21.8043H7.01931C5.4878 19.2095 4.8572 16.178 5.22631 13.1848C5.59542 10.1916 6.94338 7.40593 9.05901 5.26415C10.3088 4.00234 11.7949 3.00098 13.4317 2.31768C15.0685 1.63438 16.8237 1.28261 18.5964 1.28261C20.3692 1.28261 22.1244 1.63438 23.7612 2.31768C25.398 3.00098 26.884 4.00234 28.1339 5.26415L30.8556 8.00252C30.9776 8.11891 31.1396 8.18382 31.308 8.18382C31.4763 8.18382 31.6383 8.11891 31.7603 8.00252L34.4824 5.26383C35.7325 4.00255 37.2186 3.00168 38.8553 2.31871C40.4921 1.63575 42.2471 1.28417 44.0197 1.28417C45.7922 1.28417 47.5472 1.63575 49.184 2.31871C50.8207 3.00168 52.3068 4.00255 53.5569 5.26383C58.2578 9.99858 58.9498 16.535 55.662 21.8043Z" fill="#008DF4"/>
<path d="M0.638938 53.8696H2.55575V55.7935C2.55573 55.8777 2.57224 55.9611 2.60434 56.0389C2.63645 56.1167 2.68351 56.1874 2.74284 56.247C2.80218 56.3066 2.87262 56.3538 2.95015 56.386C3.02768 56.4182 3.11078 56.4348 3.19469 56.4348H5.11151V58.3587C5.11148 58.4429 5.128 58.5263 5.1601 58.6041C5.1922 58.682 5.23926 58.7527 5.2986 58.8122C5.35793 58.8718 5.42838 58.919 5.50591 58.9512C5.58344 58.9835 5.66653 59 5.75044 59H9.58407C9.66798 59 9.75108 58.9835 9.82861 58.9512C9.90614 58.919 9.97658 58.8718 10.0359 58.8122C10.0953 58.7527 10.1423 58.682 10.1744 58.6041C10.2065 58.5263 10.223 58.4429 10.223 58.3587V54.5109H20.446V58.3587C20.446 58.4429 20.4625 58.5263 20.4946 58.6041C20.5267 58.682 20.5738 58.7527 20.6331 58.8122C20.6924 58.8718 20.7629 58.919 20.8404 58.9512C20.9179 58.9835 21.001 59 21.085 59H24.9186C25.0025 59 25.0856 58.9835 25.1631 58.9512C25.2407 58.919 25.3111 58.8718 25.3704 58.8122C25.4298 58.7527 25.4768 58.682 25.5089 58.6041C25.541 58.5263 25.5575 58.4429 25.5575 58.3587V56.4348H27.4743C27.5583 56.4348 27.6413 56.4182 27.7189 56.386C27.7964 56.3538 27.8669 56.3066 27.9262 56.247C27.9855 56.1874 28.0326 56.1167 28.0647 56.0389C28.0968 55.9611 28.1133 55.8777 28.1133 55.7935V53.8696H30.0301C30.114 53.8696 30.1971 53.853 30.2746 53.8208C30.3522 53.7886 30.4226 53.7413 30.4819 53.6818C30.5413 53.6222 30.5883 53.5515 30.6204 53.4737C30.6525 53.3959 30.6691 53.3125 30.669 53.2283V50.663C30.6691 50.5788 30.6525 50.4954 30.6204 50.4176C30.5883 50.3398 30.5413 50.2691 30.4819 50.2095C30.4226 50.15 30.3522 50.1027 30.2746 50.0705C30.1971 50.0383 30.114 50.0217 30.0301 50.0217H28.1133V48.0978C28.1133 48.0136 28.0968 47.9302 28.0647 47.8524C28.0326 47.7746 27.9855 47.7039 27.9262 47.6443C27.8669 47.5848 27.7964 47.5375 27.7189 47.5053C27.6413 47.4731 27.5583 47.4565 27.4743 47.4565H25.5575V45.5326C25.5575 45.4484 25.541 45.365 25.5089 45.2872C25.4768 45.2094 25.4298 45.1386 25.3704 45.0791C25.3111 45.0195 25.2407 44.9723 25.1631 44.9401C25.0856 44.9079 25.0025 44.8913 24.9186 44.8913H21.085C21.001 44.8913 20.9179 44.9079 20.8404 44.9401C20.7629 44.9723 20.6924 45.0195 20.6331 45.0791C20.5738 45.1386 20.5267 45.2094 20.4946 45.2872C20.4625 45.365 20.446 45.4484 20.446 45.5326V49.3804H10.223V45.5326C10.223 45.4484 10.2065 45.365 10.1744 45.2872C10.1423 45.2094 10.0953 45.1386 10.0359 45.0791C9.97658 45.0195 9.90614 44.9723 9.82861 44.9401C9.75108 44.9079 9.66798 44.8913 9.58407 44.8913H5.75044C5.66653 44.8913 5.58344 44.9079 5.50591 44.9401C5.42838 44.9723 5.35793 45.0195 5.2986 45.0791C5.23926 45.1386 5.1922 45.2094 5.1601 45.2872C5.128 45.365 5.11148 45.4484 5.11151 45.5326V47.4565H3.19469C3.11078 47.4565 3.02768 47.4731 2.95015 47.5053C2.87262 47.5375 2.80218 47.5848 2.74284 47.6443C2.68351 47.7039 2.63645 47.7746 2.60434 47.8524C2.57224 47.9302 2.55573 48.0136 2.55575 48.0978V50.0217H0.638938C0.555025 50.0217 0.471931 50.0383 0.394401 50.0705C0.316872 50.1027 0.246427 50.15 0.187092 50.2095C0.127757 50.2691 0.0806938 50.3398 0.0485919 50.4176C0.01649 50.4954 -2.18042e-05 50.5788 2.16093e-08 50.663V53.2283C-2.18042e-05 53.3125 0.01649 53.3959 0.0485919 53.4737C0.0806938 53.5515 0.127757 53.6222 0.187092 53.6818C0.246427 53.7413 0.316872 53.7886 0.394401 53.8208C0.471931 53.853 0.555025 53.8696 0.638938 53.8696ZM29.3912 51.3044V52.587H28.1133V51.3044H29.3912ZM26.8354 48.7391V55.1522H25.5575V48.7391H26.8354ZM21.7239 46.1739H24.2796V57.7174H21.7239V46.1739ZM20.446 50.663V53.2283H10.223V50.663H20.446ZM6.38938 46.1739H8.94513V57.7174H6.38938V46.1739ZM3.83363 48.7391H5.11151V55.1522H3.83363V48.7391ZM1.27788 51.3044H2.55575V52.587H1.27788V51.3044Z" fill="#008DF4"/>
<path d="M46.5102 51.1716C46.1458 51.5352 45.8569 51.9677 45.6603 52.4442C45.4636 52.9206 45.3631 53.4315 45.3646 53.9472V56.9145C45.3653 57.4675 45.5845 57.9976 45.974 58.3885C46.3636 58.7795 46.8918 58.9994 47.4427 59H56.7042C57.2551 58.9994 57.7833 58.7795 58.1729 58.3885C58.5625 57.9976 58.7816 57.4675 58.7823 56.9145V53.9472C58.7838 53.4315 58.6833 52.9206 58.4867 52.4442C58.29 51.9677 58.0011 51.5352 57.6367 51.1716C57.3914 50.9268 57.1969 50.6355 57.0645 50.3148C56.9322 49.994 56.8645 49.65 56.8655 49.3028V48.5512C56.8666 47.9795 57.0514 47.4234 57.3924 46.9655L57.9999 46.152C58.5063 45.4717 58.7806 44.6458 58.7823 43.7966V39.4158C58.7836 38.8267 58.6522 38.245 58.3981 37.714C58.1439 37.1831 57.7734 36.7166 57.3144 36.3496L55.5876 34.9636V32.7065C55.5876 32.6223 55.5711 32.5389 55.539 32.4611C55.5069 32.3833 55.4599 32.3126 55.4005 32.253C55.3412 32.1934 55.2707 32.1462 55.1932 32.114C55.1157 32.0818 55.0326 32.0652 54.9487 32.0652H49.1982C49.1143 32.0652 49.0312 32.0818 48.9537 32.114C48.8762 32.1462 48.8057 32.1934 48.7464 32.253C48.6871 32.3126 48.64 32.3833 48.6079 32.4611C48.5758 32.5389 48.5593 32.6223 48.5593 32.7065V34.9636L46.8322 36.3502C46.3732 36.7172 46.0028 37.1835 45.7487 37.7143C45.4946 38.2452 45.3633 38.8268 45.3646 39.4158V43.7966C45.3662 44.6455 45.6405 45.4713 46.1467 46.1514L46.7548 46.9662C47.0957 47.4239 47.2804 47.9798 47.2814 48.5512V49.3028C47.2824 49.65 47.2148 49.9939 47.0824 50.3147C46.95 50.6355 46.7555 50.9268 46.5102 51.1716ZM54.3097 33.3478V34.6304H49.8372V33.3478H54.3097ZM47.6305 37.3516L49.4225 35.913H54.7244L56.516 37.351C56.8793 37.6478 57.1563 38.0371 57.3182 38.4783H46.8287C46.9904 38.0373 47.2674 37.6482 47.6305 37.3516ZM47.1691 45.3817C46.8282 44.924 46.6435 44.3681 46.6425 43.7966V39.7609H57.5044V43.7966C57.5033 44.3683 57.3185 44.9244 56.9775 45.3823L56.3864 46.1739H47.7604L47.1691 45.3817ZM47.4137 52.0784C47.7781 51.7148 48.067 51.2823 48.2637 50.8058C48.4603 50.3294 48.5608 49.8185 48.5593 49.3028V48.5512C48.5559 48.1803 48.5001 47.8117 48.3934 47.4565H55.7536C55.6468 47.8117 55.591 48.1803 55.5876 48.5512V49.3028C55.5861 49.8185 55.6866 50.3294 55.8833 50.8058C56.0799 51.2823 56.3688 51.7148 56.7332 52.0784C56.9785 52.3232 57.173 52.6145 57.3054 52.9353C57.4378 53.256 57.5054 53.6 57.5044 53.9472V56.9145C57.5041 57.1274 57.4197 57.3315 57.2697 57.482C57.1197 57.6325 56.9163 57.7172 56.7042 57.7174H47.4427C47.2306 57.7172 47.0272 57.6325 46.8772 57.482C46.7272 57.3315 46.6428 57.1274 46.6425 56.9145V53.9472C46.6415 53.6 46.7091 53.256 46.8415 52.9352C46.9739 52.6145 47.1684 52.3232 47.4137 52.0784Z" fill="#008DF4"/>
<path d="M50.6015 43.5962L52.3798 43.2392L51.2062 45.2026L52.3018 45.8627L54.2186 42.6561C54.2823 42.5496 54.3138 42.4267 54.3093 42.3026C54.3048 42.1784 54.2644 42.0582 54.1931 41.9566C54.1223 41.8544 54.0232 41.7754 53.908 41.7293C53.7929 41.6832 53.6668 41.6721 53.5454 41.6973L51.6317 42.0812L52.3256 40.689L51.1825 40.1153L49.9046 42.6806C49.851 42.7879 49.8286 42.9083 49.8398 43.0278C49.851 43.1474 49.8955 43.2614 49.9682 43.3568C50.0408 43.4523 50.1387 43.5253 50.2507 43.5676C50.3627 43.6099 50.4842 43.6198 50.6015 43.5962Z" fill="#008DF4"/>
</svg>
