<svg width="96" height="94" viewBox="0 0 96 94" fill="none" xmlns="http://www.w3.org/2000/svg">
<path d="M16.1615 60.189C16.1414 60.189 16.1213 60.1883 16.1011 60.1869C6.06593 59.39 0.0744531 53.8807 0.0744531 45.4488C-0.374369 39.621 1.21233 34.5578 4.66337 30.8614C8.02378 27.2606 13.0586 25.1956 18.4733 25.1956C18.948 25.1956 19.4342 25.2185 19.9247 25.2649C20.2801 10.8153 32.2458 0 48.0365 0C54.812 0 61.3472 2.44123 66.4799 6.88244C67.1373 6.77748 67.7775 6.72678 68.4248 6.72678C76.3799 6.72678 81.5198 11.0602 81.5198 17.767C81.5198 20.4595 80.6782 23.0686 79.1246 25.2527C89.1353 26.0053 96 34.1059 96 45.4488C96 53.8821 90.0085 59.3915 79.9733 60.1869C79.5734 60.2226 79.2138 59.9198 79.1807 59.5157C79.1476 59.1137 79.4497 58.761 79.8554 58.7288C89.1799 57.9898 94.5269 53.1495 94.5269 45.4488C94.5269 34.415 87.5846 26.6879 77.6429 26.6579C77.3538 26.6572 77.092 26.4873 76.9726 26.2245C76.8546 25.9618 76.9035 25.6547 77.0963 25.4405C78.9995 23.3213 80.0467 20.5959 80.0467 17.767C80.0467 11.9484 75.4851 8.18909 68.4248 8.18909C67.7516 8.18909 67.0884 8.25193 66.395 8.38117C66.162 8.42401 65.9361 8.35903 65.7678 8.20837C60.8639 3.85785 54.5674 1.46231 48.0365 1.46231C32.8456 1.46231 21.3892 11.9798 21.3892 25.9268V26.0874C21.3892 26.2995 21.2957 26.5016 21.1345 26.6408C20.972 26.7793 20.7605 26.8393 20.5462 26.8107C19.8442 26.7093 19.1465 26.6579 18.4733 26.6579C13.4672 26.6579 8.82647 28.5522 5.7437 31.8553C2.57749 35.2454 1.12602 39.9266 1.54607 45.3931C1.54751 53.1481 6.89453 57.9891 16.2191 58.7288C16.6247 58.761 16.9268 59.1137 16.8938 59.5164C16.8635 59.8991 16.5413 60.189 16.1615 60.189Z" fill="#008DF4"/>
<path d="M48.0221 86.1222C47.615 86.1222 47.2856 85.7952 47.2856 85.3911V72.613C47.2856 72.2088 47.615 71.8818 48.0221 71.8818C48.4292 71.8818 48.7587 72.2088 48.7587 72.613V85.3911C48.7587 85.7952 48.4292 86.1222 48.0221 86.1222Z" fill="#008DF4"/>
<path d="M48.0221 94C45.4285 94 43.3181 91.9051 43.3181 89.3303C43.3181 86.7548 45.4285 84.6599 48.0221 84.6599C50.6158 84.6599 52.7261 86.7548 52.7261 89.3303C52.7261 91.9051 50.6158 94 48.0221 94ZM48.0221 86.1222C46.2412 86.1222 44.7912 87.5617 44.7912 89.3303C44.7912 91.0989 46.2412 92.5377 48.0221 92.5377C49.803 92.5377 51.2531 91.0989 51.2531 89.3303C51.2531 87.5617 49.803 86.1222 48.0221 86.1222Z" fill="#008DF4"/>
<path d="M73.5373 94C70.9437 94 68.8334 91.9051 68.8334 89.3303C68.8334 86.7548 70.9437 84.6599 73.5373 84.6599C76.131 84.6599 78.2413 86.7548 78.2413 89.3303C78.2413 91.9051 76.131 94 73.5373 94ZM73.5373 86.1222C71.7564 86.1222 70.3064 87.5617 70.3064 89.3303C70.3064 91.0989 71.7564 92.5377 73.5373 92.5377C75.3182 92.5377 76.7683 91.0989 76.7683 89.3303C76.7683 87.5617 75.3182 86.1222 73.5373 86.1222Z" fill="#008DF4"/>
<path d="M22.5055 94C19.9118 94 17.8015 91.9051 17.8015 89.3303C17.8015 86.7548 19.9118 84.6599 22.5055 84.6599C25.1006 84.6599 27.2109 86.7548 27.2109 89.3303C27.2109 91.9051 25.1006 94 22.5055 94ZM22.5055 86.1222C20.7246 86.1222 19.2745 87.5617 19.2745 89.3303C19.2745 91.0989 20.7246 92.5377 22.5055 92.5377C24.2878 92.5377 25.7378 91.0989 25.7378 89.3303C25.7378 87.5617 24.2878 86.1222 22.5055 86.1222Z" fill="#008DF4"/>
<path d="M69.0549 55.56C68.6478 55.56 68.3184 55.233 68.3184 54.8289V48.9553C68.3184 48.5512 68.6478 48.2242 69.0549 48.2242C69.462 48.2242 69.7914 48.5512 69.7914 48.9553V54.8289C69.7914 55.233 69.462 55.56 69.0549 55.56Z" fill="#008DF4"/>
<path d="M27.0196 55.56C26.6125 55.56 26.283 55.233 26.283 54.8289V48.9553C26.283 48.5512 26.6125 48.2242 27.0196 48.2242C27.4267 48.2242 27.7561 48.5512 27.7561 48.9553V54.8289C27.7561 55.233 27.4267 55.56 27.0196 55.56Z" fill="#008DF4"/>
<path d="M77.4501 49.6865H18.6243C16.8635 49.6865 15.4308 48.2649 15.4308 46.517V33.6103C15.4308 31.8624 16.8635 30.4408 18.6243 30.4408H77.4501C79.2109 30.4408 80.6437 31.8624 80.6437 33.6103V46.517C80.6437 48.2649 79.2109 49.6865 77.4501 49.6865ZM18.6243 31.9031C17.6763 31.9031 16.9038 32.6693 16.9038 33.6103V46.517C16.9038 47.458 17.6763 48.2242 18.6243 48.2242H77.4501C78.3981 48.2242 79.1706 47.458 79.1706 46.517V33.6103C79.1706 32.6693 78.3981 31.9031 77.4501 31.9031H18.6243Z" fill="#008DF4"/>
<path d="M73.2022 40.7948H40.0599C39.6528 40.7948 39.3233 40.4678 39.3233 40.0637C39.3233 39.6595 39.6528 39.3325 40.0599 39.3325H73.2022C73.6093 39.3325 73.9387 39.6595 73.9387 40.0637C73.9387 40.4678 73.6093 40.7948 73.2022 40.7948Z" fill="#008DF4"/>
<path d="M22.8723 41.9944C22.4652 41.9944 22.1358 41.6673 22.1358 41.2632V38.8648C22.1358 38.4607 22.4652 38.1337 22.8723 38.1337C23.2794 38.1337 23.6088 38.4607 23.6088 38.8648V41.2632C23.6088 41.6673 23.2794 41.9944 22.8723 41.9944Z" fill="#008DF4"/>
<path d="M31.761 41.9944C31.3539 41.9944 31.0244 41.6673 31.0244 41.2632V38.8648C31.0244 38.4607 31.3539 38.1337 31.761 38.1337C32.1681 38.1337 32.4975 38.4607 32.4975 38.8648V41.2632C32.4975 41.6673 32.1681 41.9944 31.761 41.9944Z" fill="#008DF4"/>
<path d="M77.4501 73.3441H18.6243C16.8635 73.3441 15.4308 71.9218 15.4308 70.1739V57.2673C15.4308 55.5193 16.8635 54.0977 18.6243 54.0977H77.4501C79.2109 54.0977 80.6437 55.5193 80.6437 57.2673V70.1739C80.6437 71.9218 79.2109 73.3441 77.4501 73.3441ZM18.6243 55.56C17.6763 55.56 16.9038 56.3262 16.9038 57.2673V70.1739C16.9038 71.1157 17.6763 71.8818 18.6243 71.8818H77.4501C78.3981 71.8818 79.1706 71.1157 79.1706 70.1739V57.2673C79.1706 56.3262 78.3981 55.56 77.4501 55.56H18.6243Z" fill="#008DF4"/>
<path d="M73.2022 64.4517H40.0599C39.6528 64.4517 39.3233 64.1247 39.3233 63.7206C39.3233 63.3164 39.6528 62.9894 40.0599 62.9894H73.2022C73.6093 62.9894 73.9387 63.3164 73.9387 63.7206C73.9387 64.1247 73.6093 64.4517 73.2022 64.4517Z" fill="#008DF4"/>
<path d="M22.8723 65.6513C22.4652 65.6513 22.1358 65.3242 22.1358 64.9201V62.5217C22.1358 62.1176 22.4652 61.7906 22.8723 61.7906C23.2794 61.7906 23.6088 62.1176 23.6088 62.5217V64.9201C23.6088 65.3242 23.2794 65.6513 22.8723 65.6513Z" fill="#008DF4"/>
<path d="M31.761 65.6513C31.3539 65.6513 31.0244 65.3242 31.0244 64.9201V62.5217C31.0244 62.1176 31.3539 61.7906 31.761 61.7906C32.1681 61.7906 32.4975 62.1176 32.4975 62.5217V64.9201C32.4975 65.3242 32.1681 65.6513 31.761 65.6513Z" fill="#008DF4"/>
<path d="M44.0547 90.0615H26.4744C26.0673 90.0615 25.7378 89.7344 25.7378 89.3303C25.7378 88.9262 26.0673 88.5992 26.4744 88.5992H44.0547C44.4618 88.5992 44.7912 88.9262 44.7912 89.3303C44.7912 89.7344 44.4618 90.0615 44.0547 90.0615Z" fill="#008DF4"/>
<path d="M69.5699 90.0615H51.9896C51.5825 90.0615 51.2531 89.7344 51.2531 89.3303C51.2531 88.9262 51.5825 88.5992 51.9896 88.5992H69.5699C69.977 88.5992 70.3064 88.9262 70.3064 89.3303C70.3064 89.7344 69.977 90.0615 69.5699 90.0615Z" fill="#008DF4"/>
</svg>
