<svg width="21" height="21" viewBox="0 0 21 21" fill="none" xmlns="http://www.w3.org/2000/svg">
<path fill-rule="evenodd" clip-rule="evenodd" d="M10.5 0C12.5767 0 14.6068 0.615814 16.3335 1.76957C18.0602 2.92332 19.406 4.5632 20.2007 6.48182C20.9955 8.40045 21.2034 10.5116 20.7982 12.5484C20.3931 14.5852 19.3931 16.4562 17.9246 17.9246C16.4562 19.3931 14.5852 20.3931 12.5484 20.7982C10.5116 21.2034 8.40045 20.9955 6.48182 20.2007C4.5632 19.406 2.92332 18.0602 1.76957 16.3335C0.615814 14.6068 0 12.5767 0 10.5C0 7.71523 1.10625 5.04451 3.07538 3.07538C5.04451 1.10625 7.71523 0 10.5 0V0ZM16.2456 14.2254C16.1203 14.4424 15.9139 14.6008 15.6718 14.6657C15.4297 14.7305 15.1718 14.6966 14.9547 14.5713L10.5899 12.0513C10.5461 12.0249 10.5045 11.995 10.4656 11.9618C10.2433 11.9276 10.0405 11.815 9.89395 11.6444C9.74738 11.4738 9.66663 11.2564 9.6663 11.0315V5.99151C9.6663 5.74088 9.76586 5.50051 9.94308 5.32329C10.1203 5.14607 10.3607 5.04651 10.6113 5.04651C10.8619 5.04651 11.1023 5.14607 11.2795 5.32329C11.4567 5.50051 11.5563 5.74088 11.5563 5.99151V10.4269L15.8997 12.9345C16.1168 13.0598 16.2751 13.2662 16.34 13.5083C16.4049 13.7504 16.3709 14.0083 16.2456 14.2254Z" fill="white"/>
</svg>
