<svg width="108" height="92" viewBox="0 0 108 92" fill="none" xmlns="http://www.w3.org/2000/svg">
<path d="M102.094 60.2183H24.4688C24.0024 60.2183 23.6251 59.8442 23.6251 59.3819C23.6251 58.9194 24.0024 58.5456 24.4688 58.5456H102.094C102.56 58.5456 102.938 58.9194 102.938 59.3819C102.938 59.8442 102.56 60.2183 102.094 60.2183Z" fill="#008DF4"/>
<path d="M107.156 65.238C106.69 65.238 106.313 64.864 106.313 64.4017C106.313 62.0952 104.421 60.2199 102.094 60.2199C101.628 60.2199 101.25 59.8459 101.25 59.3836C101.25 58.9211 101.628 58.5473 102.094 58.5473C105.35 58.5473 108 61.174 108 64.4017C108 64.864 107.623 65.238 107.156 65.238Z" fill="#008DF4"/>
<path d="M107.156 70.2544H24.4688C24.0024 70.2544 23.6251 69.8804 23.6251 69.4181C23.6251 68.9558 24.0024 68.5818 24.4688 68.5818H107.156C107.623 68.5818 108 68.9558 108 69.4181C108 69.8804 107.623 70.2544 107.156 70.2544Z" fill="#008DF4"/>
<path d="M107.156 70.2544C106.69 70.2544 106.313 69.8804 106.313 69.4181V64.4017C106.313 63.9394 106.69 63.5654 107.156 63.5654C107.623 63.5654 108 63.9394 108 64.4017L108 69.4181C108 69.8804 107.623 70.2544 107.156 70.2544Z" fill="#008DF4"/>
<path d="M95.344 88.6548C94.8774 88.6548 94.5003 88.2805 94.5003 87.8182V72.7636C94.5003 72.3013 94.8774 71.9273 95.344 71.9273C95.8101 71.9273 96.1877 72.3013 96.1877 72.7636V87.8182C96.1877 88.2805 95.8101 88.6548 95.344 88.6548Z" fill="#008DF4"/>
<path d="M100.406 88.6548C99.94 88.6548 99.5624 88.2805 99.5624 87.8182V72.7636C99.5624 72.3013 99.94 71.9273 100.406 71.9273C100.873 71.9273 101.25 72.3013 101.25 72.7636V87.8182C101.25 88.2805 100.873 88.6548 100.406 88.6548Z" fill="#008DF4"/>
<path d="M102.096 92H93.6561C93.19 92 92.8125 91.626 92.8125 91.1637C92.8125 90.7014 93.19 90.3274 93.6561 90.3274H102.096C102.562 90.3274 102.939 90.7014 102.939 91.1637C102.939 91.626 102.562 92 102.096 92Z" fill="#008DF4"/>
<path d="M93.6561 90.3274C93.19 90.3274 92.8125 89.9534 92.8125 89.4911C92.8125 89.0288 93.19 88.6548 93.6561 88.6548C94.121 88.6548 94.5003 88.2789 94.5003 87.8182C94.5003 87.3559 94.8774 86.9819 95.344 86.9819C95.8101 86.9819 96.1877 87.3559 96.1877 87.8182C96.1877 89.2018 95.0521 90.3274 93.6561 90.3274Z" fill="#008DF4"/>
<path d="M102.094 90.3274C100.698 90.3274 99.5624 89.2018 99.5624 87.8182C99.5624 87.3559 99.94 86.9819 100.406 86.9819C100.873 86.9819 101.25 87.3559 101.25 87.8182C101.25 88.2789 101.629 88.6548 102.094 88.6548C102.56 88.6548 102.938 89.0288 102.938 89.4911C102.938 89.9534 102.56 90.3274 102.094 90.3274Z" fill="#008DF4"/>
<path d="M93.6561 92C93.19 92 92.8125 91.626 92.8125 91.1637V89.4911C92.8125 89.0288 93.19 88.6548 93.6561 88.6548C94.1227 88.6548 94.5003 89.0288 94.5003 89.4911V91.1637C94.5003 91.626 94.1227 92 93.6561 92Z" fill="#008DF4"/>
<path d="M102.096 92C101.629 92 101.252 91.626 101.252 91.1654L101.25 89.4927C101.25 89.0304 101.627 88.6548 102.092 88.6548C102.094 88.6548 102.094 88.6548 102.094 88.6548C102.56 88.6548 102.938 89.0288 102.938 89.4894L102.939 91.162C102.939 91.6243 102.562 92 102.096 92Z" fill="#008DF4"/>
<path d="M95.344 76.9455H93.6561C93.19 76.9455 92.8125 76.5715 92.8125 76.1092C92.8125 75.6469 93.19 75.2729 93.6561 75.2729H95.344C95.8101 75.2729 96.1877 75.6469 96.1877 76.1092C96.1877 76.5715 95.8101 76.9455 95.344 76.9455Z" fill="#008DF4"/>
<path d="M59.9063 85.3091H24.4688C24.0024 85.3091 23.6251 84.9353 23.6251 84.4728C23.6251 84.0105 24.0024 83.6365 24.4688 83.6365H59.9063C60.3724 83.6365 60.75 84.0105 60.75 84.4728C60.75 84.9353 60.3724 85.3091 59.9063 85.3091Z" fill="#008DF4"/>
<path d="M91.9688 85.3091H63.2811C62.8149 85.3091 62.4374 84.9353 62.4374 84.4728C62.4374 84.0105 62.8149 83.6365 63.2811 83.6365H91.9685C92.4351 83.6365 92.8122 84.0105 92.8122 84.4728C92.8125 84.9353 92.4353 85.3091 91.9688 85.3091Z" fill="#008DF4"/>
<path d="M91.9688 88.6548H24.4688C24.0024 88.6548 23.6251 88.2805 23.6251 87.8182C23.6251 87.3559 24.0024 86.9819 24.4688 86.9819H91.9688C92.4353 86.9819 92.8124 87.3559 92.8124 87.8182C92.8124 88.2805 92.4353 88.6548 91.9688 88.6548Z" fill="#008DF4"/>
<path d="M63.2811 85.3091C62.8149 85.3091 62.4374 84.9353 62.4374 84.4728V72.7636C62.4374 72.3013 62.8149 71.9273 63.2811 71.9273C63.7476 71.9273 64.1252 72.3013 64.1252 72.7636V84.4728C64.1252 84.9353 63.7476 85.3091 63.2811 85.3091Z" fill="#008DF4"/>
<path d="M59.9063 85.3091C59.4397 85.3091 59.0626 84.9353 59.0626 84.4728V72.7636C59.0626 72.3013 59.4397 71.9273 59.9063 71.9273C60.3724 71.9273 60.75 72.3013 60.75 72.7636V84.4728C60.75 84.9353 60.3724 85.3091 59.9063 85.3091Z" fill="#008DF4"/>
<path d="M22.7829 92H14.3439C13.8775 92 13.5002 91.626 13.5002 91.1637C13.5002 90.7014 13.8775 90.3274 14.3439 90.3274H22.7831C23.2495 90.3274 23.627 90.7014 23.627 91.1637C23.627 91.626 23.2493 92 22.7829 92Z" fill="#008DF4"/>
<path d="M14.3439 90.3274C13.8775 90.3274 13.5002 89.9534 13.5002 89.4911C13.5002 89.0288 13.8775 88.6548 14.3439 88.6548C14.8085 88.6548 15.1878 88.2789 15.1878 87.8182C15.1878 87.3559 15.5651 86.9819 16.0317 86.9819C16.498 86.9819 16.8754 87.3559 16.8754 87.8182C16.8751 89.2018 15.7396 90.3274 14.3439 90.3274Z" fill="#008DF4"/>
<path d="M22.7812 90.3274C21.3853 90.3274 20.2499 89.2018 20.2499 87.8182C20.2499 87.3559 20.6272 86.9819 21.0936 86.9819C21.56 86.9819 21.9373 87.3559 21.9373 87.8182C21.9373 88.2789 22.3163 88.6548 22.7812 88.6548C23.2476 88.6548 23.6251 89.0288 23.6251 89.4911C23.6251 89.9534 23.2476 90.3274 22.7812 90.3274Z" fill="#008DF4"/>
<path d="M14.3439 92C13.8775 92 13.5002 91.626 13.5002 91.1637V89.4911C13.5002 89.0288 13.8775 88.6548 14.3439 88.6548C14.8102 88.6548 15.1878 89.0288 15.1878 89.4911V91.1637C15.1875 91.626 14.8102 92 14.3439 92Z" fill="#008DF4"/>
<path d="M22.7829 92C22.3165 92 21.939 91.626 21.939 91.1654L21.9373 89.4927C21.9373 89.0304 22.3148 88.6548 22.7795 88.6548C22.7812 88.6548 22.7812 88.6548 22.7812 88.6548C23.2476 88.6548 23.6251 89.0288 23.6251 89.4894L23.6268 91.162C23.6268 91.6243 23.2493 92 22.7829 92Z" fill="#008DF4"/>
<path d="M21.0938 88.6548C20.6275 88.6548 20.2499 88.2805 20.2499 87.8182L20.2501 49.3633C20.2501 48.9011 20.6275 48.527 21.0938 48.527C21.5602 48.527 21.9375 48.9011 21.9375 49.3633L21.9373 87.8182C21.9373 88.2805 21.5602 88.6548 21.0938 88.6548Z" fill="#008DF4"/>
<path d="M16.0315 88.6188C15.5651 88.6188 15.1875 88.2445 15.1875 87.7822V49.3274C15.1875 48.8651 15.5649 48.4911 16.0315 48.4911C16.4978 48.4911 16.8751 48.8651 16.8751 49.3274V87.7822C16.8751 88.2445 16.4978 88.6188 16.0315 88.6188Z" fill="#008DF4"/>
<path d="M18.5625 46.8362C8.3272 46.8362 0 38.5821 0 28.4361C0 18.2903 8.3272 10.036 18.5625 10.036C28.7981 10.036 37.1251 18.2903 37.1251 28.4361C37.1251 38.5821 28.7981 46.8362 18.5625 46.8362ZM18.5625 11.7088C9.25826 11.7088 1.6876 19.2132 1.6876 28.4361C1.6876 37.6592 9.25826 45.1636 18.5625 45.1636C27.867 45.1636 35.4377 37.6592 35.4377 28.4361C35.4377 19.2132 27.867 11.7088 18.5625 11.7088Z" fill="#008DF4"/>
<path d="M5.90628 29.2726C5.43991 29.2726 5.06259 28.8984 5.06259 28.4361C5.06259 21.0576 11.1187 15.0543 18.5625 15.0543C19.0289 15.0543 19.4064 15.4283 19.4064 15.8906C19.4064 16.3529 19.0289 16.7269 18.5625 16.7269C12.05 16.7269 6.74997 21.9803 6.74997 28.4361C6.74997 28.8984 6.37265 29.2726 5.90628 29.2726Z" fill="#008DF4"/>
<path d="M18.5625 41.8181C18.0962 41.8181 17.7188 41.4441 17.7188 40.9818C17.7188 40.5195 18.0962 40.1453 18.5625 40.1453C25.0753 40.1453 30.3751 34.8919 30.3751 28.4361C30.3751 27.9738 30.7526 27.5998 31.219 27.5998C31.6854 27.5998 32.0627 27.9738 32.0627 28.4361C32.0625 35.815 26.0064 41.8181 18.5625 41.8181Z" fill="#008DF4"/>
<path d="M18.5625 35.127C14.8398 35.127 11.8126 32.1263 11.8126 28.4361C11.8126 24.7459 14.8398 21.7452 18.5625 21.7452C22.2853 21.7452 25.3125 24.7459 25.3125 28.4361C25.3125 32.1263 22.2853 35.127 18.5625 35.127ZM18.5625 23.418C15.7708 23.418 13.5002 25.669 13.5002 28.4361C13.5002 31.2034 15.771 33.4544 18.5625 33.4544C21.3542 33.4544 23.6251 31.2034 23.6251 28.4361C23.6251 25.669 21.3542 23.418 18.5625 23.418Z" fill="#008DF4"/>
<path d="M18.5625 30.9452C17.1668 30.9452 16.0315 29.8196 16.0315 28.4361C16.0315 27.0525 17.1668 25.9269 18.5625 25.9269C19.9583 25.9269 21.0938 27.0523 21.0938 28.4361C21.0938 29.8198 19.9583 30.9452 18.5625 30.9452ZM18.5625 27.5998C18.0978 27.5998 17.7188 27.9755 17.7188 28.4361C17.7188 28.8967 18.0978 29.2726 18.5625 29.2726C19.0272 29.2726 19.4064 28.8969 19.4064 28.4361C19.4064 27.9753 19.0272 27.5998 18.5625 27.5998Z" fill="#008DF4"/>
<path d="M18.5625 27.5998C18.0962 27.5998 17.7188 27.2258 17.7188 26.7635V25.9269C17.7188 25.4646 18.0962 25.0906 18.5625 25.0906C19.0289 25.0906 19.4064 25.4646 19.4064 25.9269V26.7635C19.4062 27.2258 19.0289 27.5998 18.5625 27.5998Z" fill="#008DF4"/>
<path d="M18.5625 31.7815C18.0962 31.7815 17.7188 31.4075 17.7188 30.9452V30.1089C17.7188 29.6466 18.0962 29.2724 18.5625 29.2724C19.0289 29.2724 19.4064 29.6466 19.4064 30.1089V30.9452C19.4062 31.4075 19.0289 31.7815 18.5625 31.7815Z" fill="#008DF4"/>
<path d="M17.3679 28.0899C17.152 28.0899 16.9361 28.0081 16.7713 27.8449L16.1747 27.2536C15.8451 26.9268 15.8451 26.3976 16.1747 26.0709C16.5044 25.7441 17.0383 25.7441 17.3679 26.0709L17.9645 26.6622C18.2941 26.989 18.2941 27.5182 17.9645 27.8449C17.7997 28.0081 17.5836 28.0899 17.3679 28.0899Z" fill="#008DF4"/>
<path d="M20.3523 31.0467C20.1364 31.0467 19.9205 30.9649 19.7557 30.8015L19.1591 30.2102C18.8295 29.8834 18.8295 29.3542 19.1591 29.0274C19.4887 28.7007 20.0226 28.7007 20.3523 29.0274L20.9488 29.6188C21.2785 29.9455 21.2785 30.4748 20.9488 30.8013C20.784 30.9649 20.5682 31.0467 20.3523 31.0467Z" fill="#008DF4"/>
<path d="M16.8735 29.2726H16.0298C15.5634 29.2726 15.1859 28.8984 15.1859 28.4361C15.1859 27.9738 15.5632 27.5998 16.0298 27.5998H16.8735C17.3398 27.5998 17.7171 27.9738 17.7171 28.4361C17.7171 28.8984 17.3398 29.2726 16.8735 29.2726Z" fill="#008DF4"/>
<path d="M21.0921 29.2726H20.2484C19.7821 29.2726 19.4045 28.8984 19.4045 28.4361C19.4045 27.9738 19.7821 27.5998 20.2484 27.5998H21.0921C21.5585 27.5998 21.9358 27.9738 21.9358 28.4361C21.9358 28.8984 21.5585 29.2726 21.0921 29.2726Z" fill="#008DF4"/>
<path d="M16.7711 31.0481C16.5552 31.0481 16.3393 30.9664 16.1745 30.803C15.8449 30.4762 15.8449 29.947 16.1745 29.6205L16.7711 29.0291C17.1007 28.7024 17.6346 28.7024 17.9643 29.0291C18.2939 29.3559 18.2939 29.8851 17.9643 30.2118L17.3677 30.8032C17.2029 30.9666 16.987 31.0481 16.7711 31.0481Z" fill="#008DF4"/>
<path d="M19.754 28.0916C19.5381 28.0916 19.3222 28.0098 19.1574 27.8466C18.8278 27.5199 18.8278 26.9906 19.1574 26.6639L19.754 26.0725C20.0836 25.7458 20.6175 25.7458 20.9469 26.0725C21.2766 26.3993 21.2766 26.9285 20.9469 27.2552L20.3504 27.8466C20.1858 28.0098 19.9699 28.0916 19.754 28.0916Z" fill="#008DF4"/>
<path d="M32.9079 81.9638H24.4688C24.0024 81.9638 23.6251 81.5896 23.6251 81.1275C23.6251 80.665 24.0024 80.291 24.4688 80.291H32.9079C33.3742 80.291 33.7516 80.665 33.7516 81.1275C33.7516 81.5896 33.3742 81.9638 32.9079 81.9638Z" fill="#008DF4"/>
<path d="M24.4688 80.291C24.0024 80.291 23.6251 79.917 23.6251 79.4547C23.6251 78.9924 24.0024 78.6184 24.4688 78.6184C24.9335 78.6184 25.3125 78.2427 25.3125 77.7819C25.3125 77.3198 25.6898 76.9455 26.1562 76.9455C26.6226 76.9455 27.0001 77.3198 27.0001 77.7819C27.0001 79.1656 25.8646 80.291 24.4688 80.291Z" fill="#008DF4"/>
<path d="M32.9062 80.291C31.5104 80.291 30.3749 79.1656 30.3749 77.7819C30.3749 77.3198 30.7524 76.9455 31.2188 76.9455C31.6852 76.9455 32.0625 77.3198 32.0625 77.7819C32.0625 78.2427 32.4415 78.6184 32.9062 78.6184C33.3725 78.6184 33.7499 78.9924 33.7499 79.4547C33.7499 79.917 33.3725 80.291 32.9062 80.291Z" fill="#008DF4"/>
<path d="M24.4688 81.9638C24.0024 81.9638 23.6251 81.5896 23.6251 81.1275V79.4547C23.6251 78.9924 24.0024 78.6184 24.4688 78.6184C24.9352 78.6184 25.3125 78.9924 25.3125 79.4547V81.1275C25.3125 81.5896 24.9352 81.9638 24.4688 81.9638Z" fill="#008DF4"/>
<path d="M32.9079 81.9638C32.4415 81.9638 32.0642 81.5896 32.0642 81.1292L32.0625 79.4564C32.0625 78.9941 32.4398 78.6184 32.9045 78.6184C32.9062 78.6184 32.9062 78.6184 32.9062 78.6184C33.3725 78.6184 33.7499 78.9924 33.7499 79.453L33.7516 81.1259C33.7516 81.5879 33.3742 81.9638 32.9079 81.9638Z" fill="#008DF4"/>
<path d="M31.2188 56.8728C30.7524 56.8728 30.3749 56.4988 30.3749 56.0365V45.154C30.3749 44.6917 30.7524 44.3174 31.2188 44.3174C31.6852 44.3174 32.0625 44.6917 32.0625 45.154V56.0365C32.0625 56.4986 31.6852 56.8728 31.2188 56.8728Z" fill="#008DF4"/>
<path d="M26.1562 56.8728C25.6898 56.8728 25.3125 56.4988 25.3125 56.0365V47.9438C25.3125 47.4815 25.6898 47.1075 26.1562 47.1075C26.6226 47.1075 27.0001 47.4815 27.0001 47.9438V56.0365C27.0001 56.4986 26.6226 56.8728 26.1562 56.8728Z" fill="#008DF4"/>
<path d="M39.0927 33.4544C38.8325 33.4544 38.5753 33.3351 38.4104 33.1096C38.137 32.7356 38.2192 32.2129 38.5966 31.9418C42.9588 28.7988 45.5624 23.7364 45.5624 18.3997C45.5624 9.17684 37.9918 1.67242 28.6875 1.67242C23.3003 1.67242 18.3614 4.13261 15.1413 8.42232C14.8611 8.79467 14.3337 8.86663 13.9598 8.59385C13.5858 8.31773 13.5082 7.79331 13.7867 7.42264C17.2772 2.77523 22.8487 0 28.6875 0C38.9228 0 47.25 8.25414 47.25 18.3999C47.25 24.2708 44.3859 29.8395 39.5886 33.2946C39.4388 33.4021 39.2657 33.4544 39.0927 33.4544Z" fill="#008DF4"/>
<path d="M21.9259 8.62962C21.6476 8.62962 21.3739 8.4924 21.2124 8.24096C20.9634 7.85063 21.0805 7.33436 21.4743 7.08606C23.63 5.73349 26.1233 5.01808 28.6875 5.01808C29.1539 5.01808 29.5312 5.3921 29.5312 5.8544C29.5312 6.31669 29.1539 6.69092 28.6875 6.69092C26.4447 6.69092 24.2626 7.31658 22.3775 8.50077C22.2374 8.58716 22.081 8.62962 21.9259 8.62962Z" fill="#008DF4"/>
<path d="M39.3877 25.9384C39.2328 25.9384 39.0762 25.896 38.9361 25.8094C38.5421 25.5611 38.4252 25.0448 38.674 24.6545C39.8689 22.7856 40.4998 20.6231 40.4998 18.3997C40.4998 17.9374 40.8772 17.5632 41.3437 17.5632C41.8101 17.5632 42.1874 17.9374 42.1874 18.3997C42.1874 20.9415 41.4657 23.413 40.1012 25.5498C39.9398 25.8012 39.6663 25.9384 39.3877 25.9384Z" fill="#008DF4"/>
<path d="M31.2188 78.6184C30.7524 78.6184 30.3749 78.2444 30.3749 77.7819V72.7638C30.3749 72.3015 30.7524 71.9275 31.2188 71.9275C31.6852 71.9275 32.0625 72.3015 32.0625 72.7638L32.0625 77.7819C32.0625 78.2444 31.6852 78.6184 31.2188 78.6184Z" fill="#008DF4"/>
<path d="M26.1562 78.6184C25.6898 78.6184 25.3125 78.2444 25.3125 77.7819V72.7638C25.3125 72.3015 25.6898 71.9275 26.1562 71.9275C26.6226 71.9275 27.0001 72.3015 27.0001 72.7638V77.7819C27.0001 78.2444 26.6226 78.6184 26.1562 78.6184Z" fill="#008DF4"/>
<path d="M102.094 63.5637H24.4688C24.0024 63.5637 23.6251 63.1897 23.6251 62.7272C23.6251 62.2651 24.0024 61.8909 24.4688 61.8909H102.094C102.56 61.8909 102.938 62.2651 102.938 62.7272C102.938 63.1897 102.56 63.5637 102.094 63.5637Z" fill="#008DF4"/>
<path d="M103.783 65.238C103.316 65.238 102.939 64.864 102.939 64.4017C102.939 63.9394 102.56 63.5637 102.094 63.5637C101.627 63.5637 101.25 63.1897 101.25 62.7272C101.25 62.2651 101.627 61.8909 102.094 61.8909C103.491 61.8909 104.627 63.0182 104.627 64.4017C104.627 64.864 104.249 65.238 103.783 65.238Z" fill="#008DF4"/>
</svg>
