<svg width="77" height="101" viewBox="0 0 77 101" fill="none" xmlns="http://www.w3.org/2000/svg">
<path d="M38.5 97.8438C17.2704 97.8438 0 80.4995 0 59.1795C0 37.8604 17.2704 20.5156 38.5 20.5156C59.7296 20.5156 77 37.8604 77 59.1795C77 80.4997 59.7296 97.8438 38.5 97.8438ZM38.5 22.0937C18.1374 22.0937 1.57132 38.7304 1.57132 59.1795C1.57132 79.6288 18.1374 96.2655 38.5 96.2655C58.8626 96.2655 75.4285 79.6288 75.4285 59.1795C75.4285 38.7304 58.8626 22.0937 38.5 22.0937Z" fill="#008DF4"/>
<path d="M38.5 101C17.2704 101 0 83.6562 0 62.3361C0 61.8998 0.351367 61.5469 0.785662 61.5469C1.21996 61.5469 1.57132 61.8998 1.57132 62.3361C1.57132 82.7855 18.1374 99.422 38.5 99.422C58.8626 99.422 75.4285 82.7855 75.4285 62.3361C75.4285 61.8998 75.7798 61.5469 76.2143 61.5469C76.6484 61.5469 77 61.8998 77 62.3361C77 83.6562 59.7296 101 38.5 101Z" fill="#008DF4"/>
<path d="M38.5 93.1093C19.8699 93.1093 4.71417 77.889 4.71417 59.1795C4.71417 40.471 19.8699 25.2499 38.5 25.2499C57.1301 25.2499 72.2856 40.471 72.2856 59.1795C72.2856 77.889 57.1301 93.1093 38.5 93.1093ZM38.5 26.8281C20.7369 26.8281 6.28569 41.3411 6.28569 59.1797C6.28569 77.0185 20.7371 91.5315 38.5 91.5315C56.2629 91.5315 70.7143 77.0185 70.7143 59.1797C70.7143 41.3411 56.2631 26.8281 38.5 26.8281Z" fill="#008DF4"/>
<path d="M33.7872 17.535C33.6398 17.535 33.4911 17.4934 33.3574 17.4074C30.6734 15.649 29.0713 12.6814 29.0713 9.46871C29.0713 4.24739 33.3006 0 38.4998 0C43.699 0 47.9283 4.24719 47.9283 9.46871C47.9283 12.6812 46.3262 15.6482 43.6436 17.4058C43.2769 17.643 42.7919 17.5414 42.5556 17.1753C42.3192 16.8108 42.4204 16.3215 42.7842 16.0835C45.0217 14.6186 46.3568 12.1458 46.3568 9.46871C46.3568 5.11811 42.8317 1.57822 38.4998 1.57822C34.1677 1.57822 30.6426 5.1183 30.6426 9.46871C30.6426 12.1464 31.9793 14.6194 34.2168 16.0849C34.5805 16.3229 34.6817 16.8123 34.4455 17.1767C34.2952 17.4087 34.0435 17.535 33.7872 17.535Z" fill="#008DF4"/>
<path d="M36.9285 20.417C36.4942 20.417 36.1428 20.0641 36.1428 19.628V14.9922C36.1428 14.556 36.4942 14.2032 36.9285 14.2032C37.3628 14.2032 37.7143 14.556 37.7143 14.9922V19.628C37.7141 20.0641 37.3628 20.417 36.9285 20.417Z" fill="#008DF4"/>
<path d="M40.0713 20.417C39.637 20.417 39.2857 20.0641 39.2857 19.628V14.9922C39.2857 14.556 39.637 14.2032 40.0713 14.2032C40.5056 14.2032 40.8572 14.556 40.8572 14.9922V19.628C40.8572 20.0641 40.5056 20.417 40.0713 20.417Z" fill="#008DF4"/>
<path d="M53.4455 23.3313C53.3564 23.3313 53.266 23.3159 53.177 23.2835C52.7687 23.1349 52.5586 22.6818 52.7074 22.2727L54.2863 17.9173C54.4353 17.5082 54.8834 17.2994 55.2931 17.4456C55.7012 17.5944 55.9115 18.0476 55.7628 18.4567L54.1836 22.8118C54.067 23.1325 53.7662 23.3313 53.4455 23.3313Z" fill="#008DF4"/>
<path d="M50.4928 22.2541C50.4038 22.2541 50.3132 22.2387 50.2242 22.2064C49.816 22.0575 49.606 21.6044 49.7545 21.1953L51.3337 16.837C51.4827 16.4279 51.9305 16.2173 52.3405 16.3653C52.7484 16.5142 52.9587 16.9673 52.8099 17.3764L51.2309 21.7347C51.1142 22.0552 50.8136 22.2541 50.4928 22.2541Z" fill="#008DF4"/>
<path d="M41.6428 15.7812H35.3572C34.9229 15.7812 34.5715 15.4283 34.5715 14.9922V8.6797C34.5715 8.24356 34.9229 7.89069 35.3572 7.89069H41.6428C42.0771 7.89069 42.4285 8.24356 42.4285 8.6797V14.9922C42.4285 15.4283 42.0771 15.7812 41.6428 15.7812ZM36.1428 14.2032H40.8572V9.46871H36.1428V14.2032Z" fill="#008DF4"/>
<path d="M38.5 14.2032C38.0657 14.2032 37.7141 13.8503 37.7141 13.4142V10.2579C37.7141 9.82177 38.0657 9.46871 38.5 9.46871C38.9343 9.46871 39.2857 9.82177 39.2857 10.2579V13.4142C39.2857 13.8503 38.9343 14.2032 38.5 14.2032Z" fill="#008DF4"/>
<path d="M55.0246 18.9761C54.9356 18.9761 54.845 18.9607 54.756 18.9283L51.8036 17.848C51.3954 17.6992 51.1852 17.2461 51.3339 16.8362C51.4829 16.4279 51.9307 16.2173 52.3407 16.3653L55.2931 17.4456C55.7012 17.5944 55.9115 18.0476 55.7628 18.4575C55.646 18.7772 55.3454 18.9761 55.0246 18.9761Z" fill="#008DF4"/>
<path d="M38.5 28.4063C38.0657 28.4063 37.7141 28.0535 37.7141 27.6173V26.0391C37.7141 25.603 38.0657 25.2501 38.5 25.2501C38.9343 25.2501 39.2857 25.603 39.2857 26.0391V27.6173C39.2857 28.0535 38.9343 28.4063 38.5 28.4063Z" fill="#008DF4"/>
<path d="M38.5 93.1093C38.0657 93.1093 37.7141 92.7564 37.7141 92.3203V90.7423C37.7141 90.3059 38.0657 89.9531 38.5 89.9531C38.9343 89.9531 39.2857 90.3059 39.2857 90.7423V92.3203C39.2857 92.7564 38.9343 93.1093 38.5 93.1093Z" fill="#008DF4"/>
<path d="M33.0414 28.8857C32.6687 28.8857 32.3371 28.6167 32.2695 28.2337L31.9964 26.6787C31.9213 26.2495 32.2066 25.8404 32.6333 25.7648C33.0491 25.6839 33.4665 25.9736 33.5433 26.4042L33.8165 27.9593C33.8918 28.3886 33.6064 28.7977 33.1798 28.8733C33.1334 28.8818 33.0874 28.8857 33.0414 28.8857Z" fill="#008DF4"/>
<path d="M44.2286 92.6068C43.8542 92.6068 43.5227 92.3373 43.4567 91.9534L43.1849 90.3999C43.1096 89.9698 43.3952 89.5615 43.8234 89.4844C44.2254 89.4103 44.6582 89.6955 44.7318 90.1255L45.0034 91.6823C45.0787 92.1105 44.7932 92.5206 44.3652 92.5944C44.3207 92.6039 44.2748 92.6068 44.2286 92.6068Z" fill="#008DF4"/>
<path d="M27.7517 30.3096C27.431 30.3096 27.1301 30.1107 27.0136 29.791L26.4749 28.3067C26.326 27.8968 26.5362 27.4444 26.9446 27.2949C27.3528 27.1455 27.8024 27.3572 27.9513 27.7657L28.49 29.25C28.6387 29.6599 28.4287 30.1122 28.0203 30.2618C27.9313 30.2942 27.8407 30.3096 27.7517 30.3096Z" fill="#008DF4"/>
<path d="M49.787 91.1121C49.4663 91.1121 49.164 90.9132 49.0489 90.5927L48.5118 89.1084C48.3628 88.6985 48.5731 88.2454 48.9815 88.0976C49.3912 87.9496 49.8408 88.1591 49.9882 88.569L50.5253 90.0533C50.674 90.4632 50.464 90.9148 50.0556 91.0644C49.9666 91.0967 49.876 91.1121 49.787 91.1121Z" fill="#008DF4"/>
<path d="M22.7872 32.6352C22.5171 32.6352 22.2532 32.4943 22.1074 32.2407L21.3202 30.872C21.1022 30.4953 21.2312 30.0122 21.6071 29.7941C21.9814 29.576 22.4619 29.7039 22.6797 30.083L23.4669 31.4517C23.6846 31.8284 23.5559 32.3115 23.18 32.5298C23.0558 32.6012 22.9208 32.6352 22.7872 32.6352Z" fill="#008DF4"/>
<path d="M55.0001 88.6709C54.7283 88.6709 54.4644 88.529 54.3186 88.2764L53.5345 86.9077C53.3179 86.5286 53.4484 86.0479 53.8245 85.8288C54.1959 85.6115 54.6794 85.7412 54.8973 86.1187L55.6814 87.4874C55.898 87.8665 55.7675 88.3472 55.3911 88.5661C55.2685 88.6369 55.1335 88.6709 55.0001 88.6709Z" fill="#008DF4"/>
<path d="M18.3 35.7898C18.0759 35.7898 17.8535 35.6943 17.6984 35.5078L16.6872 34.2981C16.4079 33.9643 16.4508 33.4664 16.7838 33.1868C17.1154 32.9055 17.6126 32.9496 17.8902 33.2839L18.9015 34.4936C19.1807 34.8272 19.1379 35.3251 18.8048 35.6049C18.6576 35.7289 18.478 35.7898 18.3 35.7898Z" fill="#008DF4"/>
<path d="M59.7127 85.3576C59.4885 85.3576 59.2662 85.262 59.1096 85.0738L58.0997 83.8624C57.822 83.5295 57.8664 83.0318 58.198 82.7529C58.5297 82.4707 59.0251 82.5155 59.3061 82.8514L60.316 84.0627C60.5937 84.3959 60.5492 84.8936 60.2177 85.1724C60.0703 85.2974 59.8907 85.3576 59.7127 85.3576Z" fill="#008DF4"/>
<path d="M14.4267 39.6796C14.2486 39.6796 14.0692 39.6196 13.9218 39.4955L12.7156 38.4799C12.3827 38.1995 12.3397 37.7018 12.6189 37.3681C12.8982 37.0349 13.394 36.9905 13.7255 37.2702L14.9317 38.2857C15.2646 38.5662 15.3076 39.0639 15.0284 39.3976C14.8733 39.5835 14.6509 39.6796 14.4267 39.6796Z" fill="#008DF4"/>
<path d="M63.7809 81.272C63.6013 81.272 63.4233 81.2118 63.2761 81.0869L62.0714 80.0699C61.7383 79.7893 61.6953 79.2916 61.9748 78.9586C62.2524 78.6227 62.7496 78.5811 63.0811 78.8615L64.2858 79.8787C64.6188 80.1591 64.6619 80.6568 64.3824 80.99C64.2276 81.1763 64.0049 81.272 63.7809 81.272Z" fill="#008DF4"/>
<path d="M11.2854 44.1859C11.152 44.1859 11.017 44.152 10.8926 44.0806L9.52836 43.2914C9.15243 43.0741 9.02352 42.5917 9.23988 42.2142C9.45624 41.8359 9.93652 41.7064 10.314 41.9243L11.6782 42.7135C12.0544 42.9308 12.1831 43.4131 11.9669 43.7907C11.8209 44.0443 11.5572 44.1859 11.2854 44.1859Z" fill="#008DF4"/>
<path d="M67.0804 76.5391C66.9452 76.5391 66.8104 76.5052 66.6875 76.4327L65.3247 75.6406C64.9488 75.4231 64.8199 74.9392 65.0378 74.5632C65.2555 74.1841 65.7405 74.0562 66.1104 74.2749L67.4732 75.0673C67.8491 75.2845 67.9781 75.7684 67.7603 76.1444C67.6143 76.3974 67.3506 76.5391 67.0804 76.5391Z" fill="#008DF4"/>
<path d="M8.96968 49.1716C8.88065 49.1716 8.79006 49.1562 8.70104 49.1247L7.22169 48.5853C6.81333 48.4367 6.60326 47.9836 6.75202 47.5745C6.8994 47.1638 7.3504 46.9579 7.75876 47.1014L9.23811 47.6408C9.64627 47.7894 9.85654 48.2425 9.70778 48.6516C9.59262 48.9729 9.29039 49.1716 8.96968 49.1716Z" fill="#008DF4"/>
<path d="M69.5113 71.3022C69.4222 71.3022 69.3301 71.2868 69.241 71.2544L67.7633 70.7119C67.3567 70.5625 67.1462 70.1094 67.2952 69.6995C67.4441 69.2912 67.8936 69.083 68.3035 69.2294L69.7813 69.7719C70.1879 69.9213 70.3983 70.3744 70.2494 70.7843C70.1326 71.105 69.8318 71.3022 69.5113 71.3022Z" fill="#008DF4"/>
<path d="M7.55321 54.4853C7.50722 54.4853 7.46104 54.4822 7.41506 54.4731L5.86515 54.1988C5.43852 54.1232 5.15298 53.7148 5.22825 53.2848C5.30509 52.8548 5.72091 52.5696 6.1383 52.6452L7.68821 52.9195C8.11484 52.9951 8.40037 53.4036 8.32511 53.8335C8.25751 54.2173 7.92619 54.4853 7.55321 54.4853Z" fill="#008DF4"/>
<path d="M71.0012 65.7219C70.9554 65.7219 70.9093 65.7174 70.8633 65.7097L69.3147 65.4338C68.8865 65.3566 68.6012 64.9485 68.6778 64.5182C68.7531 64.09 69.1707 63.8032 69.5879 63.8804L71.1364 64.1561C71.5646 64.2317 71.8502 64.6416 71.7733 65.07C71.7057 65.4521 71.374 65.7219 71.0012 65.7219Z" fill="#008DF4"/>
<path d="M7.0745 59.9657H5.49983C5.06554 59.9657 4.71417 59.6129 4.71417 59.1765C4.71417 58.7406 5.06554 58.3875 5.49983 58.3875H7.0745C7.50879 58.3875 7.86016 58.7406 7.86016 59.1765C7.86016 59.6129 7.50879 59.9657 7.0745 59.9657Z" fill="#008DF4"/>
<path d="M71.5 59.9673C71.5 59.9673 71.5 59.9673 71.4984 59.9673L69.9271 59.9657C69.4944 59.9657 69.143 59.6113 69.143 59.1765C69.143 58.7406 69.4944 58.3875 69.9286 58.3875C69.9286 58.3875 69.9286 58.3875 69.9302 58.3875L71.5015 58.3891C71.9343 58.3907 72.2856 58.742 72.2856 59.1795C72.2856 59.6143 71.9343 59.9673 71.5 59.9673Z" fill="#008DF4"/>
<path d="M5.99858 65.7203C5.6258 65.7203 5.29428 65.4505 5.22668 65.0683C5.15141 64.6382 5.43695 64.2299 5.86358 64.1543L7.41506 63.88C7.83559 63.8029 8.24984 64.0896 8.32511 64.5194C8.40037 64.9497 8.11484 65.3578 7.68821 65.4334L6.13673 65.7079C6.09075 65.7172 6.04476 65.7203 5.99858 65.7203Z" fill="#008DF4"/>
<path d="M69.4497 54.4853C69.0754 54.4853 68.7437 54.2157 68.6776 53.8317C68.6026 53.4034 68.8879 52.9933 69.3145 52.9193L70.8615 52.645C71.2757 52.5742 71.6963 52.8578 71.7716 53.2862C71.8468 53.7162 71.5613 54.1245 71.1347 54.2017L69.5877 54.4729C69.5419 54.4824 69.4959 54.4853 69.4497 54.4853Z" fill="#008DF4"/>
<path d="M7.48875 71.3006C7.16804 71.3006 6.8656 71.1019 6.75064 70.7812C6.60188 70.3713 6.81196 69.9182 7.22031 69.7704L8.70124 69.2294C9.11254 69.0814 9.56059 69.291 9.70798 69.7011C9.85674 70.1094 9.64667 70.5625 9.23831 70.7119L7.75738 71.2529C7.66836 71.2852 7.57777 71.3006 7.48875 71.3006Z" fill="#008DF4"/>
<path d="M68.0333 49.1716C67.7126 49.1716 67.4119 48.9729 67.2952 48.6522C67.1462 48.2431 67.3565 47.79 67.7648 47.6414L69.241 47.102C69.6508 46.9532 70.099 47.1636 70.2478 47.5737C70.3967 47.9828 70.1865 48.4359 69.7781 48.5845L68.3019 49.1239C68.2129 49.156 68.1223 49.1716 68.0333 49.1716Z" fill="#008DF4"/>
<path d="M9.91943 76.5361C9.64784 76.5361 9.38393 76.3943 9.23969 76.1414C9.02175 75.7639 9.15067 75.2816 9.5266 75.0627L10.8908 74.2735C11.2683 74.0549 11.747 74.1843 11.9636 74.5619C12.1813 74.9394 12.0526 75.4217 11.6765 75.6392L10.3123 76.4314C10.1883 76.5022 10.0531 76.5361 9.91943 76.5361Z" fill="#008DF4"/>
<path d="M65.7176 44.1844C65.4475 44.1844 65.1819 44.0427 65.0378 43.7899C64.8199 43.4123 64.9488 42.93 65.3247 42.7119L66.686 41.9227C67.0588 41.7054 67.5422 41.8343 67.7587 42.2118C67.9765 42.5894 67.8476 43.0717 67.4716 43.2898L66.1104 44.079C65.9862 44.1504 65.8512 44.1844 65.7176 44.1844Z" fill="#008DF4"/>
<path d="M13.2191 81.2673C12.9951 81.2673 12.7726 81.1717 12.6174 80.9852C12.3381 80.6507 12.3812 80.1544 12.714 79.8739L13.9203 78.8568C14.2518 78.5779 14.7474 78.6225 15.0268 78.9555C15.3061 79.2884 15.263 79.7877 14.9301 80.0683L13.7239 81.0823C13.5765 81.2057 13.3969 81.2673 13.2191 81.2673Z" fill="#008DF4"/>
<path d="M62.5747 39.6781C62.3507 39.6781 62.1284 39.5819 61.9732 39.396C61.6937 39.0617 61.7368 38.5646 62.0699 38.2842L63.2745 37.27C63.6074 36.9887 64.1032 37.0341 64.3809 37.3679C64.6603 37.7022 64.6173 38.1993 64.2842 38.4797L63.0796 39.4939C62.9324 39.6181 62.7528 39.6781 62.5747 39.6781Z" fill="#008DF4"/>
<path d="M17.2857 85.3514C17.1061 85.3514 16.9265 85.2899 16.7809 85.1663C16.4478 84.8859 16.405 84.3882 16.6842 84.0535L17.697 82.8453C17.9763 82.5094 18.475 82.4693 18.8034 82.7484C19.1365 83.0288 19.1795 83.5265 18.9001 83.8595L17.8873 85.0708C17.7322 85.2557 17.5098 85.3514 17.2857 85.3514Z" fill="#008DF4"/>
<path d="M58.6998 35.7867C58.5204 35.7867 58.3408 35.7257 58.1934 35.6012C57.8619 35.3205 57.8191 34.8228 58.0983 34.4899L59.1096 33.2833C59.3922 32.9474 59.8844 32.9065 60.2177 33.1878C60.5492 33.4682 60.5921 33.9659 60.3128 34.299L59.3016 35.5057C59.145 35.6912 58.9241 35.7867 58.6998 35.7867Z" fill="#008DF4"/>
<path d="M21.997 88.6648C21.8618 88.6648 21.727 88.6308 21.6041 88.5584C21.2282 88.3411 21.0993 87.8572 21.3172 87.4812L22.106 86.1126C22.3238 85.7335 22.8088 85.6056 23.1786 85.8243C23.5545 86.0418 23.6835 86.5257 23.4655 86.9016L22.6767 88.2702C22.5309 88.5229 22.267 88.6648 21.997 88.6648Z" fill="#008DF4"/>
<path d="M54.2127 32.632C54.0792 32.632 53.9442 32.5981 53.8198 32.5266C53.4439 32.3086 53.315 31.8252 53.5329 31.4485L54.3186 30.083C54.5363 29.7055 55.017 29.5782 55.3911 29.7941C55.7673 30.012 55.8962 30.4953 55.6783 30.872L54.8926 32.2375C54.7468 32.4911 54.4829 32.632 54.2127 32.632Z" fill="#008DF4"/>
<path d="M27.2099 91.106C27.1209 91.106 27.0289 91.0906 26.9399 91.0582C26.5333 90.9086 26.3228 90.4555 26.4718 90.0456L27.012 88.56C27.1608 88.1516 27.612 87.9436 28.0201 88.0901C28.4267 88.2395 28.637 88.6926 28.4882 89.1025L27.948 90.5881C27.8315 90.9086 27.5306 91.106 27.2099 91.106Z" fill="#008DF4"/>
<path d="M49.2467 30.3066C49.1579 30.3066 49.0658 30.2912 48.9767 30.2589C48.5701 30.1093 48.3597 29.6562 48.5086 29.2471L49.0473 27.7659C49.1976 27.356 49.6459 27.1464 50.0556 27.2951C50.4622 27.4446 50.6725 27.8978 50.5237 28.3069L49.9851 29.788C49.8683 30.1085 49.5675 30.3066 49.2467 30.3066Z" fill="#008DF4"/>
<path d="M32.7667 92.6007C32.7207 92.6007 32.6745 92.5976 32.627 92.5885C32.2004 92.5115 31.915 92.1014 31.9917 91.6732L32.268 90.1165C32.3432 89.688 32.7498 89.4044 33.1796 89.4784C33.6062 89.5556 33.8916 89.9655 33.8147 90.394L33.5386 91.9507C33.471 92.3327 33.1397 92.6007 32.7667 92.6007Z" fill="#008DF4"/>
<path d="M43.957 28.8825C43.911 28.8825 43.865 28.8786 43.819 28.8703C43.3908 28.7947 43.1069 28.3856 43.1821 27.9564L43.4555 26.4044C43.5323 25.9736 43.9495 25.6849 44.3655 25.765C44.7936 25.8406 45.0775 26.2497 45.0023 26.6789L44.7291 28.2307C44.6615 28.6136 44.33 28.8825 43.957 28.8825Z" fill="#008DF4"/>
<path d="M38.5 61.5438C37.2003 61.5438 36.1428 60.482 36.1428 59.1765C36.1428 57.8715 37.2003 56.8095 38.5 56.8095C39.7997 56.8095 40.8572 57.8715 40.8572 59.1765C40.8572 60.482 39.7997 61.5438 38.5 61.5438ZM38.5 58.3875C38.0673 58.3875 37.7141 58.7422 37.7141 59.1765C37.7141 59.6113 38.0671 59.9657 38.5 59.9657C38.9329 59.9657 39.2857 59.6113 39.2857 59.1765C39.2857 58.7422 38.9327 58.3875 38.5 58.3875Z" fill="#008DF4"/>
<path d="M38.5 58.3875C38.0657 58.3875 37.7141 58.0347 37.7141 57.5985V32.3516C37.7141 31.9154 38.0657 31.5626 38.5 31.5626C38.9343 31.5626 39.2857 31.9154 39.2857 32.3516V57.5985C39.2857 58.0347 38.9343 58.3875 38.5 58.3875Z" fill="#008DF4"/>
<path d="M38.5 71.0156C38.0657 71.0156 37.7141 70.6628 37.7141 70.2266V60.7548C37.7141 60.3186 38.0657 59.9657 38.5 59.9657C38.9343 59.9657 39.2857 60.3186 39.2857 60.7548V70.2266C39.2857 70.6628 38.9343 71.0156 38.5 71.0156Z" fill="#008DF4"/>
<path d="M35.443 48.3023C35.3403 48.3023 35.2373 48.2822 35.1361 48.2399C31.9288 46.8768 29.8571 43.7376 29.8571 40.2423C29.8571 36.7902 31.892 33.6663 35.0425 32.2855C35.4401 32.113 35.9035 32.2924 36.0768 32.6924C36.2503 33.0915 36.0691 33.557 35.6716 33.7313C33.0935 34.8617 31.4284 37.4178 31.4284 40.2425C31.4284 43.1021 33.1242 45.6712 35.7498 46.787C36.1487 46.9564 36.336 47.4195 36.1656 47.821C36.0398 48.1219 35.7484 48.3023 35.443 48.3023Z" fill="#008DF4"/>
<path d="M41.6428 48.2654C41.3404 48.2654 41.0519 48.089 40.923 47.7923C40.7497 47.3933 40.9307 46.9277 41.3282 46.7537C43.9063 45.6225 45.5715 43.0664 45.5715 40.2423C45.5715 37.3821 43.8758 34.8128 41.2516 33.6979C40.8513 33.5284 40.664 33.0652 40.8328 32.6638C41.0014 32.2616 41.465 32.0753 41.8623 32.2446C45.0712 33.6069 47.1429 36.7464 47.1429 40.2423C47.1429 43.6936 45.1082 46.8174 41.9575 48.1991C41.8545 48.2445 41.7488 48.2654 41.6428 48.2654Z" fill="#008DF4"/>
<path d="M31.4286 41.0313H30.6428C30.2085 41.0313 29.8571 40.6784 29.8571 40.2423C29.8571 39.8061 30.2085 39.4533 30.6428 39.4533H31.4286C31.8629 39.4533 32.2143 39.8061 32.2143 40.2423C32.2143 40.6784 31.8629 41.0313 31.4286 41.0313Z" fill="#008DF4"/>
<path d="M46.357 41.0313H45.5714C45.1371 41.0313 44.7855 40.6784 44.7855 40.2423C44.7855 39.8061 45.1371 39.4533 45.5714 39.4533H46.357C46.7913 39.4533 47.1429 39.8061 47.1429 40.2423C47.1429 40.6784 46.7913 41.0313 46.357 41.0313Z" fill="#008DF4"/>
<path d="M31.6955 44.9767C31.4255 44.9767 31.1614 44.8356 31.0158 44.582C30.7978 44.2053 30.9268 43.7222 31.3027 43.5041L31.9824 43.1096C32.3523 42.8915 32.8373 43.0202 33.055 43.3985C33.2729 43.7753 33.144 44.2584 32.7681 44.4766L32.0881 44.8711C31.9657 44.9428 31.8291 44.9767 31.6955 44.9767Z" fill="#008DF4"/>
<path d="M44.623 37.4803C44.3514 37.4803 44.0873 37.3386 43.9415 37.0851C43.7251 36.7083 43.8542 36.2252 44.2301 36.0079L44.9115 35.6134C45.2876 35.3953 45.7677 35.5232 45.9858 35.9031C46.2024 36.2799 46.0732 36.763 45.6971 36.9805L45.0158 37.375C44.8914 37.4466 44.7566 37.4803 44.623 37.4803Z" fill="#008DF4"/>
<path d="M34.5715 47.8646C34.4379 47.8646 34.3029 47.8306 34.1785 47.759C33.8025 47.5417 33.6736 47.0586 33.89 46.6818L34.2828 45.9974C34.4994 45.6191 34.9781 45.4896 35.3572 45.7077C35.7331 45.925 35.862 46.4081 35.6456 46.7851L35.2528 47.4693C35.107 47.7229 34.8431 47.8646 34.5715 47.8646Z" fill="#008DF4"/>
<path d="M42.0341 34.882C41.8989 34.882 41.7641 34.8481 41.6413 34.7758C41.2651 34.5578 41.1364 34.0745 41.3542 33.6977L41.7488 33.0133C41.9665 32.6334 42.4531 32.5079 42.8213 32.726C43.1973 32.944 43.3262 33.4273 43.1082 33.8041L42.7138 34.4883C42.5682 34.7411 42.3041 34.882 42.0341 34.882Z" fill="#008DF4"/>
<path d="M42.4285 47.8646C42.1567 47.8646 41.8928 47.7227 41.7472 47.4693L41.3542 46.7851C41.1378 46.4081 41.2667 45.925 41.6428 45.7077C42.0188 45.4896 42.4991 45.6191 42.717 45.9974L43.1098 46.6818C43.3264 47.0586 43.1973 47.5417 42.8213 47.759C42.6969 47.8308 42.5621 47.8646 42.4285 47.8646Z" fill="#008DF4"/>
<path d="M34.9628 34.882C34.6912 34.882 34.4271 34.7403 34.2812 34.4859L33.89 33.8017C33.6736 33.4242 33.8041 32.9419 34.18 32.7244C34.5514 32.5071 35.0349 32.6366 35.2526 33.0157L35.6439 33.7001C35.8604 34.0776 35.7299 34.5599 35.3538 34.7774C35.2312 34.8481 35.0962 34.882 34.9628 34.882Z" fill="#008DF4"/>
<path d="M45.3045 44.9767C45.1709 44.9767 45.0359 44.9428 44.9115 44.8711L44.2301 44.4766C43.8542 44.2592 43.7253 43.776 43.9415 43.3993C44.158 43.021 44.6383 42.8915 45.0158 43.1096L45.6971 43.5041C46.0732 43.7214 46.2022 44.2045 45.9858 44.5812C45.84 44.8348 45.5761 44.9767 45.3045 44.9767Z" fill="#008DF4"/>
<path d="M32.3739 37.4819C32.2389 37.4819 32.1037 37.4474 31.9795 37.375L31.3011 36.9789C30.9252 36.76 30.7976 36.2767 31.0158 35.9C31.2335 35.5224 31.7169 35.3975 32.0899 35.615L32.7683 36.0111C33.1442 36.2297 33.2716 36.713 33.0536 37.0898C32.9078 37.3418 32.6439 37.4819 32.3739 37.4819Z" fill="#008DF4"/>
<path d="M46.357 77.3281H30.6428C30.2085 77.3281 29.8569 76.9751 29.8569 76.5391C29.8569 76.1028 30.2085 75.7499 30.6428 75.7499H46.357C46.7913 75.7499 47.1427 76.1028 47.1427 76.5391C47.1427 76.9751 46.7913 77.3281 46.357 77.3281Z" fill="#008DF4"/>
<path d="M41.557 80.4844H35.4432C35.0089 80.4844 34.6574 80.1317 34.6574 79.6953C34.6574 79.2592 35.0089 78.9063 35.4432 78.9063H41.557C41.9913 78.9063 42.3426 79.2592 42.3426 79.6953C42.3426 80.1315 41.9913 80.4844 41.557 80.4844Z" fill="#008DF4"/>
<path d="M54.2142 59.9687H49.5001C49.0658 59.9687 48.7144 59.6158 48.7144 59.1795C48.7144 58.7436 49.0658 58.3905 49.5001 58.3905H54.2142C54.6485 58.3905 55.0001 58.7436 55.0001 59.1795C55.0001 59.6158 54.6485 59.9687 54.2142 59.9687Z" fill="#008DF4"/>
<path d="M27.4999 59.9687H22.7856C22.3513 59.9687 21.9999 59.6158 21.9999 59.1795C21.9999 58.7436 22.3513 58.3905 22.7856 58.3905H27.4999C27.9342 58.3905 28.2858 58.7436 28.2858 59.1795C28.2856 59.6158 27.9342 59.9687 27.4999 59.9687Z" fill="#008DF4"/>
</svg>
