<svg width="16" height="22" viewBox="0 0 16 22" fill="none" xmlns="http://www.w3.org/2000/svg">
<path fill-rule="evenodd" clip-rule="evenodd" d="M8 0C12.4181 0 16 3.60359 16 8.04759C16 12.4916 8 22 8 22C8 22 0 12.4916 0 8.04759C0 3.60359 3.58187 0 8 0ZM8.00427 4.55839C8.71312 4.55839 9.40606 4.77516 9.99544 5.18128C10.5848 5.5874 11.0442 6.16465 11.3154 6.84001C11.5867 7.51536 11.6577 8.25849 11.5194 8.97545C11.3811 9.6924 11.0398 10.351 10.5385 10.8679C10.0373 11.3848 9.39869 11.7368 8.70346 11.8794C8.00824 12.022 7.28762 11.9488 6.63273 11.6691C5.97784 11.3893 5.41809 10.9156 5.02427 10.3078C4.63046 9.7 4.42026 8.9854 4.42026 8.2544C4.42026 7.27416 4.79787 6.33407 5.47 5.64094C6.14213 4.9478 7.05374 4.55839 8.00427 4.55839Z" fill="white"/>
</svg>
