<svg width="34" height="34" viewBox="0 0 34 34" fill="none" xmlns="http://www.w3.org/2000/svg">
<rect width="33.1012" height="33.5203" fill="white"/>
<path fill-rule="evenodd" clip-rule="evenodd" d="M22.9421 22.5426H22.7917C21.7659 22.3808 21.1315 21.6862 20.5356 21.0388C20.1941 20.6749 19.6442 19.7378 19.0316 19.8357C18.1605 19.9732 18.6464 21.4704 18.2796 22.0915C17.9887 22.5878 16.7318 22.4825 15.8731 22.3923C13.1508 22.1128 11.6742 20.7504 10.4586 19.2342C9.15312 17.6165 8.21325 15.8425 7.30016 13.9707C6.99935 13.3573 6.54814 12.7601 6.54814 12.0157C6.99078 11.6686 7.77528 11.7149 8.50338 11.7149C9.11582 11.7149 10.0074 11.6443 10.4586 11.8653C10.7259 11.9986 10.9942 12.7703 11.2106 13.2188C11.633 14.115 12.1364 14.9708 12.7147 15.7753C12.9776 16.1362 13.45 16.7703 13.9179 16.6776C14.3777 16.5889 14.3494 15.5703 14.3691 14.873C14.393 14.08 14.455 13.0398 14.2187 12.6172C13.9994 12.2211 13.5733 12.2527 13.1659 12.0157C13.5034 11.354 14.4443 11.2638 15.5723 11.2638C16.5181 11.2638 17.7556 11.1134 18.1292 11.7149C18.5002 12.3353 18.3077 13.5895 18.2796 14.4219C18.2515 15.3567 18.0674 16.2441 18.7308 16.6776C19.244 16.6244 19.4887 16.1513 19.7836 15.7753C20.4371 14.9497 20.9336 14.279 21.4381 13.2188C21.6432 12.7762 21.8163 12.0056 22.1901 11.8653C22.7607 11.6596 23.6115 11.7149 24.4461 11.7149C25.1348 11.7149 26.3334 11.5597 26.5518 12.0157C26.7288 12.3798 26.266 13.4068 26.1005 13.6699C25.4655 14.6712 24.8281 15.3559 24.1453 16.2265C23.8698 16.5784 23.3566 17.0253 23.3933 17.5799C23.4174 18.0079 23.8066 18.3328 24.1453 18.6326C24.8019 19.2313 25.4058 19.8854 25.9501 20.5876C26.1733 20.864 26.7515 21.4322 26.7022 21.7907C26.563 22.9105 22.9439 22.532 22.9421 22.5426Z" fill="#1C1E20"/>
</svg>
