<svg width="87" height="100" viewBox="0 0 87 100" fill="none" xmlns="http://www.w3.org/2000/svg">
<path d="M5.43912 96.875C5.86848 96.875 6.21584 96.5255 6.21584 96.0936C6.21584 75.7783 18.2104 51.5627 75.3483 51.5627C75.7777 51.5627 76.1253 51.2141 76.1253 50.7822C76.1253 50.3504 75.7777 50.0009 75.3483 50.0009C16.9255 50.0009 4.66239 75.0657 4.66239 96.0936C4.66239 96.5255 5.00977 96.875 5.43912 96.875Z" fill="#008DF4"/>
<path d="M10.2044 93.8034C10.6079 93.8034 10.9494 93.4876 10.9782 93.0756C12.996 63.4783 45.4287 56.728 72.282 56.2762C72.7098 56.2686 73.0527 55.913 73.0452 55.4813C73.0376 55.0509 72.7234 54.7457 72.2546 54.7136C44.7518 55.1759 11.5257 62.1889 9.42746 92.9687C9.39871 93.3991 9.7218 93.7712 10.1498 93.8018C10.1683 93.8034 10.1861 93.8034 10.2044 93.8034Z" fill="#008DF4"/>
<path d="M75.3483 81.2502C75.7777 81.2502 76.1253 80.9008 76.1253 80.469V50.7822C76.1253 50.3504 75.7777 50.0009 75.3483 50.0009C74.919 50.0009 74.5714 50.3504 74.5714 50.7822V80.469C74.5714 80.9008 74.919 81.2502 75.3483 81.2502Z" fill="#008DF4"/>
<path d="M5.43912 96.875H86.2231C86.6524 96.875 87 96.5255 87 96.0936C87 95.6618 86.6526 95.3124 86.2231 95.3124H5.43912C5.00977 95.3124 4.66239 95.6618 4.66239 96.0936C4.66239 96.5255 5.00977 96.875 5.43912 96.875Z" fill="#008DF4"/>
<path d="M86.2231 96.875C86.6524 96.875 87 96.5255 87 96.0936C87 86.377 76.1933 80.0553 75.7336 79.7898C75.3619 79.5778 74.8856 79.7073 74.6746 80.0813C74.4607 80.4551 74.5895 80.9327 74.9627 81.1462C75.0674 81.2072 85.4462 87.2893 85.4462 96.0936C85.4464 96.5255 85.7937 96.875 86.2231 96.875Z" fill="#008DF4"/>
<path d="M81.5625 100C81.9919 100 82.3395 99.6506 82.3395 99.2188V97.6564C82.3395 97.2246 81.9919 96.8752 81.5625 96.8752C81.1332 96.8752 80.7858 97.2246 80.7858 97.6564V99.2188C80.7856 99.6506 81.1332 100 81.5625 100Z" fill="#008DF4"/>
<path d="M73.7947 100H81.5625C81.9919 100 82.3395 99.6506 82.3395 99.2188C82.3395 98.787 81.9919 98.4376 81.5625 98.4376H73.7949C73.3655 98.4376 73.0182 98.787 73.0182 99.2188C73.0182 99.6506 73.3653 100 73.7947 100Z" fill="#008DF4"/>
<path d="M73.7947 100C74.224 100 74.5714 99.6506 74.5714 99.2188V97.6564C74.5714 97.2246 74.224 96.8752 73.7947 96.8752C73.3653 96.8752 73.018 97.2246 73.018 97.6564L73.0182 99.2188C73.0182 99.6506 73.3653 100 73.7947 100Z" fill="#008DF4"/>
<path d="M16.3139 100C16.7432 100 17.0908 99.6506 17.0908 99.2188V97.6564C17.0908 97.2246 16.7432 96.8752 16.3139 96.8752C15.8845 96.8752 15.5371 97.2246 15.5371 97.6564V99.2188C15.5371 99.6506 15.8845 100 16.3139 100Z" fill="#008DF4"/>
<path d="M8.54622 100H16.3139C16.7432 100 17.0908 99.6506 17.0908 99.2188C17.0908 98.787 16.7432 98.4376 16.3139 98.4376H8.54622C8.11687 98.4376 7.76949 98.787 7.76949 99.2188C7.76949 99.6506 8.11687 100 8.54622 100Z" fill="#008DF4"/>
<path d="M8.54622 100C8.97558 100 9.32294 99.6506 9.32294 99.2188V97.6564C9.32294 97.2246 8.97558 96.8752 8.54622 96.8752C8.11687 96.8752 7.76949 97.2246 7.76949 97.6564V99.2188C7.76949 99.6506 8.11687 100 8.54622 100Z" fill="#008DF4"/>
<path d="M6.99277 26.5635C7.42213 26.5635 7.76949 26.2141 7.76949 25.7823V16.3402C7.76949 15.9083 7.42213 15.5588 6.99277 15.5588C6.56341 15.5588 6.21584 15.9083 6.21584 16.3402V25.7823C6.21584 26.2141 6.56341 26.5635 6.99277 26.5635Z" fill="#008DF4"/>
<path d="M13.2068 31.251C13.6363 31.251 13.9837 30.9017 13.9837 30.4698V19.862C13.9837 19.4302 13.6363 19.0806 13.2068 19.0806C12.7776 19.0806 12.43 19.4302 12.43 19.862V30.4698C12.43 30.9017 12.7776 31.251 13.2068 31.251Z" fill="#008DF4"/>
<path d="M18.1754 19.6484C18.6654 19.6484 19.1571 19.5812 19.6426 19.4454C21.0397 19.0532 22.2036 18.1362 22.9166 16.8636C23.1276 16.4883 22.9955 16.0123 22.6209 15.8003C22.2537 15.5881 21.7745 15.7194 21.5635 16.0977C21.0537 17.0055 20.2237 17.6603 19.2257 17.941C18.2273 18.2187 17.179 18.0952 16.2735 17.5794C15.9061 17.3672 15.4268 17.4969 15.216 17.8768C15.005 18.2521 15.1371 18.7281 15.5117 18.9403C16.3382 19.4087 17.2516 19.6484 18.1754 19.6484Z" fill="#008DF4"/>
<path d="M3.15129 11.8175C3.42134 11.8175 3.68517 11.6741 3.82777 11.4193C4.03876 11.044 3.90665 10.5678 3.53188 10.3558C2.62771 9.84305 1.97688 9.00695 1.6979 8.00281C1.42008 6.9973 1.54771 5.94294 2.05886 5.03337C2.26985 4.65645 2.13774 4.18047 1.76434 3.96827C1.39443 3.75626 0.91787 3.88894 0.705521 4.26429C-0.0090332 5.53847 -0.188164 7.01547 0.201752 8.42232C0.591675 9.82917 1.50343 10.998 2.77032 11.7167C2.89038 11.7855 3.02094 11.8175 3.15129 11.8175Z" fill="#008DF4"/>
<path d="M22.2399 17.2618C22.51 17.2618 22.7738 17.1184 22.9164 16.865C23.1274 16.4881 22.9953 16.0121 22.6221 15.8001L1.76434 3.96827C1.39443 3.75626 0.91787 3.88894 0.705521 4.26429C0.494728 4.64121 0.62664 5.11739 0.999855 5.32959L21.8576 17.1612C21.979 17.2298 22.1094 17.2618 22.2399 17.2618Z" fill="#008DF4"/>
<path d="M15.8923 19.0409C16.1625 19.0409 16.4264 18.8977 16.569 18.6427C16.7797 18.2674 16.6476 17.7914 16.2733 17.5794L3.53188 10.3558C3.16625 10.1451 2.68697 10.2749 2.47482 10.6534C2.26402 11.0287 2.39594 11.5047 2.77051 11.7169L15.5115 18.9403C15.6314 19.0091 15.7617 19.0409 15.8923 19.0409Z" fill="#008DF4"/>
<path d="M12.1479 7.94946C12.418 7.94946 12.682 7.80604 12.8244 7.55281C13.0354 7.17745 12.9033 6.6999 12.5301 6.4877C12.1569 6.2755 12.0248 5.79796 12.2358 5.4226C12.4466 5.04724 12.3144 4.57126 11.9399 4.35925C11.5727 4.14705 11.0948 4.27836 10.8826 4.65665C10.2514 5.78115 10.6473 7.21243 11.7656 7.84883C11.887 7.91742 12.0174 7.94946 12.1479 7.94946Z" fill="#008DF4"/>
<path d="M8.32182 5.77822C8.69037 5.77822 9.01812 5.51111 9.08495 5.13283C9.16227 4.69651 9.3109 4.2768 9.52946 3.88776C9.74025 3.51241 9.60834 3.03642 9.23376 2.82422C8.86639 2.61378 8.38866 2.74333 8.17631 3.12181C7.87148 3.66501 7.66341 4.24944 7.55579 4.86123C7.48157 5.28543 7.76211 5.69146 8.18544 5.76611C8.23071 5.77509 8.27617 5.77822 8.32182 5.77822Z" fill="#008DF4"/>
<path d="M11.5593 5.82082C11.8295 5.82082 12.0934 5.6774 12.236 5.4224L13.762 2.70034C13.973 2.32498 13.8409 1.849 13.4663 1.6368C13.1007 1.4246 12.6212 1.55591 12.4089 1.93419L10.8828 4.65645C10.6718 5.03181 10.8039 5.50779 11.1785 5.71999C11.2984 5.78877 11.4287 5.82082 11.5593 5.82082Z" fill="#008DF4"/>
<path d="M8.85259 4.28579C9.12284 4.28579 9.38667 4.14236 9.52927 3.88757L11.0555 1.1655C11.2665 0.790148 11.1344 0.314163 10.7598 0.101963C10.3926 -0.111605 9.91472 0.0210689 9.70237 0.399551L8.17631 3.12181C7.96532 3.49717 8.09743 3.97296 8.472 4.18516C8.59167 4.25374 8.72224 4.28579 8.85259 4.28579Z" fill="#008DF4"/>
<path d="M13.0855 3.09875C13.3556 3.09875 13.6196 2.95514 13.762 2.70034C13.973 2.32498 13.8409 1.849 13.4663 1.6368L10.7596 0.101963C10.3924 -0.111605 9.91452 0.0210689 9.70217 0.399551C9.49138 0.774907 9.6233 1.25089 9.99806 1.4629L12.7048 2.99793C12.8244 3.06671 12.955 3.09875 13.0855 3.09875Z" fill="#008DF4"/>
<path d="M29.5677 21.4152C29.8378 21.4152 30.1018 21.2718 30.2444 21.017C30.4552 20.6416 30.3231 20.1656 29.9485 19.9534L25.3274 17.3336C24.9602 17.1216 24.4823 17.2527 24.27 17.6311C24.0592 18.0065 24.1911 18.4825 24.5657 18.6947L29.187 21.3146C29.3068 21.3831 29.4372 21.4152 29.5677 21.4152Z" fill="#008DF4"/>
<path d="M31.0942 18.6931C31.3642 18.6931 31.6281 18.5497 31.7707 18.2949C31.9817 17.9195 31.8495 17.4436 31.475 17.2314L12.5287 6.4877C12.1616 6.2755 11.6823 6.40681 11.4713 6.7851C11.2605 7.16045 11.3924 7.63644 11.7672 7.84864L30.7132 18.5921C30.8331 18.6611 30.9636 18.6931 31.0942 18.6931Z" fill="#008DF4"/>
<path d="M29.5677 21.4152C29.8378 21.4152 30.1018 21.2718 30.2444 21.017L31.7705 18.2947C31.9815 17.9194 31.8494 17.4434 31.4748 17.2312C31.1076 17.0192 30.6283 17.1503 30.4173 17.5288L28.8911 20.2508C28.6803 20.6262 28.8124 21.1026 29.187 21.3146C29.3068 21.3831 29.4372 21.4152 29.5677 21.4152Z" fill="#008DF4"/>
<path d="M13.2068 31.251C13.442 31.251 13.6756 31.1428 13.8288 30.9382C14.0851 30.5933 14.0154 30.1037 13.6725 29.8442L7.45845 25.1566C7.11691 24.8987 6.62868 24.9675 6.37049 25.3137C6.11424 25.6586 6.18379 26.1483 6.52689 26.4078L12.7411 31.0953C12.8808 31.2008 13.0445 31.251 13.2068 31.251Z" fill="#008DF4"/>
<path d="M11.6533 65.6251C12.0827 65.6251 12.43 65.2758 12.43 64.8439V32.4228C12.43 31.991 12.0827 31.6416 11.6533 31.6416C11.224 31.6416 10.8766 31.991 10.8766 32.4228V64.8437C10.8766 65.2758 11.224 65.6251 11.6533 65.6251Z" fill="#008DF4"/>
<path d="M6.99277 73.4377C7.42213 73.4377 7.76949 73.0883 7.76949 72.6563V28.9073C7.76949 28.4754 7.42213 28.1261 6.99277 28.1261C6.56341 28.1261 6.21584 28.4754 6.21584 28.9073V72.6563C6.21584 73.0883 6.56341 73.4377 6.99277 73.4377Z" fill="#008DF4"/>
<path d="M6.99277 59.3752H11.6533C12.0827 59.3752 12.43 59.0258 12.43 58.5938C12.43 58.1622 12.0827 57.8126 11.6533 57.8126H6.99277C6.56341 57.8126 6.21584 58.1622 6.21584 58.5938C6.21584 59.0258 6.56341 59.3752 6.99277 59.3752Z" fill="#008DF4"/>
<path d="M62.9197 49.8057C63.2656 49.8057 63.5811 49.5722 63.6722 49.2197L65.2258 43.1649C65.3319 42.7468 65.0832 42.3212 64.6675 42.2128C64.2473 42.103 63.8286 42.3562 63.7208 42.7743L62.1671 48.8291C62.061 49.2472 62.3097 49.6728 62.7255 49.7812C62.7907 49.798 62.856 49.8057 62.9197 49.8057Z" fill="#008DF4"/>
<path d="M59.8127 50.0009C60.1616 50.0009 60.4786 49.7644 60.5666 49.4088L62.1203 43.1589C62.2235 42.7407 61.9715 42.3165 61.5544 42.2114C61.1433 42.1092 60.7168 42.3609 60.6121 42.7806L59.0587 49.0305C58.9555 49.4487 59.2073 49.8729 59.6246 49.9782C59.6868 49.9932 59.7505 50.0009 59.8127 50.0009Z" fill="#008DF4"/>
<path d="M50.4914 42.1885H70.6876C71.1169 42.1885 71.4643 41.839 71.4643 41.4071C71.4643 40.9753 71.1169 40.6258 70.6876 40.6258H50.4914C50.062 40.6258 49.7146 40.9753 49.7146 41.4071C49.7146 41.839 50.062 42.1885 50.4914 42.1885Z" fill="#008DF4"/>
<path d="M70.6876 42.1885C71.1169 42.1885 71.4643 41.839 71.4643 41.4071C71.4643 39.2527 69.7226 37.501 67.5805 37.501C67.1511 37.501 66.8038 37.8503 66.8038 38.2824C66.8038 38.7142 67.1511 39.0636 67.5805 39.0636C68.8655 39.0636 69.9109 40.1148 69.9109 41.4073C69.9109 41.839 70.2582 42.1885 70.6876 42.1885Z" fill="#008DF4"/>
<path d="M50.4914 42.1885C50.9207 42.1885 51.2683 41.839 51.2683 41.4071C51.2683 40.1148 52.3135 39.0634 53.5986 39.0634C54.028 39.0634 54.3756 38.714 54.3756 38.2822C54.3756 37.8503 54.028 37.5008 53.5986 37.5008C51.4565 37.5008 49.7148 39.2525 49.7148 41.4069C49.7146 41.839 50.062 42.1885 50.4914 42.1885Z" fill="#008DF4"/>
<path d="M53.5985 39.0636H67.5805C68.0098 39.0636 68.3574 38.7142 68.3574 38.2824C68.3574 37.8505 68.0098 37.501 67.5805 37.501H53.5985C53.1691 37.501 52.8217 37.8503 52.8217 38.2824C52.8217 38.7142 53.1691 39.0636 53.5985 39.0636Z" fill="#008DF4"/>
<path d="M64.0728 45.3135H67.711C68.1404 45.3135 68.4878 44.9639 68.4878 44.5321C68.4878 44.1003 68.1404 43.7507 67.711 43.7507H64.0728C63.6434 43.7507 63.2961 44.1003 63.2961 44.5321C63.2961 44.9639 63.6434 45.3135 64.0728 45.3135Z" fill="#008DF4"/>
<path d="M44.2772 78.125C44.7065 78.125 45.0541 77.7756 45.0541 77.3438C45.0541 76.912 44.7065 76.5626 44.2772 76.5626C42.135 76.5626 40.3941 74.8109 40.3941 72.6563C40.3941 70.502 42.135 68.7503 44.2772 68.7503C46.4193 68.7503 48.161 70.502 48.161 72.6563C48.161 73.0883 48.5086 73.4377 48.9379 73.4377C49.3673 73.4377 49.7146 73.0883 49.7146 72.6563C49.7146 69.6413 47.2751 67.1877 44.2772 67.1877C41.28 67.1877 38.8407 69.6415 38.8407 72.6563C38.8407 75.6716 41.28 78.125 44.2772 78.125Z" fill="#008DF4"/>
<path d="M52.7337 81.9431C52.9325 81.9431 53.1312 81.8667 53.2829 81.7141C53.5864 81.4088 53.5864 80.9145 53.2829 80.6093L44.8264 72.1043C44.5229 71.7991 44.0314 71.7991 43.7281 72.1043C43.4247 72.4095 43.4247 72.9038 43.7281 73.2088L52.1847 81.7141C52.3362 81.8667 52.535 81.9431 52.7337 81.9431Z" fill="#008DF4"/>
<path d="M47.3843 84.3751H61.3663C61.7957 84.3751 62.1432 84.0258 62.1432 83.594C62.1432 83.1621 61.7957 82.8128 61.3663 82.8128H47.3843C46.9549 82.8128 46.6075 83.1621 46.6075 83.594C46.6075 84.0258 46.9549 84.3751 47.3843 84.3751Z" fill="#008DF4"/>
<path d="M52.045 83.594C52.4744 83.594 52.8217 83.2444 52.8217 82.8128C52.8217 81.9507 53.518 81.2502 54.3754 81.2502C55.2325 81.2502 55.929 81.9507 55.929 82.8128C55.929 83.2444 56.2764 83.594 56.7057 83.594C57.1351 83.594 57.4825 83.2444 57.4825 82.8128C57.4825 81.0901 56.0883 79.6876 54.3754 79.6876C52.6624 79.6876 51.2683 81.0901 51.2683 82.8128C51.2681 83.2444 51.6156 83.594 52.045 83.594Z" fill="#008DF4"/>
</svg>
