<svg width="93" height="93" viewBox="0 0 93 93" fill="none" xmlns="http://www.w3.org/2000/svg">
<path d="M44.2239 76.546C44.8653 76.546 45.3837 76.0292 45.3837 75.3899C45.3837 73.8534 46.6375 72.6036 48.1789 72.6036C48.8203 72.6036 49.3387 72.0868 49.3387 71.4475C49.3387 70.8082 48.8203 70.2914 48.1789 70.2914C45.3582 70.2914 43.0641 72.5793 43.0641 75.3899C43.0641 76.0292 43.5825 76.546 44.2239 76.546Z" fill="#008DF4"/>
<path d="M11.1331 34.078C11.1331 33.4387 10.6147 32.9219 9.97329 32.9219C7.15261 32.9219 4.85848 35.2098 4.85848 38.0204C4.85848 38.6597 5.37692 39.1765 6.0183 39.1765C6.65968 39.1765 7.17812 38.6597 7.17812 38.0204C7.17812 36.4839 8.43189 35.2341 9.97329 35.2341C10.6135 35.2341 11.1331 34.7162 11.1331 34.078Z" fill="#008DF4"/>
<path d="M90.8927 28.265L87.0317 27.6661C85.6643 27.4615 84.4047 28.3852 84.1925 29.7356L84.0869 30.4085L78.4873 29.5414V18.979C80.662 18.7524 82.3692 16.9349 82.3692 14.7094V4.31466C82.3692 1.93536 80.4265 0 78.0408 0H15.7248C13.3379 0 11.3975 1.93651 11.3975 4.31466V14.7094C11.3975 16.9361 13.1036 18.7524 15.2783 18.979V29.924C13.7137 28.8685 11.8278 28.2511 9.79931 28.2511C4.39572 28.2511 0 32.6328 0 38.0192C0 43.0137 3.78217 47.1388 8.63949 47.7134V52.9194C8.63949 57.3901 11.3825 61.2331 15.2783 62.8667V91.8439C15.2783 92.4832 15.7967 93 16.4381 93H77.3286C77.97 93 78.4885 92.4832 78.4885 91.8439V56.1681L81.2117 55.3253C81.8461 55.1288 82.3657 54.6987 82.6754 54.1125C82.9851 53.5264 83.0465 52.8547 82.8494 52.2234L80.2978 44.0242C80.0264 43.1571 79.3166 42.5536 78.4885 42.357V36.8469L82.977 37.5429L82.8714 38.2158C82.7694 38.8701 82.9294 39.5245 83.3214 40.0586C83.7134 40.5939 84.291 40.9442 84.9475 41.046L88.8085 41.6448C88.9373 41.6645 89.0648 41.6738 89.1901 41.6738C90.394 41.6738 91.4564 40.7974 91.6478 39.5754L92.97 31.0952C93.072 30.4408 92.912 29.7853 92.52 29.2512C92.1279 28.717 91.5503 28.3667 90.8927 28.265ZM13.716 14.7094V4.31466C13.716 3.21056 14.616 2.31225 15.7237 2.31225H78.0396C79.1472 2.31225 80.0484 3.21056 80.0484 4.31466V14.7094C80.0484 15.8135 79.1472 16.7118 78.0396 16.7118H15.7248C14.6172 16.7118 13.716 15.8135 13.716 14.7094ZM2.31848 38.0204C2.31848 33.9092 5.67499 30.5645 9.79815 30.5645C13.9213 30.5645 17.2778 33.9104 17.2778 38.0204C17.2778 42.1304 13.9213 45.4762 9.79815 45.4762C5.67499 45.4762 2.31848 42.1304 2.31848 38.0204ZM10.958 52.9194V47.7134C12.5434 47.5261 14.0153 46.9665 15.2771 46.1156V60.2897C12.7023 58.8307 10.958 56.0768 10.958 52.9194ZM80.6318 52.9101C80.6562 52.9841 80.597 53.094 80.5205 53.1182L76.7905 54.2732C76.6942 54.2987 76.6072 54.2501 76.5794 54.1634L76.0331 52.4084C75.9426 52.1147 75.7374 51.8696 75.466 51.7274C75.1957 51.5864 74.8768 51.5552 74.5822 51.6465L63.5326 55.0629C63.238 55.153 62.9921 55.3577 62.8495 55.6282C62.7056 55.8999 62.6778 56.2167 62.7683 56.5103L63.3157 58.2642C63.3424 58.3532 63.2925 58.4468 63.2055 58.4746L59.4709 59.6284C59.3978 59.6527 59.2853 59.5937 59.2621 59.5197L56.7117 51.3205C56.685 51.2338 56.7337 51.1401 56.8207 51.1124L60.5553 49.9586C60.5716 49.9528 60.5878 49.9505 60.604 49.9505C60.676 49.9505 60.7409 49.9967 60.7641 50.0672L61.3104 51.8234C61.4008 52.117 61.6061 52.3621 61.8775 52.5043C62.1489 52.6465 62.469 52.6778 62.7613 52.5853L73.8097 49.1678C74.421 48.9782 74.7631 48.3307 74.5741 47.7214L74.0278 45.9641C74.0034 45.8901 74.0626 45.7803 74.138 45.756L77.8703 44.6022C77.9596 44.5733 78.0535 44.6265 78.0802 44.7109L80.6318 52.9101ZM76.1677 42.7085L73.4514 43.5478C72.8169 43.7444 72.2973 44.1744 71.9877 44.7606C71.678 45.3468 71.6165 46.0185 71.8137 46.6497L72.0167 47.3006L63.1835 50.0325L62.9805 49.3816C62.5734 48.0764 61.1782 47.3469 59.8687 47.7504L56.1341 48.9042C55.4997 49.1007 54.9801 49.5319 54.6704 50.1181C54.3619 50.7031 54.3004 51.3748 54.4976 52.0061L57.048 60.2053C57.2452 60.8377 57.6778 61.3557 58.2658 61.6643C58.6277 61.8539 59.022 61.9499 59.4199 61.9499C59.6681 61.9499 59.9174 61.9129 60.1598 61.8366L63.8945 60.6828C65.2027 60.277 65.9369 58.8862 65.5321 57.5797L65.3291 56.93L74.1623 54.1981L74.3653 54.849C74.6355 55.7138 75.3407 56.3207 76.1677 56.5173V90.6901H17.5968V63.5361C18.2034 63.6413 18.8239 63.7072 19.4606 63.7072C25.3745 63.7072 30.1878 58.9544 30.2748 53.0789C30.2748 53.0651 30.2829 53.0535 30.2829 53.0385C30.2829 48.3654 34.0975 44.5629 38.7867 44.5629C43.4747 44.5629 47.2893 48.3654 47.2893 53.0385V65.7015C42.4517 66.2958 38.6927 70.4081 38.6927 75.3887C38.6927 80.7751 43.0885 85.1568 48.4921 85.1568C53.8956 85.1568 58.2925 80.7751 58.2925 75.3887C58.2925 70.3792 54.4883 66.2438 49.609 65.6888V53.0396C49.609 47.0902 44.754 42.2518 38.7867 42.2518C32.8728 42.2518 28.0584 47.0058 27.9714 52.8801C27.9714 52.894 27.9632 52.9055 27.9632 52.9206C27.9632 57.5936 24.1486 61.3961 19.4606 61.3961C18.8192 61.3961 18.1976 61.3187 17.5968 61.1845V43.9317C17.5968 43.9259 17.5933 43.9213 17.5933 43.9155C18.8459 42.2749 19.5975 40.2355 19.5975 38.0192C19.5975 35.8041 18.8459 33.7658 17.5945 32.1253C17.5945 32.1218 17.5968 32.1195 17.5968 32.1172V19.0241H76.1677V29.1818L74.9475 28.9933L75.0531 28.3216C75.2653 26.9713 74.334 25.7019 72.9781 25.4903L69.116 24.8914C67.7613 24.6787 66.4878 25.6094 66.2779 26.9609L64.9545 35.4422C64.7446 36.7937 65.6759 38.0632 67.0306 38.2713L70.8928 38.8701C71.5504 38.9753 72.2057 38.8123 72.7416 38.4216C73.2785 38.0308 73.63 37.455 73.732 36.8007L73.8376 36.1278L76.1688 36.4897V42.7085H76.1677ZM48.4399 67.9363C48.4433 67.9363 48.4457 67.9386 48.4491 67.9386C48.4549 67.9386 48.4596 67.9352 48.4642 67.9352C48.4735 67.9352 48.4828 67.934 48.4921 67.934C52.6175 67.934 55.9729 71.2798 55.9729 75.3899C55.9729 79.4999 52.6164 82.8457 48.4921 82.8457C44.3677 82.8457 41.0124 79.4999 41.0124 75.3899C41.0124 71.2972 44.3411 67.9652 48.4399 67.9363ZM89.3548 39.2204C89.3409 39.3129 89.2539 39.3754 89.1634 39.3603L85.3024 38.7615C85.2247 38.7487 85.1505 38.6482 85.1632 38.5719L85.4462 36.7567C85.4938 36.4538 85.4184 36.1451 85.2363 35.8977C85.0542 35.6492 84.7816 35.485 84.4778 35.4376L73.0466 33.6664C72.9863 33.6572 72.926 33.6525 72.868 33.6525C72.3066 33.6525 71.8125 34.0607 71.7232 34.6318L71.4402 36.4469C71.4275 36.5244 71.3266 36.5972 71.25 36.5856L67.3878 35.9868C67.2974 35.9729 67.2336 35.8873 67.2486 35.7972L68.572 27.3158C68.5859 27.2245 68.6752 27.1678 68.7622 27.1771L72.6232 27.7759C72.7137 27.7898 72.7775 27.8754 72.7624 27.9667L72.4794 29.7818C72.4319 30.0847 72.5073 30.3934 72.6894 30.6408C72.8715 30.8894 73.144 31.0536 73.4479 31.101L84.8791 32.871C85.5135 32.9681 86.105 32.5369 86.2036 31.9056L86.4866 30.0917C86.5005 30.0003 86.5933 29.9437 86.6779 29.9518L90.539 30.5507C90.6167 30.5634 90.6909 30.6651 90.6782 30.7414L89.3548 39.2204Z" fill="#008DF4"/>
</svg>
