<svg width="18" height="24" viewBox="0 0 18 24" fill="none" xmlns="http://www.w3.org/2000/svg">
<path fill-rule="evenodd" clip-rule="evenodd" d="M9 0C13.9704 0 18 3.93119 18 8.77919C18 13.6272 9 24 9 24C9 24 0 13.6272 0 8.77919C0 3.93119 4.0296 0 9 0ZM9.0048 4.97279C9.80226 4.97279 10.5818 5.20926 11.2449 5.6523C11.9079 6.09535 12.4247 6.72507 12.7299 7.46183C13.035 8.19858 13.1149 9.00926 12.9593 9.7914C12.8038 10.5735 12.4197 11.292 11.8559 11.8559C11.292 12.4197 10.5735 12.8038 9.7914 12.9593C9.00926 13.1149 8.19858 13.035 7.46183 12.7299C6.72507 12.4247 6.09535 11.9079 5.6523 11.2449C5.20926 10.5818 4.97279 9.80226 4.97279 9.0048C4.97279 7.93545 5.3976 6.9099 6.15375 6.15375C6.9099 5.3976 7.93545 4.97279 9.0048 4.97279Z" fill="white"/>
</svg>
