<svg width="239" height="91" viewBox="0 0 239 91" fill="none" xmlns="http://www.w3.org/2000/svg">
<path fill-rule="evenodd" clip-rule="evenodd" d="M232.581 12.2956L229.029 13.0446C228.405 9.67421 227.284 7.30247 225.601 5.80453C223.918 4.30658 221.613 3.55761 218.746 3.55761C215.63 3.55761 213.262 4.24417 211.579 5.6797C209.896 7.11523 208.837 9.6118 208.463 13.107C208.401 13.4815 208.338 13.856 208.276 14.2305C208.276 14.7298 208.276 15.0418 208.276 15.2291C208.276 18.6619 210.893 21.6578 216.191 24.2792C224.853 28.5857 229.777 31.2071 230.961 32.1433C236.32 36.2627 239 41.8176 239 48.7455C239 54.0508 236.943 58.4822 232.893 62.1022C228.842 65.7222 223.981 67.4698 218.372 67.4698C213.262 67.4698 208.774 65.7846 204.973 62.3519C201.171 58.9191 199.239 54.6749 199.239 49.5569V38.0727H202.792V49.5569C202.792 53.5514 204.35 56.9842 207.403 59.7304C210.457 62.4767 214.134 63.9122 218.372 63.9122C222.984 63.9122 226.972 62.4143 230.337 59.4808C233.703 56.4849 235.385 52.8649 235.385 48.5583C235.385 48.1838 235.385 47.8093 235.385 47.4348C235.385 46.9355 235.385 46.561 235.385 46.3114C235.385 41.1934 232.768 37.0741 227.471 33.8909C222.547 31.3944 217.686 28.8978 212.825 26.2764C207.466 22.8436 204.848 18.3498 204.848 12.7325C204.848 8.67558 206.219 5.49246 208.961 3.24554C211.704 1.12346 214.944 0 218.746 0C222.423 0 225.476 1.06104 227.969 3.18313C230.524 5.30521 232.02 8.36351 232.581 12.2956ZM7.60314 45.4376V66.1591H3.86389V0.936214H25.3022C31.4097 0.936214 36.7692 3.12071 41.3187 7.55213C45.8681 11.9835 48.1739 17.2263 48.1739 23.1557C48.1739 29.085 46.055 34.2654 41.8172 38.6968C37.5794 43.1907 32.3445 45.3752 26.237 45.3752H7.60314V45.4376ZM7.60314 4.93073V41.4431H26.1747C31.0357 41.4431 35.2735 39.5706 38.8258 35.9506C42.3781 32.2682 44.1854 28.024 44.1854 23.2181C44.1854 18.4122 42.3158 14.168 38.5765 10.4856C34.8373 6.80315 30.4125 4.99314 25.3022 4.99314H7.60314V4.93073ZM101.271 41.1934H116.29C121.962 41.1934 126.511 39.9451 129.752 37.5734C133.553 34.7647 135.485 30.583 135.485 25.0281C135.485 18.9115 133.491 14.0432 129.565 10.548C125.888 7.30247 121.089 5.61728 115.231 5.61728H101.334V41.1934H101.271ZM101.271 41.6927V66.0343H97.7189V1.99726L115.231 1.81001C121.837 1.81001 127.384 3.80727 131.808 7.73937C136.607 11.9835 139.038 17.7257 139.038 25.0281C139.038 31.5816 136.669 36.5748 131.933 40.1324C127.82 43.1907 122.647 44.6886 116.353 44.6886H111.928L139.536 64.5364L137.417 67.5322L101.271 41.6927ZM143.275 1.81001H146.828V40.7565C146.828 47.0604 149.134 52.3656 153.683 56.6722C158.295 60.9163 163.779 63.1008 170.198 63.1008C176.243 63.1008 181.291 60.7915 185.529 56.2977C189.704 51.7414 191.823 46.3114 191.823 40.07V1.81001H195.376V40.0075C195.376 47.2476 192.945 53.489 188.146 58.7318C183.348 63.9746 177.427 66.596 170.385 66.596C162.969 66.596 156.612 64.0994 151.252 59.1063C145.893 54.1132 143.213 47.9966 143.213 40.6941V1.81001H143.275Z" fill="white"/>
<path fill-rule="evenodd" clip-rule="evenodd" d="M0 70.0288H77.2777H86.8751H96.4725H106.07L88.7447 91C88.4331 89.0652 86.5635 87.3176 83.5098 85.7572C81.5155 84.7586 79.085 83.8224 76.2183 82.9486C73.8501 82.1996 71.1703 81.513 68.3035 80.8889C49.1711 76.4575 20.4412 73.524 0 70.0288ZM44.1854 66.4712L41.007 65.0981L66.1846 1.18588L93.9797 65.0357L90.739 66.5336C79.7705 41.3807 74.5979 29.7716 66.3716 10.548C58.8931 29.3971 53.5958 42.7538 44.1854 66.4712Z" fill="white"/>
</svg>
