<svg width="141" height="54" viewBox="0 0 141 54" fill="none" xmlns="http://www.w3.org/2000/svg">
<path fill-rule="evenodd" clip-rule="evenodd" d="M137.213 7.2963L135.117 7.74074C134.75 5.74074 134.088 4.33333 133.095 3.44444C132.102 2.55556 130.742 2.11111 129.051 2.11111C127.213 2.11111 125.815 2.51852 124.823 3.37037C123.83 4.22222 123.205 5.7037 122.984 7.77778C122.948 8 122.911 8.22222 122.874 8.44444C122.874 8.74074 122.874 8.92593 122.874 9.03704C122.874 11.0741 124.418 12.8519 127.543 14.4074C132.654 16.963 135.559 18.5185 136.257 19.0741C139.419 21.5185 141 24.8148 141 28.9259C141 32.0741 139.787 34.7037 137.397 36.8519C135.007 39 132.139 40.037 128.83 40.037C125.815 40.037 123.168 39.037 120.925 37C118.683 34.963 117.543 32.4444 117.543 29.4074V22.5926H119.639V29.4074C119.639 31.7778 120.558 33.8148 122.359 35.4444C124.161 37.0741 126.33 37.9259 128.83 37.9259C131.551 37.9259 133.904 37.037 135.889 35.2963C137.875 33.5185 138.868 31.3704 138.868 28.8148C138.868 28.5926 138.868 28.3704 138.868 28.1481C138.868 27.8519 138.868 27.6296 138.868 27.4815C138.868 24.4444 137.323 22 134.198 20.1111C131.294 18.6296 128.426 17.1481 125.558 15.5926C122.396 13.5556 120.852 10.8889 120.852 7.55556C120.852 5.14815 121.661 3.25926 123.278 1.92593C124.896 0.666667 126.808 0 129.051 0C131.22 0 133.022 0.62963 134.492 1.88889C136 3.14815 136.882 4.96296 137.213 7.2963ZM4.48554 26.963V39.2593H2.27954V0.555556H14.9273C18.5304 0.555556 21.6923 1.85185 24.3763 4.48148C27.0602 7.11111 28.4206 10.2222 28.4206 13.7407C28.4206 17.2593 27.1705 20.3333 24.6704 22.963C22.1703 25.6296 19.0819 26.9259 15.4788 26.9259H4.48554V26.963ZM4.48554 2.92593V24.5926H15.442C18.3098 24.5926 20.8099 23.4815 22.9056 21.3333C25.0013 19.1481 26.0675 16.6296 26.0675 13.7778C26.0675 10.9259 24.9645 8.40741 22.7586 6.22222C20.5526 4.03704 17.9421 2.96296 14.9273 2.96296H4.48554V2.92593ZM59.7458 24.4444H68.6065C71.9523 24.4444 74.6363 23.7037 76.5481 22.2963C78.7909 20.6296 79.9306 18.1481 79.9306 14.8519C79.9306 11.2222 78.7541 8.33333 76.4378 6.25926C74.2686 4.33333 71.4376 3.33333 67.9815 3.33333H59.7825V24.4444H59.7458ZM59.7458 24.7407V39.1852H57.6501V1.18519L67.9815 1.07407C71.8788 1.07407 75.151 2.25926 77.7614 4.59259C80.5925 7.11111 82.0264 10.5185 82.0264 14.8519C82.0264 18.7407 80.6292 21.7037 77.835 23.8148C75.4084 25.6296 72.3567 26.5185 68.6433 26.5185H66.0329L82.3205 38.2963L81.0704 40.0741L59.7458 24.7407ZM84.5265 1.07407H86.6222V24.1852C86.6222 27.9259 87.9825 31.0741 90.6665 33.6296C93.3872 36.1482 96.6227 37.4444 100.41 37.4444C103.976 37.4444 106.954 36.0741 109.454 33.4074C111.918 30.7037 113.168 27.4815 113.168 23.7778V1.07407H115.263V23.7407C115.263 28.037 113.829 31.7407 110.998 34.8519C108.167 37.963 104.675 39.5185 100.52 39.5185C96.1447 39.5185 92.3945 38.037 89.2326 35.0741C86.0707 32.1111 84.4897 28.4815 84.4897 24.1481V1.07407H84.5265Z" fill="white"/>
<path fill-rule="evenodd" clip-rule="evenodd" d="M0 41.5559H45.5906H51.2527H56.9147H62.5768L52.3557 54.0004C52.1718 52.8522 51.0688 51.8152 49.2673 50.8893C48.0907 50.2967 46.6569 49.7411 44.9656 49.2226C43.5685 48.7782 41.9875 48.3708 40.2962 48.0004C29.0089 45.3708 12.0595 43.63 0 41.5559ZM26.0675 39.4448L24.1924 38.63L39.0462 0.704102L55.4441 38.593L53.5322 39.4819C47.0613 24.556 44.0097 17.6671 39.1565 6.25966C34.7445 17.4448 31.6193 25.3708 26.0675 39.4448Z" fill="white"/>
<path fill-rule="evenodd" clip-rule="evenodd" d="M108.535 47.9997L109.491 48.7034C109.05 49.5182 108.462 50.1478 107.726 50.5923C106.991 51.0367 106.145 51.2589 105.189 51.2589C103.792 51.2589 102.616 50.7775 101.696 49.8515C100.777 48.9256 100.336 47.7404 100.336 46.296C100.336 44.8515 100.777 43.6663 101.696 42.7404C102.616 41.8145 103.755 41.333 105.189 41.333C106.072 41.333 106.844 41.5182 107.579 41.8886C108.278 42.2589 108.866 42.8145 109.307 43.5182L108.314 44.2219C108.02 43.6663 107.579 43.2219 107.028 42.8886C106.476 42.5552 105.851 42.4071 105.153 42.4071C104.086 42.4071 103.241 42.7775 102.542 43.5182C101.844 44.2589 101.513 45.1849 101.513 46.2589C101.513 47.37 101.844 48.296 102.542 48.9997C103.241 49.7404 104.123 50.0737 105.153 50.0737C105.888 50.0737 106.55 49.8886 107.101 49.5182C107.689 49.2589 108.167 48.7034 108.535 47.9997ZM111.587 51.0367V41.5923H112.763V49.9626H118.903V51.0367H111.587ZM121.183 41.5552V47.6663C121.183 48.6293 121.367 49.296 121.734 49.6293C122.102 49.9626 122.801 50.1108 123.904 50.1108C124.97 50.1108 125.705 49.9626 126.036 49.6293C126.404 49.296 126.587 48.6293 126.587 47.6663V41.5552H127.764V47.9997C127.764 49.1478 127.47 49.9997 126.882 50.5182C126.293 51.0367 125.301 51.2589 123.904 51.2589C122.543 51.2589 121.55 50.9997 120.925 50.5182C120.337 49.9997 120.043 49.1849 120.043 47.9997V41.5552H121.183ZM131.514 45.296H136C136.478 45.296 136.882 45.1849 137.14 44.9626C137.397 44.7404 137.544 44.4071 137.544 43.9997C137.544 43.5552 137.434 43.2219 137.176 42.9997C136.919 42.7775 136.551 42.6663 136.037 42.6663H131.551V45.296H131.514ZM131.514 49.9256H136.441C136.992 49.9256 137.397 49.7775 137.691 49.4441C137.985 49.1108 138.169 48.7034 138.169 48.1478C138.169 47.5923 138.022 47.1849 137.691 46.8515C137.397 46.5182 136.956 46.37 136.441 46.37H131.514V49.9256ZM130.374 51.0367V41.5923H135.926C136.845 41.5923 137.544 41.7775 138.022 42.1849C138.5 42.5923 138.72 43.1849 138.72 43.9626C138.72 44.333 138.647 44.6663 138.5 44.9626C138.353 45.2589 138.132 45.5182 137.875 45.6663C138.39 45.9626 138.757 46.333 139.015 46.7404C139.272 47.1478 139.382 47.6293 139.382 48.1849C139.382 49.0738 139.088 49.7404 138.537 50.2589C137.948 50.7775 137.176 51.0367 136.22 51.0367H130.374Z" fill="white"/>
</svg>
