<svg width="95" height="127" viewBox="0 0 95 127" fill="none" xmlns="http://www.w3.org/2000/svg">
<path fill-rule="evenodd" clip-rule="evenodd" d="M47.5 0C73.7327 0 95 20.8025 95 46.4565C95 72.1105 47.5 127 47.5 127C47.5 127 0 72.1105 0 46.4565C0 20.8025 21.2673 0 47.5 0Z" fill="#1C1E20"/>
<g clip-path="url(#clip0)">
<path fill-rule="evenodd" clip-rule="evenodd" d="M80.1468 41.513L79.1213 41.727C78.9414 40.7641 78.6175 40.0864 78.1317 39.6584C77.6459 39.2305 76.9802 39.0165 76.1526 39.0165C75.253 39.0165 74.5693 39.2126 74.0835 39.6228C73.5977 40.0329 73.2918 40.7462 73.1839 41.7449C73.1659 41.8519 73.1479 41.9588 73.1299 42.0658C73.1299 42.2085 73.1299 42.2977 73.1299 42.3512C73.1299 43.332 73.8856 44.1879 75.4149 44.9369C77.9158 46.1674 79.3372 46.9163 79.679 47.1838C81.2264 48.3608 82 49.9479 82 51.9273C82 53.4431 81.4063 54.7092 80.2368 55.7435C79.0673 56.7778 77.6639 57.2771 76.0446 57.2771C74.5693 57.2771 73.2738 56.7956 72.1763 55.8148C71.0788 54.834 70.521 53.6214 70.521 52.1591V48.8779H71.5466V52.1591C71.5466 53.3004 71.9964 54.2812 72.878 55.0658C73.7596 55.8505 74.8211 56.2606 76.0446 56.2606C77.376 56.2606 78.5275 55.8326 79.4991 54.9945C80.4707 54.1385 80.9565 53.1043 80.9565 51.8738C80.9565 51.7668 80.9565 51.6598 80.9565 51.5528C80.9565 51.4102 80.9565 51.3032 80.9565 51.2318C80.9565 49.7695 80.2008 48.5926 78.6715 47.6831C77.2501 46.9698 75.8467 46.2565 74.4433 45.5075C72.896 44.5267 72.1403 43.2428 72.1403 41.6379C72.1403 40.4787 72.5361 39.5693 73.3278 38.9273C74.1194 38.321 75.055 38 76.1526 38C77.2141 38 78.0957 38.3032 78.8154 38.9095C79.5531 39.5158 79.9849 40.3896 80.1468 41.513ZM15.1951 50.9822V56.9026H14.1155V38.2675H20.3048C22.0681 38.2675 23.6154 38.8916 24.9288 40.1578C26.2423 41.4239 26.908 42.9218 26.908 44.6159C26.908 46.31 26.2962 47.7901 25.0728 49.0562C23.8493 50.3402 22.338 50.9643 20.5747 50.9643H15.1951V50.9822ZM15.1951 39.4088V49.8409H20.5567C21.9601 49.8409 23.1836 49.3059 24.2092 48.2716C25.2347 47.2195 25.7565 46.0069 25.7565 44.6337C25.7565 43.2606 25.2167 42.048 24.1372 40.9959C23.0577 39.9438 21.7802 39.4266 20.3048 39.4266H15.1951V39.4088ZM42.2373 49.7695H46.5734C48.2107 49.7695 49.5241 49.4129 50.4597 48.7353C51.5573 47.9328 52.115 46.738 52.115 45.1509C52.115 43.4033 51.5393 42.0123 50.4058 41.0137C49.3442 40.0864 47.9588 39.6049 46.2676 39.6049H42.2553V49.7695H42.2373ZM42.2373 49.9122V56.8669H41.2118V38.5706L46.2676 38.5171C48.1747 38.5171 49.776 39.0878 51.0535 40.2112C52.4389 41.4239 53.1406 43.0645 53.1406 45.1509C53.1406 47.0233 52.4569 48.4499 51.0895 49.4664C49.902 50.3402 48.4086 50.7682 46.5914 50.7682H45.314L53.2845 56.439L52.6728 57.2949L42.2373 49.9122ZM54.364 38.5171H55.3896V49.6447C55.3896 51.4458 56.0553 52.9616 57.3687 54.192C58.7002 55.4047 60.2835 56.0288 62.1367 56.0288C63.8819 56.0288 65.3393 55.369 66.5627 54.085C67.7682 52.7833 68.3799 51.2318 68.3799 49.4486V38.5171H69.4055V49.4307C69.4055 51.4993 68.7038 53.2826 67.3184 54.7805C65.933 56.2785 64.2238 57.0274 62.1906 57.0274C60.0496 57.0274 58.2144 56.3141 56.667 54.8875C55.1197 53.4609 54.3461 51.7133 54.3461 49.6269V38.5171H54.364Z" fill="white"/>
<path fill-rule="evenodd" clip-rule="evenodd" d="M13 58.0083H35.3103H38.0811H40.8519H43.6227L38.6209 64C38.5309 63.4472 37.9911 62.9479 37.1095 62.5021C36.5338 62.2168 35.8321 61.9493 35.0044 61.6996C34.3207 61.4856 33.5471 61.2895 32.7194 61.1112C27.1958 59.845 18.9014 59.0069 13 58.0083ZM25.7565 56.9918L24.8389 56.5995L32.1077 38.3389L40.1322 56.5817L39.1966 57.0096C36.03 49.8231 34.5366 46.5062 32.1617 41.0138C30.0026 46.3992 28.4733 50.2154 25.7565 56.9918Z" fill="#3C7DC0"/>
<path fill-rule="evenodd" clip-rule="evenodd" d="M66.1128 61.1112L66.5806 61.4501C66.3647 61.8424 66.0769 62.1455 65.717 62.3595C65.3572 62.5735 64.9434 62.6805 64.4756 62.6805C63.7919 62.6805 63.2161 62.4487 62.7663 62.0029C62.3165 61.5571 62.1006 60.9864 62.1006 60.2909C62.1006 59.5955 62.3165 59.0248 62.7663 58.579C63.2161 58.1332 63.7739 57.9014 64.4756 57.9014C64.9074 57.9014 65.2852 57.9905 65.6451 58.1689C65.9869 58.3472 66.2748 58.6147 66.4907 58.9535L66.0049 59.2923C65.861 59.0248 65.6451 58.8108 65.3752 58.6503C65.1053 58.4898 64.7994 58.4185 64.4576 58.4185C63.9358 58.4185 63.522 58.5968 63.1801 58.9535C62.8383 59.3101 62.6763 59.756 62.6763 60.2731C62.6763 60.8081 62.8383 61.2539 63.1801 61.5927C63.522 61.9494 63.9538 62.1099 64.4576 62.1099C64.8174 62.1099 65.1413 62.0207 65.4111 61.8424C65.699 61.7176 65.9329 61.4501 66.1128 61.1112ZM67.6062 62.5735V58.0262H68.182V62.0564H71.1866V62.5735H67.6062ZM72.3022 58.0084V60.9508C72.3022 61.4144 72.3921 61.7354 72.572 61.8959C72.752 62.0564 73.0938 62.1277 73.6336 62.1277C74.1554 62.1277 74.5152 62.0564 74.6771 61.8959C74.8571 61.7354 74.947 61.4144 74.947 60.9508V58.0084H75.5228V61.1112C75.5228 61.6641 75.3788 62.0742 75.091 62.3239C74.8031 62.5735 74.3173 62.6805 73.6336 62.6805C72.9679 62.6805 72.4821 62.5557 72.1762 62.3239C71.8883 62.0742 71.7444 61.6819 71.7444 61.1112V58.0084H72.3022ZM77.358 59.8095H79.553C79.7869 59.8095 79.9848 59.756 80.1108 59.649C80.2367 59.542 80.3087 59.3815 80.3087 59.1853C80.3087 58.9713 80.2547 58.8108 80.1288 58.7038C80.0028 58.5968 79.8229 58.5433 79.571 58.5433H77.376V59.8095H77.358ZM77.358 62.0385H79.7689C80.0388 62.0385 80.2367 61.9672 80.3807 61.8067C80.5246 61.6462 80.6146 61.4501 80.6146 61.1826C80.6146 60.9151 80.5426 60.7189 80.3807 60.5584C80.2367 60.3979 80.0208 60.3266 79.7689 60.3266H77.358V62.0385ZM76.8002 62.5735V58.0262H79.517C79.9668 58.0262 80.3087 58.1154 80.5426 58.3115C80.7765 58.5077 80.8844 58.793 80.8844 59.1675C80.8844 59.3458 80.8485 59.5063 80.7765 59.649C80.7045 59.7916 80.5966 59.9165 80.4706 59.9878C80.7225 60.1305 80.9024 60.3088 81.0284 60.5049C81.1543 60.7011 81.2083 60.9329 81.2083 61.2004C81.2083 61.6284 81.0644 61.9494 80.7945 62.199C80.5066 62.4487 80.1288 62.5735 79.661 62.5735H76.8002Z" fill="#3C7DC0"/>
</g>
<defs>
<clipPath id="clip0">
<rect width="69" height="26" fill="white" transform="translate(13 38)"/>
</clipPath>
</defs>
</svg>
