<svg width="221" height="224" viewBox="0 0 221 224" fill="none" xmlns="http://www.w3.org/2000/svg">
<path d="M218.508 105.016C218.508 48.1218 170.041 2 110.254 2C50.4669 2 2 48.1218 2 105.016" stroke="white" stroke-width="4"/>
<path d="M218.508 117.238C218.508 175.096 170.041 222 110.254 222C50.467 222 2 175.096 2 117.238" stroke="white" stroke-width="4"/>
<path d="M89.5245 81.829C89.5245 78.0977 92.2672 75.0732 95.6516 75.0732C96.7027 75.0732 97.3689 75.3759 98.5409 75.89L141.521 103.46C143.52 104.766 144.446 106.865 144.803 109.284V109.962C144.446 112.38 143.52 114.479 141.521 115.786L98.5416 143.355C97.3689 143.87 96.7027 144.172 95.6523 144.172C92.2678 144.172 89.5252 141.147 89.5252 137.416V81.829H89.5245Z" fill="white"/>
</svg>
