<svg width="1879" height="1290" viewBox="0 0 1879 1290" fill="none" xmlns="http://www.w3.org/2000/svg">
<g opacity="0.06">
<path d="M1423.61 1289.82C1423.61 1289.82 1471.66 1135.69 1402.91 1078.4C1334.15 1021.11 1364.76 928.971 1255.42 922.429C1131.59 915.037 1028.08 1171.17 899.445 1169.7C739.716 1167.85 805.179 954.585 724.231 912.45C670.998 884.73 577.476 1022.22 511.308 971.957C505.948 967.891 370.655 867.875 334.984 851.834C243.68 810.808 215.586 891.752 160.508 905.797C116.297 917.07 32.5337 929.23 6.73196 902.47C-33.5602 860.705 153.484 803.785 104.69 760.542" stroke="#008DF4" stroke-miterlimit="10"/>
<path d="M1431.04 1275.4C1431.04 1275.4 1478.32 1122.28 1410.52 1064.51C1342.73 1006.77 1372.45 914.594 1264.14 908.754C1140.38 902.101 1037.54 1154.1 909.899 1152.29C751.915 1150.22 815.415 940.097 734.426 898.664C681.013 871.424 589.968 1006.37 520.916 958.762C518.883 957.357 501.99 945.012 479.071 928.824C433.974 896.963 368.287 849.58 344.296 838.603C332.947 833.465 322.524 830.213 312.876 828.512C245.562 816.611 218.17 880.22 169.635 893.083C125.536 904.615 42.1049 917.071 15.4898 890.385C7.0987 881.995 8.24464 872.828 14.8614 863.329C40.4784 826.628 148.491 782.607 109.529 748.086" stroke="#008DF4" stroke-miterlimit="10"/>
<path d="M1438.51 1260.99C1438.51 1260.99 1485.05 1108.86 1418.18 1050.57C1351.35 992.396 1380.21 900.216 1272.87 895.078C1149.22 889.128 1047.01 1136.99 920.403 1134.88C764.191 1132.55 825.735 925.608 744.671 884.841C691.072 858.044 602.171 990.733 530.569 945.53C528.277 944.088 511.384 931.891 488.428 916.035C442.591 884.36 378.198 836.607 353.653 825.297C342.379 820.122 331.918 816.87 322.159 815.133C254.845 803.194 227.639 867.062 178.807 880.257C134.855 892.158 51.6836 904.762 24.2553 878.225C15.7533 870.019 16.7513 860.89 23.0354 851.539C47.5434 815.281 153.486 770.225 114.377 735.593" stroke="#008DF4" stroke-miterlimit="10"/>
<path d="M1445.94 1246.57C1445.94 1246.57 1491.7 1095.41 1425.79 1036.68C1359.88 978.055 1387.91 885.876 1281.59 881.403C1158.02 876.192 1056.47 1119.91 930.864 1117.47C776.424 1114.92 836.012 911.083 754.873 871.054C701.089 844.739 614.036 975.358 540.179 932.335C537.665 930.857 520.736 918.845 497.743 903.284C451.13 871.757 387.993 823.708 362.967 812.065C351.73 806.854 341.232 803.601 331.399 801.827C264.122 789.852 237.101 853.868 187.937 867.543C144.096 879.74 61.2568 892.603 33.0153 866.139C24.4394 858.081 25.2157 849.025 31.241 839.822C54.677 804.044 158.513 757.955 119.255 723.138" stroke="#008DF4" stroke-miterlimit="10"/>
<path d="M1453.4 1232.12C1453.4 1232.12 1498.43 1081.95 1433.45 1022.74C1368.5 963.641 1395.67 871.498 1290.31 867.691C1166.82 863.219 1065.93 1102.76 941.366 1100.03C788.698 1097.22 846.398 896.373 765.15 857.231C711.217 831.248 625.79 960.204 549.864 919.141C547.091 917.625 530.161 905.76 507.131 890.533C459.742 859.19 397.9 810.846 372.356 798.833C361.156 793.585 350.658 790.332 340.714 788.521C273.474 776.472 246.6 840.636 197.141 854.829C153.448 867.358 70.9412 880.443 41.8495 854.09C33.1627 846.217 33.7541 837.235 39.4837 828.143C61.8108 792.809 163.576 745.684 124.171 710.756" stroke="#008DF4" stroke-miterlimit="10"/>
<path d="M1460.83 1217.71C1460.83 1217.71 1505.08 1068.54 1441.06 1008.81C1377.07 949.263 1403.35 857.157 1299.04 854.015C1175.61 850.283 1075.39 1085.39 951.822 1082.62C800.933 1079.22 856.677 881.81 775.347 843.408C721.27 817.868 637.322 945.197 559.473 905.908C556.441 904.393 539.512 892.677 516.445 877.781C468.28 846.623 407.73 797.946 381.67 785.601C370.506 780.316 359.971 777.026 349.954 775.215C282.75 763.129 256.025 827.441 206.269 842.077C162.687 854.902 80.5136 868.246 50.5717 841.966C41.8109 834.278 42.2175 825.334 47.6514 816.426C68.9065 781.572 168.602 733.376 129.012 698.3" stroke="#008DF4" stroke-miterlimit="10"/>
<path d="M1468.31 1203.29C1468.31 1203.29 1511.78 1055.12 1448.72 994.91C1385.69 934.923 1411.09 842.854 1307.76 840.34C1184.42 837.347 1084.87 1068.24 962.324 1065.17C813.207 1061.48 866.995 867.248 785.597 829.585C731.33 804.489 648.786 930.376 569.126 892.677C565.835 891.124 548.869 879.592 525.802 864.994C476.823 833.984 417.568 785.047 391.027 772.333C379.9 767.011 369.365 763.721 359.273 761.873C292.107 749.75 265.566 814.21 215.478 829.326C172.007 842.447 90.2031 856.012 59.411 829.881C50.5763 822.377 50.7611 813.47 55.8993 804.71C76.0454 770.337 173.67 721.105 133.896 685.882" stroke="#008DF4" stroke-miterlimit="10"/>
<path d="M1475.73 1188.88C1475.73 1188.88 1518.47 1041.7 1456.32 981.012C1394.23 920.582 1418.77 828.513 1316.49 826.665C1193.21 824.447 1094.32 1051.09 972.782 1047.76C825.402 1043.74 877.269 852.685 795.796 815.798C741.344 791.146 660.132 915.666 578.697 879.481C575.148 877.893 558.181 866.545 535.078 852.242C485.323 821.416 427.361 772.185 400.302 759.1C389.213 753.741 378.641 750.452 368.475 748.567C301.309 736.407 274.953 801.014 224.57 816.575C181.246 829.991 99.7745 843.815 68.1322 817.757C59.1866 810.402 59.1866 801.606 64.066 792.957C83.1401 759.027 178.659 708.76 138.736 673.389" stroke="#008DF4" stroke-miterlimit="10"/>
<path d="M1483.2 1174.47C1483.2 1174.47 1525.16 1028.29 1463.98 967.078C1402.84 906.204 1426.5 814.172 1325.21 812.989C1202 811.511 1103.79 1033.94 983.28 1030.36C837.673 1026.03 887.617 838.16 806.035 801.975C751.436 777.766 671.407 901.066 588.346 866.25C584.538 864.661 567.534 853.461 544.43 839.453C493.862 808.813 437.195 759.249 409.655 745.795C398.602 740.398 387.993 737.109 377.754 735.187C310.625 722.99 284.417 787.708 233.7 803.786C190.488 817.498 109.423 831.581 76.8566 805.634C67.8371 798.464 67.6523 789.704 72.199 781.203C90.1641 747.754 183.612 696.452 143.542 660.933" stroke="#008DF4" stroke-miterlimit="10"/>
<path d="M1490.63 1160.05C1490.63 1160.05 1531.84 1014.83 1471.59 953.181C1411.41 891.863 1434.18 799.905 1333.93 799.313C1210.8 798.574 1113.25 1016.79 993.743 1012.95C849.908 1008.33 897.89 823.634 816.233 788.188C761.449 764.422 682.605 886.577 597.955 853.054C593.889 851.428 576.847 840.414 553.744 826.701C502.362 796.246 447.025 746.386 418.968 732.562C407.953 727.129 397.344 723.803 386.993 721.918C319.902 709.684 293.878 774.55 242.829 791.108C199.727 805.079 119.032 819.42 85.6154 793.585C76.5589 786.562 76.1154 777.913 80.4033 769.523C97.2595 736.554 188.675 684.181 148.419 648.514" stroke="#008DF4" stroke-miterlimit="10"/>
<path d="M1498.1 1145.6C1498.1 1145.6 1538.54 1001.38 1479.28 939.247C1420.06 877.448 1441.95 785.565 1342.7 785.601C1219.61 785.638 1122.76 999.603 1004.28 995.501C862.226 990.585 908.244 809.035 826.553 774.365C771.586 751.006 693.883 872.163 607.68 839.859C603.355 838.233 586.314 827.367 563.137 813.95C510.941 783.679 456.935 733.524 428.361 719.331C417.382 713.898 406.737 710.534 396.312 708.612C329.258 696.341 303.382 761.318 252.037 778.357C209.083 792.624 128.757 807.223 94.4537 781.462C85.3232 774.587 84.6578 766.012 88.6501 757.77C104.397 725.281 193.743 671.836 153.339 636.021" stroke="#008DF4" stroke-miterlimit="10"/>
<path d="M1505.53 1131.18C1505.53 1131.18 1545.19 987.96 1486.9 925.349C1428.6 863.107 1449.63 771.297 1351.42 771.925C1228.4 772.738 1132.21 982.453 1014.74 978.092C874.458 972.88 918.52 794.508 836.754 760.541C781.603 737.626 705.008 857.822 617.289 826.627C612.669 825.001 595.628 814.282 572.45 801.161C519.443 771.075 466.73 720.624 437.675 706.061C426.733 700.591 416.088 697.228 405.589 695.269C338.571 682.961 312.843 748.048 261.203 765.605C218.36 780.167 138.478 794.988 103.25 769.375C94.0458 762.685 93.1586 754.184 96.8921 746.053C111.53 714.045 198.805 659.565 158.218 623.602" stroke="#008DF4" stroke-miterlimit="10"/>
<path d="M1512.99 1116.77C1512.99 1116.77 1551.92 974.544 1494.55 911.415C1437.21 848.73 1457.36 756.994 1360.14 758.25C1237.16 759.84 1141.71 965.305 1025.24 960.684C886.69 955.141 928.796 779.946 846.989 746.756C791.654 724.284 716.132 843.556 626.934 813.433C622.055 811.807 604.978 801.273 581.8 788.411C527.978 758.546 476.597 707.725 447.025 692.83C436.12 687.323 425.437 683.96 414.865 681.964C347.847 669.619 322.34 734.855 270.367 752.891C227.636 767.712 148.16 782.829 112.008 757.289C102.73 750.748 101.621 742.357 105.059 734.337C118.588 702.809 203.793 647.258 163.057 611.147" stroke="#008DF4" stroke-miterlimit="10"/>
<path d="M1520.42 1102.35C1520.42 1102.35 1558.57 961.127 1502.16 897.517C1445.79 834.388 1465.05 742.726 1368.87 744.575C1245.92 746.94 1151.18 948.191 1035.7 943.275C898.962 937.472 939.105 765.42 857.189 732.968C801.67 710.94 727.221 829.325 636.546 800.237C631.408 798.574 614.292 788.225 591.116 775.658C536.443 745.979 486.393 694.862 456.377 679.597C445.509 674.09 434.826 670.653 424.143 668.657C357.162 656.275 331.804 721.622 279.535 740.139C236.951 755.219 157.882 770.594 120.806 745.202C111.491 738.809 110.16 730.492 113.302 722.62C125.722 691.61 208.894 634.986 167.973 598.728" stroke="#008DF4" stroke-miterlimit="10"/>
<path d="M1527.89 1087.94C1527.89 1087.94 1565.3 947.674 1509.81 883.621C1454.4 820.049 1472.78 728.46 1377.59 730.899C1254.71 734.041 1160.64 931.042 1046.19 925.868C911.239 919.769 949.419 750.896 867.435 719.146C811.766 697.561 738.35 815.133 646.195 787.006C640.798 785.343 623.646 775.179 600.469 762.87C544.947 733.413 496.264 681.964 465.731 666.292C454.937 660.748 444.18 657.311 433.423 655.278C366.479 642.822 341.269 708.317 288.704 727.351C246.231 742.727 167.605 758.324 129.605 733.044C120.216 726.797 118.663 718.592 121.51 710.83C132.784 680.338 213.923 622.605 172.854 586.199" stroke="#008DF4" stroke-miterlimit="10"/>
<path d="M1535.32 1073.52C1535.32 1073.52 1571.95 934.257 1517.43 869.686C1462.98 805.671 1480.43 714.193 1386.31 717.224C1263.48 721.178 1170.1 913.891 1056.66 908.458C923.436 902.064 959.701 736.369 877.635 705.359C821.782 684.254 749.404 801.014 655.808 773.811C650.116 772.147 632.927 762.168 609.786 750.118C553.451 720.846 506.062 669.101 475.047 653.06C464.29 647.479 453.497 644.041 442.666 641.972C375.759 629.479 350.697 695.084 297.799 714.599C255.437 730.234 177.255 746.09 138.294 720.957C128.868 714.858 127.056 706.764 129.644 699.113C139.809 669.101 218.879 610.296 177.662 573.779" stroke="#008DF4" stroke-miterlimit="10"/>
<path d="M1542.79 1059.07C1542.79 1059.07 1578.68 920.802 1525.08 855.752C1471.56 791.255 1488.16 699.926 1395.08 703.511C1272.28 708.241 1179.6 896.704 1067.19 890.976C935.742 884.285 970.011 721.77 887.952 691.498C831.908 670.838 760.566 786.857 665.491 760.578C659.54 758.915 642.314 749.084 619.174 737.329C561.988 708.279 515.967 656.201 484.436 639.791C473.716 634.21 462.922 630.735 452.017 628.628C385.147 616.099 360.269 681.815 307.039 701.848C264.825 717.741 187.087 733.856 147.164 708.833C137.664 702.882 135.631 694.862 137.923 687.359C146.979 657.864 223.978 597.988 182.614 561.286" stroke="#008DF4" stroke-miterlimit="10"/>
<path d="M1550.22 1044.66C1550.22 1044.66 1585.33 907.387 1532.7 841.855C1480.13 776.915 1495.84 685.696 1403.76 689.836C1281 695.38 1189.03 879.592 1077.62 873.568C947.944 866.582 980.249 707.245 898.108 677.676C841.887 657.459 771.579 772.776 675.063 747.347C668.853 745.721 651.59 736.037 628.45 724.542C570.378 695.713 525.724 643.303 493.711 626.522C483.028 620.904 472.198 617.393 461.219 615.286C394.386 602.572 369.656 668.547 316.13 689.097C274.026 705.249 196.769 721.586 155.886 696.748C146.349 690.945 144.057 683.035 146.09 675.643C154 646.703 229.003 585.681 187.417 548.868" stroke="#008DF4" stroke-miterlimit="10"/>
<path d="M1557.69 1030.24C1557.69 1030.24 1592.03 893.97 1540.35 827.921C1488.75 762.538 1503.54 671.43 1412.53 676.161C1289.8 682.518 1198.53 862.443 1088.16 856.16C960.256 848.878 990.606 692.719 908.39 663.89C851.984 644.116 782.71 758.768 684.753 734.152C678.247 732.526 660.947 723.027 637.843 711.791C578.921 683.184 535.635 630.44 503.105 613.291C492.422 607.673 481.629 604.088 470.539 601.981C403.743 589.229 379.16 655.315 325.339 676.346C283.347 692.756 206.533 709.315 164.688 684.625C155.114 678.97 152.563 671.171 154.301 663.89C161.102 635.468 234.035 573.373 192.301 536.376" stroke="#008DF4" stroke-miterlimit="10"/>
<path d="M1565.11 1015.83C1565.11 1015.83 1598.83 880.442 1547.96 814.024C1497.43 748.086 1511.21 657.199 1421.21 662.485C1298.52 669.655 1207.96 845.293 1098.57 838.75C972.446 831.174 1000.84 678.193 918.555 650.066C861.959 630.736 793.684 744.759 694.321 720.92C687.557 719.294 670.22 709.98 647.08 699.002C587.307 670.653 545.351 617.578 512.341 600.022C501.696 594.366 490.864 590.781 479.701 588.638C412.942 575.849 388.508 642.009 334.39 663.594C292.509 680.263 216.212 697.043 173.37 672.502C163.759 666.994 160.949 659.306 162.428 652.136C168.12 624.267 238.983 561.028 197.101 523.919" stroke="#008DF4" stroke-miterlimit="10"/>
<path d="M1572.58 1001.41C1572.58 1001.41 1605.56 866.988 1555.61 800.126C1506.04 733.745 1518.91 643.006 1429.97 648.809C1307.32 656.83 1217.49 828.18 1109.11 821.342C984.758 813.506 1011.19 663.668 928.83 636.279C872.049 617.393 804.813 730.788 704.008 707.725C696.985 706.135 679.574 696.969 656.471 686.288C595.811 658.161 555.223 604.752 521.733 586.79C511.123 581.134 500.292 577.512 489.018 575.332C422.259 562.506 398.046 628.777 343.597 650.879C301.826 667.807 226.01 684.809 182.206 660.452C172.521 655.056 169.49 647.553 170.673 640.456C175.22 613.142 244.049 548.757 202.019 511.5" stroke="#008DF4" stroke-miterlimit="10"/>
<path d="M1580.01 986.999C1580.01 986.999 1612.24 853.571 1563.23 786.192C1514.62 719.367 1526.6 628.777 1438.66 635.134C1316.01 643.968 1226.92 811.03 1119.53 803.933C996.957 795.802 1021.39 649.142 938.998 622.493C882.033 604.05 815.829 716.817 713.583 694.529C706.264 692.94 688.853 683.996 665.75 673.536C604.277 645.631 565.057 591.853 531.049 573.52C520.476 567.829 509.608 564.206 498.297 562.026C431.575 549.163 407.51 615.508 352.765 638.127C311.142 655.314 235.77 672.538 190.968 648.329C181.246 643.08 177.956 635.688 178.88 628.74C182.318 602.017 249.114 536.486 206.9 499.082" stroke="#008DF4" stroke-miterlimit="10"/>
<path d="M1587.44 972.549C1587.44 972.549 1618.9 840.118 1570.85 772.258C1523.2 704.953 1534.25 614.547 1447.39 621.422C1324.77 631.106 1236.38 793.881 1130.03 786.489C1009.23 778.099 1031.71 634.58 949.271 608.634C892.123 590.671 826.956 702.809 723.269 681.298C715.691 679.709 698.207 670.949 675.14 660.748C612.742 633.138 574.89 578.991 540.402 560.289C529.867 554.597 518.999 550.901 507.577 548.72C440.891 535.784 416.974 602.276 361.897 625.413C320.384 642.859 245.529 660.267 199.73 636.28C189.971 631.179 186.459 623.898 187.05 617.06C189.379 590.893 254.105 524.215 211.706 486.663" stroke="#008DF4" stroke-miterlimit="10"/>
<path d="M1594.91 958.134C1594.91 958.134 1625.63 826.701 1578.5 758.36C1531.81 690.612 1541.97 600.391 1456.11 607.746C1333.53 618.28 1245.85 776.73 1140.5 769.079C1021.47 760.394 1041.99 620.054 959.477 594.847C902.145 577.327 838.01 688.912 732.881 668.103C725.044 666.55 707.485 657.939 684.456 647.996C621.172 620.645 584.687 566.165 549.718 547.057C539.22 541.328 528.315 537.632 516.818 535.414C450.17 522.441 426.401 589.007 371.027 612.662C329.626 630.366 255.289 647.996 208.491 624.156C198.695 619.167 194.925 612.07 195.258 605.307C196.514 579.767 259.134 511.907 216.586 474.17" stroke="#008DF4" stroke-miterlimit="10"/>
<path d="M1602.34 943.719C1602.34 943.719 1632.28 813.285 1586.11 744.427C1540.39 676.235 1549.63 586.162 1464.83 594.071C1342.29 605.455 1255.31 759.619 1151 751.672C1033.74 742.727 1052.26 605.529 969.716 581.061C912.2 563.985 849.097 674.978 742.527 654.872C734.394 653.356 716.836 644.929 693.807 635.208C629.634 608.117 594.555 553.267 559.067 533.788C548.606 528.06 537.702 524.327 526.095 522.072C459.484 509.062 435.862 575.739 380.193 599.911C338.902 617.837 265.046 635.652 217.25 612.071C207.417 607.229 203.388 600.244 203.425 593.591C203.572 568.642 264.122 499.6 221.427 461.752" stroke="#008DF4" stroke-miterlimit="10"/>
<path d="M1609.81 929.304C1609.81 929.304 1639 799.831 1593.76 730.53C1549 661.894 1557.35 572.006 1473.55 580.396C1351.01 592.666 1264.77 742.505 1161.45 734.263C1045.97 725.06 1062.53 591.04 979.914 567.238C922.214 550.643 860.149 661.081 752.136 641.676C743.745 640.161 726.112 631.919 703.12 622.457C638.061 595.624 604.348 540.404 568.381 520.556C557.957 514.79 547.015 511.057 535.334 508.766C468.76 495.719 445.287 562.47 389.321 587.196C348.142 605.381 274.803 623.381 226.009 599.985C216.139 595.254 211.851 588.453 211.629 581.874C210.705 557.554 269.184 487.292 226.305 449.296" stroke="#008DF4" stroke-miterlimit="10"/>
<path d="M1617.23 914.89C1617.23 914.89 1645.66 786.415 1601.37 716.633C1557.53 647.553 1565 557.85 1482.27 566.72C1359.77 579.878 1274.27 725.356 1171.95 716.817C1058.24 707.318 1072.85 576.478 990.155 553.415C932.263 537.262 871.237 647.184 761.745 628.445C753.096 626.966 735.39 618.909 712.434 609.669C646.488 583.131 614.143 527.542 577.733 507.25C567.345 501.485 556.366 497.678 544.648 495.386C478.074 482.302 454.786 549.127 398.525 574.371C357.456 592.778 284.671 610.962 234.842 587.825C224.936 583.205 220.426 576.589 219.871 570.083C217.912 546.392 274.247 474.947 231.22 436.803" stroke="#008DF4" stroke-miterlimit="10"/>
<path d="M1624.7 900.476C1624.7 900.476 1652.39 772.998 1609.03 702.736C1566.15 633.213 1572.73 543.694 1491 553.045C1368.5 567.09 1283.73 708.243 1182.41 699.41C1070.48 689.652 1083.09 561.953 1000.36 539.628C942.253 523.92 882.292 633.324 771.359 615.25C762.414 613.809 744.67 605.936 721.752 596.918C654.918 570.676 623.979 514.68 587.05 494.019C576.7 488.216 565.721 484.409 553.892 482.081C487.355 468.96 464.215 535.859 407.657 561.657C366.7 580.322 294.433 598.692 243.569 575.739C233.625 571.267 228.857 564.762 228.043 558.368C225.049 535.304 279.24 462.639 236.028 424.348" stroke="#008DF4" stroke-miterlimit="10"/>
<path d="M1632.13 886.023C1632.13 886.023 1659.04 759.544 1616.68 688.764C1574.76 618.798 1580.42 529.501 1499.76 539.332C1377.29 554.264 1293.24 691.092 1192.95 681.964C1082.79 671.947 1093.44 547.426 1010.67 525.768C952.379 510.54 893.492 619.389 781.08 601.981C771.876 600.539 754.059 592.851 731.177 584.092C663.383 558.182 633.847 501.817 596.439 480.787C586.126 474.984 575.11 471.14 563.207 468.774C496.706 455.579 473.714 522.589 416.824 548.905C375.977 567.792 304.228 586.309 252.366 563.615C242.385 559.254 237.395 552.934 236.249 546.613C232.22 524.179 284.304 450.331 240.906 411.892" stroke="#008DF4" stroke-miterlimit="10"/>
<path d="M1639.6 871.609C1639.6 871.609 1665.77 746.127 1624.33 674.867C1583.38 604.42 1588.14 515.345 1508.52 525.656C1386.09 541.513 1302.73 673.98 1203.45 664.555C1095.02 654.28 1103.71 532.938 1020.87 511.981C962.393 497.197 904.544 605.566 790.691 588.823C781.191 587.418 763.337 579.915 740.455 571.377C671.81 545.726 643.643 488.955 605.753 467.518C595.477 461.678 584.461 457.834 572.485 455.431C506.021 442.236 483.176 509.283 425.991 536.154C385.255 555.299 314.06 573.964 261.163 551.529C251.182 547.279 245.933 541.143 244.492 534.897C239.464 513.127 289.368 438.023 245.822 399.436" stroke="#008DF4" stroke-miterlimit="10"/>
<path d="M1647.03 857.194C1647.03 857.194 1672.43 732.71 1631.95 660.97C1591.95 590.079 1595.79 501.226 1517.2 511.981C1394.78 528.724 1312.16 656.867 1213.9 647.147C1107.3 636.612 1113.99 518.413 1031.11 498.195C972.45 483.891 915.633 591.742 800.338 575.628C790.579 574.26 772.651 566.942 749.806 558.626C680.238 533.307 653.475 476.13 615.105 454.249C604.829 448.446 593.813 444.528 581.726 442.125C515.299 428.894 492.602 496.014 435.121 523.439C394.496 542.806 323.819 561.62 269.923 539.443C259.906 535.303 254.435 529.353 252.66 523.18C246.635 502.039 294.357 425.715 250.664 387.017" stroke="#008DF4" stroke-miterlimit="10"/>
<path d="M1654.5 842.78C1654.5 842.78 1679.15 719.294 1639.6 647.036C1600.56 575.702 1603.52 487.07 1525.97 498.306C1403.57 516.01 1321.7 639.755 1224.41 629.739C1119.57 618.946 1124.3 503.888 1041.36 484.373C982.504 470.512 926.798 577.882 809.987 562.396C799.97 561.066 781.968 553.932 759.16 545.838C688.667 520.853 663.309 463.268 624.422 441.017C614.219 435.178 603.167 431.223 591.005 428.783C524.578 415.478 502.066 482.709 444.29 510.651C403.775 530.24 333.652 549.201 278.685 527.321C268.631 523.329 262.938 517.526 260.868 511.428C253.881 490.951 299.386 413.408 255.545 374.525" stroke="#008DF4" stroke-miterlimit="10"/>
<path d="M1661.93 828.365C1661.93 828.365 1685.81 705.877 1647.22 633.139C1609.11 561.361 1611.18 472.988 1534.66 484.631C1412.27 503.259 1331.13 622.642 1234.87 612.33C1131.77 601.278 1134.55 489.362 1051.56 470.586C992.526 457.206 937.853 564.06 819.602 549.201C809.288 547.907 791.249 540.959 768.478 533.086C697.098 508.434 673.108 450.405 633.777 427.748C623.574 421.872 612.522 417.917 600.286 415.44C533.897 402.135 511.532 469.403 453.46 497.937C413.057 517.785 343.488 536.856 287.486 515.234C277.394 511.354 271.48 505.736 269.077 499.711C261.167 479.863 304.453 401.1 260.427 362.106" stroke="#008DF4" stroke-miterlimit="10"/>
<path d="M1669.4 813.95C1669.4 813.95 1692.5 692.423 1654.87 619.242C1617.72 547.02 1618.9 458.869 1543.42 470.955C1421.07 490.544 1340.63 605.529 1245.37 594.921C1144.08 583.648 1144.86 474.91 1061.8 456.799C1002.58 443.9 948.981 550.272 829.25 536.006C818.678 534.749 800.565 528.022 777.831 520.334C705.527 496.015 682.941 437.579 643.13 414.516C632.964 408.639 621.911 404.648 609.565 402.134C543.212 388.755 520.96 456.097 462.628 485.185C422.336 505.254 353.285 524.437 296.284 503.148C286.156 499.378 280.019 493.945 277.321 487.994C268.486 468.811 309.518 388.828 265.307 349.65" stroke="#008DF4" stroke-miterlimit="10"/>
<path d="M1676.82 799.498C1676.82 799.498 1699.18 678.97 1662.48 605.27C1626.29 532.605 1626.55 444.713 1552.1 457.242C1429.79 477.793 1350.05 588.379 1255.83 577.475C1156.31 565.943 1155.09 460.347 1072.03 442.939C1012.59 430.483 960.14 536.375 838.892 522.737C828.062 521.517 809.874 514.975 787.178 507.509C713.987 483.522 692.806 424.68 652.476 401.21C642.348 395.333 631.258 391.268 618.838 388.791C552.486 375.411 530.417 442.827 471.753 472.434C431.572 492.725 363.075 512.018 305.003 491.024C294.837 487.365 288.516 482.08 285.448 476.24C275.726 457.649 314.466 376.483 270.107 337.194" stroke="#008DF4" stroke-miterlimit="10"/>
<path d="M1684.29 785.084C1684.29 785.084 1705.88 665.553 1670.13 591.373C1634.9 518.265 1634.28 430.631 1560.87 443.567C1438.55 465.079 1359.55 571.266 1266.33 560.068C1168.55 548.313 1165.41 445.859 1082.27 429.153C1022.65 417.177 971.269 522.589 848.544 509.579C837.417 508.396 819.193 502.039 796.533 494.794C722.418 471.177 702.642 411.892 661.832 388.015C651.74 382.102 640.614 378.036 628.157 375.523C561.804 362.069 539.846 429.522 480.924 459.682C440.853 480.196 372.911 499.599 313.804 478.902C303.601 475.353 297.095 470.253 293.695 464.487C283.085 446.524 319.533 364.176 275.027 324.702" stroke="#008DF4" stroke-miterlimit="10"/>
<path d="M1691.72 770.669C1691.72 770.669 1712.57 652.136 1677.75 577.475C1643.45 503.923 1641.93 416.586 1569.55 429.892C1447.27 452.401 1369.01 554.19 1276.78 542.621C1180.79 530.61 1175.65 431.333 1092.48 415.329C1032.66 403.835 982.359 508.766 858.116 496.347C846.73 495.201 828.433 489.029 805.81 482.043C730.77 458.795 712.399 399.066 671.108 374.783C661.054 368.869 649.927 364.767 637.359 362.217C571.08 348.689 549.308 416.216 490.052 446.931C450.056 467.665 382.705 487.144 322.562 466.816C312.323 463.341 305.595 458.425 301.862 452.807C290.366 435.435 324.558 351.905 279.867 312.283" stroke="#008DF4" stroke-miterlimit="10"/>
<path d="M1699.19 756.254C1699.19 756.254 1719.26 638.72 1685.4 563.542C1652.05 489.547 1649.65 402.467 1578.31 416.216C1456.07 439.76 1378.51 537.078 1287.29 525.214C1193.06 512.979 1185.96 416.845 1102.71 401.506C1042.72 390.455 993.523 494.942 867.764 483.115C856.12 482.007 837.748 476.056 815.163 469.255C739.199 446.376 722.195 386.204 680.461 361.515C670.443 355.601 659.28 351.461 646.637 348.874C580.396 335.309 558.734 402.91 499.22 434.179C459.334 455.136 392.538 474.725 331.324 454.693C321.084 451.329 314.135 446.598 310.068 441.054C297.685 424.273 329.586 339.56 284.747 299.827" stroke="#008DF4" stroke-miterlimit="10"/>
<path d="M1706.61 741.84C1706.61 741.84 1725.91 625.303 1693.01 549.644C1660.63 475.206 1657.34 388.422 1586.99 402.54C1464.83 427.082 1387.94 519.965 1297.74 507.804C1205.33 495.349 1196.24 402.356 1112.92 387.719C1052.74 377.148 1004.61 481.156 877.373 469.92C865.433 468.848 847.025 463.082 824.439 456.503C747.55 434.031 731.951 373.342 689.737 348.246C679.756 342.295 668.593 338.118 655.84 335.531C589.709 321.966 568.158 389.605 508.385 421.464C468.611 442.643 402.368 462.306 340.119 442.643C329.843 439.391 322.708 434.807 318.273 429.374C305.039 413.186 334.611 327.326 289.588 287.408" stroke="#008DF4" stroke-miterlimit="10"/>
<path d="M1714.09 727.425C1714.09 727.425 1732.64 611.886 1700.67 535.747C1669.25 460.865 1665.03 374.377 1595.76 388.866C1473.59 414.442 1397.44 502.889 1308.24 490.397C1217.57 477.682 1206.51 387.83 1123.16 373.933C1062.79 363.843 1015.77 467.407 887.024 456.725C874.825 455.727 856.343 450.146 833.794 443.752C755.982 421.686 741.787 360.516 699.13 335.014C689.149 329.063 677.986 324.886 665.158 322.225C598.953 308.772 577.587 376.299 517.519 408.713C477.856 430.114 412.168 449.814 348.883 430.52C338.57 427.379 331.251 422.943 326.482 417.621C312.399 401.987 339.642 314.981 294.47 274.953" stroke="#008DF4" stroke-miterlimit="10"/>
<path d="M1721.52 712.974C1721.52 712.974 1739.29 598.432 1708.28 521.776C1677.78 446.451 1672.72 360.258 1604.45 375.153C1482.31 401.765 1406.87 485.776 1318.71 472.951C1229.8 460.015 1216.79 373.306 1133.36 360.073C1072.77 350.463 1026.9 453.547 896.635 443.457C884.178 442.496 865.621 437.1 843.109 430.927C764.373 409.268 751.583 347.655 708.445 321.708C698.501 315.757 687.301 311.544 674.437 308.846C608.269 295.392 587.051 362.956 526.686 395.962C487.097 417.584 422.001 437.321 357.644 418.434C347.294 415.404 339.79 411.116 334.652 405.904C319.718 390.787 344.669 302.71 299.313 262.497" stroke="#008DF4" stroke-miterlimit="10"/>
<path d="M1728.94 698.559C1728.94 698.559 1745.95 585.016 1715.9 507.879C1686.36 432.073 1680.41 346.213 1613.17 361.478C1491.11 389.161 1416.33 468.701 1329.16 455.543C1242.04 442.421 1227.03 358.853 1143.6 346.287C1082.83 337.157 1038.06 439.797 906.281 430.299C893.528 429.374 874.935 424.2 852.46 418.213C772.837 396.96 761.451 334.829 717.795 308.476C707.889 302.489 696.688 298.238 683.713 295.54C617.582 281.975 596.475 349.614 535.852 383.174C496.373 405.018 431.831 424.792 366.44 406.274C356.053 403.317 348.401 399.215 342.893 394.114C327.109 379.515 349.732 290.328 304.227 250.004" stroke="#008DF4" stroke-miterlimit="10"/>
<path d="M1736.41 684.144C1736.41 684.144 1752.68 571.599 1723.55 493.982C1694.98 417.732 1688.14 332.205 1621.9 347.802C1499.87 376.595 1425.83 451.625 1339.66 438.134C1254.31 424.791 1237.34 344.365 1153.84 332.501C1092.89 323.852 1049.23 426.011 915.932 417.103C902.921 416.217 884.253 411.264 861.816 405.461C781.231 384.652 771.25 322.041 727.151 295.281C717.281 289.293 706.044 285.006 692.995 282.271C626.864 268.632 605.904 336.345 544.986 370.459C505.618 392.524 441.631 412.335 375.204 394.225C364.78 391.379 356.943 387.387 351.066 382.434C334.431 368.352 354.725 278.057 309.073 237.585" stroke="#008DF4" stroke-miterlimit="10"/>
<path d="M1743.84 669.73C1743.84 669.73 1759.33 558.182 1731.16 480.085C1703.51 403.391 1695.82 318.16 1630.61 334.126C1508.63 363.991 1435.29 434.549 1350.12 420.725C1266.55 407.161 1247.58 329.876 1164.04 318.677C1102.93 310.509 1060.42 412.224 925.575 403.871C912.305 403.058 893.563 398.291 871.162 392.673C789.617 372.27 781.041 309.178 736.498 281.975C726.665 275.988 715.428 271.663 702.268 268.891C636.174 255.29 615.362 323.001 554.148 357.708C514.854 379.995 451.458 399.806 383.96 382.102C373.498 379.367 365.477 375.523 359.267 370.681C341.745 357.079 359.747 265.749 313.91 225.13" stroke="#008DF4" stroke-miterlimit="10"/>
<path d="M1751.31 655.315C1751.31 655.315 1765.88 544.803 1738.82 466.151C1711.98 389.087 1703.55 304.114 1639.38 320.451C1517.47 351.425 1444.8 417.473 1360.66 403.317C1278.86 389.531 1257.93 315.387 1174.32 304.891C1112.99 297.203 1071.59 398.475 935.226 390.677C921.66 389.9 902.881 385.318 880.518 379.921C798.048 359.999 790.914 296.353 745.853 268.743C736.057 262.719 724.782 258.394 711.549 255.585C645.492 241.91 624.792 309.696 563.318 344.956C524.135 367.465 461.294 387.276 392.761 369.978C382.299 367.318 374.056 363.622 367.476 358.927C349.104 345.806 364.815 253.405 318.793 212.637" stroke="#008DF4" stroke-miterlimit="10"/>
<path d="M1758.74 640.9C1758.74 640.9 1772.53 531.386 1746.43 452.253C1720.55 374.746 1711.24 290.106 1648.07 306.776C1526.23 338.895 1454.22 400.397 1371.08 385.908C1291.09 371.9 1268.17 300.862 1184.52 291.067C1123.01 283.86 1082.72 384.689 944.836 377.445C931.01 376.705 912.158 372.344 889.831 367.132C806.437 347.654 800.671 283.527 755.167 255.474C745.371 249.45 734.133 245.051 720.826 242.242C654.769 228.567 634.216 296.353 572.447 332.241C533.338 354.936 471.125 374.783 401.52 357.929C391.022 355.379 382.593 351.794 375.681 347.248C356.422 334.607 369.84 241.17 323.671 200.255" stroke="#008DF4" stroke-miterlimit="10"/>
<path d="M1766.21 626.448C1766.21 626.448 1779.26 517.932 1754.12 438.318C1729.17 360.331 1719.04 276.098 1656.86 293.063C1535.1 326.327 1463.76 383.284 1381.66 368.425C1303.36 354.269 1278.53 286.336 1194.8 277.207C1133.06 270.48 1093.96 370.865 954.487 364.175C940.402 363.51 921.476 359.333 899.186 354.306C814.868 335.309 810.506 270.628 764.522 242.168C754.763 236.143 743.488 231.708 730.107 228.862C664.087 215.187 643.645 283.01 581.617 319.49C542.619 342.405 480.961 362.253 410.283 345.805C399.748 343.366 391.135 339.892 383.853 335.493C363.707 323.296 374.834 228.825 328.516 187.762" stroke="#008DF4" stroke-miterlimit="10"/>
<path d="M1773.64 612.034C1773.64 612.034 1785.91 504.478 1761.74 424.385C1737.74 345.954 1726.73 262.053 1665.55 279.388C1543.86 313.835 1473.19 366.245 1392.08 351.017C1315.56 336.677 1288.73 271.885 1205 263.421C1143.08 257.174 1105.12 357.116 964.098 351.017C949.755 350.389 930.755 346.435 908.465 341.593C823.223 323.076 820.266 257.84 773.801 228.974C764.079 222.912 752.767 218.477 739.312 215.631C673.366 201.807 653.072 269.704 590.786 306.739C551.861 329.876 490.794 349.687 419.082 333.72C408.509 331.355 399.712 328.028 392.097 323.778C371.027 312.024 379.898 216.518 333.396 175.307" stroke="#008DF4" stroke-miterlimit="10"/>
<path d="M1781.1 597.619C1781.1 597.619 1792.63 491.061 1769.39 410.487C1746.36 331.613 1734.49 248.082 1674.31 265.712C1552.73 301.342 1482.68 349.206 1402.62 333.609C1327.87 319.083 1299.07 257.396 1215.28 249.634C1153.17 243.868 1116.32 343.366 973.781 337.823C959.142 337.268 940.105 333.498 917.852 328.841C831.649 310.804 830.096 245.051 783.188 215.741C773.503 209.68 762.191 205.207 748.625 202.324C682.679 188.501 662.496 256.398 599.95 294.024C561.137 317.383 500.625 337.157 427.877 321.634C417.268 319.379 408.248 316.164 400.301 312.061C378.38 300.751 384.96 204.246 338.273 162.887" stroke="#008DF4" stroke-miterlimit="10"/>
<path d="M1788.54 583.205C1788.54 583.205 1799.29 477.645 1777 396.59C1754.94 317.272 1742.18 234.111 1683 252.037C1561.53 288.887 1492.11 332.168 1413.04 316.201C1340.07 301.49 1309.28 242.907 1225.44 235.811C1163.16 230.526 1127.45 329.581 983.355 324.591C968.458 324.074 949.347 320.525 927.131 316.053C840.041 298.534 839.893 232.226 792.503 202.473C782.856 196.411 771.507 191.865 757.867 188.982C691.957 175.085 671.886 243.019 609.082 281.236C570.342 304.78 510.421 324.517 436.638 309.511C425.993 307.33 416.788 304.262 408.508 300.308C385.626 289.478 389.951 191.902 343.116 150.432" stroke="#008DF4" stroke-miterlimit="10"/>
<path d="M1796 568.79C1796 568.79 1805.98 464.228 1784.65 382.656C1763.51 302.894 1749.94 220.102 1691.76 238.361C1570.4 276.431 1501.61 315.129 1423.58 298.792C1352.34 283.896 1319.63 228.455 1235.72 222.024C1173.25 217.219 1138.68 315.868 993.041 311.395C977.885 310.915 958.7 307.589 936.521 303.301C848.47 286.299 849.69 219.4 801.856 189.203C792.208 183.142 780.86 178.596 767.146 175.639C701.274 161.742 681.312 229.675 618.249 268.484C579.621 292.25 520.254 311.95 445.4 297.387C434.717 295.317 425.327 292.361 416.678 288.554C392.909 278.131 394.979 179.594 347.996 137.939" stroke="#008DF4" stroke-miterlimit="10"/>
<path d="M1803.43 554.376C1803.43 554.376 1812.67 450.812 1792.27 368.759C1772.08 288.554 1757.67 206.132 1700.44 224.686C1579.2 264.013 1511.03 298.09 1434 281.384C1364.54 266.304 1329.83 213.967 1245.88 208.201C1183.23 203.914 1149.81 302.082 1002.62 298.164C987.164 297.758 967.942 294.652 945.8 290.55C856.824 274.065 859.449 206.575 811.135 175.972C801.524 169.874 790.176 165.29 776.388 162.334C710.589 148.362 690.739 216.333 627.38 255.733C588.825 279.721 530.014 299.347 454.161 285.302C443.441 283.306 433.867 280.497 424.884 276.875C400.192 266.896 400.007 167.323 352.876 125.521" stroke="#008DF4" stroke-miterlimit="10"/>
<path d="M1810.89 539.924C1810.89 539.924 1819.36 437.321 1799.91 354.825C1780.7 274.139 1765.43 192.124 1709.21 210.974C1588.11 251.557 1520.53 281.014 1444.53 263.939C1376.85 248.711 1340.18 199.479 1256.16 194.378C1193.32 190.571 1161.05 288.295 1012.3 284.932C996.588 284.562 977.291 281.679 955.187 277.762C865.25 261.832 869.279 193.75 820.522 162.703C810.948 156.605 799.599 151.984 785.7 148.991C719.865 135.019 700.163 202.99 636.546 243.018C598.102 267.191 539.844 286.78 462.957 273.215C452.2 271.331 442.404 268.632 433.089 265.158C407.472 255.585 405.069 155.015 357.753 113.102" stroke="#008DF4" stroke-miterlimit="10"/>
<path d="M1818.33 525.509C1818.33 525.509 1826.05 423.905 1807.53 340.891C1789.27 259.762 1773.15 178.153 1717.89 197.299C1596.94 239.175 1529.92 264.013 1454.96 246.53C1389.05 231.154 1350.42 185.027 1266.36 180.592C1203.33 177.266 1172.25 274.584 1021.91 271.737C1005.94 271.442 986.571 268.743 964.502 265.01C873.679 249.598 879.075 180.925 829.838 149.471C820.301 143.373 808.916 138.679 794.942 135.685C729.144 121.64 709.553 189.684 645.677 230.268C607.306 254.662 549.641 274.14 471.681 261.093C460.887 259.281 450.907 256.694 441.259 253.405C414.681 244.276 410.06 142.708 362.596 100.609" stroke="#008DF4" stroke-miterlimit="10"/>
<path d="M1825.79 511.093C1825.79 511.093 1832.75 410.487 1815.18 326.992C1797.85 245.42 1780.92 164.217 1726.66 183.622C1605.88 226.829 1539.43 247.009 1465.49 229.12C1401.28 213.56 1360.74 170.537 1276.6 166.768C1213.35 163.958 1183.45 260.795 1031.56 258.541C1015.33 258.282 995.886 255.806 973.854 252.258C882.07 237.399 888.871 168.135 839.19 136.201C829.69 130.103 818.305 125.372 804.221 122.341C738.459 108.259 718.979 176.303 654.844 217.515C616.548 242.094 559.474 261.535 480.479 249.005C469.648 247.305 459.445 244.829 449.465 241.687C421.963 232.964 415.087 130.398 367.439 88.1892" stroke="#008DF4" stroke-miterlimit="10"/>
<path d="M1833.22 496.68C1833.22 496.68 1839.43 397.071 1822.8 313.096C1806.42 231.08 1788.64 150.284 1735.34 169.948C1614.76 214.485 1548.82 230.008 1475.92 211.713C1413.52 196.005 1371.01 156.05 1286.84 152.983C1223.41 150.654 1194.65 247.047 1041.21 245.347C1024.68 245.163 1005.2 242.908 983.208 239.507C890.499 225.203 898.669 155.311 848.544 122.97C839.044 116.835 827.658 112.104 813.538 109.036C747.813 94.9173 728.406 162.962 664.05 204.764C625.865 229.565 569.345 248.896 489.315 236.883C478.447 235.257 468.023 232.928 457.747 229.935C429.283 221.655 420.19 118.092 372.394 75.6978" stroke="#008DF4" stroke-miterlimit="10"/>
<path d="M1840.69 482.265C1840.69 482.265 1846.13 383.654 1830.45 299.162C1815.04 216.703 1796.45 136.313 1744.1 156.272C1623.71 202.177 1558.31 213.043 1486.46 194.267C1425.76 178.448 1381.33 141.561 1297.08 139.159C1233.46 137.311 1205.89 233.298 1050.82 232.115C1034.04 232.004 1014.48 229.934 992.523 226.719C898.891 213.007 908.465 142.486 857.859 109.702C848.396 103.566 836.974 98.7981 822.779 95.6934C757.055 81.5374 737.796 149.619 673.181 192.013C635.033 217.035 579.104 236.255 498.039 224.797C487.134 223.245 476.525 221.064 465.879 218.218C436.455 210.345 425.18 105.784 377.199 63.2419" stroke="#008DF4" stroke-miterlimit="10"/>
<path d="M1848.12 467.85C1848.12 467.85 1852.77 370.238 1838.07 285.265C1823.61 202.362 1804.21 122.38 1752.83 142.596C1632.65 189.907 1567.74 196.042 1496.92 176.86C1437.95 160.892 1391.56 127.11 1307.28 125.336C1243.48 124.006 1217.05 219.549 1060.43 218.883C1043.39 218.81 1023.76 216.962 1001.8 213.931C907.28 200.81 918.221 129.661 867.172 96.4328C857.746 90.2974 846.324 85.4555 832.018 82.3508C766.368 68.1948 747.183 136.276 682.309 179.261C644.271 204.469 588.898 223.577 506.798 212.674C495.856 211.232 485.025 209.163 474.083 206.465C443.698 199.036 430.206 93.439 382.077 50.7864" stroke="#008DF4" stroke-miterlimit="10"/>
<path d="M1855.58 453.398C1855.58 453.398 1859.5 356.746 1845.71 271.33C1832.19 187.947 1812 108.407 1761.54 128.883C1641.59 177.597 1577.16 179.039 1507.4 159.413C1450.19 143.335 1401.87 112.769 1317.52 111.512C1253.53 110.773 1228.28 205.762 1070.07 205.651C1052.77 205.651 1033.07 204.025 1011.15 201.142C915.705 188.685 928.014 116.872 876.522 83.2C867.133 77.0645 855.673 72.1857 841.293 69.0441C775.68 54.8142 756.606 122.933 691.474 166.509C653.51 191.939 598.69 210.936 515.556 200.587C504.577 199.22 493.524 197.261 482.25 194.747C450.903 187.725 435.193 81.1671 386.916 38.3667" stroke="#008DF4" stroke-miterlimit="10"/>
<path d="M1863.02 438.984C1863.02 438.984 1866.16 343.33 1853.33 257.396C1840.76 173.57 1819.77 94.4367 1770.27 115.209C1650.58 165.365 1586.59 162.112 1517.87 142.005C1462.39 125.779 1412.15 98.2438 1327.76 97.7265C1263.59 97.4675 1239.52 192.05 1079.73 192.456C1062.17 192.494 1042.43 191.089 1020.51 188.391C924.137 176.526 937.74 104.158 885.878 69.932C876.489 63.7965 865.066 58.8808 850.576 55.7022C784.962 41.4354 765.999 109.554 700.608 153.796C662.756 179.409 608.49 198.259 524.357 188.502C513.342 187.208 502.104 185.397 490.497 183.032C458.152 176.416 440.261 68.8602 391.8 25.9119" stroke="#008DF4" stroke-miterlimit="10"/>
<path d="M1870.48 424.569C1870.48 424.569 1872.89 329.913 1860.99 243.499C1849.38 159.228 1827.57 80.5392 1779 101.533C1659.56 153.167 1596.02 145.146 1528.37 124.597C1474.62 108.26 1422.43 83.7545 1338 83.9024C1273.65 84.0877 1250.72 178.596 1089.37 179.261C1071.52 179.409 1051.74 178.189 1029.86 175.639C932.565 164.366 947.573 91.2945 895.23 56.6996C885.878 50.5271 874.418 45.6114 859.891 42.4327C794.315 28.092 775.389 96.1737 709.812 141.044C671.96 166.805 618.286 185.581 533.118 176.378C522.065 175.195 510.606 173.495 498.667 171.278C465.361 165.105 445.289 56.5517 396.642 13.4556" stroke="#008DF4" stroke-miterlimit="10"/>
<path d="M1877.92 410.155C1877.92 410.155 1884.23 44.7984 1787.72 87.8572C1575.54 182.477 1540.9 68.1206 1348.2 70.1164C1276.48 70.8559 1257.63 186.543 1039.17 162.887C923.654 150.395 966.756 50.4904 869.13 29.0901C761.192 5.43528 780.044 205.393 506.871 159.562C472.567 153.796 450.314 44.244 401.519 1" stroke="#008DF4" stroke-miterlimit="10"/>
</g>
<g opacity="0.2">
<mask id="mask0" mask-type="alpha" maskUnits="userSpaceOnUse" x="42" y="374" width="830" height="813">
<path d="M871.047 803.682C883.998 943.861 762.619 985.777 647.826 1057.38C549.204 1118.89 450.472 1186.89 359.086 1186.89C161.331 1186.89 18.5405 1100.8 45.2049 820.442C52.9653 738.847 87.7604 592.197 106.153 539.321C157.476 391.77 233.311 374 378.894 374C576.65 374 800.957 521.798 871.047 803.682Z" fill="#C4C4C4"/>
</mask>
<g mask="url(#mask0)">
<path d="M870.253 363.418L872.883 367.133C850.718 367.085 832.892 375.574 813.864 384.449C792.55 394.535 768.252 406.151 735.741 405.414C703.54 404.864 677.425 392.815 654.486 381.941C633.098 372.003 614.577 363.054 591.792 362.632C569.007 362.211 551.878 370.381 531.456 379.894C510.142 389.98 485.844 401.596 453.332 400.859C421.131 400.309 395.21 388.007 372.077 377.387C350.689 367.448 332.168 358.499 309.383 358.078C286.598 357.657 269.469 365.826 249.047 375.34C227.733 385.425 203.435 397.041 170.924 396.305C138.723 395.755 112.607 383.705 89.6686 372.832C69.4039 363.201 50.3791 354.318 28.2917 353.578L26.4758 349.983C57.9793 350.852 83.5912 362.968 105.91 373.467C127.298 383.406 145.819 392.355 168.604 392.776C191.389 393.197 208.517 385.028 228.94 375.515C250.254 365.429 274.552 353.813 307.063 354.55C339.264 355.1 365.38 367.149 388.318 378.022C409.706 387.961 428.228 396.91 451.012 397.331C473.797 397.752 490.926 389.583 511.349 380.07C532.663 369.984 556.961 358.368 589.472 359.105C621.673 359.654 647.788 371.704 670.727 382.577C692.115 392.516 710.636 401.465 733.421 401.886C756.206 402.307 773.335 394.137 793.757 384.624C814.761 374.352 838.672 363.242 870.253 363.418Z" fill="#F3F3F3"/>
<path d="M870.253 384.749L872.883 388.464C850.718 388.417 832.892 396.906 813.864 405.78C792.55 415.866 768.252 427.482 735.741 426.745C703.54 426.196 677.425 414.146 654.486 403.273C633.098 393.334 614.577 384.385 591.792 383.964C569.007 383.543 551.878 391.713 531.456 401.226C510.142 411.311 485.844 422.927 453.332 422.191C421.131 421.641 395.21 409.338 372.077 398.718C350.689 388.78 332.168 379.83 309.383 379.409C286.598 378.988 269.469 387.158 249.047 396.671C227.733 406.757 203.435 418.373 170.924 417.636C138.723 417.086 112.607 405.037 89.6686 394.164C69.4039 384.533 50.3791 375.65 28.2917 374.909L26.4758 371.315C57.9793 372.184 83.5912 384.3 105.91 394.799C127.298 404.738 145.819 413.687 168.604 414.108C191.389 414.529 208.517 406.359 228.94 396.846C250.254 386.761 274.552 375.145 307.063 375.881C339.264 376.431 365.38 388.481 388.318 399.354C409.706 409.292 428.228 418.242 451.012 418.663C473.797 419.084 490.926 410.914 511.349 401.401C532.663 391.315 556.961 379.699 589.472 380.436C621.673 380.986 647.788 393.035 670.727 403.909C692.115 413.847 710.636 422.797 733.421 423.218C756.206 423.639 773.335 415.469 793.757 405.956C814.761 395.683 838.672 384.573 870.253 384.749Z" fill="#F3F3F3"/>
<path d="M870.253 409.128L872.883 412.843C850.718 412.796 832.892 421.285 813.864 430.16C792.55 440.245 768.252 451.861 735.741 451.124C703.54 450.575 677.425 438.525 654.486 427.652C633.098 417.714 614.577 408.764 591.792 408.343C569.007 407.922 551.878 416.092 531.456 425.605C510.142 435.691 485.844 447.307 453.332 446.57C421.131 446.02 395.21 433.718 372.077 423.097C350.689 413.159 332.168 404.21 309.383 403.788C286.598 403.367 269.469 411.537 249.047 421.05C227.733 431.136 203.435 442.752 170.924 442.015C138.723 441.465 112.607 429.416 89.6686 418.543C69.4039 408.912 50.3791 400.029 28.2917 399.288L26.4758 395.694C57.9793 396.563 83.5912 408.679 105.91 419.178C127.298 429.117 145.819 438.066 168.604 438.487C191.389 438.908 208.517 430.739 228.94 421.225C250.254 411.14 274.552 399.524 307.063 400.261C339.264 400.81 365.38 412.86 388.318 423.733C409.706 433.672 428.228 442.621 451.012 443.042C473.797 443.463 490.926 435.293 511.349 425.78C532.663 415.695 556.961 404.079 589.472 404.815C621.673 405.365 647.788 417.415 670.727 428.288C692.115 438.226 710.636 447.176 733.421 447.597C756.206 448.018 773.335 439.848 793.757 430.335C814.761 420.062 838.672 408.952 870.253 409.128Z" fill="#F3F3F3"/>
<path d="M870.253 435.031L872.883 438.746C850.718 438.699 832.892 447.188 813.864 456.062C792.55 466.148 768.252 477.764 735.741 477.027C703.54 476.478 677.425 464.428 654.486 453.555C633.098 443.616 614.577 434.667 591.792 434.246C569.007 433.825 551.878 441.995 531.456 451.508C510.142 461.593 485.844 473.209 453.332 472.473C421.131 471.923 395.21 459.62 372.077 449C350.689 439.062 332.168 430.112 309.383 429.691C286.598 429.27 269.469 437.44 249.047 446.953C227.733 457.039 203.435 468.655 170.924 467.918C138.723 467.368 112.607 455.319 89.6686 444.446C69.4039 434.815 50.3791 425.932 28.2917 425.191L26.4758 421.597C57.9793 422.466 83.5912 434.582 105.91 445.081C127.298 455.02 145.819 463.969 168.604 464.39C191.389 464.811 208.517 456.641 228.94 447.128C250.254 437.043 274.552 425.427 307.063 426.163C339.264 426.713 365.38 438.763 388.318 449.636C409.706 459.574 428.228 468.524 451.012 468.945C473.797 469.366 490.926 461.196 511.349 451.683C532.663 441.597 556.961 429.981 589.472 430.718C621.673 431.268 647.788 443.317 670.727 454.191C692.115 464.129 710.636 473.079 733.421 473.5C756.206 473.921 773.335 465.751 793.757 456.238C814.761 445.965 838.672 434.855 870.253 435.031Z" fill="#F3F3F3"/>
<path d="M870.253 459.41L872.883 463.125C850.718 463.078 832.892 471.567 813.864 480.441C792.55 490.527 768.252 502.143 735.741 501.406C703.54 500.856 677.425 488.807 654.486 477.934C633.098 467.995 614.577 459.046 591.792 458.625C569.007 458.204 551.878 466.373 531.456 475.887C510.142 485.972 485.844 497.588 453.332 496.852C421.131 496.302 395.21 483.999 372.077 473.379C350.689 463.441 332.168 454.491 309.383 454.07C286.598 453.649 269.469 461.819 249.047 471.332C227.733 481.418 203.435 493.034 170.924 492.297C138.723 491.747 112.607 479.698 89.6686 468.825C69.4039 459.194 50.3791 450.311 28.2917 449.57L26.4758 445.976C57.9793 446.845 83.5912 458.961 105.91 469.46C127.298 479.398 145.819 488.348 168.604 488.769C191.389 489.19 208.517 481.02 228.94 471.507C250.254 461.421 274.552 449.806 307.063 450.542C339.264 451.092 365.38 463.142 388.318 474.015C409.706 483.953 428.228 492.903 451.012 493.324C473.797 493.745 490.926 485.575 511.349 476.062C532.663 465.976 556.961 454.36 589.472 455.097C621.673 455.647 647.788 467.696 670.727 478.57C692.115 488.508 710.636 497.457 733.421 497.879C756.206 498.3 773.335 490.13 793.757 480.617C814.761 470.344 838.672 459.234 870.253 459.41Z" fill="#F3F3F3"/>
<path d="M870.253 480.742L872.883 484.457C850.718 484.41 832.892 492.899 813.864 501.773C792.55 511.859 768.252 523.475 735.741 522.738C703.54 522.188 677.425 510.139 654.486 499.266C633.098 489.327 614.577 480.378 591.792 479.957C569.007 479.536 551.878 487.705 531.456 497.218C510.142 507.304 485.844 518.92 453.332 518.183C421.131 517.634 395.21 505.331 372.077 494.711C350.689 484.772 332.168 475.823 309.383 475.402C286.598 474.981 269.469 483.151 249.047 492.664C227.733 502.75 203.435 514.366 170.924 513.629C138.723 513.079 112.607 501.03 89.6686 490.156C69.4039 480.526 50.3791 471.642 28.2917 470.902L26.4758 467.308C57.9793 468.177 83.5912 480.292 105.91 490.792C127.298 500.73 145.819 509.68 168.604 510.101C191.389 510.522 208.517 502.352 228.94 492.839C250.254 482.753 274.552 471.137 307.063 471.874C339.264 472.424 365.38 484.473 388.318 495.347C409.706 505.285 428.228 514.235 451.012 514.656C473.797 515.077 490.926 506.907 511.349 497.394C532.663 487.308 556.961 475.692 589.472 476.429C621.673 476.979 647.788 489.028 670.727 499.901C692.115 509.84 710.636 518.789 733.421 519.21C756.206 519.631 773.335 511.462 793.757 501.948C814.761 491.676 838.672 480.566 870.253 480.742Z" fill="#F3F3F3"/>
<path d="M870.253 505.121L872.883 508.836C850.718 508.789 832.892 517.278 813.864 526.152C792.55 536.238 768.252 547.854 735.741 547.117C703.54 546.567 677.425 534.518 654.486 523.645C633.098 513.706 614.577 504.757 591.792 504.336C569.007 503.915 551.878 512.084 531.456 521.598C510.142 531.683 485.844 543.299 453.332 542.563C421.131 542.013 395.21 529.71 372.077 519.09C350.689 509.152 332.168 500.202 309.383 499.781C286.598 499.36 269.469 507.53 249.047 517.043C227.733 527.129 203.435 538.745 170.924 538.008C138.723 537.458 112.607 525.409 89.6686 514.536C69.4039 504.905 50.3791 496.021 28.2917 495.281L26.4758 491.687C57.9793 492.556 83.5912 504.671 105.91 515.171C127.298 525.109 145.819 534.059 168.604 534.48C191.389 534.901 208.517 526.731 228.94 517.218C250.254 507.132 274.552 495.517 307.063 496.253C339.264 496.803 365.38 508.853 388.318 519.726C409.706 529.664 428.228 538.614 451.012 539.035C473.797 539.456 490.926 531.286 511.349 521.773C532.663 511.687 556.961 500.071 589.472 500.808C621.673 501.358 647.788 513.407 670.727 524.28C692.115 534.219 710.636 543.168 733.421 543.589C756.206 544.011 773.335 535.841 793.757 526.327C814.761 516.055 838.672 504.945 870.253 505.121Z" fill="#F3F3F3"/>
<path d="M870.253 531.024L872.883 534.739C850.718 534.691 832.892 543.181 813.864 552.055C792.55 562.141 768.252 573.757 735.741 573.02C703.54 572.47 677.425 560.421 654.486 549.548C633.098 539.609 614.577 530.66 591.792 530.239C569.007 529.818 551.878 537.987 531.456 547.5C510.142 557.586 485.844 569.202 453.332 568.465C421.131 567.916 395.21 555.613 372.077 544.993C350.689 535.054 332.168 526.105 309.383 525.684C286.598 525.263 269.469 533.433 249.047 542.946C227.733 553.032 203.435 564.647 170.924 563.911C138.723 563.361 112.607 551.312 89.6686 540.438C69.4039 530.808 50.3791 521.924 28.2917 521.184L26.4758 517.59C57.9793 518.459 83.5912 530.574 105.91 541.074C127.298 551.012 145.819 559.962 168.604 560.383C191.389 560.804 208.517 552.634 228.94 543.121C250.254 533.035 274.552 521.419 307.063 522.156C339.264 522.706 365.38 534.755 388.318 545.629C409.706 555.567 428.228 564.517 451.012 564.938C473.797 565.359 490.926 557.189 511.349 547.676C532.663 537.59 556.961 525.974 589.472 526.711C621.673 527.261 647.788 539.31 670.727 550.183C692.115 560.122 710.636 569.071 733.421 569.492C756.206 569.913 773.335 561.744 793.757 552.23C814.761 541.958 838.672 530.848 870.253 531.024Z" fill="#F3F3F3"/>
<path d="M870.253 556.927L872.883 560.642C850.718 560.594 832.892 569.083 813.864 577.958C792.55 588.044 768.252 599.66 735.741 598.923C703.54 598.373 677.425 586.324 654.486 575.451C633.098 565.512 614.577 556.563 591.792 556.141C569.007 555.72 551.878 563.89 531.456 573.403C510.142 583.489 485.844 595.105 453.332 594.368C421.131 593.818 395.21 581.516 372.077 570.896C350.689 560.957 332.168 552.008 309.383 551.587C286.598 551.166 269.469 559.336 249.047 568.849C227.733 578.934 203.435 590.55 170.924 589.814C138.723 589.264 112.607 577.215 89.6686 566.341C69.4039 556.71 50.3791 547.827 28.2917 547.087L26.4758 543.492C57.9793 544.361 83.5912 556.477 105.91 566.976C127.298 576.915 145.819 585.864 168.604 586.285C191.389 586.707 208.517 578.537 228.94 569.024C250.254 558.938 274.552 547.322 307.063 548.059C339.264 548.609 365.38 560.658 388.318 571.531C409.706 581.47 428.228 590.419 451.012 590.84C473.797 591.262 490.926 583.092 511.349 573.579C532.663 563.493 556.961 551.877 589.472 552.614C621.673 553.163 647.788 565.213 670.727 576.086C692.115 586.025 710.636 594.974 733.421 595.395C756.206 595.816 773.335 587.646 793.757 578.133C814.761 567.861 838.672 556.751 870.253 556.927Z" fill="#F3F3F3"/>
<path d="M870.253 578.259L872.883 581.973C850.718 581.926 832.892 590.415 813.864 599.29C792.55 609.375 768.252 620.991 735.741 620.255C703.54 619.705 677.425 607.656 654.486 596.782C633.098 586.844 614.577 577.894 591.792 577.473C569.007 577.052 551.878 585.222 531.456 594.735C510.142 604.821 485.844 616.437 453.332 615.7C421.131 615.15 395.21 602.848 372.077 592.228C350.689 582.289 332.168 573.34 309.383 572.919C286.598 572.497 269.469 580.667 249.047 590.181C227.733 600.266 203.435 611.882 170.924 611.145C138.723 610.596 112.607 598.546 89.6686 587.673C69.4039 578.042 50.3791 569.159 28.2917 568.419L26.4758 564.824C57.9793 565.693 83.5912 577.809 105.91 588.308C127.298 598.247 145.819 607.196 168.604 607.617C191.389 608.038 208.517 599.869 228.94 590.355C250.254 580.27 274.552 568.654 307.063 569.391C339.264 569.941 365.38 581.99 388.318 592.863C409.706 602.802 428.228 611.751 451.012 612.172C473.797 612.593 490.926 604.424 511.349 594.91C532.663 584.825 556.961 573.209 589.472 573.945C621.673 574.495 647.788 586.545 670.727 597.418C692.115 607.356 710.636 616.306 733.421 616.727C756.206 617.148 773.335 608.978 793.757 599.465C814.761 589.192 838.672 578.083 870.253 578.259Z" fill="#F3F3F3"/>
<path d="M870.253 602.637L872.883 606.352C850.718 606.305 832.892 614.794 813.864 623.669C792.55 633.754 768.252 645.37 735.741 644.634C703.54 644.084 677.425 632.034 654.486 621.161C633.098 611.223 614.577 602.273 591.792 601.852C569.007 601.431 551.878 609.601 531.456 619.114C510.142 629.2 485.844 640.816 453.332 640.079C421.131 639.529 395.21 627.227 372.077 616.607C350.689 606.668 332.168 597.719 309.383 597.297C286.598 596.876 269.469 605.046 249.047 614.559C227.733 624.645 203.435 636.261 170.924 635.524C138.723 634.975 112.607 622.925 89.6686 612.052C69.4039 602.421 50.3791 593.538 28.2917 592.797L26.4758 589.203C57.9793 590.072 83.5912 602.188 105.91 612.687C127.298 622.626 145.819 631.575 168.604 631.996C191.389 632.417 208.517 624.248 228.94 614.734C250.254 604.649 274.552 593.033 307.063 593.77C339.264 594.319 365.38 606.369 388.318 617.242C409.706 627.181 428.228 636.13 451.012 636.551C473.797 636.972 490.926 628.802 511.349 619.289C532.663 609.204 556.961 597.588 589.472 598.324C621.673 598.874 647.788 610.924 670.727 621.797C692.115 631.735 710.636 640.685 733.421 641.106C756.206 641.527 773.335 633.357 793.757 623.844C814.761 613.571 838.672 602.462 870.253 602.637Z" fill="#F3F3F3"/>
<path d="M870.253 628.54L872.883 632.255C850.718 632.208 832.892 640.697 813.864 649.571C792.55 659.657 768.252 671.273 735.741 670.536C703.54 669.987 677.425 657.937 654.486 647.064C633.098 637.125 614.577 628.176 591.792 627.755C569.007 627.334 551.878 635.504 531.456 645.017C510.142 655.102 485.844 666.718 453.332 665.982C421.131 665.432 395.21 653.129 372.077 642.509C350.689 632.571 332.168 623.621 309.383 623.2C286.598 622.779 269.469 630.949 249.047 640.462C227.733 650.548 203.435 662.164 170.924 661.427C138.723 660.877 112.607 648.828 89.6686 637.955C69.4039 628.324 50.3791 619.441 28.2917 618.7L26.4758 615.106C57.9793 615.975 83.5912 628.091 105.91 638.59C127.298 648.529 145.819 657.478 168.604 657.899C191.389 658.32 208.517 650.15 228.94 640.637C250.254 630.552 274.552 618.936 307.063 619.673C339.264 620.222 365.38 632.272 388.318 643.145C409.706 653.083 428.228 662.033 451.012 662.454C473.797 662.875 490.926 654.705 511.349 645.192C532.663 635.106 556.961 623.49 589.472 624.227C621.673 624.777 647.788 636.826 670.727 647.7C692.115 657.638 710.636 666.588 733.421 667.009C756.206 667.43 773.335 659.26 793.757 649.747C814.761 639.474 838.672 628.364 870.253 628.54Z" fill="#F3F3F3"/>
<path d="M870.253 652.919L872.883 656.634C850.718 656.587 832.892 665.076 813.864 673.951C792.55 684.036 768.252 695.652 735.741 694.916C703.54 694.366 677.425 682.316 654.486 671.443C633.098 661.505 614.577 652.555 591.792 652.134C569.007 651.713 551.878 659.883 531.456 669.396C510.142 679.482 485.844 691.098 453.333 690.361C421.131 689.811 395.21 677.509 372.078 666.889C350.689 656.95 332.168 648.001 309.383 647.579C286.598 647.158 269.469 655.328 249.047 664.841C227.733 674.927 203.435 686.543 170.924 685.806C138.723 685.257 112.607 673.207 89.6687 662.334C69.404 652.703 50.3792 643.82 28.2918 643.079L26.4759 639.485C57.9794 640.354 83.5913 652.47 105.91 662.969C127.298 672.908 145.819 681.857 168.604 682.278C191.389 682.699 208.517 674.53 228.94 665.016C250.254 654.931 274.552 643.315 307.063 644.052C339.264 644.601 365.38 656.651 388.318 667.524C409.707 677.463 428.228 686.412 451.013 686.833C473.797 687.254 490.926 679.084 511.349 669.571C532.663 659.486 556.961 647.87 589.472 648.606C621.673 649.156 647.789 661.206 670.727 672.079C692.115 682.017 710.636 690.967 733.421 691.388C756.206 691.809 773.335 683.639 793.758 674.126C814.762 663.853 838.672 652.744 870.253 652.919Z" fill="#F3F3F3"/>
<path d="M870.253 674.251L872.883 677.966C850.718 677.919 832.892 686.408 813.864 695.282C792.55 705.368 768.252 716.984 735.741 716.247C703.54 715.698 677.425 703.648 654.486 692.775C633.098 682.836 614.577 673.887 591.792 673.466C569.007 673.045 551.878 681.215 531.456 690.728C510.142 700.813 485.844 712.429 453.333 711.693C421.131 711.143 395.21 698.84 372.078 688.22C350.689 678.282 332.168 669.332 309.383 668.911C286.598 668.49 269.469 676.66 249.047 686.173C227.733 696.259 203.435 707.875 170.924 707.138C138.723 706.588 112.607 694.539 89.6687 683.666C69.404 674.035 50.3792 665.152 28.2918 664.411L26.4759 660.817C57.9794 661.686 83.5913 673.802 105.91 684.301C127.298 694.24 145.819 703.189 168.604 703.61C191.389 704.031 208.517 695.861 228.94 686.348C250.254 676.262 274.552 664.647 307.063 665.383C339.264 665.933 365.38 677.983 388.318 688.856C409.707 698.794 428.228 707.744 451.013 708.165C473.797 708.586 490.926 700.416 511.349 690.903C532.663 680.817 556.961 669.201 589.472 669.938C621.673 670.488 647.789 682.537 670.727 693.411C692.115 703.349 710.636 712.299 733.421 712.72C756.206 713.141 773.335 704.971 793.758 695.458C814.762 685.185 838.672 674.075 870.253 674.251Z" fill="#F3F3F3"/>
<path d="M870.253 698.63L872.883 702.345C850.718 702.298 832.892 710.787 813.864 719.662C792.55 729.747 768.252 741.363 735.741 740.626C703.54 740.077 677.425 728.027 654.486 717.154C633.098 707.216 614.577 698.266 591.792 697.845C569.007 697.424 551.878 705.594 531.456 715.107C510.142 725.193 485.844 736.808 453.333 736.072C421.131 735.522 395.21 723.22 372.078 712.599C350.689 702.661 332.168 693.711 309.383 693.29C286.598 692.869 269.469 701.039 249.047 710.552C227.733 720.638 203.435 732.254 170.924 731.517C138.723 730.967 112.607 718.918 89.6687 708.045C69.404 698.414 50.3792 689.531 28.2918 688.79L26.4759 685.196C57.9794 686.065 83.5913 698.181 105.91 708.68C127.298 718.619 145.819 727.568 168.604 727.989C191.389 728.41 208.517 720.24 228.94 710.727C250.254 700.642 274.552 689.026 307.063 689.763C339.264 690.312 365.38 702.362 388.318 713.235C409.707 723.174 428.228 732.123 451.013 732.544C473.797 732.965 490.926 724.795 511.349 715.282C532.663 705.197 556.961 693.581 589.472 694.317C621.673 694.867 647.789 706.917 670.727 717.79C692.115 727.728 710.636 736.678 733.421 737.099C756.206 737.52 773.335 729.35 793.758 719.837C814.762 709.564 838.672 698.454 870.253 698.63Z" fill="#F3F3F3"/>
<path d="M870.253 724.533L872.883 728.248C850.718 728.201 832.892 736.69 813.864 745.564C792.55 755.65 768.252 767.266 735.741 766.529C703.54 765.979 677.425 753.93 654.486 743.057C633.098 733.118 614.577 724.169 591.792 723.748C569.007 723.327 551.878 731.496 531.456 741.009C510.142 751.095 485.844 762.711 453.333 761.974C421.131 761.425 395.21 749.122 372.078 738.502C350.689 728.563 332.168 719.614 309.383 719.193C286.598 718.772 269.469 726.942 249.047 736.455C227.733 746.541 203.435 758.157 170.924 757.42C138.723 756.87 112.607 744.821 89.6687 733.947C69.404 724.317 50.3792 715.433 28.2918 714.693L26.4759 711.099C57.9794 711.968 83.5913 724.083 105.91 734.583C127.298 744.521 145.819 753.471 168.604 753.892C191.389 754.313 208.517 746.143 228.94 736.63C250.254 726.544 274.552 714.928 307.063 715.665C339.264 716.215 365.38 728.264 388.318 739.138C409.707 749.076 428.228 758.026 451.013 758.447C473.797 758.868 490.926 750.698 511.349 741.185C532.663 731.099 556.961 719.483 589.472 720.22C621.673 720.77 647.789 732.819 670.727 743.692C692.115 753.631 710.636 762.58 733.421 763.001C756.206 763.422 773.335 755.253 793.758 745.739C814.762 735.467 838.672 724.357 870.253 724.533Z" fill="#F3F3F3"/>
<path d="M879.046 750.436L881.676 754.151C859.511 754.103 841.685 762.592 822.657 771.467C801.343 781.553 777.045 793.169 744.534 792.432C712.333 791.882 686.217 779.833 663.279 768.96C641.891 759.021 623.369 750.072 600.585 749.65C577.8 749.229 560.671 757.399 540.248 766.912C518.934 776.998 494.636 788.614 462.125 787.877C429.924 787.327 404.002 775.025 380.87 764.405C359.482 754.466 340.961 745.517 318.176 745.096C295.391 744.675 278.262 752.845 257.84 762.358C236.526 772.443 212.228 784.059 179.717 783.323C147.515 782.773 121.4 770.724 98.4614 759.85C78.1967 750.219 59.1719 741.336 37.0845 740.596L35.2686 737.001C66.7721 737.871 92.384 749.986 114.702 760.486C136.091 770.424 154.612 779.373 177.397 779.794C200.182 780.216 217.31 772.046 237.733 762.533C259.047 752.447 283.345 740.831 315.856 741.568C348.057 742.118 374.172 754.167 397.111 765.04C418.499 774.979 437.02 783.928 459.805 784.349C482.59 784.771 499.719 776.601 520.141 767.088C541.455 757.002 565.753 745.386 598.264 746.123C630.466 746.672 656.581 758.722 679.52 769.595C700.908 779.534 719.429 788.483 742.214 788.904C764.999 789.325 782.128 781.155 802.55 771.642C823.554 761.37 847.465 750.26 879.046 750.436Z" fill="#F3F3F3"/>
<path d="M879.046 771.767L881.676 775.482C859.511 775.435 841.685 783.924 822.657 792.799C801.343 802.884 777.045 814.5 744.534 813.763C712.333 813.214 686.217 801.164 663.279 790.291C641.891 780.352 623.369 771.403 600.585 770.982C577.8 770.561 560.671 778.731 540.248 788.244C518.934 798.329 494.636 809.945 462.125 809.209C429.924 808.659 404.002 796.357 380.87 785.736C359.482 775.798 340.961 766.848 318.176 766.427C295.391 766.006 278.262 774.176 257.84 783.689C236.526 793.775 212.228 805.391 179.717 804.654C147.515 804.104 121.4 792.055 98.4614 781.182C78.1967 771.551 59.1719 762.668 37.0845 761.927L35.2686 758.333C66.7721 759.202 92.384 771.318 114.702 781.817C136.091 791.756 154.612 800.705 177.397 801.126C200.182 801.547 217.31 793.377 237.733 783.864C259.047 773.779 283.345 762.163 315.856 762.9C348.057 763.449 374.172 775.499 397.111 786.372C418.499 796.311 437.02 805.26 459.805 805.681C482.59 806.102 499.719 797.932 520.141 788.419C541.455 778.333 565.753 766.718 598.264 767.454C630.466 768.004 656.581 780.053 679.52 790.927C700.908 800.865 719.429 809.815 742.214 810.236C764.999 810.657 782.128 802.487 802.55 792.974C823.554 782.701 847.465 771.591 879.046 771.767Z" fill="#F3F3F3"/>
<path d="M879.046 796.147L881.676 799.861C859.511 799.814 841.685 808.303 822.657 817.178C801.343 827.263 777.045 838.879 744.534 838.143C712.333 837.593 686.217 825.543 663.279 814.67C641.891 804.732 623.369 795.782 600.585 795.361C577.8 794.94 560.671 803.11 540.248 812.623C518.934 822.709 494.636 834.325 462.125 833.588C429.924 833.038 404.002 820.736 380.87 810.116C359.482 800.177 340.961 791.228 318.176 790.806C295.391 790.385 278.262 798.555 257.84 808.068C236.526 818.154 212.228 829.77 179.717 829.033C147.515 828.484 121.4 816.434 98.4614 805.561C78.1967 795.93 59.1719 787.047 37.0845 786.306L35.2686 782.712C66.7721 783.581 92.384 795.697 114.702 806.196C136.091 816.135 154.612 825.084 177.397 825.505C200.182 825.926 217.31 817.757 237.733 808.243C259.047 798.158 283.345 786.542 315.856 787.279C348.057 787.828 374.172 799.878 397.111 810.751C418.499 820.69 437.02 829.639 459.805 830.06C482.59 830.481 499.719 822.311 520.141 812.798C541.455 802.713 565.753 791.097 598.264 791.833C630.466 792.383 656.581 804.433 679.52 815.306C700.908 825.244 719.429 834.194 742.214 834.615C764.999 835.036 782.128 826.866 802.55 817.353C823.554 807.08 847.465 795.971 879.046 796.147Z" fill="#F3F3F3"/>
<path d="M879.046 822.05L881.676 825.764C859.511 825.717 841.685 834.206 822.657 843.081C801.343 853.166 777.045 864.782 744.534 864.046C712.333 863.496 686.217 851.447 663.279 840.573C641.891 830.635 623.369 821.685 600.585 821.264C577.8 820.843 560.671 829.013 540.248 838.526C518.934 848.612 494.636 860.228 462.125 859.491C429.924 858.941 404.002 846.639 380.87 836.019C359.482 826.08 340.961 817.131 318.176 816.71C295.391 816.289 278.262 824.458 257.84 833.972C236.526 844.057 212.228 855.673 179.717 854.936C147.515 854.387 121.4 842.337 98.4614 831.464C78.1967 821.833 59.1719 812.95 37.0845 812.21L35.2686 808.615C66.7721 809.484 92.384 821.6 114.702 832.099C136.091 842.038 154.612 850.987 177.397 851.408C200.182 851.829 217.31 843.66 237.733 834.146C259.047 824.061 283.345 812.445 315.856 813.182C348.057 813.732 374.172 825.781 397.111 836.654C418.499 846.593 437.02 855.542 459.805 855.963C482.59 856.384 499.719 848.215 520.141 838.701C541.455 828.616 565.753 817 598.264 817.736C630.466 818.286 656.581 830.336 679.52 841.209C700.908 851.147 719.429 860.097 742.214 860.518C764.999 860.939 782.128 852.769 802.55 843.256C823.554 832.983 847.465 821.874 879.046 822.05Z" fill="#F3F3F3"/>
<path d="M873.77 846.428L876.4 850.143C854.235 850.096 836.409 858.585 817.381 867.46C796.067 877.545 771.769 889.161 739.258 888.425C707.057 887.875 680.942 875.825 658.003 864.952C636.615 855.014 618.094 846.064 595.309 845.643C572.524 845.222 555.395 853.392 534.973 862.905C513.659 872.991 489.361 884.607 456.85 883.87C424.648 883.32 398.727 871.018 375.595 860.398C354.206 850.459 335.685 841.51 312.9 841.088C290.115 840.667 272.986 848.837 252.564 858.35C231.25 868.436 206.952 880.052 174.441 879.315C142.24 878.766 116.124 866.716 93.1857 855.843C72.921 846.212 53.8962 837.329 31.8088 836.588L29.9929 832.994C61.4964 833.863 87.1083 845.979 109.427 856.478C130.815 866.417 149.336 875.366 172.121 875.787C194.906 876.208 212.034 868.039 232.457 858.525C253.771 848.44 278.069 836.824 310.58 837.561C342.781 838.11 368.897 850.16 391.835 861.033C413.224 870.972 431.745 879.921 454.53 880.342C477.314 880.763 494.443 872.593 514.866 863.08C536.18 852.995 560.478 841.379 592.989 842.115C625.19 842.665 651.306 854.715 674.244 865.588C695.632 875.526 714.153 884.476 736.938 884.897C759.723 885.318 776.852 877.148 797.275 867.635C818.279 857.362 842.189 846.253 873.77 846.428Z" fill="#F3F3F3"/>
<path d="M873.77 870.808L876.4 874.522C854.235 874.475 836.409 882.964 817.381 891.839C796.067 901.924 771.769 913.54 739.258 912.804C707.057 912.254 680.942 900.205 658.003 889.331C636.615 879.393 618.094 870.443 595.309 870.022C572.524 869.601 555.395 877.771 534.973 887.284C513.659 897.37 489.361 908.986 456.85 908.249C424.648 907.699 398.727 895.397 375.595 884.777C354.206 874.838 335.685 865.889 312.9 865.468C290.115 865.047 272.986 873.216 252.564 882.73C231.25 892.815 206.952 904.431 174.441 903.694C142.24 903.145 116.124 891.095 93.1857 880.222C72.921 870.591 53.8962 861.708 31.8088 860.968L29.9929 857.373C61.4964 858.242 87.1083 870.358 109.427 880.857C130.815 890.796 149.336 899.745 172.121 900.166C194.906 900.587 212.034 892.418 232.457 882.905C253.771 872.819 278.069 861.203 310.58 861.94C342.781 862.49 368.897 874.539 391.835 885.412C413.224 895.351 431.745 904.3 454.53 904.721C477.314 905.142 494.443 896.973 514.866 887.459C536.18 877.374 560.478 865.758 592.989 866.495C625.19 867.044 651.306 879.094 674.244 889.967C695.632 899.906 714.153 908.855 736.938 909.276C759.723 909.697 776.852 901.527 797.275 892.014C818.279 881.741 842.189 870.632 873.77 870.808Z" fill="#F3F3F3"/>
<path d="M873.77 896.71L876.4 900.425C854.235 900.378 836.409 908.867 817.381 917.742C796.067 927.827 771.769 939.443 739.258 938.707C707.057 938.157 680.942 926.107 658.003 915.234C636.615 905.296 618.094 896.346 595.309 895.925C572.524 895.504 555.395 903.674 534.973 913.187C513.659 923.273 489.361 934.889 456.85 934.152C424.648 933.602 398.727 921.3 375.595 910.68C354.206 900.741 335.685 891.792 312.9 891.37C290.115 890.949 272.986 899.119 252.564 908.632C231.25 918.718 206.952 930.334 174.441 929.597C142.24 929.048 116.124 916.998 93.1857 906.125C72.921 896.494 53.8962 887.611 31.8088 886.87L29.9929 883.276C61.4964 884.145 87.1083 896.261 109.427 906.76C130.815 916.699 149.336 925.648 172.121 926.069C194.906 926.49 212.034 918.321 232.457 908.807C253.771 898.722 278.069 887.106 310.58 887.843C342.781 888.392 368.897 900.442 391.835 911.315C413.224 921.254 431.745 930.203 454.53 930.624C477.314 931.045 494.443 922.875 514.866 913.362C536.18 903.277 560.478 891.661 592.989 892.397C625.19 892.947 651.306 904.997 674.244 915.87C695.632 925.808 714.153 934.758 736.938 935.179C759.723 935.6 776.852 927.43 797.275 917.917C818.279 907.644 842.189 896.535 873.77 896.71Z" fill="#F3F3F3"/>
<path d="M882.563 922.613L885.193 926.328C863.028 926.281 845.202 934.77 826.174 943.644C804.86 953.73 780.562 965.346 748.051 964.609C715.85 964.059 689.734 952.01 666.796 941.137C645.408 931.198 626.886 922.249 604.102 921.828C581.317 921.407 564.188 929.576 543.765 939.09C522.451 949.175 498.153 960.791 465.642 960.054C433.441 959.505 407.519 947.202 384.387 936.582C362.999 926.644 344.478 917.694 321.693 917.273C298.908 916.852 281.779 925.022 261.357 934.535C240.043 944.621 215.745 956.237 183.233 955.5C151.032 954.95 124.917 942.901 101.978 932.028C81.7137 922.397 62.6889 913.513 40.6015 912.773L38.7856 909.179C70.2891 910.048 95.901 922.163 118.219 932.663C139.608 942.601 158.129 951.551 180.914 951.972C203.698 952.393 220.827 944.223 241.25 934.71C262.564 924.624 286.862 913.009 319.373 913.745C351.574 914.295 377.689 926.344 400.628 937.218C422.016 947.156 440.537 956.106 463.322 956.527C486.107 956.948 503.236 948.778 523.658 939.265C544.972 929.179 569.27 917.563 601.781 918.3C633.983 918.85 660.098 930.899 683.037 941.772C704.425 951.711 722.946 960.66 745.731 961.081C768.516 961.502 785.645 953.333 806.067 943.819C827.071 933.547 850.982 922.437 882.563 922.613Z" fill="#F3F3F3"/>
<path d="M882.563 943.945L885.193 947.66C863.028 947.612 845.202 956.101 826.174 964.976C804.86 975.062 780.562 986.678 748.051 985.941C715.85 985.391 689.734 973.342 666.796 962.469C645.408 952.53 626.886 943.581 604.102 943.16C581.317 942.738 564.188 950.908 543.765 960.421C522.451 970.507 498.153 982.123 465.642 981.386C433.441 980.836 407.519 968.534 384.387 957.914C362.999 947.975 344.478 939.026 321.693 938.605C298.908 938.184 281.779 946.354 261.357 955.867C240.043 965.952 215.745 977.568 183.233 976.832C151.032 976.282 124.917 964.233 101.978 953.359C81.7137 943.728 62.6889 934.845 40.6015 934.105L38.7856 930.51C70.2891 931.38 95.901 943.495 118.219 953.995C139.608 963.933 158.129 972.882 180.914 973.303C203.698 973.725 220.827 965.555 241.25 956.042C262.564 945.956 286.862 934.34 319.373 935.077C351.574 935.627 377.689 947.676 400.628 958.549C422.016 968.488 440.537 977.437 463.322 977.859C486.107 978.28 503.236 970.11 523.658 960.597C544.972 950.511 569.27 938.895 601.781 939.632C633.983 940.182 660.098 952.231 683.037 963.104C704.425 973.043 722.946 981.992 745.731 982.413C768.516 982.834 785.645 974.664 806.067 965.151C827.071 954.879 850.982 943.769 882.563 943.945Z" fill="#F3F3F3"/>
<path d="M882.563 968.324L885.193 972.039C863.028 971.992 845.202 980.481 826.174 989.355C804.86 999.441 780.562 1011.06 748.051 1010.32C715.85 1009.77 689.734 997.721 666.796 986.848C645.408 976.909 626.886 967.96 604.102 967.539C581.317 967.118 564.188 975.287 543.765 984.8C522.451 994.886 498.153 1006.5 465.642 1005.77C433.441 1005.22 407.519 992.913 384.387 982.293C362.999 972.354 344.478 963.405 321.693 962.984C298.908 962.563 281.779 970.733 261.357 980.246C240.043 990.332 215.745 1001.95 183.233 1001.21C151.032 1000.66 124.917 988.612 101.978 977.739C81.7137 968.108 62.6889 959.224 40.6015 958.484L38.7856 954.89C70.2891 955.759 95.901 967.874 118.219 978.374C139.608 988.312 158.129 997.262 180.914 997.683C203.698 998.104 220.827 989.934 241.25 980.421C262.564 970.335 286.862 958.719 319.373 959.456C351.574 960.006 377.689 972.055 400.628 982.929C422.016 992.867 440.537 1001.82 463.322 1002.24C486.107 1002.66 503.236 994.489 523.658 984.976C544.972 974.89 569.27 963.274 601.781 964.011C633.983 964.561 660.098 976.61 683.037 987.483C704.425 997.422 722.946 1006.37 745.731 1006.79C768.516 1007.21 785.645 999.044 806.067 989.53C827.071 979.258 850.982 968.148 882.563 968.324Z" fill="#F3F3F3"/>
<path d="M882.563 994.227L885.193 997.942C863.028 997.894 845.202 1006.38 826.174 1015.26C804.86 1025.34 780.562 1036.96 748.051 1036.22C715.85 1035.67 689.734 1023.62 666.796 1012.75C645.408 1002.81 626.886 993.863 604.102 993.442C581.317 993.02 564.188 1001.19 543.765 1010.7C522.451 1020.79 498.153 1032.4 465.642 1031.67C433.441 1031.12 407.519 1018.82 384.387 1008.2C362.999 998.257 344.478 989.308 321.693 988.887C298.908 988.466 281.779 996.636 261.357 1006.15C240.043 1016.23 215.745 1027.85 183.233 1027.11C151.032 1026.56 124.917 1014.51 101.978 1003.64C81.7137 994.01 62.6889 985.127 40.6015 984.387L38.7856 980.792C70.2891 981.662 95.901 993.777 118.219 1004.28C139.608 1014.22 158.129 1023.16 180.914 1023.59C203.698 1024.01 220.827 1015.84 241.25 1006.32C262.564 996.238 286.862 984.622 319.373 985.359C351.574 985.909 377.689 997.958 400.628 1008.83C422.016 1018.77 440.537 1027.72 463.322 1028.14C486.107 1028.56 503.236 1020.39 523.658 1010.88C544.972 1000.79 569.27 989.177 601.781 989.914C633.983 990.464 660.098 1002.51 683.037 1013.39C704.425 1023.32 722.946 1032.27 745.731 1032.7C768.516 1033.12 785.645 1024.95 806.067 1015.43C827.071 1005.16 850.982 994.051 882.563 994.227Z" fill="#F3F3F3"/>
<path d="M879.046 1018.61L881.676 1022.32C859.511 1022.27 841.685 1030.76 822.657 1039.64C801.343 1049.72 777.045 1061.34 744.534 1060.6C712.333 1060.05 686.217 1048 663.279 1037.13C641.891 1027.19 623.369 1018.24 600.585 1017.82C577.8 1017.4 560.671 1025.57 540.248 1035.08C518.934 1045.17 494.636 1056.78 462.125 1056.05C429.924 1055.5 404.002 1043.2 380.87 1032.58C359.482 1022.64 340.961 1013.69 318.176 1013.27C295.391 1012.84 278.262 1021.01 257.84 1030.53C236.526 1040.61 212.228 1052.23 179.717 1051.49C147.515 1050.94 121.4 1038.89 98.4614 1028.02C78.1967 1018.39 59.1719 1009.51 37.0845 1008.77L35.2686 1005.17C66.7721 1006.04 92.384 1018.16 114.702 1028.66C136.091 1038.59 154.612 1047.54 177.397 1047.96C200.182 1048.39 217.31 1040.22 237.733 1030.7C259.047 1020.62 283.345 1009 315.856 1009.74C348.057 1010.29 374.172 1022.34 397.111 1033.21C418.499 1043.15 437.02 1052.1 459.805 1052.52C482.59 1052.94 499.719 1044.77 520.141 1035.26C541.455 1025.17 565.753 1013.56 598.264 1014.29C630.466 1014.84 656.581 1026.89 679.52 1037.77C700.908 1047.7 719.429 1056.65 742.214 1057.07C764.999 1057.5 782.128 1049.33 802.55 1039.81C823.554 1029.54 847.465 1018.43 879.046 1018.61Z" fill="#F3F3F3"/>
<path d="M879.046 1042.98L881.676 1046.7C859.511 1046.65 841.685 1055.14 822.657 1064.02C801.343 1074.1 777.045 1085.72 744.534 1084.98C712.333 1084.43 686.217 1072.38 663.279 1061.51C641.891 1051.57 623.369 1042.62 600.585 1042.2C577.8 1041.78 560.671 1049.95 540.248 1059.46C518.934 1069.55 494.636 1081.16 462.125 1080.43C429.924 1079.88 404.002 1067.57 380.87 1056.95C359.482 1047.02 340.961 1038.07 318.176 1037.64C295.391 1037.22 278.262 1045.39 257.84 1054.91C236.526 1064.99 212.228 1076.61 179.717 1075.87C147.515 1075.32 121.4 1063.27 98.4614 1052.4C78.1967 1042.77 59.1719 1033.89 37.0845 1033.14L35.2686 1029.55C66.7721 1030.42 92.384 1042.54 114.702 1053.03C136.091 1062.97 154.612 1071.92 177.397 1072.34C200.182 1072.76 217.31 1064.59 237.733 1055.08C259.047 1045 283.345 1033.38 315.856 1034.12C348.057 1034.67 374.172 1046.72 397.111 1057.59C418.499 1067.53 437.02 1076.48 459.805 1076.9C482.59 1077.32 499.719 1069.15 520.141 1059.64C541.455 1049.55 565.753 1037.94 598.264 1038.67C630.466 1039.22 656.581 1051.27 679.52 1062.14C700.908 1072.08 719.429 1081.03 742.214 1081.45C764.999 1081.87 782.128 1073.7 802.55 1064.19C823.554 1053.92 847.465 1042.81 879.046 1042.98Z" fill="#F3F3F3"/>
<path d="M879.046 1068.89L881.676 1072.6C859.511 1072.56 841.685 1081.04 822.657 1089.92C801.343 1100 777.045 1111.62 744.534 1110.88C712.333 1110.33 686.217 1098.28 663.279 1087.41C641.891 1077.47 623.369 1068.52 600.585 1068.1C577.8 1067.68 560.671 1075.85 540.248 1085.36C518.934 1095.45 494.636 1107.07 462.125 1106.33C429.924 1105.78 404.002 1093.48 380.87 1082.86C359.482 1072.92 340.961 1063.97 318.176 1063.55C295.391 1063.13 278.262 1071.3 257.84 1080.81C236.526 1090.9 212.228 1102.51 179.717 1101.77C147.515 1101.22 121.4 1089.18 98.4614 1078.3C78.1967 1068.67 59.1719 1059.79 37.0845 1059.05L35.2686 1055.45C66.7721 1056.32 92.384 1068.44 114.702 1078.94C136.091 1088.88 154.612 1097.83 177.397 1098.25C200.182 1098.67 217.31 1090.5 237.733 1080.98C259.047 1070.9 283.345 1059.28 315.856 1060.02C348.057 1060.57 374.172 1072.62 397.111 1083.49C418.499 1093.43 437.02 1102.38 459.805 1102.8C482.59 1103.22 499.719 1095.05 520.141 1085.54C541.455 1075.45 565.753 1063.84 598.264 1064.57C630.466 1065.12 656.581 1077.17 679.52 1088.05C700.908 1097.99 719.429 1106.94 742.214 1107.36C764.999 1107.78 782.128 1099.61 802.55 1090.09C823.554 1079.82 847.465 1068.71 879.046 1068.89Z" fill="#F3F3F3"/>
<path d="M873.77 1093.27L876.4 1096.98C854.235 1096.93 836.409 1105.42 817.381 1114.3C796.067 1124.38 771.769 1136 739.258 1135.26C707.057 1134.71 680.942 1122.66 658.003 1111.79C636.615 1101.85 618.094 1092.9 595.309 1092.48C572.524 1092.06 555.395 1100.23 534.973 1109.74C513.659 1119.83 489.361 1131.45 456.85 1130.71C424.648 1130.16 398.727 1117.86 375.595 1107.24C354.206 1097.3 335.685 1088.35 312.9 1087.93C290.115 1087.51 272.986 1095.68 252.564 1105.19C231.25 1115.27 206.952 1126.89 174.441 1126.15C142.24 1125.6 116.124 1113.55 93.1857 1102.68C72.921 1093.05 53.8962 1084.17 31.8088 1083.43L29.9929 1079.83C61.4964 1080.7 87.1083 1092.82 109.427 1103.32C130.815 1113.26 149.336 1122.2 172.121 1122.63C194.906 1123.05 212.034 1114.88 232.457 1105.36C253.771 1095.28 278.069 1083.66 310.58 1084.4C342.781 1084.95 368.897 1097 391.835 1107.87C413.224 1117.81 431.745 1126.76 454.53 1127.18C477.314 1127.6 494.443 1119.43 514.866 1109.92C536.18 1099.83 560.478 1088.22 592.989 1088.95C625.19 1089.5 651.306 1101.55 674.244 1112.43C695.632 1122.37 714.153 1131.31 736.938 1131.74C759.723 1132.16 776.852 1123.99 797.275 1114.47C818.279 1104.2 842.189 1093.09 873.77 1093.27Z" fill="#F3F3F3"/>
<path d="M873.77 1117.65L876.4 1121.36C854.235 1121.31 836.409 1129.8 817.381 1138.68C796.067 1148.76 771.769 1160.38 739.258 1159.64C707.057 1159.09 680.942 1147.04 658.003 1136.17C636.615 1126.23 618.094 1117.28 595.309 1116.86C572.524 1116.44 555.395 1124.61 534.973 1134.12C513.659 1144.21 489.361 1155.82 456.85 1155.09C424.648 1154.54 398.727 1142.24 375.595 1131.62C354.206 1121.68 335.685 1112.73 312.9 1112.31C290.115 1111.88 272.986 1120.05 252.564 1129.57C231.25 1139.65 206.952 1151.27 174.441 1150.53C142.24 1149.98 116.124 1137.93 93.1857 1127.06C72.921 1117.43 53.8962 1108.55 31.8088 1107.81L29.9929 1104.21C61.4964 1105.08 87.1083 1117.2 109.427 1127.7C130.815 1137.63 149.336 1146.58 172.121 1147C194.906 1147.43 212.034 1139.26 232.457 1129.74C253.771 1119.66 278.069 1108.04 310.58 1108.78C342.781 1109.33 368.897 1121.38 391.835 1132.25C413.224 1142.19 431.745 1151.14 454.53 1151.56C477.314 1151.98 494.443 1143.81 514.866 1134.3C536.18 1124.21 560.478 1112.6 592.989 1113.33C625.19 1113.88 651.306 1125.93 674.244 1136.81C695.632 1146.74 714.153 1155.69 736.938 1156.11C759.723 1156.54 776.852 1148.37 797.275 1138.85C818.279 1128.58 842.189 1117.47 873.77 1117.65Z" fill="#F3F3F3"/>
<path d="M873.77 1143.55L876.4 1147.26C854.235 1147.22 836.409 1155.71 817.381 1164.58C796.067 1174.67 771.769 1186.28 739.258 1185.54C707.057 1185 680.942 1172.95 658.003 1162.07C636.615 1152.13 618.094 1143.18 595.309 1142.76C572.524 1142.34 555.395 1150.51 534.973 1160.03C513.659 1170.11 489.361 1181.73 456.85 1180.99C424.648 1180.44 398.727 1168.14 375.595 1157.52C354.206 1147.58 335.685 1138.63 312.9 1138.21C290.115 1137.79 272.986 1145.96 252.564 1155.47C231.25 1165.56 206.952 1177.17 174.441 1176.44C142.24 1175.89 116.124 1163.84 93.1857 1152.96C72.921 1143.33 53.8962 1134.45 31.8088 1133.71L29.9929 1130.11C61.4964 1130.98 87.1083 1143.1 109.427 1153.6C130.815 1163.54 149.336 1172.49 172.121 1172.91C194.906 1173.33 212.034 1165.16 232.457 1155.65C253.771 1145.56 278.069 1133.94 310.58 1134.68C342.781 1135.23 368.897 1147.28 391.835 1158.15C413.224 1168.09 431.745 1177.04 454.53 1177.46C477.314 1177.88 494.443 1169.71 514.866 1160.2C536.18 1150.11 560.478 1138.5 592.989 1139.24C625.19 1139.79 651.306 1151.83 674.244 1162.71C695.632 1172.65 714.153 1181.6 736.938 1182.02C759.723 1182.44 776.852 1174.27 797.275 1164.76C818.279 1154.48 842.189 1143.37 873.77 1143.55Z" fill="#F3F3F3"/>
<path d="M882.563 1169.45L885.193 1173.17C863.028 1173.12 845.202 1181.61 826.174 1190.48C804.86 1200.57 780.562 1212.18 748.051 1211.45C715.85 1210.9 689.734 1198.85 666.796 1187.98C645.408 1178.04 626.886 1169.09 604.102 1168.67C581.317 1168.25 564.188 1176.41 543.765 1185.93C522.451 1196.01 498.153 1207.63 465.642 1206.89C433.441 1206.34 407.519 1194.04 384.387 1183.42C362.999 1173.48 344.478 1164.53 321.693 1164.11C298.908 1163.69 281.779 1171.86 261.357 1181.37C240.043 1191.46 215.745 1203.08 183.233 1202.34C151.032 1201.79 124.917 1189.74 101.978 1178.87C81.7137 1169.24 62.6889 1160.35 40.6015 1159.61L38.7856 1156.02C70.2891 1156.89 95.901 1169 118.219 1179.5C139.608 1189.44 158.129 1198.39 180.914 1198.81C203.698 1199.23 220.827 1191.06 241.25 1181.55C262.564 1171.46 286.862 1159.85 319.373 1160.58C351.574 1161.13 377.689 1173.18 400.628 1184.06C422.016 1193.99 440.537 1202.94 463.322 1203.37C486.107 1203.79 503.236 1195.62 523.658 1186.1C544.972 1176.02 569.27 1164.4 601.781 1165.14C633.983 1165.69 660.098 1177.74 683.037 1188.61C704.425 1198.55 722.946 1207.5 745.731 1207.92C768.516 1208.34 785.645 1200.17 806.067 1190.66C827.071 1180.39 850.982 1169.28 882.563 1169.45Z" fill="#F3F3F3"/>
<path d="M882.563 1190.78L885.193 1194.5C863.028 1194.45 845.202 1202.94 826.174 1211.81C804.86 1221.9 780.562 1233.52 748.051 1232.78C715.85 1232.23 689.734 1220.18 666.796 1209.31C645.408 1199.37 626.886 1190.42 604.102 1190C581.317 1189.58 564.188 1197.75 543.765 1207.26C522.451 1217.35 498.153 1228.96 465.642 1228.22C433.441 1227.67 407.519 1215.37 384.387 1204.75C362.999 1194.81 344.478 1185.86 321.693 1185.44C298.908 1185.02 281.779 1193.19 261.357 1202.71C240.043 1212.79 215.745 1224.41 183.233 1223.67C151.032 1223.12 124.917 1211.07 101.978 1200.2C81.7137 1190.57 62.6889 1181.68 40.6015 1180.94L38.7856 1177.35C70.2891 1178.22 95.901 1190.33 118.219 1200.83C139.608 1210.77 158.129 1219.72 180.914 1220.14C203.698 1220.56 220.827 1212.39 241.25 1202.88C262.564 1192.79 286.862 1181.18 319.373 1181.92C351.574 1182.47 377.689 1194.51 400.628 1205.39C422.016 1215.33 440.537 1224.28 463.322 1224.7C486.107 1225.12 503.236 1216.95 523.658 1207.44C544.972 1197.35 569.27 1185.73 601.781 1186.47C633.983 1187.02 660.098 1199.07 683.037 1209.94C704.425 1219.88 722.946 1228.83 745.731 1229.25C768.516 1229.67 785.645 1221.5 806.067 1211.99C827.071 1201.72 850.982 1190.61 882.563 1190.78Z" fill="#F3F3F3"/>
<path d="M882.563 1215.16L885.193 1218.88C863.028 1218.83 845.202 1227.32 826.174 1236.19C804.86 1246.28 780.562 1257.9 748.051 1257.16C715.85 1256.61 689.734 1244.56 666.796 1233.69C645.408 1223.75 626.886 1214.8 604.102 1214.38C581.317 1213.96 564.188 1222.13 543.765 1231.64C522.451 1241.72 498.153 1253.34 465.642 1252.6C433.441 1252.05 407.519 1239.75 384.387 1229.13C362.999 1219.19 344.478 1210.24 321.693 1209.82C298.908 1209.4 281.779 1217.57 261.357 1227.08C240.043 1237.17 215.745 1248.79 183.233 1248.05C151.032 1247.5 124.917 1235.45 101.978 1224.58C81.7137 1214.95 62.6889 1206.06 40.6015 1205.32L38.7856 1201.73C70.2891 1202.6 95.901 1214.71 118.219 1225.21C139.608 1235.15 158.129 1244.1 180.914 1244.52C203.698 1244.94 220.827 1236.77 241.25 1227.26C262.564 1217.17 286.862 1205.56 319.373 1206.29C351.574 1206.84 377.689 1218.89 400.628 1229.77C422.016 1239.71 440.537 1248.66 463.322 1249.08C486.107 1249.5 503.236 1241.33 523.658 1231.81C544.972 1221.73 569.27 1210.11 601.781 1210.85C633.983 1211.4 660.098 1223.45 683.037 1234.32C704.425 1244.26 722.946 1253.21 745.731 1253.63C768.516 1254.05 785.645 1245.88 806.067 1236.37C827.071 1226.1 850.982 1214.99 882.563 1215.16Z" fill="#F3F3F3"/>
<path d="M882.563 1241.06L885.193 1244.78C863.028 1244.73 845.202 1253.22 826.174 1262.1C804.86 1272.18 780.562 1283.8 748.051 1283.06C715.85 1282.51 689.734 1270.46 666.796 1259.59C645.408 1249.65 626.886 1240.7 604.102 1240.28C581.317 1239.86 564.188 1248.03 543.765 1257.54C522.451 1267.63 498.153 1279.24 465.642 1278.51C433.441 1277.96 407.519 1265.65 384.387 1255.03C362.999 1245.1 344.478 1236.15 321.693 1235.72C298.908 1235.3 281.779 1243.47 261.357 1252.99C240.043 1263.07 215.745 1274.69 183.233 1273.95C151.032 1273.4 124.917 1261.35 101.978 1250.48C81.7137 1240.85 62.6889 1231.97 40.6015 1231.22L38.7856 1227.63C70.2891 1228.5 95.901 1240.62 118.219 1251.11C139.608 1261.05 158.129 1270 180.914 1270.42C203.698 1270.84 220.827 1262.68 241.25 1253.16C262.564 1243.08 286.862 1231.46 319.373 1232.2C351.574 1232.75 377.689 1244.8 400.628 1255.67C422.016 1265.61 440.537 1274.56 463.322 1274.98C486.107 1275.4 503.236 1267.23 523.658 1257.72C544.972 1247.63 569.27 1236.02 601.781 1236.75C633.983 1237.3 660.098 1249.35 683.037 1260.22C704.425 1270.16 722.946 1279.11 745.731 1279.53C768.516 1279.95 785.645 1271.78 806.067 1262.27C827.071 1252 850.982 1240.89 882.563 1241.06Z" fill="#F3F3F3"/>
</g>
</g>
</svg>
